<svg xmlns="http://www.w3.org/2000/svg" width="88" height="81" viewBox="0 0 88 81" fill="none"><path d="M20.4676 20.1696C21.0119 20.0421 21.5714 19.9912 22.1298 20.0185C22.7163 20.0513 23.2844 20.2359 23.7782 20.5542C24.2453 20.4443 24.7123 20.3207 25.1519 20.2383C24.0431 19.0052 22.7217 17.9815 21.2506 17.2161C19.3849 16.2867 17.5977 15.2071 15.9069 13.988C13.9438 12.541 11.8071 11.3457 9.54675 10.4301C9.16333 10.2426 8.73499 10.1664 8.31043 10.2103C7.26643 10.3752 7.00543 11.845 7.32137 12.8341C7.79608 13.877 8.55253 14.7666 9.50554 15.4029C12.1155 17.3535 14.602 18.5349 16.8273 20.8976L17.363 20.774C18.3933 20.5954 19.4236 20.3756 20.4676 20.1696Z" fill="white"></path><path d="M29.0807 27.56C30.613 26.6938 32.3237 26.1909 34.081 26.0902C35.7844 25.8841 37.4877 25.8292 39.1499 25.5956C39.8944 25.5022 40.6296 25.3459 41.3478 25.1286C38.0951 24.4837 34.8841 23.6442 31.732 22.6147C30.8253 22.3262 29.9187 22.0103 28.9846 21.6806C28.1343 21.3208 27.251 21.0448 26.3471 20.8564C25.4385 20.8259 24.5317 20.9561 23.6684 21.241C22.7618 21.4746 21.8689 21.763 20.921 22.079C19.9732 22.3949 19.149 22.7246 18.1737 22.9856L15.4263 23.7686C14.5196 24.0296 13.5993 24.3044 12.6789 24.6066C11.8283 24.929 11.0387 25.3935 10.3436 25.9803L6.04395 29.703L4.94502 30.6096C4.58663 30.879 4.2512 31.1776 3.94221 31.5025C3.68635 31.8301 3.56369 32.2422 3.59879 32.6564C3.70738 33.0988 3.94835 33.4976 4.28953 33.7995C4.63071 34.1014 5.05587 34.2921 5.50824 34.346C7.13325 34.3281 8.69226 33.7006 9.87656 32.5877C12.1844 30.9393 13.3657 29.4832 14.3411 29.3183C15.0828 29.2084 23.5036 28.3293 24.1217 28.2606C24.7399 28.1919 25.4954 28.8101 26.0861 29.4832L26.8004 29.0024C27.6933 28.604 28.3389 28.0545 29.0807 27.56Z" fill="white"></path><path d="M4.78016 30.2111L6.79945 28.5627C7.66487 27.8346 10.2062 25.623 10.2062 25.623C10.9386 24.9686 11.7802 24.4479 12.6926 24.0845C13.5992 23.7548 14.5059 23.48 15.44 23.2053L18.1874 22.3948C19.0802 22.1476 19.9732 21.7904 20.8661 21.4882C21.5254 21.2547 22.1711 21.0349 22.8304 20.8425C22.107 20.641 21.3423 20.641 20.6188 20.8425L17.5143 21.4195C16.484 21.6256 15.4537 21.8316 14.4235 22.0651L11.3189 22.6696C9.2408 22.9905 7.26572 23.79 5.54943 25.0048C4.69483 25.7401 3.80057 26.4279 2.87071 27.0654C1.64813 28.0269 0.549164 28.7275 0.453006 28.8099C0.310969 28.9312 0.19693 29.0818 0.118722 29.2513C0.0405141 29.4209 0 29.6054 0 29.7921C0 29.9789 0.0405141 30.1634 0.118722 30.3329C0.19693 30.5025 0.310969 30.6531 0.453006 30.7743C0.681435 31.0272 0.961599 31.228 1.27446 31.3631C1.58732 31.4982 1.92558 31.5645 2.26629 31.5573C2.73118 31.5805 3.19646 31.52 3.63998 31.3788C3.65781 31.3392 3.6809 31.3022 3.70865 31.2689C4.01558 30.8688 4.37616 30.5129 4.78016 30.2111Z" fill="white"></path><path d="M87.9022 67.8913C81.8031 62.7262 80.553 56.2287 76.9127 52.7807C74.9772 51.1369 72.925 49.6357 70.7723 48.2887C63.4368 43.0962 58.2031 35.4997 52.8045 28.3015C51.7953 26.9329 50.5019 25.7988 49.0131 24.9772C47.4635 24.3993 45.7503 24.4436 44.2326 25.1008C42.6279 25.7321 40.9611 26.1926 39.2599 26.4745C37.5428 26.6943 35.8257 26.7218 34.1635 26.9004C32.5047 26.9952 30.8891 27.4648 29.438 28.2741C28.7511 28.7136 28.0643 29.2631 27.3637 29.7439L25.2345 31.1176C23.792 31.968 22.4627 32.9973 21.2783 34.1809C20.7507 34.8089 20.2903 35.4903 19.9046 36.214C19.4755 36.9782 18.9389 37.6767 18.3111 38.2883C17.7287 38.8549 17.2375 39.5082 16.855 40.2252C16.7909 40.377 16.7627 40.5415 16.7726 40.706C16.8056 40.877 16.8709 41.0401 16.9649 41.1868C17.1517 41.4867 17.4468 41.7032 17.7891 41.7912C18.5641 41.9527 19.37 41.8711 20.0969 41.5577C20.8559 41.2409 21.5429 40.7736 22.1162 40.184C23.2286 38.8722 24.492 37.6964 25.8801 36.681C27.3724 35.8306 28.9136 35.0692 30.4957 34.4007C31.2543 34.0503 31.9846 33.6415 32.6799 33.1781C32.797 33.091 32.9339 33.0343 33.0783 33.0133H33.4354H34.0948H35.3723C37.0614 33.0432 38.7505 32.956 40.4275 32.7523L41.0457 32.6561C41.1768 32.6261 41.3129 32.6261 41.444 32.6561L41.7737 32.7523L42.9689 33.2194C43.756 33.526 44.5584 33.7919 45.3728 34.0161C47.003 34.4952 48.7141 34.6355 50.4005 34.4282C48.7126 34.7264 46.9807 34.6656 45.3178 34.2496C44.4821 34.0534 43.6569 33.815 42.8452 33.5353L41.6501 33.1232H41.3616C41.2847 33.1065 41.2051 33.1065 41.1281 33.1232L40.4962 33.2468C38.8046 33.5414 37.0893 33.6794 35.3723 33.6589H34.0948C33.7303 33.6182 33.3613 33.6509 33.0096 33.7551C32.2962 34.2439 31.5425 34.6713 30.7567 35.0326L30.1111 35.3348C31.7725 38.6319 33.0405 42.1129 33.8887 45.7062C32.8035 45.5276 31.5397 45.2941 31.0177 45.1705C27.859 44.4423 24.9548 42.8764 22.6108 40.6373L22.5283 40.7197C21.9146 41.3858 21.1457 41.8899 20.2901 42.1871C19.4345 42.4843 18.5187 42.5653 17.6242 42.4231C17.3727 42.3717 17.1348 42.2678 16.9261 42.1183C16.7174 41.9688 16.5425 41.777 16.4128 41.5553C16.2832 41.3337 16.2018 41.0872 16.1738 40.832C16.1459 40.5768 16.172 40.3185 16.2506 40.0741C16.6648 39.2875 17.1977 38.5694 17.8303 37.9448L18.1875 37.5602C17.0618 36.7328 15.6803 36.329 14.2862 36.4201C13.5987 36.4787 12.9585 36.7938 12.4928 37.3028C12.027 37.8119 11.7699 38.4775 11.7724 39.1674C11.9161 39.9353 12.2358 40.6594 12.7065 41.2829C14.9318 44.3188 18.6683 46.2007 22.0201 47.9041C26.2258 50.1165 30.2536 52.6516 34.0673 55.4869C38.3807 58.509 40.6061 60.4184 45.0568 61.6685C47.2685 62.3004 51.0461 61.9707 53.9996 63.1521C61.967 66.339 69.5772 73.6745 75.3742 80.1034C75.3742 80.1034 79.6601 81.0924 84.0971 76.6966C86.3983 74.3247 87.7517 71.1926 87.9022 67.8913ZM48.2576 56.9018C47.7768 55.5281 47.2823 54.1544 46.719 52.8769C46.1752 51.5536 45.5607 50.2604 44.8783 49.003C44.2197 47.7315 43.4905 46.4978 42.6941 45.3078C41.8974 44.1265 41.0319 42.9726 40.1116 41.8599C41.2229 42.7997 42.2272 43.8593 43.1062 45.0193C43.9917 46.176 44.7819 47.4026 45.469 48.6871C46.1413 49.9762 46.7198 51.3122 47.1998 52.6845C47.679 54.0564 48.0375 55.4675 48.2713 56.9018H48.2576ZM60.6208 50.6377C59.0917 50.4105 57.5996 49.9809 56.1837 49.3602C54.7605 48.7508 53.3832 48.0392 52.0627 47.231C50.7664 46.3799 49.5147 45.4629 48.3125 44.4836C47.1137 43.5296 45.9673 42.5116 44.8783 41.434L48.6147 44.0852C49.8648 44.9369 51.1148 45.8161 52.4198 46.5854C53.6955 47.3971 55.0164 48.1355 56.3761 48.797C57.7373 49.4692 59.147 50.0386 60.5933 50.5004C60.5933 50.5004 60.5658 50.6377 60.5658 50.624L60.6208 50.6377Z" fill="white"></path><path d="M19.726 22.5326C19.149 22.8485 15.3989 23.8238 15.3989 23.8238C15.1001 22.4995 14.9754 21.1418 15.028 19.7852C15.2261 17.1478 15.2583 14.5005 15.1242 11.859C14.7395 10.0457 13.5169 9.42757 13.1048 7.44945C12.7752 5.78729 13.4483 4.16634 13.3521 2.95749C13.2559 1.74864 12.9263 0.608473 14.1351 0.0864706C15.1104 -0.325637 15.6874 0.814532 16.5803 1.83106C17.4732 2.84759 19.2452 3.3696 19.9733 5.47134C20.7013 7.57309 19.9733 9.08415 19.7535 10.8562C19.4957 14.0133 19.3994 17.1815 19.465 20.3484C19.5337 21.4336 19.726 22.5326 19.726 22.5326Z" fill="#990000"></path><path d="M22.6243 28.5083C23.4633 29.4995 24.5623 30.2369 25.7975 30.6375C25.7975 30.6375 23.9018 31.9013 23.1738 32.4645C22.643 32.8324 22.1381 33.2363 21.6627 33.6734C20.9199 33.2246 20.2127 32.7194 19.5473 32.1623C18.5205 31.3298 17.6862 30.2848 17.1021 29.099C17.1021 29.099 21.0308 28.6457 22.6243 28.5083Z" fill="#990000"></path><path d="M32.1852 33.4121C35.7005 33.6897 39.2336 33.183 42.5291 31.9285C45.6199 30.5548 48.6833 28.5904 47.0074 25.7744C45.3314 22.9583 41.3478 25.1287 41.3478 25.1287C39.3679 24.8768 37.4201 24.4164 35.537 23.755C37.0725 21.7292 39.1555 20.1849 41.54 19.3043C43.4458 18.7211 45.4892 18.7714 47.364 19.4475C49.2388 20.1236 50.844 21.3892 51.9389 23.0544C54.5077 26.9282 53.3126 31.0493 50.2355 33.7555C46.9139 36.663 42.6438 38.2557 38.2295 38.2337C34.1693 38.4671 30.1066 37.8204 26.3196 36.338L27.1575 35.8435C27.9543 35.3902 29.0257 34.9369 30.1659 34.4698C30.8665 34.0714 31.7182 33.6868 32.1852 33.4121Z" fill="#990000"></path><path d="M31.4708 38.2612C29.9826 39.9726 28.9523 42.0331 28.4762 44.2505C30.0765 44.8956 31.7598 45.3118 33.4764 45.4868C33.5272 45.2995 33.6109 45.1228 33.7237 44.9648C33.1719 42.6682 32.418 40.425 31.4708 38.2612Z" fill="#990000"></path><path d="M27.968 51.2013C28.751 57.218 33.8337 62.1908 38.7652 64.1139C43.6968 66.0371 51.1284 67.1086 60.2635 62.5067C69.0826 58.056 74.7697 50.6243 72.9701 45.3493C71.0057 39.5524 64.1923 40.1293 62.64 40.8711C63.8093 42.2911 65.1009 43.6057 66.5 44.7999C67.0293 45.0975 67.4382 45.5704 67.6563 46.1371C67.8744 46.7037 67.8882 47.3287 67.6952 47.9044C67.2144 50.2397 63.8488 54.5118 58.3541 56.9982C54.007 59.2125 49.1127 60.1236 44.26 59.622C39.9741 59.2099 37.1718 58.1247 35.4134 56.3526C35.4134 56.3526 33.7101 55.1163 31.732 53.7426C29.1632 51.9705 27.968 51.2013 27.968 51.2013Z" fill="#990000"></path><path d="M57.3924 64.6914C59.1704 65.5111 60.8256 66.5745 62.3102 67.8509C62.3102 67.8509 62.3102 69.3207 64.2883 70.2411C66.0741 71.0653 68.9589 70.2411 70.7035 69.6642C73.1074 68.8262 76.6378 67.5487 79.5637 68.5789C80.6668 68.8589 81.6558 69.4745 82.394 70.3406C83.1322 71.2068 83.5832 72.2808 83.6848 73.4143C83.6848 74.4171 83.3002 75.2139 82.9018 74.9803C82.7233 74.8567 82.8057 74.4171 82.682 73.8676C82.3526 72.8388 81.6324 71.9805 80.6765 71.4774C78.3412 70.3647 76.2532 71.1477 74.2751 72.1231C71.4178 73.4968 66.0329 76.7249 61.8157 74.8705C59.9241 74.0522 58.4145 72.5451 57.593 70.6548C56.7716 68.7645 56.6999 66.6326 57.3924 64.6914Z" fill="#990000"></path></svg>