<svg xmlns="http://www.w3.org/2000/svg" width="67" height="110" viewBox="0 0 67 110" fill="none"><path d="M21.3613 16.7884C22.3131 16.0494 23.3785 15.4697 24.5159 15.0718C25.8305 14.7037 27.1747 14.4511 28.5333 14.3169C28.1648 14.5596 27.7873 14.7842 27.4189 14.9999C26.6525 15.417 25.9246 15.9012 25.2439 16.4469C24.4962 17.0769 23.785 17.7491 23.1139 18.4601C21.6446 20.1085 19.7928 21.3708 17.7214 22.1359C17.7214 21.9382 17.7214 21.7315 17.7214 21.5338V21.2821C18.4307 20.5498 19.0192 19.7095 19.465 18.7926C20.001 18.0398 20.6393 17.3653 21.3613 16.7884Z" fill="#990000"></path><path d="M46.4451 14.137C46.2635 14.1381 46.0848 14.0914 45.9271 14.0014C45.7693 13.9115 45.638 13.7816 45.5464 13.6248C45.6446 13.4399 45.7041 13.2369 45.7211 13.0283C45.7381 12.8197 45.7123 12.6098 45.6453 12.4114C45.7434 12.2974 45.8647 12.2056 46.0011 12.1421C46.1374 12.0786 46.2857 12.0448 46.4361 12.043C46.6971 12.0672 46.9396 12.1879 47.1161 12.3816C47.2927 12.5753 47.3905 12.8279 47.3905 13.09C47.3905 13.3521 47.2927 13.6047 47.1161 13.7984C46.9396 13.9921 46.6971 14.1128 46.4361 14.137H46.4451Z" fill="#990000"></path><path d="M44.1354 13.9483C43.8724 13.9467 43.6198 13.8458 43.4282 13.6658C43.2365 13.4858 43.1199 13.24 43.1018 12.9777L43.3535 12.8519C43.7866 12.5763 44.2038 12.2762 44.6027 11.9531C44.8173 12.0542 44.9906 12.226 45.0936 12.4398C45.1965 12.6535 45.2227 12.8961 45.1679 13.1269C45.1131 13.3577 44.9806 13.5627 44.7926 13.7073C44.6046 13.852 44.3725 13.9276 44.1354 13.9214V13.9483Z" fill="#990000"></path><path d="M46.535 10.4434C46.6196 10.8293 46.7431 11.2057 46.9035 11.5668C46.7552 11.5196 46.6007 11.4954 46.4451 11.4949C46.0463 11.4918 45.6612 11.6395 45.3666 11.9083C45.2809 11.7941 45.1778 11.694 45.061 11.6117L45.4206 11.3151C45.798 11.0096 46.1575 10.722 46.535 10.4434Z" fill="#990000"></path><path d="M14.8723 28.9935C13.9453 29.1318 13.0593 29.4691 12.2749 29.9821C12.4765 29.0427 12.8061 28.1355 13.2545 27.2859C13.4972 26.8185 13.7578 26.3871 14.0274 25.9198C14.2971 25.4524 14.5847 24.9671 14.8363 24.4818C15.3716 23.4058 15.7817 22.272 16.0586 21.1025C16.2755 20.2516 16.5425 19.4143 16.8585 18.595C16.9214 18.4513 17.0292 18.2086 17.164 17.939C17.164 18.0558 17.164 18.1637 17.164 18.2445C17.164 19.3051 17.164 20.3925 17.164 21.453V21.5968C17.2451 22.413 17.1843 23.237 16.9843 24.0324C16.6207 24.1258 16.2983 24.3369 16.0675 24.6328C15.8366 24.9287 15.7102 25.2928 15.7081 25.6681C15.7104 25.8514 15.7407 26.0333 15.798 26.2074C15.4874 26.2378 15.1925 26.3583 14.9496 26.5542C14.7067 26.7501 14.5264 27.0128 14.4308 27.3098C14.3353 27.6069 14.3288 27.9254 14.412 28.2262C14.4952 28.5269 14.6646 28.7968 14.8992 29.0025L14.8723 28.9935Z" fill="#990000"></path><path d="M42.4458 5.63531L43.0479 5.30278L43.2906 5.16797C43.4397 5.30731 43.5589 5.47562 43.6408 5.66261C43.7227 5.84959 43.7656 6.05131 43.7669 6.25544C43.7645 6.48767 43.706 6.71586 43.5962 6.92051C42.6792 6.68246 41.7488 6.49939 40.8101 6.37228C41.3689 6.15802 41.915 5.91196 42.4458 5.63531Z" fill="#990000"></path><path d="M53.644 19.6553C53.0126 18.7756 52.4421 17.8537 51.9364 16.8962C51.2127 15.5055 50.6402 14.0411 50.2288 12.5283C50.6272 13.0195 51.0596 13.482 51.5229 13.9124L51.8735 14.2539C53.1017 15.3823 54.1263 16.7139 54.9022 18.1904C55.7309 19.7616 56.0124 21.5642 55.7021 23.3132C55.3355 22.3672 54.8685 21.4633 54.3091 20.617C54.0844 20.3204 53.8597 19.9879 53.644 19.6553Z" fill="#990000"></path><path d="M24.0664 12.1061C23.8283 12.4963 23.7478 12.9626 23.8413 13.4101C23.9348 13.8575 24.1953 14.2525 24.5697 14.5148C24.4989 14.537 24.4269 14.555 24.354 14.5687C23.4357 14.8788 22.5647 15.3143 21.7656 15.8629C21.7906 15.7983 21.8117 15.7323 21.8285 15.6652C22.233 14.4788 22.8172 12.7263 23.7608 11.8545C23.8501 11.9526 23.953 12.0373 24.0664 12.1061Z" fill="#990000"></path><path d="M17.7033 18.2444C17.6857 17.6497 17.796 17.0582 18.0269 16.5098C18.0269 16.5098 18.0269 16.5098 18.0269 16.4559C18.0269 16.402 18.0269 16.4559 18.0269 16.393C18.0269 16.3301 18.0269 16.393 18.0269 16.3391C18.0303 16.3122 18.0303 16.285 18.0269 16.2582C18.0269 16.2582 18.0269 16.2582 18.0269 16.1953H17.8292H17.7662H17.7123C17.6859 16.1875 17.6578 16.1875 17.6314 16.1953H17.5685L15.6362 17.8849C15.846 16.3871 16.3566 14.9472 17.1371 13.6518L17.227 13.4811C17.6494 12.6452 18.0808 11.7825 18.4313 10.9466C19.0692 9.31127 19.5419 7.6162 19.8423 5.88672C19.8423 5.94064 19.8423 5.98558 19.8423 6.0395C19.9502 6.42596 20.1929 7.42356 20.4175 8.4661C20.5755 9.44025 20.6267 10.4287 20.5703 11.414C20.4265 14.218 19.7794 17.9658 17.6584 20.4463C17.7123 19.6914 17.6854 18.9634 17.7033 18.2444Z" fill="#990000"></path><path d="M14.9173 19.2421L16.6429 17.7412C16.5081 18.0198 16.3912 18.2625 16.3463 18.3793C16.0202 19.2151 15.747 20.0706 15.5284 20.9407C15.2549 22.0733 14.8602 23.1731 14.3511 24.2211C14.0994 24.6975 13.8208 25.1199 13.5512 25.6322C13.2816 26.1444 13.012 26.5309 12.7603 27.0162C12.1986 28.0771 11.8217 29.226 11.6459 30.4135C11.3685 30.6278 11.1072 30.8621 10.864 31.1145C10.2693 29.4214 10.1468 27.5984 10.5093 25.841C10.8719 24.0836 11.706 22.4579 12.9221 21.1384C13.5475 20.4659 14.2138 19.8326 14.9173 19.2421Z" fill="#990000"></path><path d="M9.91144 26.0454C9.61565 27.9076 9.79178 29.8142 10.4237 31.5906C9.61132 32.4425 8.94619 33.4235 8.45548 34.4936C8.26686 34.4177 8.06562 34.3781 7.86231 34.3767H7.72749C7.32231 32.275 7.32231 30.1153 7.72749 28.0136C8.16787 25.0298 8.34762 21.9471 6.99951 19.4307C8.53554 21.3408 9.54004 23.6226 9.91144 26.0454Z" fill="#990000"></path><path d="M38.2307 3.95433C40.6485 3.44216 43.1247 3.26075 45.5914 3.41508C44.6206 3.8163 43.6804 4.28789 42.7783 4.82611C42.5266 4.96092 42.3289 5.07775 42.1941 5.14066C41.1532 5.75695 39.9911 6.14023 38.7879 6.26409C37.3849 6.23784 35.9993 6.577 34.7671 7.24825C33.5349 7.91951 32.4985 8.89977 31.7597 10.0927L30.9868 10.3713C31.5962 9.4404 32.1024 8.44593 32.4967 7.40549C33.9536 5.62918 35.979 4.41016 38.2307 3.95433Z" fill="#990000"></path><path d="M49.0514 8.36743C49.505 8.77602 49.937 9.20801 50.3456 9.66161C51.2142 10.7514 51.7397 12.0745 51.8554 13.4633C51.0085 12.7726 50.3319 11.8961 49.8782 10.9019C49.8587 10.8584 49.8276 10.8211 49.7884 10.794C49.7313 10.7524 49.6609 10.7332 49.5906 10.7401C49.5219 10.7526 49.4607 10.7912 49.4199 10.848C49.4199 10.848 49.4199 10.8479 49.4199 10.9019C49.4199 10.9558 49.3749 10.9648 49.3749 11.0007C49.3133 12.2986 49.3464 13.5992 49.4738 14.8923C49.2581 14.5328 49.0424 14.1733 48.8177 13.8228C48.0003 12.7069 47.3914 11.4525 47.0202 10.12C47.4889 9.7949 47.996 9.52923 48.5301 9.32908C48.5587 9.31031 48.5858 9.28927 48.611 9.26617C48.6524 9.2155 48.6747 9.15187 48.6739 9.08642C48.6643 9.02598 48.6322 8.97141 48.584 8.93364C48.584 8.93364 48.5841 8.93364 48.5391 8.93364C48.4942 8.93364 48.5391 8.93364 48.4672 8.93364C47.9923 8.79605 47.5364 8.59981 47.1101 8.34945C46.8495 8.21464 46.5888 8.07983 46.3372 7.97198H46.2473C46.2696 7.22424 46.3477 6.47921 46.481 5.7431L46.5439 5.34766C47.1302 6.5377 47.9894 7.5724 49.0514 8.36743Z" fill="#990000"></path><path d="M33.0541 0.377441C33.2526 4.11033 32.175 7.79966 29.9984 10.8388C29.7467 10.9736 29.5041 11.1174 29.2704 11.2612C29.2627 10.9574 29.1781 10.6605 29.0245 10.3982C28.8709 10.136 28.6533 9.91696 28.392 9.76165C28.1308 9.60635 27.8344 9.51981 27.5307 9.51014C27.2269 9.50048 26.9257 9.56799 26.6551 9.70637C26.5755 9.57128 26.4821 9.44478 26.3765 9.3289C29.1626 7.32471 32.2093 3.54101 33.0541 0.377441Z" fill="#990000"></path><path d="M53.024 31.1681C54.3722 29.3706 54.0666 26.8542 53.2757 25.0477C53.069 24.5983 52.8263 24.149 52.5837 23.7535L52.1972 23.0615C52.0085 22.702 51.8287 22.3245 51.658 21.9201C51.4872 21.5067 51.3254 21.0213 51.1547 20.563C50.3987 18.2372 49.9722 15.8171 49.8875 13.373C50.2978 14.6876 50.8179 15.9653 51.4423 17.1927C51.9609 18.1677 52.5434 19.1074 53.1858 20.0058L53.8509 21.0034C54.9553 22.5839 55.6332 24.4227 55.8191 26.3419C55.8178 27.3281 55.5593 28.297 55.0691 29.1528C54.579 30.0087 53.8741 30.7219 53.024 31.222V31.1681Z" fill="#990000"></path><path d="M25.7203 11.6745C26.0778 11.6745 26.4207 11.8165 26.6735 12.0694C26.9264 12.3222 27.0684 12.6651 27.0684 13.0226C27.0771 13.1243 27.0771 13.2265 27.0684 13.3282C26.8881 13.5612 26.7259 13.8075 26.583 14.0652C26.1786 14.1281 25.7832 14.209 25.3877 14.3078C25.0769 14.2172 24.8091 14.0177 24.6332 13.7459C24.4574 13.4741 24.3852 13.1481 24.4299 12.8274C24.4746 12.5068 24.6332 12.2129 24.8768 11.9996C25.1203 11.7862 25.4325 11.6677 25.7562 11.6655L25.7203 11.6745Z" fill="#990000"></path><path d="M25.0729 9.33806C25.4098 9.33805 25.7331 9.47127 25.9722 9.70867C26.2113 9.94607 26.3468 10.2684 26.3491 10.6053C26.3455 10.8106 26.2898 11.0116 26.1873 11.1895C26.0346 11.1503 25.8777 11.1292 25.72 11.1265C25.2231 11.1251 24.7455 11.3187 24.3899 11.6658C24.1557 11.5208 23.9757 11.303 23.8772 11.0457C23.7788 10.7885 23.7676 10.5061 23.8451 10.2419C23.9226 9.97759 24.0847 9.74607 24.3065 9.58281C24.5283 9.41955 24.7976 9.33357 25.0729 9.33806Z" fill="#990000"></path><path d="M27.5806 12.6632C27.5293 12.4003 27.4226 12.1513 27.2677 11.9328C27.1127 11.7143 26.913 11.5313 26.6819 11.396C26.8141 11.1531 26.8851 10.8816 26.8886 10.6051C26.9025 10.4766 26.9025 10.347 26.8886 10.2186C27.0801 10.109 27.2972 10.0522 27.5179 10.0537C27.7385 10.0553 27.9548 10.1153 28.1448 10.2277C28.3347 10.34 28.4915 10.5006 28.5992 10.6932C28.7069 10.8858 28.7617 11.1034 28.758 11.324C28.7539 11.4456 28.7358 11.5662 28.7041 11.6835C28.3002 11.9748 27.9242 12.3028 27.5806 12.6632Z" fill="#990000"></path><path d="M32.7843 13.2473C32.2662 13.9467 31.7048 14.6131 31.1036 15.2425C30.4044 15.9473 29.5139 16.4316 28.5422 16.6356L29.8094 14.0742C29.8094 14.0742 29.8094 14.0742 29.8094 14.0113C29.8094 13.9483 29.8094 14.0113 29.8094 14.0113C29.8127 13.951 29.797 13.8913 29.7645 13.8405C29.7281 13.8031 29.681 13.778 29.6297 13.7686H29.5129C28.7669 13.8495 28.012 13.9304 27.248 14.0472C28.4055 12.4179 30.0817 11.2296 32.0024 10.6769C33.5183 10.2217 35.0854 9.95904 36.6668 9.89502C35.6451 10.3515 34.7276 11.0121 33.9706 11.8363C33.5931 12.2048 33.1887 12.735 32.7843 13.2473Z" fill="#990000"></path><path d="M47.2631 8.87971C43.731 9.2392 40.3158 9.77845 37.2152 11.4681C37.5584 10.7914 38.0212 10.1825 38.5813 9.6706C38.6337 9.63758 38.6721 9.58637 38.6891 9.5268C38.7162 9.45745 38.7162 9.38045 38.6891 9.3111C38.6685 9.25677 38.6315 9.21023 38.5831 9.178C38.5348 9.14577 38.4776 9.12946 38.4195 9.13136C36.4554 9.15029 34.4993 9.38538 32.5867 9.83238C34.1595 7.73831 36.1816 6.78564 39.1744 6.78564C41.5601 6.89003 43.9101 7.4038 46.1217 8.30451C46.3644 8.40337 46.607 8.53819 46.8586 8.66401L47.2631 8.87971Z" fill="#990000"></path><path d="M46.499 16.1145L45.834 15.5483C47.4319 15.8296 48.8745 16.6786 49.8963 17.939C50.0311 18.5951 50.2108 19.2511 50.3996 19.8982C49.2289 18.51 47.9222 17.2425 46.499 16.1145Z" fill="#990000"></path><path d="M12.1042 61.3119C13.5242 62.0129 15.2947 63.4778 15.6362 65.3023C15.6362 65.6528 15.6362 66.0392 15.6362 66.4527C14.9751 65.274 14.104 64.2262 13.0658 63.361C11.2772 61.9114 9.07406 61.0679 6.77466 60.9524C8.53609 60.4229 10.4298 60.5506 12.1042 61.3119Z" fill="#990000"></path><path d="M42.5715 13.2476C43.9246 13.5444 45.2288 14.0316 46.4451 14.6945C46.7901 14.6944 47.1256 14.5821 47.4012 14.3746C47.6768 14.1671 47.8775 13.8756 47.973 13.5441L48.3145 14.1014C48.7639 14.8114 49.2132 15.5573 49.5997 16.3033C49.5997 16.51 49.6716 16.7167 49.7075 16.9234C48.4327 15.7123 46.7713 14.9898 45.0161 14.8833C44.9833 14.8793 44.9501 14.8829 44.9189 14.8938C44.8877 14.9047 44.8595 14.9226 44.8363 14.9462C44.8363 14.9462 44.8363 14.9462 44.8363 15.0001C44.8092 15.0466 44.7938 15.0991 44.7914 15.1529C44.8453 15.4045 44.9262 15.6292 44.9891 15.8719C44.6392 15.5591 44.2634 15.2765 43.8657 15.0271C43.7102 14.9316 43.5629 14.8234 43.4253 14.7035C42.8848 14.1997 42.2535 13.8033 41.5649 13.5352C41.9076 13.4662 42.2442 13.37 42.5715 13.2476Z" fill="#990000"></path><path d="M3.16165 48.8555C2.80832 48.7614 2.4365 48.7614 2.08317 48.8555C1.783 48.9241 1.50864 49.0769 1.29228 49.2959C1.02085 49.0168 0.869258 48.6427 0.869875 48.2534C0.869875 47.8458 1.03178 47.4549 1.32 47.1667C1.60821 46.8785 1.99912 46.7165 2.40671 46.7165C2.50238 46.7078 2.59865 46.7078 2.69432 46.7165C2.75158 47.3929 2.89038 48.0598 3.10773 48.7028C3.12107 48.7552 3.13911 48.8063 3.16165 48.8555Z" fill="#990000"></path><path d="M5.88502 54.6252L5.78615 54.5353C4.38078 53.2727 2.80072 52.2194 1.09473 51.4077C2.81811 51.441 4.50075 51.9377 5.9659 52.8457C6.60401 53.4209 7.26907 53.9601 7.91617 54.4365H8.00604C8.00613 55.0575 8.06328 55.6773 8.17679 56.2879C8.24458 56.6606 8.33158 57.0296 8.43744 57.3933C7.68856 56.3816 6.83281 55.4535 5.88502 54.6252Z" fill="#990000"></path><path d="M1.36417 50.1229C1.42547 49.9335 1.536 49.7638 1.68444 49.6311C1.83289 49.4984 2.01391 49.4076 2.20899 49.3679C2.44141 49.2954 2.69013 49.2934 2.92368 49.3622C3.15724 49.431 3.36516 49.5674 3.52116 49.7544C3.85946 50.4235 4.27904 51.0484 4.77041 51.6148C3.67885 51.1877 2.52573 50.9389 1.35519 50.8778C1.31983 50.7367 1.30172 50.5919 1.30127 50.4464C1.3132 50.337 1.33424 50.2288 1.36417 50.1229Z" fill="#990000"></path><path d="M12.967 61.15C12.9819 60.1269 13.1238 59.1095 13.3895 58.1213C13.5332 57.4652 13.686 56.7822 13.7669 56.0991C15.3307 58.4538 15.5644 60.7276 15.6363 63.7654C14.9713 62.6904 14.0553 61.793 12.967 61.15Z" fill="#990000"></path><path d="M11.1336 57.8968C11.1336 58.7236 11.1336 59.5415 11.1336 60.3683C10.8185 60.2762 10.4971 60.2071 10.1719 60.1616C9.50343 58.9314 9.02469 57.6073 8.75193 56.2341C8.44756 54.7719 8.53752 53.2552 9.01257 51.8392C9.16016 51.4385 9.32814 51.0455 9.51586 50.6619C9.68662 50.2934 9.86637 49.9159 10.0102 49.5295C10.1134 49.2609 10.1945 48.9844 10.2528 48.7026C11.1606 51.6325 11.1516 54.6883 11.1336 57.8968Z" fill="#990000"></path><path d="M6.51416 61.5366C8.77924 61.5925 10.9624 62.395 12.7245 63.8194C13.9489 64.851 14.9308 66.1398 15.6004 67.5941V68.3042C13.7472 67.7992 12.0605 66.8132 10.7113 65.4461C10.3913 65.0916 10.0913 64.7195 9.81254 64.3317C9.51685 63.9199 9.1925 63.5295 8.8419 63.1634L8.64417 62.9746C8.08348 62.3046 7.34524 61.8062 6.51416 61.5366Z" fill="#990000"></path><path d="M1.72379 53.0349C1.51364 52.7453 1.28551 52.4691 1.04075 52.2081C0.941886 52.1182 0.843014 52.0193 0.735165 51.9384C0.668796 51.8956 0.608363 51.8442 0.55542 51.7856C2.32866 52.5848 3.96854 53.6518 5.41761 54.9492L5.51647 55.0391C7.00391 56.3501 8.27482 57.8879 9.2822 59.5957L9.53384 60.108C8.80238 60.0723 8.06927 60.1236 7.3499 60.2608C6.53224 59.7128 5.81735 59.0253 5.23786 58.2296C4.67166 57.4657 4.06949 56.54 3.48531 55.6323C2.90113 54.7245 2.36189 53.8707 1.72379 53.0349Z" fill="#990000"></path><path d="M12.85 58.0045C12.619 58.9292 12.4805 59.8745 12.4366 60.8265H12.3736C12.1607 60.7207 11.9416 60.6277 11.7176 60.5479C11.7176 59.6492 11.7176 58.7505 11.7176 57.9146C11.8748 54.8278 11.5872 51.7344 10.8638 48.7295C11.3639 49.4517 11.8172 50.2052 12.2209 50.9853C12.9252 52.3145 13.2954 53.7951 13.2994 55.2993C13.2386 56.2136 13.0881 57.1197 12.85 58.0045Z" fill="#990000"></path><path d="M4.49183 42.4386C4.70035 42.1145 4.87788 41.7715 5.02208 41.414C5.0842 41.2407 5.13523 41.0636 5.17486 40.8838C5.38645 41.5805 5.4984 42.3037 5.50739 43.0318C5.52422 43.584 5.5002 44.1368 5.43551 44.6855C5.37877 45.2438 5.35476 45.805 5.36361 46.3661C5.37525 48.9916 6.33244 51.5249 8.05983 53.5021C8.05983 53.5021 8.05983 53.5021 8.13173 53.5021C8.20363 53.5021 8.13173 53.6908 8.13173 53.7897C7.21031 53.1349 6.3527 52.3947 5.57031 51.5788C4.7255 50.7102 4.08664 49.6628 3.70093 48.5141C3.43582 47.7482 3.30211 46.9429 3.30548 46.1324C3.3893 45.0425 3.69515 43.9812 4.20422 43.0138C4.26713 42.852 4.34803 42.6363 4.49183 42.4386Z" fill="#990000"></path><path d="M9.39014 36.7495C9.53668 36.4742 9.58729 36.158 9.53394 35.8508C10.7796 35.6575 11.9535 35.1434 12.9402 34.3588L13.1828 34.1971C13.5154 33.9814 13.8209 33.7567 14.0816 33.541C14.9174 32.9032 15.8217 32.3606 16.7778 31.9232C17.9383 31.4609 19.1428 31.1176 20.3727 30.8987L21.0109 30.7549L19.0516 32.9658C18.2897 33.8489 17.4406 34.6529 16.5171 35.3654C15.4848 36.0849 14.2764 36.5105 13.021 36.5967H12.8323C12.3967 36.6095 11.966 36.6914 11.5561 36.8394C10.8341 36.9284 10.1023 36.898 9.39014 36.7495Z" fill="#990000"></path><path d="M16.4812 26.2792C16.353 26.0978 16.284 25.8812 16.2835 25.6591C16.272 25.4101 16.3392 25.1637 16.4756 24.9551C16.6121 24.7464 16.8108 24.586 17.0435 24.4967C17.2763 24.4074 17.5313 24.3937 17.7723 24.4575C18.0133 24.5213 18.228 24.6594 18.3861 24.8522C18.5441 25.0451 18.6374 25.2828 18.6527 25.5316C18.668 25.7804 18.6044 26.0278 18.4712 26.2385C18.3379 26.4492 18.1417 26.6125 17.9103 26.7053C17.6789 26.7982 17.4242 26.8157 17.1822 26.7556C16.9931 26.5395 16.7517 26.3755 16.4812 26.2792Z" fill="#990000"></path><path d="M22.8982 27.9149C23.4067 27.8616 23.9111 27.7745 24.4081 27.6543C24.7238 28.9329 24.5474 30.2835 23.9137 31.438C23.9277 30.1895 23.5746 28.9644 22.8982 27.9149Z" fill="white"></path><path d="M18.5303 26.9175C18.8373 26.6435 19.0325 26.2659 19.0785 25.857C21.3143 25.1332 23.6409 24.7278 25.9898 24.6526C27.6339 24.5537 29.27 24.3495 30.888 24.0415C29.7349 24.793 28.534 25.4685 27.293 26.0637C25.562 26.9173 23.6679 27.3893 21.7388 27.4477C20.6441 27.4944 19.5517 27.3138 18.5303 26.9175Z" fill="#990000"></path><path d="M7.20604 39.6973C6.97992 39.6991 6.75837 39.6337 6.56949 39.5093C6.38061 39.385 6.23292 39.2074 6.14515 38.999C6.05738 38.7906 6.03349 38.5608 6.07651 38.3388C6.11953 38.1168 6.22752 37.9126 6.38678 37.7521C6.54605 37.5915 6.7494 37.4819 6.97106 37.4372C7.19271 37.3924 7.42267 37.4144 7.63175 37.5006C7.84084 37.5867 8.01964 37.733 8.14546 37.9209C8.27128 38.1088 8.33846 38.3298 8.33846 38.5559C8.33847 38.8571 8.21945 39.146 8.00733 39.3598C7.79522 39.5736 7.5072 39.6949 7.20604 39.6973Z" fill="#990000"></path><path d="M7.86225 34.9341C8.16258 34.9341 8.45061 35.0534 8.66297 35.2658C8.87534 35.4781 8.99465 35.7662 8.99465 36.0665C8.99603 36.3162 8.91351 36.5592 8.76031 36.7563C8.60712 36.9535 8.39213 37.0936 8.14984 37.154C7.92436 37.0097 7.66951 36.9176 7.40388 36.8844C7.30916 36.49 7.07645 36.1425 6.7478 35.9047C6.77711 35.6323 6.90819 35.381 7.11481 35.201C7.32143 35.0211 7.58837 34.9257 7.86225 34.9341Z" fill="#990000"></path><path d="M4.65356 37.2706C4.65356 36.9703 4.77288 36.6822 4.98524 36.4699C5.19761 36.2575 5.48565 36.1382 5.78599 36.1382C6.02068 36.1376 6.24955 36.2112 6.43998 36.3484C6.63041 36.4855 6.77268 36.6793 6.84649 36.9021C6.50297 36.977 6.19159 37.1578 5.9562 37.419C5.72081 37.6802 5.57327 38.0086 5.53434 38.3581C5.28539 38.3047 5.06222 38.1677 4.90197 37.9698C4.74173 37.772 4.65406 37.5252 4.65356 37.2706Z" fill="#990000"></path><path d="M6.52296 19.7363C7.77221 22.109 7.59246 25.0659 7.17005 27.9418C6.75132 30.1118 6.75132 32.3417 7.17005 34.5116C6.97703 34.5889 6.80022 34.7017 6.64878 34.8442C5.94946 33.709 5.12 32.6593 4.17725 31.7165C4.25641 29.9922 4.5585 28.2854 5.07599 26.6387C5.23776 26.1443 5.41751 25.65 5.58828 25.1557C5.83094 24.5086 6.0736 23.8436 6.26233 23.1695C6.61411 22.0608 6.70333 20.8855 6.52296 19.7363Z" fill="#990000"></path><path d="M2.16417 31.1147C3.32355 32.8403 3.12583 35.1321 2.99101 36.5611V36.8667C2.99101 37.1992 2.91911 37.5767 2.87417 37.9811C2.75893 38.8063 2.6929 39.6376 2.67645 40.4706C2.65589 41.5494 2.8802 42.6187 3.33253 43.5983C3.08741 44.1751 2.90949 44.7782 2.80227 45.3957C1.85562 44.6668 1.18653 43.6362 0.905929 42.4748C0.730915 41.8549 0.643198 41.2136 0.645301 40.5695C0.695924 39.4334 0.942194 38.3145 1.37328 37.2621L1.60695 36.633C1.92958 35.827 2.19096 34.9978 2.38886 34.1525C2.62485 33.1406 2.54647 32.0809 2.16417 31.1147Z" fill="#990000"></path><path d="M8.18563 52.828C6.72632 50.982 5.92597 48.7011 5.91182 46.348C5.91074 45.8077 5.93773 45.2678 5.9927 44.7303C6.04958 44.1599 6.07359 43.5868 6.0646 43.0137C6.04809 42.3029 5.94549 41.5967 5.75903 40.9106C6.87334 42.1086 7.62446 43.5984 7.92499 45.2066C8.03699 46.171 8.03699 47.1452 7.92499 48.1096L7.87107 48.8196C7.70726 50.0809 7.84905 51.3632 8.28449 52.5583C8.22158 52.6482 8.2036 52.7381 8.18563 52.828Z" fill="#990000"></path><path d="M53.5542 14.8289C53.5542 14.9188 53.4913 15.0266 53.4554 15.1255C53.1768 14.7929 52.8622 14.4604 52.5566 14.1279L52.4847 13.6875C52.3734 12.0893 51.7848 10.5614 50.7951 9.30163C50.3738 8.83083 49.9268 8.38377 49.456 7.96251C48.4683 7.18788 47.6744 6.19402 47.1372 5.05957C47.8242 5.52406 48.5595 5.91278 49.3301 6.21895C50.7456 6.70348 52.0118 7.54556 53.006 8.66352C53.4444 9.22665 53.7735 9.86676 53.9766 10.5509C54.2867 11.986 54.139 13.4822 53.5542 14.8289Z" fill="#990000"></path><path d="M56.1514 16.0694C55.9948 16.2143 55.8079 16.3226 55.6042 16.3863C55.4006 16.45 55.1853 16.4677 54.974 16.4379C54.794 16.4151 54.6209 16.3545 54.466 16.26C54.3111 16.1655 54.1779 16.0393 54.0753 15.8896C54.0083 15.7988 53.9363 15.7118 53.8596 15.629C53.9315 15.4133 53.9944 15.1976 54.0663 14.9999C54.2191 14.5236 54.3629 14.1011 54.4708 13.6428C54.6026 13.6072 54.7386 13.5891 54.8752 13.5889C55.2918 13.5894 55.6931 13.7454 56.0007 14.0263C56.3082 14.3073 56.4998 14.6929 56.5379 15.1077C56.5339 15.4654 56.396 15.8085 56.1514 16.0694Z" fill="#990000"></path><path d="M55.945 19.2059C55.7927 18.7766 55.6156 18.3565 55.4147 17.9477C55.2491 17.6147 55.0661 17.2907 54.8665 16.977H54.9294H55.1541C55.6714 16.9883 56.1722 16.7944 56.5471 16.4378C56.6195 16.3656 56.6857 16.2875 56.7448 16.2041C57.051 16.3776 57.291 16.6476 57.4273 16.972C57.5636 17.2964 57.5885 17.6569 57.4981 17.9969C57.4077 18.337 57.207 18.6374 56.9276 18.8513C56.6482 19.0652 56.3058 19.1804 55.954 19.1789L55.945 19.2059Z" fill="#990000"></path><path d="M38.1138 3.41523C36.1403 3.81169 34.3273 4.78072 32.9011 6.20132C33.0629 5.62613 33.1887 5.03296 33.3056 4.40384C33.8929 3.49759 34.6617 2.723 35.5636 2.12898C36.4655 1.53496 37.4807 1.13442 38.5452 0.952671C41.2966 0.799491 44.0297 1.48589 46.3822 2.92092C43.6172 2.65385 40.8274 2.82063 38.1138 3.41523Z" fill="#990000"></path><path d="M25.9178 8.98741C25.64 8.82679 25.3243 8.74345 25.0035 8.74604C24.6826 8.74863 24.3683 8.83706 24.0932 9.00214C23.818 9.16722 23.5921 9.40293 23.4388 9.68482C23.2856 9.9667 23.2105 10.2845 23.2216 10.6051C23.225 10.8817 23.296 11.1532 23.4283 11.396C22.3408 12.3487 21.7117 14.2271 21.2893 15.4943C21.1545 15.8897 21.0466 16.2313 20.9567 16.393C20.6636 16.6183 20.3873 16.8646 20.1299 17.13C20.7349 15.2715 21.0856 13.3396 21.1724 11.387C21.1724 10.8388 21.1724 10.3355 21.1724 9.84121C21.4311 9.28316 21.7603 8.76063 22.152 8.28639C22.7203 7.63889 23.3394 7.03782 24.0035 6.48891C24.574 6.05716 25.1747 5.66671 25.8009 5.32054C26.7716 4.74535 27.7602 4.18813 28.7308 3.66686L28.8746 3.58597C29.5926 3.2157 30.2652 2.7633 30.8788 2.23786C31.5687 1.67904 32.1246 0.972696 32.5055 0.170763C32.5261 0.109381 32.5565 0.0517187 32.5954 0C31.8764 3.12762 28.7308 7.01917 25.9178 8.98741Z" fill="#990000"></path><path d="M36.8646 33.1276C35.7054 33.0891 34.5618 33.4024 33.5842 34.0263L33.1348 34.26C32.8023 34.4308 32.4427 34.6015 32.0833 34.7543C32.5692 34.2919 33.0857 33.8625 33.6291 33.4691C34.3574 32.901 35.1961 32.4909 36.0917 32.2648C36.5381 32.1566 37.0058 32.175 37.4424 32.3179C37.879 32.4608 38.2671 32.7225 38.5632 33.0737C38.8268 33.4881 39.0097 33.9485 39.1024 34.4308C38.5398 33.7387 37.7442 33.2754 36.8646 33.1276Z" fill="white"></path><path d="M50.9208 35.5003C51.316 35.9611 51.5881 36.5146 51.7116 37.109C51.6545 36.9903 51.5884 36.8761 51.5139 36.7675C51.2757 36.4053 50.9535 36.1059 50.5749 35.8947C50.1963 35.6835 49.7723 35.5667 49.339 35.5542C48.596 35.5869 47.8848 35.865 47.3168 36.3451L47.2449 36.1923L47.0562 35.7879C47.609 35.2239 48.3454 34.8764 49.1322 34.8082C49.4634 34.7799 49.7966 34.8275 50.1065 34.9475C50.4165 35.0674 50.6949 35.2565 50.9208 35.5003Z" fill="white"></path><path d="M49.339 36.1113C49.6831 36.1243 50.0191 36.2191 50.3192 36.3879C50.6193 36.5568 50.8748 36.7947 51.0646 37.082C51.3631 37.5032 51.5824 37.9752 51.7117 38.475C50.8843 38.5959 50.0451 38.614 49.2132 38.5289C48.9607 38.518 48.7132 38.4539 48.4871 38.3409C48.261 38.2278 48.0613 38.0683 47.901 37.8729C47.8167 37.5269 47.6993 37.1898 47.5505 36.8663C48.0395 36.4124 48.6727 36.1451 49.339 36.1113Z" fill="white"></path><path d="M17.9551 10.7041C17.6046 11.5219 17.1732 12.3847 16.7598 13.2026L16.6699 13.3733C15.6813 15.3416 15.1151 16.5549 15.0881 18.3614L14.5579 18.8287C14.1355 19.1972 13.7131 19.5747 13.2996 19.9701C12.7131 18.3249 12.5827 16.5516 12.9222 14.8383C13.0164 14.3085 13.1578 13.7882 13.3446 13.2835C13.4921 12.9178 13.6601 12.5607 13.8479 12.214C15.312 9.80001 17.1573 7.63903 19.3122 5.81494C19.0188 7.48465 18.5643 9.12202 17.9551 10.7041Z" fill="#990000"></path><path d="M33.3775 34.7633L33.8359 34.5296C34.7139 33.9434 35.746 33.6306 36.8017 33.6309C37.3504 33.7741 37.864 34.0282 38.3107 34.3776C38.7574 34.7269 39.1278 35.164 39.3991 35.662C38.3368 36.4312 37.0275 36.7801 35.7232 36.6416C34.9358 36.5322 34.1693 36.305 33.4494 35.9676C32.9641 35.7788 32.4788 35.5901 31.9575 35.4373C32.4339 35.2486 32.9281 34.9969 33.3775 34.7633Z" fill="white"></path><path d="M45.3396 51.7587C45.1102 51.8078 44.8729 51.8076 44.6436 51.758C44.4143 51.7085 44.1981 51.6106 44.0095 51.4711C43.7742 51.3182 43.5164 51.2029 43.2455 51.1296C42.7855 51.0477 42.3121 51.0848 41.8705 51.2374L41.3043 51.3992C40.6779 51.5839 40.0418 51.7339 39.3989 51.8485C39.6939 51.7124 39.9792 51.5563 40.2527 51.3812L40.8908 50.9318C41.1803 50.7247 41.4802 50.5327 41.7896 50.3566C42.2527 50.0669 42.8041 49.9522 43.3444 50.0331C43.5648 50.0998 43.7784 50.187 43.9825 50.2937C44.2486 50.4453 44.5366 50.5544 44.8363 50.6173C45.108 50.6484 45.3824 50.6484 45.6542 50.6173H46.0406C46.2444 50.603 46.4479 50.6499 46.6248 50.7521C46.7748 50.8666 46.9002 51.0103 46.9933 51.1745C47.2818 51.636 47.5055 52.135 47.6584 52.6574C47.2522 52.1686 46.6788 51.8483 46.0496 51.7587C45.8134 51.7385 45.5758 51.7385 45.3396 51.7587Z" fill="white"></path><path d="M51.6848 29.0742C52.4222 28.0694 52.8444 26.8682 52.8981 25.623C53.5182 27.2408 53.707 29.3259 52.5925 30.8357C52.3948 30.4403 52.1971 30.0628 51.9994 29.6854C51.8915 29.4786 51.7927 29.2719 51.6848 29.0742Z" fill="#990000"></path><path d="M49.9324 23.2144C50.2125 23.5244 50.4567 23.8651 50.6604 24.2299C51.3115 25.4972 51.5443 26.9383 51.3254 28.3462C51.1603 28.0098 51.0133 27.6647 50.885 27.3126C50.4427 25.9786 50.1238 24.6067 49.9324 23.2144Z" fill="#990000"></path><path d="M37.269 14.9911C37.3821 15.3014 37.3998 15.6384 37.3197 15.9587C37.2396 16.2791 37.0654 16.5681 36.8196 16.7886C36.1343 17.2724 35.3013 17.5014 34.4649 17.4357H34.1414C33.8358 17.4357 33.5123 17.4357 33.1887 17.5076C33.973 16.7469 34.6721 15.9031 35.2738 14.9911C35.3996 14.8024 35.4985 14.6137 35.6153 14.4249C35.7458 14.3373 35.8941 14.2797 36.0495 14.2564C36.205 14.233 36.3636 14.2446 36.5141 14.2901C36.6867 14.3383 36.8453 14.427 36.9766 14.549C37.108 14.6709 37.2082 14.8225 37.269 14.9911Z" fill="white"></path><path d="M25.2168 20.4822C24.9089 20.6358 24.5868 20.7592 24.2551 20.8507L23.8687 20.9855H23.7609C23.5283 21.0689 23.3028 21.1711 23.0868 21.291C22.5386 21.6236 22.0173 21.9831 21.505 22.3246L20.6063 22.9717C19.8023 23.5238 18.8777 23.8751 17.91 23.9963H17.6494C17.7459 23.5893 17.8031 23.1739 17.8202 22.756C20.0428 21.9795 22.0272 20.6421 23.5811 18.8734C24.2408 18.1778 24.94 17.5206 25.6752 16.9052C26.3238 16.3774 27.022 15.9139 27.7602 15.5211C28.1287 15.2964 28.5152 15.0718 28.8837 14.8291L27.4007 17.6871C26.9811 18.8232 26.2177 19.8002 25.2168 20.4822Z" fill="#990000"></path><path d="M12.8682 20.3834C12.7424 20.5092 12.6166 20.626 12.4998 20.7518C12.3829 20.8777 12.356 20.9406 12.2841 21.0305C12.0923 21.1158 11.8811 21.1483 11.6725 21.1246C11.464 21.1009 11.2655 21.0218 11.0977 20.8956C10.8575 20.7255 10.6702 20.491 10.5573 20.2191C10.4444 19.9473 10.4106 19.6491 10.4596 19.3588C10.5631 19.0219 10.7714 18.7268 11.0544 18.5166C11.3373 18.3064 11.68 18.1922 12.0324 18.1904C12.1223 18.1904 12.2122 18.1904 12.302 18.1904C12.4069 18.9405 12.5969 19.6762 12.8682 20.3834Z" fill="#990000"></path><path d="M36.5229 12.7622L36.7386 12.3578C39.8392 10.4794 43.3353 9.85033 46.9662 9.46387C46.305 9.90023 45.6716 10.3775 45.0699 10.8929C44.4424 11.4398 43.7722 11.9357 43.0657 12.3758C42.1624 12.9139 41.141 13.2225 40.0909 13.2745C39.6982 13.2806 39.3062 13.2414 38.9225 13.1577C38.5378 13.0782 38.1468 13.0331 37.7542 13.0229C37.2692 13.0121 36.7851 13.0696 36.3162 13.1936C36.3881 13.0409 36.4599 12.8971 36.5229 12.7622Z" fill="#990000"></path><path d="M27.2302 19.1791C27.4909 18.7477 27.7066 18.2803 27.9043 17.9298L28.2278 17.2737C29.4656 17.0959 30.6112 16.5183 31.4903 15.629C32.1098 14.9852 32.6891 14.3039 33.2248 13.5889C33.6383 13.0586 34.0247 12.5643 34.4202 12.115C35.2618 11.1909 36.3128 10.482 37.4849 10.0479C36.92 10.8221 36.4323 11.65 36.0289 12.5194C35.6684 13.2738 35.2632 14.0061 34.8156 14.7123C33.9689 16.0919 32.8309 17.2698 31.4813 18.1635C30.2004 18.9262 28.7175 19.2805 27.2302 19.1791Z" fill="#990000"></path><path d="M20.5255 30.3326H20.3278C19.0485 30.5612 17.7957 30.9195 16.589 31.4021C15.6036 31.8587 14.6696 32.4191 13.803 33.0738C13.5064 33.2895 13.2098 33.5052 12.9042 33.7209L12.6705 33.8737C11.7299 34.6364 10.5987 35.1274 9.39911 35.2937C9.29417 35.0784 9.14395 34.8883 8.95874 34.7365C9.52506 33.5111 10.3144 32.4017 11.2865 31.465C12.26 30.4168 13.5579 29.7267 14.9713 29.5058C16.224 29.4185 17.4821 29.5617 18.6831 29.9282C19.2583 30.1079 19.8874 30.2697 20.5255 30.3326Z" fill="#990000"></path><path d="M15.9509 28.8583C15.7412 28.8583 15.5361 28.7961 15.3617 28.6796C15.1873 28.5631 15.0514 28.3974 14.9711 28.2037C14.8908 28.0099 14.8698 27.7966 14.9108 27.5909C14.9517 27.3852 15.0527 27.1962 15.201 27.0479C15.3493 26.8996 15.5383 26.7986 15.744 26.7577C15.9497 26.7168 16.163 26.7378 16.3567 26.818C16.5505 26.8983 16.7161 27.0342 16.8327 27.2086C16.9492 27.383 17.0114 27.5881 17.0114 27.7978C17.0114 28.0791 16.8997 28.3488 16.7008 28.5477C16.5019 28.7466 16.2322 28.8583 15.9509 28.8583Z" fill="#990000"></path><path d="M10.0552 20.4824C10.2085 20.8471 10.4646 21.1594 10.7922 21.3812C11.0793 21.5772 11.4155 21.6892 11.7628 21.7047C11.3728 22.2497 11.03 22.827 10.7383 23.4303C10.3643 23.3516 10.0279 23.1491 9.78326 22.8555C9.53864 22.562 9.40014 22.1945 9.39014 21.8126C9.38944 21.5543 9.44923 21.2995 9.56472 21.0685C9.68021 20.8375 9.8482 20.6368 10.0552 20.4824Z" fill="#990000"></path><path d="M28.9106 22.4417C29.7025 22.7853 30.5125 23.0853 31.3372 23.3404C29.5631 23.736 27.7596 23.9855 25.9448 24.0864C23.6069 24.1689 21.291 24.568 19.0604 25.2727C18.9865 24.9628 18.8278 24.6796 18.6021 24.4548C19.4076 24.2517 20.1732 23.9144 20.8669 23.4572C21.1904 23.2505 21.505 23.0258 21.8195 22.8101C22.3228 22.4686 22.8351 22.1091 23.3654 21.7946C23.6502 21.6385 23.9517 21.5149 24.2641 21.4261C24.7968 21.2782 25.3562 21.2536 25.8998 21.3542C26.9337 21.6267 27.9412 21.9907 28.9106 22.4417Z" fill="#990000"></path><path d="M5.786 35.5812C5.36092 35.5863 4.95339 35.7515 4.64468 36.0437C4.33597 36.336 4.14877 36.7339 4.12042 37.158C4.09206 37.5822 4.22463 38.0015 4.4917 38.3322C4.75877 38.6629 5.1407 38.8809 5.56131 38.9425C5.63078 39.2284 5.77331 39.4914 5.97497 39.7057C6.17664 39.9199 6.43051 40.0781 6.7117 40.1648C6.74743 40.5084 6.74743 40.8548 6.7117 41.1983C6.21157 40.5541 5.6584 39.9529 5.05801 39.4009C5.01056 39.3637 4.95202 39.3435 4.89174 39.3435C4.83147 39.3435 4.77293 39.3637 4.72548 39.4009C4.67374 39.435 4.63441 39.4849 4.61335 39.5432C4.5923 39.6015 4.59064 39.6651 4.60864 39.7244C4.7509 40.2466 4.70967 40.8018 4.49181 41.2972C4.35642 41.6103 4.19403 41.911 4.00648 42.196C3.88965 42.4027 3.76382 42.6094 3.65597 42.8251C3.64347 42.8663 3.62533 42.9056 3.60205 42.9419C3.32476 42.16 3.18489 41.3359 3.18864 40.5063C3.18864 39.8233 3.29648 38.8886 3.38635 38.0797L3.51219 36.9473V36.6507C3.80874 34.8593 3.59056 33.0205 2.88306 31.3481C4.23111 32.4914 5.3819 33.8486 6.28929 35.3655C6.23711 35.4713 6.19787 35.5829 6.17245 35.698C6.04908 35.6429 5.91924 35.6037 5.786 35.5812Z" fill="#990000"></path><path d="M0.852023 97.5762C1.63912 98.7054 2.5868 99.7136 3.66509 100.569L10.4326 106.456C11.3217 107.304 12.3226 108.027 13.4074 108.604C14.8359 109.189 16.3581 109.512 17.9011 109.556C21.0377 109.808 24.1923 109.961 27.3829 109.997H28.2816C29.4436 110.018 30.605 109.931 31.7507 109.736C33.8749 109.244 35.922 108.464 37.8352 107.417L38.3565 107.166C41.0833 105.807 43.8929 104.621 46.7687 103.616C47.7124 103.301 48.674 103.005 49.6357 102.717C53.653 101.468 57.8052 100.174 60.816 97.1988C63.8268 94.2239 65.13 90.2515 66.2084 86.288C66.3756 85.8189 66.428 85.3166 66.3612 84.8231C66.1186 83.6637 64.8783 83.1335 63.8178 82.7919L63.2786 82.6212C58.668 81.3809 54.7135 82.4684 51.2174 83.457C50.6782 83.6098 50.1389 83.7626 49.6087 83.8974C48.3505 84.2299 47.0383 84.5535 45.7351 84.877C43.5422 85.4073 41.2414 85.9735 39.4439 86.5397C38.137 86.8948 36.9683 87.6374 36.0917 88.6697C36.0689 88.7148 36.0342 88.7528 35.9915 88.7797C35.9487 88.8066 35.8995 88.8214 35.849 88.8225C35.8079 88.8345 35.7642 88.8345 35.7232 88.8225C35.6582 88.7897 35.6087 88.7327 35.5852 88.6639C35.5617 88.595 35.566 88.5197 35.5973 88.454C36.5381 87.2796 37.8289 86.4358 39.2822 86.0454C41.1336 85.4702 43.4164 84.913 45.6183 84.3737C46.9215 84.0502 48.2336 83.7266 49.4829 83.4031L51.0916 82.9537C53.9231 82.0142 56.8891 81.5436 59.8723 81.5607L53.8328 79.6374C52.4083 79.2821 51.0677 78.6499 49.8873 77.777C48.2528 76.3414 47.0591 74.4715 46.4451 72.3845C45.7788 69.9471 45.6228 67.3985 45.9868 64.898C45.3666 65.4732 44.7645 66.0394 44.3421 66.4528C41.8346 68.9244 37.3409 74.4876 36.3523 79.6553C36.3434 79.7196 36.3108 79.7783 36.261 79.8199C36.2111 79.8614 36.1475 79.8829 36.0827 79.88H36.0287C35.9577 79.8648 35.8954 79.8225 35.8551 79.7621C35.8148 79.7017 35.7997 79.6279 35.813 79.5565C36.8286 74.2539 41.4032 68.5739 43.9466 66.0754C44.4409 65.59 45.1689 64.907 45.8969 64.2779L46.2924 63.9274C46.8127 63.4837 47.2883 62.99 47.7124 62.4534C48.9436 60.593 49.1414 58.3462 49.3391 56.1622C49.408 54.7788 49.6157 53.4058 49.9592 52.064C50.2574 51.1419 50.6177 50.2411 51.0377 49.3678C51.804 47.9369 52.2862 46.3713 52.4577 44.7572C52.4723 43.8673 52.3909 42.9784 52.2151 42.1059C52.0273 41.1747 51.9578 40.2235 52.0083 39.2749C52.0083 39.2749 52.0083 39.185 52.0083 39.1401C51.4152 39.2469 50.8135 39.2981 50.2109 39.2929C49.8385 39.2912 49.4666 39.2702 49.0964 39.23C48.7862 39.1955 48.4831 39.1136 48.1977 38.9873C48.1168 38.9424 48.0449 38.8795 47.973 38.8345C47.973 38.9873 47.973 39.1311 47.973 39.2839C47.9705 39.6394 48.0006 39.9944 48.0629 40.3444C48.2583 40.9489 48.5629 41.5125 48.9616 42.0071L49.357 42.6092C49.5382 42.8397 49.664 43.1086 49.7247 43.3953C49.7855 43.682 49.7796 43.9788 49.7076 44.2629C49.6305 44.4682 49.5105 44.6545 49.3555 44.8096C49.2004 44.9646 49.0141 45.0846 48.8088 45.1617C48.9277 45.4495 48.9277 45.7726 48.8088 46.0604C48.6594 46.3961 48.4078 46.6761 48.0898 46.8603C47.9101 46.9592 47.7303 47.04 47.5416 47.1209C47.5061 47.129 47.4692 47.129 47.4338 47.1209C47.3795 47.1211 47.3265 47.1049 47.2816 47.0744C47.2367 47.0439 47.202 47.0006 47.1821 46.9502C47.166 46.9174 47.157 46.8816 47.1556 46.8451C47.1542 46.8087 47.1605 46.7723 47.174 46.7384C47.1876 46.7045 47.2081 46.6739 47.2343 46.6484C47.2604 46.623 47.2917 46.6033 47.3259 46.5907C47.489 46.5219 47.648 46.4438 47.8022 46.357C48.0161 46.2334 48.1883 46.0488 48.2965 45.8267C48.3321 45.7492 48.3505 45.6649 48.3505 45.5796C48.3505 45.4943 48.3321 45.41 48.2965 45.3324H48.1168H48.0179C47.5365 45.3823 47.0864 45.5947 46.7417 45.9346C46.7211 45.9649 46.6946 45.9907 46.6637 46.0104C46.6328 46.0301 46.5982 46.0433 46.562 46.0492C46.5259 46.0551 46.4889 46.0535 46.4533 46.0446C46.4178 46.0357 46.3844 46.0197 46.3553 45.9975C46.296 45.9543 46.2563 45.8895 46.2445 45.8172C46.2327 45.7448 46.2499 45.6708 46.2924 45.611C46.7086 45.158 47.2725 44.8681 47.8831 44.7932H47.982C48.665 44.6224 49.0515 44.3798 49.1683 44.0292C49.2095 43.8247 49.2043 43.6135 49.153 43.4113C49.1016 43.2091 49.0055 43.021 48.8717 42.8609C48.7459 42.6632 48.6201 42.4654 48.4853 42.2767C48.056 41.7238 47.733 41.096 47.5326 40.4253C47.4555 40.0378 47.4224 39.6429 47.4338 39.248C47.4358 38.9475 47.4178 38.6473 47.3798 38.3492C47.2407 37.7029 47.0107 37.0796 46.6968 36.4978C46.1785 35.6516 45.9338 34.6661 45.9958 33.6758C46.0069 33.6032 46.0461 33.538 46.105 33.4943C46.1639 33.4505 46.2377 33.4318 46.3103 33.4421C46.3818 33.4553 46.4457 33.4951 46.489 33.5534C46.5324 33.6118 46.552 33.6844 46.544 33.7567C46.4869 34.2872 46.5706 34.8235 46.7867 35.3115C47.4117 34.7353 48.2128 34.387 49.0605 34.3228C49.4686 34.2993 49.877 34.3633 50.2583 34.5106C50.6396 34.6579 50.985 34.885 51.2714 35.1767C51.8459 35.8565 52.2057 36.6917 52.3049 37.5763L52.3858 37.2707C52.5296 36.7494 52.6824 36.2192 52.7813 35.671C52.7813 35.4553 52.8262 35.2306 52.8442 35.0149C52.8442 34.898 52.8442 34.7902 52.8442 34.6824C52.671 34.2239 52.3892 33.8142 52.0229 33.4886C51.6566 33.163 51.2167 32.9312 50.7411 32.813C50.3314 32.7385 49.917 32.6935 49.5008 32.6782H48.7729C48.2503 32.6753 47.7304 32.6028 47.227 32.4625C46.9103 32.3568 46.6381 32.1479 46.4541 31.8693C46.4344 31.8381 46.421 31.8033 46.4149 31.7669C46.4087 31.7305 46.4099 31.6932 46.4182 31.6573C46.4266 31.6213 46.442 31.5874 46.4636 31.5574C46.4852 31.5275 46.5125 31.5021 46.544 31.4828C46.5745 31.4633 46.6086 31.4501 46.6443 31.4441C46.68 31.438 46.7166 31.4392 46.7518 31.4476C46.7871 31.456 46.8202 31.4714 46.8494 31.4929C46.8785 31.5144 46.903 31.5415 46.9215 31.5727C47.0413 31.7465 47.215 31.8759 47.4158 31.9412C47.8675 32.0602 48.3327 32.1206 48.7998 32.1209H49.2043H49.5368C49.9801 32.1372 50.4216 32.1853 50.858 32.2647C51.6328 32.4434 52.322 32.8848 52.8082 33.514C52.8082 33.3432 52.8082 33.1814 52.7453 33.0197C52.4239 31.9895 51.9899 30.9979 51.4511 30.0628C51.0119 29.2798 50.6304 28.4658 50.3097 27.6272C49.7799 26.0152 49.4185 24.3527 49.2312 22.6662L48.6291 22.118C48.1805 21.7418 47.7571 21.3365 47.3618 20.9047C46.8537 20.3064 46.4108 19.6556 46.0407 18.9634C45.9753 19.3078 45.8403 19.6353 45.6441 19.9258C45.4478 20.2163 45.1944 20.4637 44.8993 20.653C44.8352 20.6884 44.7602 20.6988 44.6888 20.6822C44.6175 20.6656 44.5548 20.6232 44.5128 20.5631C44.4762 20.4984 44.4659 20.422 44.4844 20.35C44.5028 20.2779 44.5484 20.2158 44.6117 20.1767C44.9418 19.9634 45.2026 19.6586 45.3622 19.2994C45.5218 18.9403 45.5733 18.5424 45.5104 18.1545C45.3276 17.3914 44.8822 16.717 44.2522 16.2492C44.5381 16.8759 44.6379 17.5715 44.5398 18.2534C44.4505 18.7531 44.2293 19.2199 43.899 19.6054C43.5688 19.991 43.1415 20.2813 42.6614 20.4463H42.5985C42.5306 20.4467 42.4649 20.4223 42.4137 20.3777C42.3625 20.3331 42.3294 20.2713 42.3205 20.2039C42.3117 20.1366 42.3278 20.0683 42.3657 20.012C42.4037 19.9557 42.4609 19.9152 42.5266 19.8981C42.9066 19.7526 43.2418 19.5101 43.4989 19.1947C43.7559 18.8793 43.9258 18.5021 43.9916 18.1006C44.0953 17.2984 43.8932 16.4866 43.4254 15.8268C42.6655 14.8246 41.5546 14.1471 40.3157 13.9304C40.5763 14.1337 40.8037 14.3763 40.9898 14.6494C41.0282 14.6403 41.0682 14.6403 41.1066 14.6494C41.6174 14.9004 42.0527 15.282 42.3684 15.7555C42.6841 16.229 42.8689 16.7776 42.9041 17.3456C42.9069 17.6949 42.827 18.04 42.6708 18.3524C42.5145 18.6648 42.2865 18.9358 42.0054 19.1431C41.9552 19.1561 41.9027 19.1561 41.8526 19.1431C41.8062 19.1432 41.7606 19.1318 41.7198 19.1098C41.679 19.0878 41.6443 19.0561 41.6189 19.0173C41.581 18.9561 41.5683 18.8826 41.5834 18.8123C41.5985 18.7419 41.6402 18.6801 41.6998 18.6398C41.9064 18.4858 42.0752 18.2869 42.1936 18.058C42.3119 17.8291 42.3766 17.5763 42.3828 17.3187C42.3344 16.6535 42.0319 16.0324 41.538 15.5841C41.73 16.2458 41.6757 16.9546 41.3852 17.5793C41.177 17.9742 40.882 18.3168 40.5224 18.5814C40.1629 18.846 39.7481 19.0257 39.3091 19.1072H39.2462C39.1836 19.1068 39.1229 19.0853 39.074 19.0461C39.025 19.007 38.9907 18.9525 38.9766 18.8915C38.9672 18.8566 38.9649 18.8203 38.9698 18.7845C38.9747 18.7488 38.9867 18.7144 39.0052 18.6834C39.0236 18.6524 39.0481 18.6254 39.0771 18.604C39.1062 18.5826 39.1392 18.5673 39.1743 18.5589C39.5309 18.4953 39.8689 18.3535 40.1641 18.1437C40.4594 17.9339 40.7045 17.6614 40.8819 17.3456C41.0426 17.0049 41.1168 16.6299 41.098 16.2536C41.0792 15.8774 40.9679 15.5116 40.7741 15.1887C40.3469 14.4864 39.6692 13.9725 38.8778 13.7507C38.9502 13.7966 39.0193 13.8477 39.0844 13.9035C39.3945 14.1951 39.636 14.552 39.7914 14.9483C39.9468 15.3447 40.0123 15.7705 39.9832 16.1952C39.8843 17.3636 38.7699 18.2983 37.1432 18.5769H37.0982C37.0328 18.5781 36.969 18.5563 36.9181 18.5152C36.8671 18.4741 36.8323 18.4164 36.8196 18.3522C36.8091 18.2785 36.8276 18.2037 36.8712 18.1433C36.9148 18.083 36.9801 18.0419 37.0533 18.0287C38.4194 17.795 39.3631 17.058 39.435 16.1503C39.4477 15.8146 39.3876 15.4802 39.2589 15.1699C39.1301 14.8596 38.9357 14.5809 38.689 14.3528C38.4712 14.1343 38.2071 13.9676 37.9162 13.8649C37.6253 13.7622 37.315 13.7263 37.0084 13.7597C36.9639 13.7689 36.918 13.7689 36.8736 13.7597C36.7165 13.7794 36.5625 13.8187 36.4152 13.8765H36.6758C36.922 13.946 37.1492 14.0702 37.3406 14.2399C37.532 14.4095 37.6827 14.6202 37.7813 14.8561C37.947 15.2757 37.9798 15.736 37.8753 16.1748C37.7708 16.6137 37.5341 17.0098 37.1971 17.3097C36.4237 17.8917 35.4665 18.1757 34.5009 18.1096H34.1683C33.4334 18.0607 32.6993 18.2163 32.0473 18.5589H31.9754C31.9035 18.5589 31.8496 18.6578 31.7687 18.7027C30.5529 19.4355 29.1619 19.8267 27.7423 19.8352C27.4419 19.8362 27.1417 19.8182 26.8436 19.7812C26.5406 20.1966 26.1699 20.5581 25.7471 20.8507H26.0168C27.0788 21.1245 28.1136 21.4945 29.1084 21.9562C30.1917 22.4717 31.332 22.8578 32.5057 23.1066C32.5599 23.1171 32.6099 23.1431 32.6497 23.1814C32.6896 23.2196 32.7176 23.2685 32.7303 23.3223C32.7407 23.3773 32.7342 23.4342 32.7118 23.4855C32.6894 23.5368 32.652 23.5801 32.6045 23.6099C30.9727 24.7242 29.2638 25.7213 27.4907 26.5937C26.6601 26.9636 25.8004 27.2642 24.9203 27.4924C25.5494 29.4517 24.5069 31.6446 23.7879 32.804C23.7629 32.8439 23.7286 32.877 23.6878 32.9005C23.6471 32.924 23.6012 32.9371 23.5542 32.9388C23.5053 32.9379 23.4574 32.9242 23.4155 32.899C23.3736 32.8737 23.339 32.8379 23.3153 32.7951C23.2917 32.7523 23.2797 32.704 23.2806 32.655C23.2815 32.6061 23.2953 32.5583 23.3205 32.5164C23.3205 32.5164 23.3205 32.4714 23.3205 32.4445C23.5718 30.8667 23.1943 29.2533 22.269 27.9508C22.0803 27.9508 21.8916 27.9508 21.7118 27.9508H21.604C20.3368 27.9973 19.0768 27.7416 17.9281 27.2048C17.7821 27.2499 17.6312 27.277 17.4787 27.2857C17.5259 27.4339 17.5501 27.5885 17.5506 27.7441C17.5504 27.9841 17.4962 28.2211 17.3919 28.4373C17.2877 28.6536 17.1361 28.8436 16.9485 28.9933C17.5686 29.0922 18.1797 29.227 18.746 29.3708C19.7962 29.6689 20.8808 29.829 21.9724 29.8471C22.0276 29.8416 22.0831 29.8545 22.1302 29.8837C22.1774 29.913 22.2135 29.957 22.2331 30.0089C22.2559 30.0578 22.263 30.1126 22.2533 30.1658C22.2437 30.2189 22.2177 30.2677 22.1791 30.3055L19.42 33.3073C18.6353 34.2186 17.7589 35.0468 16.8047 35.7788C16.0894 36.2683 15.2962 36.633 14.459 36.8573C15.2702 37.1349 15.9992 37.6106 16.58 38.2414C17.0566 38.7703 17.4368 39.3786 17.7034 40.0388C17.7753 39.6434 17.8652 39.2569 17.9551 38.8705C18.3007 37.8187 18.3779 36.6973 18.1797 35.6081C18.1688 35.5732 18.1651 35.5366 18.1687 35.5003C18.1724 35.464 18.1834 35.4288 18.201 35.3969C18.2186 35.365 18.2426 35.3369 18.2714 35.3145C18.3002 35.2921 18.3332 35.2758 18.3685 35.2665C18.4039 35.257 18.4408 35.2546 18.4772 35.2594C18.5135 35.2642 18.5486 35.2761 18.5803 35.2945C18.612 35.3129 18.6398 35.3373 18.6621 35.3664C18.6843 35.3956 18.7006 35.4288 18.71 35.4643C18.9421 36.6406 18.8679 37.8569 18.4943 38.9963L18.4404 39.221C19.128 38.5558 19.6293 37.7219 19.8943 36.8026C20.1592 35.8832 20.1785 34.9105 19.9503 33.9813C19.9439 33.9452 19.945 33.9082 19.9534 33.8725C19.9618 33.8368 19.9775 33.8032 19.9993 33.7737C20.0212 33.7443 20.0489 33.7196 20.0806 33.7012C20.1124 33.6828 20.1475 33.6711 20.1839 33.6668C20.2552 33.6563 20.3279 33.6738 20.3865 33.7157C20.4452 33.7576 20.4853 33.8206 20.4985 33.8915C20.743 35.0172 20.6778 36.1881 20.3098 37.2797C21.6399 36.1293 21.9814 33.9274 21.559 32.1569C21.5428 32.0854 21.5554 32.0104 21.5941 31.9482C21.6328 31.8859 21.6945 31.8414 21.7657 31.8244C21.8012 31.8151 21.8381 31.8131 21.8744 31.8186C21.9106 31.824 21.9453 31.8368 21.9764 31.8562C22.0076 31.8755 22.0344 31.901 22.0554 31.9311C22.0763 31.9611 22.0909 31.9952 22.0983 32.0311C22.6465 34.3498 22.0353 37.2078 19.8424 38.2324C19.3882 38.9809 18.8417 39.6694 18.2157 40.2815C18.1408 40.7237 18.1107 41.1724 18.1258 41.6206C18.1258 41.6206 18.1258 41.8723 18.1887 41.9981C18.1937 42.0706 18.1702 42.1422 18.1232 42.1976C18.0762 42.253 18.0094 42.2878 17.9371 42.2947C17.9005 42.2984 17.8635 42.2948 17.8282 42.2842C17.793 42.2735 17.7603 42.256 17.7318 42.2326C17.7034 42.2092 17.6799 42.1804 17.6627 42.1478C17.6455 42.1153 17.6349 42.0797 17.6315 42.043C17.5406 40.7544 17.0326 39.5304 16.1845 38.5559C15.7628 38.081 15.2452 37.7009 14.6658 37.4406C14.0864 37.1803 13.4584 37.0459 12.8232 37.046C12.1991 37.0621 11.59 37.2405 11.0558 37.5636C10.5215 37.8866 10.0807 38.3432 9.77651 38.8885C9.46291 39.5452 9.30016 40.2637 9.30018 40.9915C9.2212 42.0825 9.35552 43.1784 9.69563 44.218C10.0357 45.2414 10.6938 46.1294 11.574 46.7524L11.9784 46.9951C12.2489 47.149 12.5073 47.3232 12.7514 47.5164C13.1949 47.9451 13.5572 48.4505 13.8208 49.0083L14.0186 49.3588C14.2985 49.9493 14.7796 50.4209 15.3757 50.6889C15.7364 50.7715 16.1139 50.7408 16.4565 50.6008C16.7991 50.4609 17.0902 50.2186 17.29 49.907C17.7079 49.2277 17.8555 48.4162 17.7034 47.6332C17.697 47.5971 17.6981 47.56 17.7066 47.5243C17.715 47.4886 17.7306 47.455 17.7525 47.4256C17.7744 47.3961 17.802 47.3715 17.8338 47.3531C17.8655 47.3347 17.9007 47.323 17.9371 47.3186C18.0097 47.3083 18.0835 47.3271 18.1424 47.3708C18.2013 47.4146 18.2405 47.4798 18.2516 47.5523C18.4116 48.4324 18.2522 49.3406 17.8023 50.1137C17.886 52.3038 18.5733 54.4282 19.7885 56.2521C20.3882 57.2009 21.2231 57.9784 22.212 58.5091C23.201 59.0398 24.3105 59.3057 25.4326 59.2809C25.506 59.2757 25.5787 59.299 25.6356 59.3458C25.6924 59.3926 25.7291 59.4594 25.7381 59.5325C25.7406 59.5691 25.7358 59.6059 25.724 59.6406C25.7122 59.6753 25.6937 59.7074 25.6694 59.735C25.6452 59.7625 25.6158 59.785 25.5829 59.8012C25.5499 59.8173 25.5141 59.8268 25.4775 59.8291H25.0371C23.8934 59.7762 22.7788 59.451 21.7862 58.8804C20.7935 58.3098 19.9515 57.5104 19.3301 56.5487C18.1662 54.7978 17.4729 52.7766 17.3169 50.6799C16.8912 51.0547 16.3472 51.2679 15.7801 51.2821C15.5848 51.2836 15.3905 51.2532 15.2049 51.1922C14.4713 50.8898 13.8757 50.3263 13.5333 49.6104C13.4703 49.4936 13.4074 49.3768 13.3355 49.2599C13.1038 48.7606 12.7841 48.307 12.3919 47.9208C12.1749 47.7456 11.9434 47.5892 11.6998 47.4534L11.2684 47.1928C10.2878 46.5068 9.5537 45.5238 9.17436 44.3888C8.80838 43.2803 8.66185 42.1111 8.74297 40.9466C8.75285 40.1409 8.93681 39.3468 9.28222 38.6188C9.55599 38.1017 9.9431 37.6531 10.4146 37.3067C9.94756 37.3103 9.48306 37.2375 9.03955 37.091C8.90186 37.238 8.73706 37.357 8.55422 37.4415C8.7394 37.6911 8.85218 37.9869 8.88012 38.2964C8.90806 38.6059 8.85008 38.9171 8.71259 39.1958C8.5751 39.4745 8.36341 39.7099 8.10079 39.8761C7.83818 40.0422 7.53482 40.1328 7.22409 40.1377C7.32917 40.7021 7.32917 41.281 7.22409 41.8453C7.85809 42.8019 8.27809 43.8841 8.45538 45.0179C8.56779 46.0273 8.56779 47.0461 8.45538 48.0556C8.45538 48.2893 8.41043 48.514 8.39246 48.7476C8.30356 49.6481 8.34899 50.5568 8.52726 51.4439C8.68005 51.0394 8.85981 50.653 9.03057 50.2755C9.20133 49.898 9.37208 49.5475 9.51588 49.179C9.80059 48.5101 9.87581 47.7706 9.73159 47.058C9.73159 47.058 9.73159 46.9681 9.73159 46.9232C9.70619 46.8587 9.70571 46.7871 9.73027 46.7223C9.75483 46.6575 9.80264 46.6042 9.86439 46.5728C9.92614 46.5413 9.99739 46.534 10.0642 46.5523C10.1311 46.5706 10.1887 46.6131 10.2259 46.6715C11.1085 47.8514 11.9074 49.0917 12.6165 50.3834C14.6207 51.5697 16.2115 53.6997 17.308 56.6745C17.3206 56.7087 17.3262 56.7451 17.3244 56.7815C17.3226 56.8179 17.3135 56.8535 17.2975 56.8863C17.2816 56.9191 17.2591 56.9482 17.2316 56.9721C17.204 56.9959 17.1719 57.014 17.1372 57.025H17.0473C16.9905 57.0264 16.9347 57.0097 16.8878 56.9774C16.841 56.9452 16.8056 56.8989 16.7867 56.8453C16.1005 54.6777 14.8059 52.7529 13.0569 51.3001C13.5832 52.4703 13.8588 53.7377 13.8658 55.0208C15.9329 57.78 16.1666 60.4133 16.2475 63.8105C16.3014 65.9945 15.9329 74.4067 15.4655 77.6961C15.442 78.7482 15.1312 79.7738 14.5668 80.6619C13.9173 81.3376 13.1251 81.8596 12.248 82.1898L10.4955 83.0076C12.2625 83.4361 13.9685 84.0853 15.5734 84.9399C16.0587 85.1736 16.4721 85.3893 16.8766 85.5511C19.4829 86.6925 19.9413 87.5822 20.2738 88.2473C20.3163 88.337 20.3644 88.4241 20.4176 88.5079C20.4538 88.5713 20.4638 88.6463 20.4453 88.7169C20.4268 88.7874 20.3814 88.848 20.3188 88.8854C20.2718 88.8989 20.2219 88.8989 20.1749 88.8854C20.1276 88.8854 20.0811 88.873 20.04 88.8493C19.999 88.8257 19.965 88.7916 19.9413 88.7506L19.7795 88.463C19.4919 87.8878 19.0785 87.1059 16.6609 86.0454L15.3397 85.4252C13.3715 84.4816 10.4056 83.0705 9.20132 83.6278L5.34573 85.4252C4.51975 85.7783 3.73842 86.2278 3.01799 86.7644C0.905951 88.49 0.411634 91.3749 0.213911 93.3881C-0.000633294 94.0893 -0.0546792 94.8299 0.0557785 95.5549C0.166236 96.2798 0.438374 96.9707 0.852023 97.5762ZM15.852 40.9556C15.8651 41.0283 15.8488 41.1032 15.8066 41.1639C15.7645 41.2245 15.7 41.266 15.6273 41.2791C15.5536 41.2896 15.4788 41.2711 15.4184 41.2275C15.3581 41.184 15.317 41.1187 15.3038 41.0454C15.2118 40.5766 14.9969 40.1407 14.681 39.7822C14.3652 39.4237 13.9598 39.1556 13.5063 39.0053C13.061 38.8733 12.5839 38.8987 12.155 39.0771C11.7262 39.2555 11.3719 39.5761 11.1516 39.9849C10.8761 40.5426 10.7462 41.161 10.7741 41.7824C10.7391 42.8562 11.0305 43.9154 11.61 44.8201C11.9332 45.2924 12.3646 45.6806 12.8682 45.9526C13.1019 46.0964 13.3355 46.2491 13.5872 46.4379C14.4341 47.0494 15.0913 47.8873 15.4835 48.8555C15.4964 48.8891 15.5024 48.9249 15.5012 48.9609C15.5 48.9968 15.4916 49.0322 15.4765 49.0648C15.4614 49.0975 15.44 49.1268 15.4134 49.1511C15.3868 49.1753 15.3557 49.194 15.3218 49.206C15.2893 49.214 15.2554 49.214 15.2229 49.206C15.1671 49.208 15.1121 49.1927 15.0654 49.1621C15.0187 49.1315 14.9827 49.0872 14.9622 49.0352C14.6124 48.1621 14.0199 47.4073 13.2546 46.8603C13.012 46.6805 12.7873 46.5367 12.5716 46.4019C12.0009 46.0839 11.5117 45.6378 11.1426 45.0988C10.5125 44.1072 10.199 42.9474 10.2439 41.7734C10.2155 41.0574 10.3702 40.3459 10.6932 39.7063C10.9783 39.1897 11.4313 38.7859 11.9773 38.562C12.5232 38.338 13.1293 38.3074 13.695 38.475C14.2428 38.6645 14.7308 38.9954 15.1096 39.4341C15.4884 39.8729 15.7445 40.404 15.852 40.9735V40.9556ZM16.0048 43.4451C16.1292 43.7141 16.3212 43.9463 16.562 44.1191L16.6609 44.209C16.9388 44.4038 17.1692 44.6588 17.3349 44.955C17.4343 45.1594 17.4859 45.3837 17.4859 45.611C17.4859 45.8383 17.4343 46.0627 17.3349 46.2671C17.2507 46.4491 17.1259 46.6093 16.9701 46.7355C16.8143 46.8617 16.6317 46.9505 16.4362 46.9951C16.2597 47.0381 16.0786 47.0593 15.8969 47.058C15.2658 47.0401 14.6651 46.7831 14.2163 46.339C13.8441 46.0405 13.5447 45.6613 13.3407 45.2299C13.1367 44.7986 13.0335 44.3266 13.0389 43.8495C13.0397 43.4184 13.1669 42.9969 13.405 42.6374C13.643 42.278 13.9814 41.9963 14.3781 41.8273C14.4454 41.7978 14.5213 41.7943 14.591 41.8176C14.6608 41.8408 14.7194 41.8891 14.7555 41.9532C14.7866 42.0213 14.7899 42.0988 14.7647 42.1692C14.7396 42.2397 14.6879 42.2976 14.6207 42.3306C14.3164 42.4532 14.056 42.6644 13.8733 42.9369C13.6906 43.2093 13.594 43.5304 13.5962 43.8585C13.5977 44.256 13.6871 44.6483 13.8581 45.0072C14.029 45.3661 14.2771 45.6828 14.5848 45.9346C14.8002 46.1642 15.0721 46.3332 15.3734 46.4247C15.6747 46.5162 15.9947 46.5269 16.3014 46.4558C16.4103 46.4273 16.5114 46.3745 16.597 46.3013C16.6826 46.2282 16.7505 46.1366 16.7957 46.0334C16.8573 45.9027 16.8893 45.76 16.8893 45.6155C16.8893 45.471 16.8573 45.3283 16.7957 45.1976C16.6584 44.9754 16.4781 44.7829 16.2654 44.6314L16.1576 44.5415C15.847 44.3063 15.5999 43.9974 15.4386 43.6428C15.3482 43.4212 15.3383 43.1749 15.4105 42.9467C15.4827 42.7185 15.6326 42.5228 15.834 42.3935C16.3912 42.079 17.0204 42.5194 17.254 42.6811C17.3094 42.725 17.346 42.7882 17.3565 42.858C17.3671 42.9278 17.3507 42.999 17.3108 43.0572C17.2708 43.1154 17.2103 43.1563 17.1413 43.1715C17.0724 43.1868 17.0003 43.1754 16.9395 43.1395C16.544 42.8609 16.2744 42.78 16.0947 42.8789C16.0231 42.9567 15.9783 43.0554 15.967 43.1606C15.9557 43.2657 15.9784 43.3717 16.0318 43.463L16.0048 43.4451ZM39.6597 30.1437L39.8484 30.2156C40.4126 30.4911 41.0212 30.6645 41.6459 30.7279C42.0503 30.7279 42.1042 30.647 42.275 30.4313C42.3195 30.3735 42.3849 30.3355 42.4572 30.3254C42.5295 30.3153 42.6028 30.334 42.6614 30.3774C42.7185 30.4248 42.755 30.4924 42.7634 30.5661C42.7717 30.6398 42.7513 30.7138 42.7064 30.7728C42.5942 30.9386 42.4406 31.0723 42.2609 31.1605C42.0812 31.2488 41.8816 31.2886 41.6818 31.2761C40.9748 31.2318 40.2839 31.0454 39.6507 30.7279L39.4619 30.656C38.0942 30.0949 36.6349 29.7903 35.157 29.7572C33.4836 29.8984 31.8833 30.5055 30.5374 31.5098C29.8184 31.9682 28.6141 32.5613 28.5602 32.5883C28.5217 32.5965 28.4819 32.5965 28.4434 32.5883C28.3911 32.59 28.3395 32.5764 28.2948 32.5493C28.2502 32.5221 28.2143 32.4826 28.1917 32.4355C28.1604 32.3698 28.1561 32.2945 28.1796 32.2256C28.2031 32.1568 28.2526 32.0998 28.3176 32.067C28.3176 32.067 29.5488 31.4559 30.2408 31.0155C31.6739 29.9517 33.3777 29.3132 35.157 29.1731C36.704 29.2377 38.2278 29.5722 39.6597 30.1617V30.1437ZM33.2157 36.4798C32.4332 36.127 31.6086 35.8763 30.7621 35.7339H30.6902C30.6562 35.7118 30.6259 35.6845 30.6003 35.653C30.6003 35.653 30.6003 35.653 30.6003 35.5991C30.5954 35.5784 30.5954 35.5568 30.6003 35.5362C30.6003 35.5362 30.6003 35.5361 30.6003 35.4912C30.5952 35.4645 30.5952 35.4371 30.6003 35.4103C30.6196 35.3742 30.6473 35.3434 30.6812 35.3204C31.0162 35.1361 31.3196 34.8994 31.58 34.6194C32.1256 34.0785 32.7115 33.5798 33.3325 33.1275C34.1324 32.5148 35.0504 32.0742 36.0287 31.8333C36.5837 31.6991 37.1653 31.725 37.7062 31.9079C38.247 32.0909 38.7249 32.4234 39.0844 32.8669C39.4261 33.4154 39.6553 34.0264 39.7585 34.6644C39.8347 35.0189 39.9368 35.3674 40.0641 35.7069C40.0641 35.7069 40.0641 35.7069 40.0641 35.7608C40.0732 35.7992 40.0732 35.8393 40.0641 35.8777C40.069 35.9044 40.069 35.9318 40.0641 35.9586C40.0641 35.9586 40.0641 35.9586 40.0641 36.0125C39.023 36.8911 37.6962 37.3579 36.3343 37.3247H35.7771C34.8849 37.1863 34.0203 36.9072 33.2157 36.4978V36.4798ZM34.0066 50.2216C36.1493 49.0443 37.9205 47.2918 39.1204 45.1617C39.1373 45.129 39.1607 45.1001 39.1891 45.0768C39.2176 45.0535 39.2505 45.0363 39.2858 45.0262C39.3212 45.0161 39.3582 45.0134 39.3947 45.0181C39.4312 45.0228 39.4663 45.035 39.4979 45.0538C39.562 45.0898 39.6094 45.1496 39.6296 45.2203C39.6498 45.291 39.6412 45.3669 39.6057 45.4313C38.3561 47.6471 36.5136 49.4709 34.2852 50.6979C34.2412 50.7111 34.1943 50.7111 34.1504 50.6979C34.1017 50.6986 34.0536 50.6865 34.011 50.6629C33.9685 50.6392 33.9328 50.6048 33.9077 50.5631C33.8818 50.5036 33.8775 50.4369 33.8956 50.3745C33.9136 50.3122 33.9529 50.2581 34.0066 50.2216ZM41.1426 45.3774C41.3649 45.6061 41.6156 45.8054 41.8885 45.9705C41.9488 46.0125 41.9907 46.0758 42.0058 46.1477C42.0208 46.2195 42.0078 46.2944 41.9694 46.357C41.9435 46.3947 41.9085 46.4252 41.8677 46.4456C41.8268 46.466 41.7814 46.4757 41.7357 46.4738C41.6814 46.4746 41.6282 46.4589 41.5829 46.4289C41.2522 46.2454 40.9496 46.0153 40.6842 45.7458C40.4669 45.4963 40.3081 45.2014 40.2195 44.8826C40.1309 44.5638 40.1146 44.2293 40.1719 43.9034C40.2368 43.58 40.3719 43.2749 40.5676 43.0093C40.7632 42.7438 41.0147 42.5244 41.3043 42.3666C41.3361 42.3496 41.3709 42.3391 41.4068 42.3357C41.4427 42.3324 41.4789 42.3363 41.5133 42.3472C41.5476 42.3581 41.5794 42.3757 41.6068 42.3991C41.6342 42.4225 41.6567 42.4512 41.6728 42.4834C41.7083 42.5478 41.7169 42.6237 41.6967 42.6944C41.6765 42.7651 41.6291 42.8249 41.565 42.8609C41.3465 42.9751 41.1568 43.1375 41.0103 43.3358C40.8638 43.5341 40.7643 43.7631 40.7193 44.0055C40.6742 44.2479 40.6849 44.4973 40.7505 44.735C40.816 44.9727 40.9347 45.1923 41.0976 45.3774H41.1426ZM44.5488 39.212C44.4859 39.0053 44.414 38.8076 44.3331 38.6009C44.2522 38.3942 44.1893 38.2234 44.1264 38.0257C43.9172 37.2158 43.8174 36.3815 43.8298 35.5451C43.8286 35.509 43.8347 35.473 43.8477 35.4392C43.8607 35.4054 43.8804 35.3746 43.9055 35.3486C43.9307 35.3226 43.9608 35.302 43.9941 35.2879C44.0274 35.2738 44.0633 35.2665 44.0994 35.2665C44.1727 35.2664 44.2432 35.2942 44.2967 35.3443C44.3501 35.3944 44.3824 35.463 44.387 35.5362C44.3725 36.3206 44.4632 37.1035 44.6567 37.8639C44.7106 38.0436 44.7825 38.2234 44.8544 38.4031C44.9263 38.5829 45.0161 38.8345 45.0791 39.0592C45.2221 39.5187 45.2221 40.0108 45.0791 40.4702C45.0594 40.5241 45.024 40.5708 44.9776 40.6045C44.9312 40.6381 44.8757 40.6571 44.8184 40.659H44.7196C44.6857 40.647 44.6545 40.6283 44.6279 40.604C44.6013 40.5798 44.5799 40.5505 44.5648 40.5178C44.5497 40.4852 44.5413 40.4498 44.5401 40.4139C44.5389 40.3779 44.5449 40.3421 44.5578 40.3085C44.6714 39.9685 44.6808 39.6023 44.5847 39.2569L44.5488 39.212ZM45.4475 44.7752C45.4818 44.7882 45.5131 44.8078 45.5398 44.8328C45.5664 44.8579 45.5879 44.888 45.6029 44.9214C45.6179 44.9548 45.6263 44.9908 45.6274 45.0274C45.6285 45.064 45.6223 45.1005 45.6093 45.1347C45.5973 45.1686 45.5786 45.1998 45.5544 45.2264C45.5301 45.2529 45.5008 45.2744 45.4681 45.2895C45.4355 45.3045 45.4001 45.3129 45.3642 45.3141C45.3282 45.3153 45.2924 45.3093 45.2588 45.2965C44.8476 45.1549 44.4044 45.1348 43.9821 45.2383C43.5597 45.3419 43.1761 45.5649 42.8771 45.8807C42.852 45.9065 42.822 45.927 42.7888 45.941C42.7556 45.955 42.7199 45.9622 42.6839 45.9622C42.6479 45.9622 42.6122 45.955 42.579 45.941C42.5458 45.927 42.5158 45.9065 42.4907 45.8807C42.4646 45.8548 42.4439 45.824 42.4298 45.79C42.4156 45.7561 42.4083 45.7197 42.4083 45.6829C42.4083 45.6462 42.4156 45.6098 42.4298 45.5759C42.4439 45.5419 42.4646 45.5111 42.4907 45.4852C42.8643 45.0969 43.3413 44.8237 43.8653 44.6979C44.3893 44.5721 44.9383 44.5989 45.4475 44.7752ZM47.6584 23.6188C47.6339 23.6878 47.5839 23.7448 47.5188 23.7782C47.4537 23.8116 47.3782 23.8189 47.3079 23.7986C46.6752 23.5685 45.9924 23.5126 45.3307 23.6368L45.0521 23.6907C44.7575 23.7629 44.4564 23.8051 44.1534 23.8166H43.9017C43.6183 23.7739 43.3408 23.6985 43.0749 23.5919L42.8052 23.484C42.1045 23.1442 41.3256 22.9984 40.5494 23.0616C40.477 23.0724 40.4032 23.0551 40.3431 23.0134C40.283 22.9716 40.2411 22.9085 40.2259 22.8369C40.2128 22.7643 40.2291 22.6893 40.2712 22.6287C40.3133 22.568 40.3779 22.5265 40.4506 22.5134C41.3303 22.4269 42.2168 22.5856 43.0119 22.9718L43.2726 23.0706C43.4951 23.1624 43.7272 23.2287 43.9646 23.2683C44.3033 23.2919 44.6436 23.2585 44.9712 23.1695L45.2588 23.1156C46.0095 22.9702 46.7855 23.0292 47.5056 23.2863C47.567 23.314 47.6162 23.3629 47.6443 23.424C47.6724 23.4851 47.6774 23.5543 47.6584 23.6188ZM45.6902 26.2432C45.3525 26.3373 45.0063 26.3975 44.6567 26.4229C43.9663 26.3913 43.29 26.2169 42.6704 25.9106H42.5985C41.3961 25.3604 40.0584 25.176 38.7519 25.3804C38.6795 25.3911 38.6057 25.3739 38.5456 25.3321C38.4855 25.2904 38.4436 25.2273 38.4284 25.1557C38.4192 25.1202 38.4175 25.0831 38.4236 25.0469C38.4297 25.0107 38.4434 24.9762 38.4638 24.9456C38.4842 24.9151 38.5107 24.8892 38.5418 24.8696C38.5729 24.8501 38.6077 24.8373 38.6441 24.8321C40.0567 24.6112 41.503 24.808 42.8052 25.3984H42.8861C43.4299 25.6784 44.0277 25.8378 44.6387 25.8657C44.9433 25.8455 45.2448 25.7912 45.5374 25.7039L45.9868 25.5961C46.4662 25.4728 46.9659 25.4499 47.4546 25.5288C47.9433 25.6077 48.4105 25.7866 48.8268 26.0544C48.8874 26.0963 48.9291 26.1604 48.9425 26.2328C48.956 26.3052 48.9402 26.3801 48.8987 26.4409C48.8743 26.4779 48.8408 26.508 48.8015 26.5284C48.7622 26.5489 48.7183 26.559 48.674 26.5577C48.6194 26.5611 48.5653 26.5452 48.5212 26.5128C48.1644 26.2865 47.7644 26.1368 47.3467 26.0734C46.9289 26.01 46.5026 26.0341 46.0946 26.1443L45.6902 26.2432ZM48.9436 51.7494C48.4825 50.4816 48.2423 49.144 48.2336 47.795C48.2324 47.7588 48.2385 47.7228 48.2515 47.689C48.2645 47.6553 48.2842 47.6245 48.3093 47.5985C48.3345 47.5725 48.3647 47.5518 48.398 47.5377C48.4313 47.5236 48.4671 47.5163 48.5033 47.5164C48.5394 47.5152 48.5754 47.5212 48.6092 47.5342C48.6429 47.5473 48.6738 47.5669 48.6997 47.5921C48.7257 47.6172 48.7464 47.6474 48.7605 47.6807C48.7746 47.714 48.7819 47.7498 48.7819 47.786C48.7939 49.0709 49.0249 50.3444 49.4649 51.5517C49.4779 51.5859 49.484 51.6224 49.4829 51.659C49.4818 51.6956 49.4735 51.7316 49.4585 51.765C49.4435 51.7984 49.4221 51.8285 49.3954 51.8536C49.3687 51.8786 49.3374 51.8982 49.3031 51.9112H49.2043C49.1455 51.917 49.0864 51.9046 49.035 51.8757C48.9835 51.8467 48.9422 51.8027 48.9167 51.7494H48.9436ZM47.9191 53.9064C47.3798 53.1335 46.7956 52.3696 45.9868 52.2887C45.7984 52.2712 45.6089 52.2712 45.4206 52.2887C45.123 52.3373 44.8195 52.3373 44.5218 52.2887C44.2381 52.2113 43.9682 52.09 43.722 51.9292C43.5311 51.8081 43.3258 51.7115 43.1108 51.6416C42.739 51.5892 42.36 51.6262 42.0054 51.7494L41.4391 51.9112C40.188 52.3872 38.8345 52.5297 37.5117 52.3246C37.4492 52.3081 37.3944 52.2704 37.3567 52.2179C37.319 52.1654 37.3007 52.1015 37.305 52.037C37.3219 51.9736 37.3613 51.9186 37.4159 51.8822C37.4705 51.8458 37.5365 51.8305 37.6015 51.8393C38.4552 51.7209 39.2719 51.4139 39.9922 50.9406L40.6033 50.5182C40.8889 50.2945 41.1891 50.0904 41.5021 49.907C42.0272 49.5865 42.6421 49.4446 43.2546 49.5026C43.6658 48.8579 43.9694 48.1507 44.1534 47.4085C44.1705 47.3373 44.2149 47.2756 44.2772 47.2369C44.3394 47.1982 44.4144 47.1856 44.4859 47.2018C44.5208 47.2092 44.5539 47.2236 44.5833 47.2439C44.6126 47.2643 44.6377 47.2902 44.6569 47.3203C44.6761 47.3504 44.6892 47.3841 44.6953 47.4193C44.7014 47.4545 44.7005 47.4905 44.6926 47.5253C44.5242 48.2696 44.2455 48.9845 43.8658 49.6464L44.2522 49.8261C44.4717 49.9493 44.7078 50.0401 44.9532 50.0957C45.1831 50.1229 45.4154 50.1229 45.6453 50.0957C45.8129 50.0867 45.9809 50.0867 46.1486 50.0957C46.0316 49.7882 45.9678 49.463 45.9598 49.1341C45.9687 48.672 46.0198 48.2118 46.1126 47.759C46.1257 47.6863 46.1672 47.6218 46.2279 47.5797C46.2885 47.5376 46.3634 47.5213 46.4361 47.5343C46.5088 47.5475 46.5734 47.5889 46.6155 47.6496C46.6576 47.7103 46.6739 47.7852 46.6608 47.8579C46.5726 48.2747 46.5244 48.6991 46.517 49.1251C46.5062 49.5174 46.6092 49.9045 46.8136 50.2396C46.8633 50.2599 46.9114 50.2839 46.9574 50.3115C47.1777 50.4654 47.3593 50.6685 47.4877 50.9046C48.0221 51.7623 48.354 52.7305 48.4583 53.7356C48.4627 53.7965 48.4477 53.8571 48.4154 53.9088C48.383 53.9604 48.3351 54.0005 48.2786 54.0232H48.1797C48.1256 54.0358 48.0689 54.0313 48.0174 54.0104C47.9659 53.9894 47.9222 53.9532 47.8921 53.9064H47.9191ZM47.6225 55.1017C47.2949 55.3237 46.9175 55.4611 46.5239 55.5019C46.1303 55.5427 45.7328 55.4855 45.3667 55.3354C45.2408 55.2815 45.115 55.2096 44.9982 55.1467C44.8727 55.0712 44.7403 55.008 44.6027 54.9579C44.0045 54.8194 43.3784 54.8632 42.8052 55.0838L42.1581 55.2365C41.3895 55.3857 40.5979 55.3682 39.8366 55.1852C39.0754 55.0023 38.3622 54.6581 37.7453 54.176C37.7161 54.1533 37.6917 54.1249 37.6736 54.0925C37.6555 54.0602 37.644 54.0246 37.6398 53.9878C37.6356 53.9509 37.6388 53.9136 37.6492 53.8781C37.6596 53.8425 37.677 53.8094 37.7004 53.7806C37.7523 53.7306 37.8216 53.7027 37.8936 53.7027C37.9657 53.7027 38.0349 53.7306 38.0869 53.7806C38.6396 54.2162 39.2798 54.5276 39.9637 54.6936C40.6477 54.8595 41.3594 54.8761 42.0503 54.7422L42.6704 54.5895C43.3607 54.3298 44.1147 54.2921 44.8274 54.4816C44.9853 54.5455 45.1385 54.6206 45.2858 54.7063C45.3936 54.7602 45.5015 54.8231 45.6093 54.8681C45.8887 54.9861 46.1935 55.0316 46.4952 55.0002C46.7969 54.9687 47.0858 54.8615 47.3349 54.6883C47.3957 54.6468 47.4705 54.631 47.543 54.6445C47.6154 54.658 47.6795 54.6996 47.7214 54.7602C47.743 54.8229 47.7423 54.8912 47.7193 54.9534C47.6964 55.0157 47.6527 55.0681 47.5955 55.1017H47.6225ZM35.3816 60.1347C35.3413 60.1307 35.3023 60.1181 35.2674 60.0975C35.2325 60.077 35.2024 60.0491 35.1794 60.0157C35.1564 59.9824 35.1409 59.9444 35.1341 59.9045C35.1272 59.8645 35.1292 59.8236 35.1398 59.7845C35.1504 59.7454 35.1694 59.709 35.1955 59.678C35.2216 59.647 35.2541 59.6221 35.2908 59.6049C35.3275 59.5878 35.3676 59.5789 35.4081 59.5788C35.4486 59.5787 35.4886 59.5874 35.5254 59.6044C37.3041 60.0786 39.1849 60.0002 40.9179 59.3797L41.4212 59.182C41.7178 59.0652 42.0143 58.9483 42.3199 58.8585C43.1063 58.6245 43.9332 58.5597 44.7464 58.6681C45.5597 58.7765 46.3407 59.0558 47.0383 59.4876C47.0914 59.5306 47.1268 59.5916 47.1379 59.6591C47.1489 59.7265 47.1348 59.7957 47.0982 59.8534C47.0615 59.9111 47.005 59.9533 46.9393 59.972C46.8736 59.9907 46.8033 59.9847 46.7417 59.9549C46.1114 59.5664 45.4065 59.3145 44.6727 59.2155C43.9389 59.1164 43.1925 59.1723 42.4817 59.3797C42.1941 59.4696 41.9065 59.5865 41.6279 59.6943L41.1066 59.901C40.06 60.2768 38.9562 60.4684 37.8442 60.4672C37.0031 60.4697 36.1656 60.3578 35.3547 60.1347H35.3816ZM31.4631 86.5127C31.4632 86.5489 31.4559 86.5847 31.4418 86.618C31.4277 86.6513 31.407 86.6815 31.381 86.7066C31.355 86.7318 31.3242 86.7514 31.2905 86.7645C31.2567 86.7775 31.2207 86.7836 31.1845 86.7823C31.1479 86.7812 31.1119 86.7728 31.0786 86.7577C31.0452 86.7426 31.0151 86.7211 30.9901 86.6944C30.9651 86.6677 30.9455 86.6363 30.9326 86.6021C30.9197 86.5678 30.9137 86.5313 30.9149 86.4947C31.0407 81.5067 33.9616 75.9435 35.2109 73.7866C35.2498 73.7287 35.3091 73.6875 35.377 73.6712C35.4448 73.6549 35.5163 73.6647 35.5773 73.6986C35.6383 73.7325 35.6844 73.788 35.7064 73.8542C35.7284 73.9205 35.7248 73.9925 35.6962 74.0562C34.438 76.1862 31.571 81.6505 31.4362 86.5127H31.4631ZM24.6776 106.779C24.6908 106.707 24.7322 106.642 24.7929 106.6C24.8536 106.558 24.9285 106.542 25.0012 106.555C25.0551 106.555 30.3307 107.525 33.674 105.782C37.0174 104.038 44.8993 100.111 48.7998 99.6613C48.8384 99.6513 48.8787 99.6497 48.9179 99.6566C48.9572 99.6635 48.9945 99.6788 49.0274 99.7013C49.0602 99.7239 49.0879 99.7532 49.1084 99.7873C49.129 99.8215 49.1419 99.8597 49.1465 99.8993C49.151 99.9388 49.147 99.979 49.1347 100.017C49.1225 100.055 49.1022 100.09 49.0753 100.119C49.0484 100.148 49.0155 100.172 48.9788 100.187C48.9422 100.203 48.9026 100.211 48.8627 100.21C44.9442 100.668 36.4422 104.973 33.9347 106.276C32.1941 107.071 30.2931 107.453 28.3804 107.39C27.2116 107.395 26.0447 107.295 24.8933 107.094C24.8561 107.091 24.82 107.08 24.7872 107.062C24.7544 107.044 24.7257 107.02 24.7029 106.99C24.6801 106.96 24.6636 106.926 24.6546 106.89C24.6457 106.854 24.6443 106.816 24.6507 106.779H24.6776ZM22.7543 84.9669C21.8556 78.3072 20.8041 70.7488 18.9616 64.5205C18.9507 64.4857 18.947 64.4491 18.9506 64.4128C18.9543 64.3765 18.9653 64.3413 18.9829 64.3094C19.0006 64.2774 19.0245 64.2494 19.0533 64.227C19.0821 64.2046 19.1151 64.1883 19.1504 64.179C19.1846 64.1679 19.2207 64.1638 19.2565 64.1669C19.2923 64.17 19.3272 64.1802 19.359 64.1969C19.3908 64.2137 19.419 64.2366 19.4418 64.2644C19.4646 64.2922 19.4817 64.3243 19.4919 64.3588C21.3433 70.6499 22.3858 78.2084 23.3026 84.895C23.4643 86.0454 23.6171 87.1778 23.7789 88.2742C23.7892 88.3469 23.7704 88.4207 23.7267 88.4796C23.683 88.5385 23.6177 88.5777 23.5452 88.5888H23.5003C23.4346 88.5894 23.3709 88.566 23.3213 88.5229C23.2716 88.4799 23.2394 88.4203 23.2307 88.3551C23.0419 87.2497 22.8892 86.1173 22.7274 84.9669H22.7543Z" fill="white"></path></svg>