<svg xmlns="http://www.w3.org/2000/svg" width="77" height="91" viewBox="0 0 77 91" fill="none"><path d="M60.3109 43.1147C60.5202 43.4752 60.7296 43.8358 60.9273 44.1963C59.4502 44.3243 57.9033 44.5685 56.3914 44.836C56.624 44.3243 56.8798 43.7893 57.159 43.231C57.6126 42.2773 58.0894 41.3003 58.4848 40.335C59.1129 41.1956 59.6479 42.0912 60.2527 43.01C60.2621 43.0496 60.2822 43.0858 60.3109 43.1147Z" fill="#990000"></path><path d="M61.23 43.4287C66.8888 44.9133 72.1819 47.546 76.7801 51.163C76.7801 52.2563 76.687 53.3729 76.594 54.501C72.8024 49.6395 65.1495 45.4641 61.6952 44.2661L61.23 43.4287Z" fill="white"></path><path d="M55.4843 40.4976C54.7748 40.7884 54.0537 41.0908 53.3093 41.3816C53.8094 39.4276 54.2165 37.5202 54.5887 35.7407C54.9609 36.1129 55.3215 36.4851 55.6704 36.9038C56.1123 37.369 56.531 37.8575 56.9381 38.346C56.9332 38.3651 56.9332 38.385 56.9381 38.4041L57.8104 39.509C57.066 39.8231 56.2635 40.1603 55.4843 40.4976Z" fill="#990000"></path><path d="M59.7063 49.4995C60.7298 49.4995 61.7184 49.4297 62.6953 49.3716C61.7067 50.3951 60.8344 51.3604 59.997 52.3141C59.6593 51.3674 59.2711 50.4395 58.834 49.5344L59.7063 49.4995Z" fill="#990000"></path><path d="M22.1276 33.4378C23.2092 34.9614 24.3258 36.5432 25.4074 37.997C24.2443 38.5785 23.0813 39.1601 22.1857 39.7532C20.9617 40.5336 19.6598 41.1845 18.3011 41.6955C18.243 40.5325 18.5221 33.7867 18.9175 28.9717C20.0341 30.4022 21.0692 31.9375 22.1276 33.4378Z" fill="#990000"></path><path d="M18.2198 27.9136C17.6848 28.123 17.1614 28.3439 16.638 28.5766L5.30981 4.95483C5.97276 4.61754 6.65895 4.29189 7.33353 3.97786L7.65918 3.82666C9.15953 7.15301 10.6599 10.6771 12.1137 14.1081C14.0909 18.7254 16.103 23.494 18.2198 27.9136Z" fill="white"></path><path d="M62.1487 45.0918C66.0915 46.6503 73.3257 50.9071 76.5008 55.4314C76.4078 56.4316 76.2915 57.4435 76.1519 58.4554C72.5718 53.54 68.0141 49.4179 62.7651 46.3479C62.5674 45.9292 62.358 45.5105 62.1487 45.0918Z" fill="white"></path><path d="M20.3714 27.1459L18.8362 27.6809C16.7194 23.2496 14.6957 18.4811 12.7418 13.8521C11.288 10.4211 9.78761 6.87377 8.27563 3.55905C9.22934 3.15198 10.1249 2.80306 10.8925 2.52393C12.672 6.71094 14.3817 11.3748 16.0681 15.8758C17.4522 19.6209 18.8711 23.4822 20.3714 27.1459Z" fill="white"></path><path d="M32.0137 35.6826C30.7541 35.913 29.5167 36.2516 28.3152 36.6945C27.6871 36.9271 26.9777 37.2412 26.2566 37.5784C26.3962 34.2056 26.6171 30.3907 27.0824 26.7969C29.0247 29.972 30.6762 32.9611 32.0137 35.6826Z" fill="#990000"></path><path d="M25.6169 37.1714C24.6399 35.8572 23.6397 34.4382 22.6628 33.0542C21.4997 31.4375 20.3366 29.7744 19.1736 28.2508C21.5326 27.3819 23.9712 26.7469 26.4543 26.355C25.9891 29.9372 25.7681 33.7753 25.6169 37.1714Z" fill="#990000"></path><path d="M59.6828 48.8487H58.9617C59.8107 47.6856 60.6016 46.4179 61.4273 45.1152C61.6987 45.6192 61.9546 46.131 62.195 46.6505C62.1884 46.6811 62.1884 46.7129 62.195 46.7435C62.4896 47.3716 62.7688 48.0113 63.0324 48.6626C61.9042 48.7672 60.8458 48.8021 59.6828 48.8487Z" fill="#990000"></path><path d="M49.6458 39.1019C50.3785 38.5553 51.088 38.0668 51.8323 37.5434C52.5767 37.0201 53.1349 36.6363 53.8328 36.1245C53.4955 37.7877 53.1117 39.5323 52.6697 41.3234C51.8254 40.5782 50.9232 39.9015 49.9714 39.2997L49.6458 39.1019Z" fill="#990000"></path><path d="M56.4031 45.4991C57.8685 45.2432 59.3922 44.9989 60.8227 44.8594C59.997 46.1853 59.1944 47.4414 58.3454 48.6161C57.7667 47.5358 57.1178 46.4946 56.4031 45.4991Z" fill="#990000"></path><path d="M55.7401 41.1029C56.4147 40.8121 57.1125 40.5213 57.822 40.2422C57.4382 41.1377 56.9962 42.0566 56.5659 42.9405C56.2751 43.5337 56.0076 44.1035 55.7634 44.6269C55.0497 43.7126 54.2724 42.8498 53.4373 42.0449L55.7401 41.1029Z" fill="#990000"></path><path d="M44.9352 28.3089C44.4468 28.0995 43.9466 27.8901 43.4465 27.7041C44.8189 23.2728 46.7263 18.7136 48.5872 14.3173C49.7503 11.5724 50.9134 8.7462 51.9601 5.98975C53.2015 6.702 54.405 7.47842 55.5656 8.31586C51.6626 14.7827 48.114 21.4569 44.9352 28.3089Z" fill="white"></path><path d="M53.5303 33.8453L52.5649 33.0196C54.5726 31.122 56.7059 29.3618 58.9501 27.7509C62.194 25.6798 65.6198 23.9085 69.1851 22.459C69.8945 23.5174 70.5691 24.599 71.2088 25.7272C64.8184 27.183 58.7991 29.9472 53.5303 33.8453Z" fill="white"></path><path d="M54.6004 34.8334L54.0305 34.2984C59.2513 30.4508 65.2167 27.7335 71.5462 26.3198L71.7904 26.7734C72.3409 27.7736 72.8411 28.8088 73.2908 29.8788C65.8356 29.4717 58.0663 32.9609 54.6004 34.8334Z" fill="white"></path><path d="M48.913 30.4023C48.5059 30.158 48.0989 29.9138 47.6802 29.6928C50.1459 24.459 54.1933 18.6437 60.0551 11.9678C61.0786 12.8866 62.0672 13.8519 63.0093 14.8173C57.4557 19.1698 52.688 24.441 48.913 30.4023Z" fill="white"></path><path d="M24.3492 26.0757L23 26.3897C20.8099 17.9155 18.1344 9.57418 14.9866 1.40716C15.8472 1.20944 16.6962 1.03499 17.5453 0.883789C18.7083 4.93123 19.8133 9.22293 20.9182 13.3751C22.0231 17.5272 23.2094 21.9701 24.3492 26.0757Z" fill="white"></path><path d="M73.4303 70.7839C72.9185 72.4005 72.337 73.9358 71.7089 75.4361C70.5459 68.4578 68.9525 60.7583 65.7773 55.3617C65.7773 55.1175 65.6843 54.8732 65.6262 54.6406C65.5099 54.1638 65.3936 53.6869 65.2656 53.2217C69.441 58.0833 72.6976 66.434 73.4303 70.7839Z" fill="white"></path><path d="M56.0193 36.2758C55.7169 35.9501 55.4029 35.6245 55.0889 35.3221C58.6362 33.4728 66.3124 30.0301 73.5699 30.5535C74.0351 31.7166 74.4538 32.8796 74.8259 34.1706C68.4786 33.4013 62.0394 34.1221 56.0193 36.2758Z" fill="white"></path><path d="M64.8701 51.8142C64.6724 51.1746 64.4631 50.5465 64.2305 49.9185C69.755 54.245 73.1046 60.4907 74.9888 65.1313C74.6515 66.6549 74.2677 68.1203 73.8257 69.5276C72.7092 64.5614 69.1967 56.2222 64.8701 51.8142Z" fill="white"></path><path d="M54.0071 35.1826C53.1115 35.8572 52.2741 36.4387 51.46 37.0086C50.6458 37.5785 50.0876 37.9623 49.4014 38.4625C49.4014 37.8111 49.4014 37.1249 49.4014 36.4155C49.4014 34.8337 49.4828 33.2054 49.4828 31.5771C50.0062 31.9261 50.5179 32.2866 51.0064 32.6588C52.057 33.4384 53.059 34.2812 54.0071 35.1826Z" fill="#990000"></path><path d="M27.2103 25.5873C26.2799 21.4468 25.3378 17.0621 24.419 12.7937C23.5001 8.52522 22.6046 4.32658 21.6858 0.255874C22.8489 0.127938 24.0119 0.0465224 25.175 0L29.1875 25.3779C28.5594 25.4361 27.8849 25.5059 27.2103 25.5873Z" fill="white"></path><path d="M26.559 25.6805C26.0472 25.7503 25.5238 25.8434 25.0005 25.948C23.8374 21.8308 22.6744 17.4461 21.5113 13.2126C20.3482 8.97902 19.2666 4.80364 18.1384 0.767823C19.0921 0.593364 20.0458 0.465427 20.9763 0.349121C21.9067 4.44309 22.8372 8.76966 23.7327 12.9567C24.6283 17.1437 25.6285 21.5517 26.559 25.6805Z" fill="white"></path><path d="M30.7342 25.3547H29.8735L25.8494 0C27.2101 0 28.5942 3.54851e-06 29.9899 0.0581565C30.048 8.01348 30.8738 17.2598 31.653 25.3663L30.7342 25.3547Z" fill="white"></path><path d="M33.9911 25.5061C33.4444 25.5061 32.9094 25.4131 32.3628 25.3898C31.5835 17.2484 30.7578 8.04859 30.688 0.0932617C31.851 0.163045 33.0955 0.267719 34.34 0.418917C33.9562 7.10651 33.9678 14.2128 33.9794 21.0981C33.9911 22.5868 33.9911 24.0523 33.9911 25.5061Z" fill="white"></path><path d="M47.9476 14.0844C46.0867 18.4924 44.1793 23.04 42.7953 27.4945L41.167 26.9478C42.1091 23.1563 43.3768 19.1786 44.598 15.3172C45.8192 11.4559 47.0288 7.73408 47.9593 4.02393C49.1223 4.53567 50.2854 5.08232 51.3438 5.68711C50.3435 8.45519 49.1107 11.3163 47.9476 14.0844Z" fill="white"></path><path d="M32.3627 34.9037C31.0252 32.2171 29.3969 29.3094 27.4895 26.2157C28.5658 26.0794 29.6495 26.0095 30.7344 26.0063C32.0991 26.0101 33.4623 26.0955 34.8168 26.2622C33.7506 29.0664 32.9295 31.9577 32.3627 34.9037Z" fill="#990000"></path><path d="M7.32175 68.1554C7.84513 66.783 8.25219 65.8293 8.40339 65.4688C8.60459 64.8714 8.96387 64.3396 9.44307 63.93C9.92227 63.5205 10.5035 63.2484 11.1249 63.1426C11.0086 63.5032 10.8575 63.8521 10.7063 64.201L10.5434 64.5965C10.1596 65.492 9.7409 66.3876 9.38035 67.2599C8.77556 68.5625 8.21729 69.7837 7.81022 70.9002C7.81022 71.2957 7.75207 71.6679 7.74044 72.0633C7.72881 72.4587 7.74045 72.7728 7.6823 73.0752C7.6777 73.1375 7.6905 73.1998 7.71925 73.2552C7.748 73.3107 7.79155 73.3571 7.84511 73.3892C7.89905 73.4233 7.96156 73.4414 8.02538 73.4414C8.0892 73.4414 8.15171 73.4233 8.20565 73.3892L8.40339 73.2496C8.91563 72.8929 9.40508 72.5044 9.86885 72.0866L9.95024 71.9819C10.5318 70.6909 11.6367 68.3066 13.1022 65.271C14.4746 62.4332 15.4283 60.9794 16.6844 60.8979C17.2873 60.9128 17.8792 61.0626 18.4166 61.3364C18.954 61.6101 19.4232 62.0008 19.7897 62.4797C20.4503 63.27 21.0491 64.1098 21.5808 64.9919C21.9065 65.492 22.2322 65.9922 22.5811 66.4806C23.4399 67.6759 24.5318 68.6847 25.7911 69.4464C22.8873 70.4791 19.7162 70.4791 16.8123 69.4464C15.7018 68.9833 14.8138 68.1079 14.335 67.004C14.31 66.9461 14.2697 66.896 14.2185 66.8592C14.1673 66.8223 14.1071 66.8 14.0442 66.7946C13.9832 66.7957 13.9234 66.8123 13.8705 66.8429C13.8176 66.8734 13.7733 66.9168 13.7418 66.9691C10.4709 73.313 7.52454 79.819 4.91421 86.462C3.53064 86.8183 2.1175 87.048 0.6923 87.1482C0.635825 87.1356 0.586071 87.1024 0.552739 87.0551C0.535433 87.023 0.526367 86.987 0.526367 86.9505C0.526367 86.9139 0.535433 86.878 0.552739 86.8458C2.09961 82.6472 5.48412 72.924 7.32175 68.1554Z" fill="white"></path><path d="M64.2307 54.8615L64.8122 54.1753C64.8704 54.3846 64.9169 54.594 64.9634 54.8033C65.1608 55.685 65.3007 56.5786 65.3821 57.4784C64.9053 57.4784 64.3005 57.6063 63.6026 57.6994L61.5906 57.9669C62.3582 57.0597 63.3235 55.9431 64.2307 54.8615Z" fill="#990000"></path><path d="M58.5895 27.204C56.284 28.8435 54.0995 30.6471 52.0532 32.6006L51.4484 32.1353L51.1111 31.8795C55.6559 26.8748 60.8875 22.54 66.6495 19.0044C67.4249 19.9581 68.146 20.9351 68.8128 21.9353C65.2541 23.3817 61.8326 25.1451 58.5895 27.204Z" fill="white"></path><path d="M66.2193 63.6308C66.2193 62.8748 66.2193 62.0956 66.2193 61.3047C67.7339 68.1515 68.3826 75.1615 68.15 82.17C68.0453 82.3328 67.9523 82.4956 67.8476 82.6468C67.3475 83.4028 66.7892 83.8099 66.2658 83.6703H66.103C65.8219 83.5261 65.5913 83.2997 65.4417 83.0214C65.2922 82.7431 65.2308 82.4259 65.2656 82.1118C65.2656 78.6808 65.5215 75.5638 65.7657 72.5515C65.9286 70.3998 66.103 68.1784 66.1844 65.9104C66.2309 65.1312 66.2309 64.3635 66.2193 63.6308Z" fill="white"></path><path d="M50.5761 31.4954C50.2156 31.2395 49.8434 30.9953 49.4712 30.751C53.201 24.8352 57.9223 19.6064 63.4279 15.2939C64.0443 15.9453 64.5909 16.5966 65.1957 17.2595C65.533 17.655 65.8703 18.0504 66.196 18.4226C60.397 22.0192 55.138 26.4207 50.5761 31.4954Z" fill="white"></path><path d="M47.0987 29.3789C46.5869 29.1114 46.0636 28.8439 45.5286 28.5996C48.6882 21.7812 52.2135 15.1382 56.0891 8.69971C56.5195 9.02536 56.9498 9.35103 57.3685 9.68831C58.1129 10.2815 58.834 10.8514 59.5551 11.5376C53.67 18.2484 49.5876 24.087 47.0987 29.3789Z" fill="white"></path><path d="M22.3605 26.5527L20.9881 26.9482C19.4994 23.2845 18.0572 19.3999 16.6732 15.6432C14.9983 11.1538 13.277 6.50159 11.4976 2.31458L12.2652 2.08197L14.3238 1.55859C17.4818 9.72825 20.1652 18.0735 22.3605 26.5527Z" fill="white"></path><path d="M4.72841 5.25684L16.045 28.8437L15.3123 29.1926L14.5214 29.6113L2.71631 6.4199C3.33273 6.02445 4.01895 5.62901 4.72841 5.25684Z" fill="white"></path><path d="M38.0266 4.57071C37.2706 11.5491 36.4797 18.8763 35.9563 25.75C35.5027 25.6802 35.0608 25.6221 34.6072 25.5756V21.0978C34.6072 14.2357 34.6072 7.14107 34.9561 0.5C36.1191 0.647321 37.2822 0.833423 38.4453 1.05828L38.0266 4.57071Z" fill="white"></path><path d="M71.2669 76.4709C70.554 78.046 69.7461 79.5763 68.8477 81.0534C69.0288 73.462 68.1241 65.8836 66.1611 58.5482C66.1611 58.1295 66.1611 57.7108 66.0564 57.3037C68.7547 62.7003 70.1736 69.9229 71.2087 76.4012C71.2251 76.4268 71.2446 76.4502 71.2669 76.4709Z" fill="white"></path><path d="M4.08862 90.1835C12.3696 90.9046 27.8732 88.1365 32.2579 85.6592C33.6803 84.9965 34.889 83.949 35.7471 82.6352C36.3437 81.3768 36.6875 80.0135 36.7589 78.6227C36.8375 77.8407 36.9618 77.064 37.1311 76.2965C37.334 75.3591 37.7883 74.4947 38.4454 73.796C38.7621 73.4641 39.1523 73.2113 39.5846 73.0578C40.0169 72.9042 40.4792 72.8543 40.9343 72.912C42.2602 73.1563 43.2604 74.4705 43.8303 76.8083C44.0048 77.5294 44.1793 78.2621 44.3421 78.9832C44.6956 80.8979 45.2411 82.7722 45.9704 84.5775C46.4555 85.8698 47.2329 87.0324 48.2416 87.9746C49.2504 88.9168 50.4633 89.6131 51.7857 90.009C51.928 90.0338 52.0736 90.0338 52.216 90.009C52.4747 89.9531 52.7035 89.8032 52.8582 89.5884C53.0128 89.3736 53.0824 89.1091 53.0534 88.846C53.0078 88.472 52.885 88.1116 52.6928 87.7876L52.5998 87.6247C51.9275 86.0635 51.7608 84.3309 52.123 82.6701C52.4071 81.3312 52.8401 80.0282 53.414 78.7855L53.4953 78.5878C51.1692 78.1807 45.2725 73.0981 44.3188 72.2026C38.3577 66.6837 32.7338 60.8112 27.4777 54.6171L27.1754 54.2682C24.832 51.5764 22.734 48.6805 20.9064 45.615C20.4258 45.8034 19.9015 45.8518 19.3945 45.7546H19.1967C18.6837 45.6354 18.2131 45.378 17.836 45.0103C17.3116 46.1695 16.8648 47.3623 16.4984 48.5808C16.0376 50.2085 15.3733 51.7716 14.5213 53.2331C14.3352 53.5006 14.1491 53.7681 13.9397 54.0472C14.3471 54.5426 14.6234 55.1323 14.7433 55.7623C14.8632 56.3923 14.8229 57.0424 14.6259 57.6527C16.0535 56.6723 17.7946 56.2578 19.5108 56.4896C21.6521 56.8641 23.5878 57.9949 24.9655 59.6764C25.5445 60.4275 26.073 61.2162 26.5473 62.0374C27.943 64.3636 29.5131 66.9107 32.3626 68.0039C32.4393 68.0312 32.503 68.0862 32.5412 68.1581C32.5794 68.2301 32.5892 68.3137 32.5688 68.3925C32.5484 68.4714 32.4992 68.5397 32.4308 68.584C32.3625 68.6283 32.2801 68.6454 32.1997 68.632H32.13C29.0246 67.4689 27.3847 64.759 25.9425 62.3864C25.479 61.5828 24.9703 60.8062 24.4189 60.0602C23.1641 58.4936 21.3748 57.4456 19.3945 57.1177C18.4719 56.9739 17.5284 57.0461 16.6384 57.3286C15.7484 57.6112 14.9361 58.0963 14.2654 58.746C14.2143 58.7966 14.1483 58.8295 14.0772 58.8399C14.0061 58.8504 13.9335 58.8379 13.87 58.8041C13.8051 58.7662 13.7542 58.7084 13.7249 58.6392C13.6956 58.5701 13.6893 58.4933 13.7071 58.4203C14.1258 56.9665 14.3701 55.4778 13.4629 54.4776V54.5357C12.7968 55.3257 12.234 56.1972 11.7881 57.1293C11.5359 58.2581 11.5598 59.4311 11.8578 60.5487C11.9337 60.8699 11.9843 61.1966 12.0091 61.5257C12.0198 62.5539 11.7761 63.5687 11.2996 64.4799L11.1368 64.8637C10.7529 65.7708 10.3226 66.6781 9.91552 67.5503C9.31073 68.8297 8.75247 70.0393 8.39192 71.0395C8.39192 71.3535 8.39193 71.7141 8.33378 72.0863C8.33378 72.2026 8.33378 72.3189 8.33378 72.4352C8.64781 72.2026 8.99671 71.9467 9.334 71.6443C9.92716 70.3417 11.0204 67.9807 12.4626 64.98C13.9048 61.9793 14.9981 60.3277 16.6031 60.2463C17.3048 60.2537 17.9956 60.4197 18.6241 60.7319C19.2525 61.0441 19.8021 61.4944 20.2319 62.0491C20.9139 62.8636 21.5358 63.7265 22.0928 64.6311C22.4107 65.135 22.7363 65.6235 23.0697 66.0965C24.0259 67.4062 25.2615 68.4868 26.6869 69.26C26.7383 69.2964 26.7793 69.3456 26.8059 69.4027C26.8324 69.4598 26.8435 69.5229 26.8381 69.5857C26.8316 69.6471 26.8072 69.7052 26.7678 69.7527C26.7285 69.8003 26.6761 69.8353 26.6171 69.8532C23.3934 71.1617 19.8022 71.2445 16.5217 70.0858C15.4593 69.6388 14.5671 68.8647 13.9746 67.876C10.3015 75.1386 7.00189 82.5841 4.08862 90.1835ZM8.99673 87.5433C8.99353 87.5002 8.99925 87.4568 9.01359 87.416C9.02793 87.3752 9.05055 87.3377 9.08004 87.3061C9.10952 87.2744 9.14526 87.2492 9.18496 87.232C9.22466 87.2147 9.26748 87.2059 9.31075 87.206C15.3478 86.9507 21.3368 86.0143 27.1637 84.4147C27.247 84.3885 27.3373 84.3964 27.4147 84.4368C27.4922 84.4771 27.5504 84.5466 27.5766 84.6299C27.6028 84.7132 27.5949 84.8034 27.5545 84.8809C27.5142 84.9583 27.4447 85.0165 27.3614 85.0427C21.4774 86.6567 15.4299 87.6008 9.334 87.8573H9.26421C9.18923 87.8461 9.12087 87.8081 9.0717 87.7504C9.02253 87.6927 8.9959 87.6191 8.99673 87.5433Z" fill="white"></path><path d="M0.0295575 8.68818C0.624466 7.9308 1.34907 7.28499 2.16962 6.78076L13.9514 29.914L12.2184 30.9026L10.0552 27.1459C6.62413 21.2492 3.0768 15.1432 0.0179511 8.8859C0.00437386 8.85431 -0.00163741 8.81999 0.000381674 8.78566C0.00240076 8.75134 0.0123703 8.71796 0.0295575 8.68818Z" fill="white"></path><path d="M22.5115 40.3119C24.4455 39.1616 26.4633 38.1586 28.5478 37.3112C32.0261 36.1395 35.722 35.7591 39.366 36.1977C43.0099 36.6364 46.51 37.883 49.6108 39.8466C54.9495 43.4985 58.742 49.0027 60.2528 55.292C60.4156 55.9317 60.6482 57.0832 60.8343 58.0718C60.2063 58.1648 59.2177 58.2695 58.5082 58.316C58.4152 57.7112 58.2989 57.1529 58.1825 56.6761C57.5859 54.202 56.6587 51.8196 55.4261 49.5931C54.6245 48.0901 53.657 46.6818 52.5417 45.3944C50.5383 43.2029 48.0866 41.4682 45.3533 40.3082C42.62 39.1483 39.669 38.5902 36.7008 38.6719C30.9858 38.8782 25.4971 40.9584 21.081 44.5919C20.8388 44.7658 20.5627 44.8865 20.2707 44.9463C19.9786 45.006 19.6773 45.0034 19.3863 44.9387C19.0954 44.8739 18.8214 44.7484 18.5823 44.5704C18.3432 44.3924 18.1444 44.1659 17.9989 43.9057C17.8348 43.3909 17.7562 42.8526 17.7662 42.3123C18.6269 42.4635 20.1505 41.7075 22.5115 40.3119Z" fill="#990000"></path><path d="M15.603 29.7861C16.4792 29.3519 17.3748 28.9642 18.2897 28.623C17.8943 33.3451 17.6035 40.1257 17.6384 41.6377C16.6847 39.8698 15.8589 38.1485 15.068 36.5319C14.2772 34.9152 13.4746 33.2404 12.5442 31.4958C13.5328 30.891 14.8587 30.1583 15.603 29.7861Z" fill="#990000"></path><path d="M53.7628 77.9479C56.5426 71.6674 57.9964 66.4452 58.1825 61.7697C58.15 60.1044 57.9395 58.4473 57.5544 56.8267C56.9781 54.3882 56.0703 52.0403 54.8561 49.8484C54.0857 48.3849 53.149 47.015 52.0648 45.766C50.1218 43.6478 47.7468 41.9712 45.1003 40.8496C42.4538 39.728 39.5974 39.1875 36.724 39.2645C31.1612 39.49 25.8256 41.5327 21.5345 45.0798C21.523 45.0971 21.5168 45.1173 21.5168 45.138C21.5168 45.1587 21.523 45.1789 21.5345 45.1962C23.3395 48.2198 25.4101 51.0767 27.7219 53.733L28.0243 54.0819C33.2629 60.2587 38.8714 66.1118 44.8189 71.6092C47.9475 74.7378 52.9254 78.1689 53.7628 77.9479ZM50.6342 71.6209C50.6029 71.6806 50.5532 71.7287 50.4925 71.7581C50.4317 71.7874 50.3632 71.7964 50.2969 71.7837H50.1922C50.1543 71.7621 50.121 71.733 50.0945 71.6983C50.068 71.6636 50.0488 71.6239 50.0379 71.5816C50.0271 71.5392 50.0248 71.4951 50.0314 71.4519C50.0379 71.4087 50.053 71.3673 50.0759 71.3301C51.2967 69.1688 52.0125 66.7592 52.1695 64.2819C52.1663 64.2392 52.1716 64.1962 52.1851 64.1554C52.1986 64.1147 52.22 64.0771 52.2481 64.0446C52.2762 64.0122 52.3105 63.9857 52.3488 63.9665C52.3872 63.9474 52.4291 63.936 52.4719 63.933C52.515 63.9282 52.5586 63.9323 52.6 63.9452C52.6415 63.9581 52.6798 63.9794 52.7125 64.0078C52.7453 64.0362 52.7719 64.0711 52.7905 64.1103C52.8091 64.1495 52.8194 64.1921 52.8208 64.2354C52.6664 66.8352 51.9099 69.3635 50.611 71.6209H50.6342ZM52.0299 74.6448C51.9956 74.7012 51.945 74.7459 51.8848 74.7729C51.8245 74.7999 51.7575 74.808 51.6926 74.796C51.6382 74.7912 51.5859 74.7723 51.5411 74.7411C51.4962 74.7099 51.4603 74.6675 51.4368 74.6182C51.4133 74.5689 51.403 74.5143 51.4071 74.4598C51.4112 74.4053 51.4294 74.3528 51.46 74.3075C53.5397 70.641 54.7531 66.5473 55.0073 62.3396C55.0042 62.2959 55.0099 62.252 55.0241 62.2106C55.0383 62.1691 55.0607 62.1309 55.0901 62.0983C55.1194 62.0658 55.155 62.0394 55.1947 62.021C55.2345 62.0025 55.2775 61.9922 55.3213 61.9907C55.3644 61.9859 55.4081 61.99 55.4495 62.0029C55.491 62.0158 55.5293 62.0371 55.5621 62.0655C55.5948 62.0939 55.6214 62.1288 55.64 62.168C55.6586 62.2071 55.6689 62.2498 55.6703 62.2931C55.3992 66.6345 54.1465 70.8577 52.0066 74.6448H52.0299Z" fill="white"></path><path d="M38.015 35.3686C36.3117 35.2459 34.6002 35.3044 32.9092 35.543C33.4385 32.6284 34.2168 29.7646 35.2353 26.9829C35.9215 28.681 36.4681 30.4721 37.0031 32.1934C37.3288 33.2402 37.6661 34.3102 38.015 35.3686Z" fill="#990000"></path><path d="M44.0167 15.1314C42.7838 18.9811 41.5161 22.9472 40.5275 26.762L39.1667 26.4014C39.8878 19.7604 41.1905 11.8516 43.1211 2.25635C44.5633 2.69831 45.9706 3.21005 47.3314 3.77995C46.4475 7.50174 45.2146 11.3747 44.0167 15.1314Z" fill="white"></path><path d="M46.5055 33.8099L44.5748 36.2175C44.4003 35.1242 44.2724 34.0193 44.1445 32.9493C43.9584 31.4606 43.7723 29.9253 43.4932 28.4482C45.3082 29.159 47.0558 30.0309 48.7153 31.0535L46.5055 33.8099Z" fill="#990000"></path><path d="M48.8781 31.9028C48.8781 33.4148 48.8781 34.9268 48.7967 36.3922C48.7967 37.1482 48.7967 37.881 48.7967 38.5672C47.5719 37.8836 46.2919 37.3039 44.9702 36.8342L47.0521 34.229L48.8781 31.9028Z" fill="#990000"></path><path d="M39.0618 1.18652C40.2248 1.4424 41.3879 1.73317 42.551 2.07046C40.6086 11.6773 39.3177 19.5978 38.585 26.2505C37.9336 26.0993 37.2707 25.9713 36.6194 25.855C37.1428 18.9697 37.9336 11.689 38.6896 4.65245L39.0618 1.18652Z" fill="white"></path><path d="M42.5744 28.0993C41.9464 29.2623 41.2137 30.4254 40.4926 31.6699C39.7715 32.9143 39.1667 33.8913 38.5735 34.9497C38.2479 33.9727 37.9338 32.9725 37.6314 32.0071C37.0615 30.1346 36.4684 28.2156 35.7124 26.3779C38.0508 26.7245 40.3493 27.3011 42.5744 28.0993Z" fill="#990000"></path><path d="M42.8999 28.8672C43.1558 30.228 43.3187 31.6469 43.4931 33.0193C43.621 34.1824 43.7606 35.3454 43.9583 36.5085C42.3562 36.0011 40.7085 35.6505 39.0386 35.4617C39.655 34.2987 40.3645 33.1356 41.0623 31.9726C41.7601 30.8095 42.33 29.8907 42.8999 28.8672Z" fill="#990000"></path><path d="M59.7061 40.9396C59.4851 40.6139 59.2758 40.2999 59.0432 39.9858C63.2651 39.9858 70.4645 40.4394 76.4891 42.9168V43.0098C76.5034 43.0387 76.5109 43.0706 76.5109 43.1028C76.5109 43.1351 76.5034 43.167 76.4891 43.1959C76.5938 44.2659 76.6636 45.3476 76.7101 46.4641C71.1041 42.5795 62.5091 41.2768 59.7061 40.9396Z" fill="white"></path><path d="M63.8001 48.7669C63.6257 48.3016 63.4279 47.8364 63.2302 47.3828C68.2693 50.4929 72.6223 54.5966 76.0239 59.4437C75.8029 61.0139 75.5354 62.5259 75.233 64.0029C73.1627 59.1646 69.5805 52.9306 63.8001 48.7669Z" fill="white"></path><path d="M60.532 52.7331C61.4159 51.7213 62.3464 50.7094 63.4047 49.6045C63.7188 50.4186 63.9979 51.256 64.2654 52.1051C64.3584 52.4307 64.4631 52.7564 64.5562 53.0937C63.7769 53.0006 62.9977 52.9309 62.23 52.8494C61.6601 52.8145 61.1019 52.7331 60.532 52.7331Z" fill="#990000"></path><path d="M57.3799 37.8228C57.0892 37.4739 56.7868 37.1249 56.4844 36.7876C62.4301 34.7119 68.7787 34.0548 75.0235 34.8686C75.3259 35.9619 75.5934 37.0784 75.8144 38.2182C69.7898 36.4504 63.4162 37.0552 57.3799 37.8228Z" fill="white"></path><path d="M60.1829 41.6606C63.4743 42.091 71.5925 43.4983 76.7913 47.2782C76.7913 48.2785 76.7913 49.2787 76.7913 50.3022C72.0399 46.6418 66.5714 44.0225 60.7411 42.6144L60.1829 41.6606Z" fill="white"></path><path d="M58.5663 39.3346C58.3336 39.0244 58.101 38.722 57.8684 38.4274C63.8233 37.6714 70.0922 37.1596 75.9656 38.9507C75.9713 38.9776 75.9713 39.0053 75.9656 39.0322C76.1517 40.0673 76.3029 41.114 76.4308 42.1724C70.1154 39.6718 62.6718 39.3113 58.5663 39.3346Z" fill="white"></path><path d="M61.3462 57.2691C61.2067 56.5364 61.0322 55.6757 60.881 55.1175C60.7298 54.5592 60.5554 53.9544 60.3577 53.3496L62.1488 53.5124L64.3586 53.7334L63.7654 54.4313C62.9164 55.4082 62.0557 56.4084 61.3462 57.2691Z" fill="#990000"></path></svg>