<svg xmlns="http://www.w3.org/2000/svg" width="77" height="89" viewBox="0 0 77 89" fill="none"><path d="M44.9988 21.8417C45.3261 21.678 45.5779 21.5773 45.792 21.4891C46.2286 21.3477 46.6082 21.0696 46.8748 20.6959C47.2564 20.3512 47.6793 20.0552 48.1338 19.8146L48.713 19.4243C49.1869 19.0982 49.7385 18.9028 50.312 18.8577C50.7554 18.8318 51.1866 18.7024 51.5711 18.48C51.9703 18.1648 52.3488 17.8241 52.7042 17.4601L52.956 17.2083L53.1323 17.0698L43.3494 19.462H43.0976C43.0057 19.4751 42.9125 19.4751 42.8206 19.462L37.6584 18.0897L37.9228 18.2659C38.542 18.6665 39.1273 19.1171 39.6729 19.6131L40.655 20.5826C41.3311 21.2942 42.1394 21.8673 43.0347 22.2697C43.3902 22.1538 43.7576 22.0777 44.13 22.0431C44.4282 22.0206 44.7212 21.9527 44.9988 21.8417Z" fill="white"></path><path d="M64.7032 48.6217C64.6738 48.2609 64.5716 47.9098 64.4028 47.5895C64.234 47.2693 64.0022 46.9865 63.7212 46.7583C59.8433 49.8304 49.8715 51.9834 37.8601 51.9834C25.8487 51.9834 15.751 49.843 11.9738 46.7583C11.4316 47.2246 11.0928 47.8842 11.0295 48.5965C11.0295 52.5626 23.3431 55.9117 37.8979 55.9117C52.4526 55.9117 64.7032 52.5752 64.7032 48.6217Z" fill="white"></path><path d="M55.5117 16.4657C54.7009 16.6837 53.9652 17.1191 53.3839 17.7248L53.1321 17.964C52.7341 18.3495 52.3137 18.7111 51.873 19.0468C51.4059 19.3412 50.8746 19.5183 50.3243 19.563C49.876 19.5912 49.4424 19.7343 49.0653 19.9785C48.9394 20.0792 48.6876 20.2303 48.4232 20.4066C48.054 20.6296 47.7006 20.8778 47.3655 21.1494C47.0278 21.6153 46.5521 21.9633 46.0058 22.1441C45.7567 22.2402 45.513 22.3495 45.2755 22.4714C44.9271 22.6352 44.5515 22.7333 44.1676 22.761C43.8815 22.7932 43.599 22.8522 43.324 22.9373V24.6118L76.0595 16.6546C76.0595 16.6546 76.0595 16.6546 76.1477 16.6546V11.4043L55.5117 16.4657Z" fill="white"></path><path d="M42.9339 18.7569H43.0976L75.7576 10.7744L63.872 7.22389C62.2118 6.91532 60.524 6.7803 58.8358 6.82099H58.5588C58.2965 6.82362 58.0374 6.76316 57.8034 6.64472C57.3963 6.47706 56.9749 6.34643 56.5443 6.25441C56.0586 6.1518 55.5569 6.1518 55.0712 6.25441C54.6117 6.33355 54.1391 6.27665 53.7114 6.09074C53.0024 5.74482 52.3756 5.25112 51.8732 4.64282C51.3167 3.92921 50.5831 3.37362 49.7454 3.03122C46.9251 2.1247 38.2628 0.0346625 38.1746 0.00948134C38.1423 -0.00316044 38.1063 -0.00316044 38.0739 0.00948134L0.553955 7.50088L42.9339 18.7569Z" fill="white"></path><path d="M43.0222 25.4175C42.9177 25.4298 42.812 25.4298 42.7075 25.4175L25.345 20.8093C24.3504 20.5449 24.086 20.356 23.7964 20.0413L23.6579 19.8776C23.5187 19.707 23.3627 19.5509 23.192 19.4117C23.0072 19.2711 22.8038 19.1567 22.5877 19.0718L22.3862 18.9837C21.9783 18.7529 21.6123 18.4549 21.3035 18.1023C20.976 17.692 20.5397 17.3822 20.0444 17.2084C19.9311 17.2084 19.8681 17.2084 19.6667 17.4224C19.5663 17.5592 19.4326 17.668 19.2784 17.7385C19.1241 17.809 18.9544 17.8389 18.7853 17.8253C18.5755 17.8033 18.3733 17.7345 18.1936 17.6239C18.1936 17.6239 18.118 17.6239 17.7655 17.6239C17.6018 17.6239 17.5263 17.6994 17.413 17.8379C17.3298 17.9409 17.2271 18.0265 17.1108 18.0897C16.0876 18.3417 15.0105 18.2578 14.0387 17.8505L9.53125 16.667C9.64457 23.3652 22.2981 28.7791 37.8475 28.7791C50.3122 28.7791 61.1275 25.3041 64.7662 20.2427L43.274 25.4552C43.1889 25.452 43.1045 25.4394 43.0222 25.4175ZM29.9784 25.7322C22.4995 24.8761 16.4309 22.7734 13.7365 20.0916C13.7012 20.058 13.673 20.0177 13.6536 19.9731C13.6341 19.9285 13.6238 19.8804 13.6232 19.8317C13.6226 19.783 13.6318 19.7347 13.6501 19.6896C13.6685 19.6445 13.6957 19.6035 13.7301 19.569C13.7646 19.5346 13.8056 19.5074 13.8507 19.4891C13.8958 19.4707 13.9441 19.4615 13.9928 19.4621C14.0415 19.4627 14.0895 19.4731 14.1342 19.4925C14.1788 19.512 14.2191 19.5402 14.2527 19.5754C16.7708 22.0935 22.7388 24.1836 30.0539 25.0146C30.1496 25.0272 30.2369 25.0759 30.2978 25.1509C30.3587 25.2258 30.3885 25.3212 30.3813 25.4175C30.3687 25.5122 30.3194 25.5983 30.2441 25.6571C30.1688 25.716 30.0734 25.7429 29.9784 25.7322Z" fill="white"></path><path d="M62.3991 40.8911V42.0494C62.3991 45.8266 49.9218 48.1559 37.86 48.1559C25.7982 48.1559 13.3335 45.877 13.3335 42.0369V40.9541C12.7107 41.2126 12.1666 41.63 11.7556 42.1647C11.3446 42.6994 11.0812 43.3326 10.9917 44.001C11.0263 44.3936 11.1427 44.7745 11.3336 45.1193C11.5244 45.4642 11.7854 45.7651 12.0997 46.0029C12.0997 46.0029 12.0997 46.0029 12.1752 46.0029C12.2508 46.0029 12.1752 46.0029 12.1752 46.0784C15.6124 49.0246 26.0249 51.228 37.8348 51.228C48.4487 51.228 59.7173 49.2261 63.4441 46.0784C63.4441 46.0784 63.4441 46.0784 63.4441 46.0029C63.4441 45.9273 63.5196 46.0029 63.5574 46.0029C63.8754 45.7571 64.1407 45.4499 64.3376 45.0995C64.5344 44.7491 64.6587 44.3627 64.7032 43.9632C64.6409 43.2881 64.3926 42.6435 63.9858 42.1011C63.5791 41.5587 63.0298 41.1399 62.3991 40.8911Z" fill="white"></path><path d="M37.8849 29.4335C26.0497 29.4335 15.8513 26.2607 11.3313 21.7281C11.0931 22.1878 10.9639 22.6961 10.9536 23.2138C10.9536 28.25 23.2924 32.5938 37.8849 32.5938C52.4774 32.5938 64.8539 28.3004 64.8539 23.2138C64.8409 22.6774 64.7029 22.1515 64.451 21.6777C60.0317 26.3237 49.6571 29.4335 37.8849 29.4335Z" fill="white"></path><path d="M14.2652 17.0821C15.5872 17.4346 16.3552 17.5731 16.8462 17.3465L16.9092 17.2835C17.0115 17.1484 17.1424 17.0377 17.2927 16.9593C17.4429 16.881 17.6086 16.8369 17.7779 16.8303C18.0681 16.7735 18.3691 16.8274 18.6215 16.9813C18.7182 17.0345 18.826 17.0647 18.9363 17.0695C18.9992 17.0695 19.037 17.0695 19.1881 16.8806C19.3055 16.7167 19.4678 16.5903 19.6555 16.5166C19.8431 16.4428 20.0481 16.425 20.2457 16.4651C20.8624 16.6695 21.4082 17.045 21.8195 17.5479C22.0689 17.839 22.362 18.0896 22.6883 18.2908L22.8897 18.3789C23.1515 18.4904 23.4006 18.6296 23.6326 18.7944C23.8443 18.9724 24.0383 19.1706 24.2117 19.3861L24.3376 19.5372C24.4635 19.6883 24.5768 19.8142 25.5337 20.0786L42.6443 24.6112V22.8863C41.6953 22.4511 40.84 21.8353 40.1262 21.0733C40.0255 20.9474 39.333 20.2675 39.1945 20.1416C38.6425 19.6743 38.0529 19.2532 37.4318 18.8825C36.8037 18.5166 36.2096 18.0953 35.6566 17.6235L0 8.10498V13.456C0 13.456 0.0629745 13.456 0.100746 13.456L14.2652 17.0821Z" fill="white"></path><path d="M19.188 37.5921V37.7432C19.3014 38.2972 19.4021 38.6623 19.9812 38.8134L20.2582 38.889C20.7095 38.9559 21.1398 39.1238 21.5173 39.38C21.7755 39.5908 21.9822 39.8578 22.1216 40.1606C22.1947 40.3247 22.2971 40.474 22.4238 40.6013C22.6421 40.72 22.8837 40.7894 23.1317 40.8046C23.3797 40.8198 23.628 40.7805 23.8591 40.6894L24.2621 40.6265C25.2988 40.4645 26.3579 40.5202 27.3719 40.7901C27.1682 40.6249 26.9537 40.4735 26.7298 40.3369C26.3143 40.0851 25.8107 39.871 25.3448 39.5437C24.8835 39.2294 24.4609 38.8617 24.0858 38.4483C23.7813 38.0795 23.4096 37.7719 22.9904 37.5418C22.7635 37.4567 22.5265 37.4017 22.2853 37.3781L21.895 37.3026L21.4921 37.1263C21.0308 36.8809 20.5558 36.6623 20.0694 36.4716C19.6916 36.3457 19.2636 36.2324 18.8103 36.1064C18.9326 36.4271 19.0171 36.7609 19.0621 37.1011C19.1251 37.2522 19.1503 37.3781 19.188 37.5921Z" fill="white"></path><path d="M37.885 33.3115C27.5985 33.3115 18.8103 31.3474 14.051 28.376V31.6873C14.3784 32.3672 15.7633 32.4427 16.5691 33.3241C16.963 33.7179 17.329 34.1386 17.6645 34.5831C17.7924 34.7496 17.9504 34.8906 18.1304 34.9986C18.3523 35.0986 18.5792 35.1868 18.8103 35.263C19.2887 35.4267 19.805 35.54 20.3338 35.7289C20.8308 35.9234 21.3145 36.1505 21.7817 36.4088L22.0964 36.5599L22.4867 36.6228C22.7698 36.6546 23.046 36.7311 23.3051 36.8494C23.8224 37.1162 24.2806 37.4845 24.6523 37.9322C25.3654 38.6854 26.2215 39.2889 27.1704 39.7075C28.1045 40.3022 28.9025 41.0873 29.5123 42.0116C30.1544 42.8174 30.7713 43.7994 31.5519 44.1394C32.0031 44.3606 32.4815 44.5214 32.9747 44.6178C33.5146 44.6981 34.0328 44.8865 34.4982 45.1718C34.5182 45.1873 34.5324 45.209 34.5387 45.2334C34.545 45.2579 34.5429 45.2838 34.5328 45.307C34.5226 45.3301 34.505 45.3492 34.4828 45.3612C34.4606 45.3733 34.435 45.3775 34.41 45.3733C33.912 45.244 33.4009 45.1722 32.8865 45.1592C32.3268 45.1326 31.7765 45.0046 31.2624 44.7815C30.981 44.6758 30.7176 44.5272 30.4818 44.3408C30.2757 44.1478 30.0823 43.9417 29.9026 43.7239C29.55 43.3084 29.2227 42.8929 28.9079 42.4648L28.7568 42.276C28.1294 41.8434 27.4225 41.5394 26.677 41.3816C25.9314 41.2239 25.1619 41.2154 24.4131 41.3569L24.048 41.4324C23.7142 41.5343 23.3622 41.5623 23.0165 41.5144C22.6708 41.4666 22.3397 41.3441 22.0461 41.1554C21.823 40.9724 21.6462 40.7395 21.5298 40.4755C21.4365 40.2712 21.3039 40.0873 21.1395 39.9341C20.8463 39.7329 20.5099 39.6035 20.1575 39.5564L19.8427 39.4809C19.4893 39.3718 19.1785 39.1558 18.953 38.8626C18.7275 38.5695 18.5984 38.2136 18.5836 37.8441V37.693C18.5836 37.5167 18.5081 37.3405 18.4829 37.1894C18.4387 36.5737 18.1699 35.9957 17.7275 35.5652C17.5179 35.422 17.3311 35.248 17.1735 35.049C16.8599 34.6442 16.5236 34.2575 16.1662 33.8907C15.8103 33.5394 15.3801 33.2726 14.9072 33.11C14.6329 32.9865 14.3678 32.8434 14.114 32.682V41.999C14.114 44.5171 23.8969 47.4004 37.9228 47.4004C51.9487 47.4004 61.7442 44.5549 61.7442 42.0116V37.7937L61.0391 37.2649C60.8195 37.1142 60.6092 36.9502 60.4096 36.7739C59.9816 37.2668 59.4593 37.6692 58.8735 37.9574C58.5084 38.1589 58.1307 38.3225 57.7656 38.4862C57.6137 38.5429 57.4698 38.6191 57.3375 38.7129C57.2063 38.8338 57.0843 38.9642 56.9723 39.1032C56.7205 39.3927 56.5191 39.7201 56.1917 40.06C55.8644 40.4 55.1593 40.4126 55.0586 40.5259C54.4519 41.0923 53.7305 41.5217 52.9434 41.785C52.9099 41.7975 52.8729 41.7967 52.8401 41.7826C52.8072 41.7685 52.781 41.7423 52.7671 41.7094C52.7497 41.6857 52.7403 41.657 52.7403 41.6276C52.7403 41.5981 52.7497 41.5695 52.7671 41.5457C53.4592 41.179 54.078 40.6882 54.5927 40.0978C54.7927 39.9454 55.0255 39.842 55.2726 39.7956C55.4057 39.7674 55.5279 39.7019 55.6252 39.6068C55.8518 39.3676 56.0784 39.015 56.3428 38.6877C56.4852 38.52 56.641 38.3642 56.8087 38.2218C56.9917 38.0753 57.1954 37.9565 57.413 37.8693C57.7907 37.7056 58.1433 37.5545 58.4832 37.3782C59.1114 37.0879 59.6441 36.6251 60.0193 36.0436C60.0819 35.8259 60.1752 35.6182 60.2963 35.4267C60.3822 35.2962 60.454 35.157 60.5103 35.0112C60.5103 34.6587 60.8251 34.2936 61.1902 33.8781C61.3893 33.6793 61.5552 33.4497 61.6813 33.1982C61.6813 32.3546 61.6813 29.6728 61.6813 28.4263C56.8339 31.3222 47.9952 33.3115 37.885 33.3115Z" fill="white"></path><path d="M17.224 57.8381C17.201 57.6658 17.1162 57.5076 16.9854 57.393C16.8545 57.2785 16.6865 57.2153 16.5126 57.2153C16.3387 57.2153 16.1707 57.2785 16.0399 57.393C15.909 57.5076 15.8243 57.6658 15.8013 57.8381V82.629L16.3553 82.7927L17.1484 83.1075H17.224V57.8381Z" fill="#990000"></path><path d="M55.8898 59.2608C55.8898 59.0137 55.7916 58.7767 55.6169 58.602C55.4422 58.4273 55.2052 58.3291 54.9581 58.3291C54.711 58.3291 54.474 58.4273 54.2993 58.602C54.1245 58.7767 54.0264 59.0137 54.0264 59.2608V86.4817C54.5041 86.2884 54.9916 86.1203 55.4869 85.978L55.8898 85.8899V59.2608Z" fill="#990000"></path><path d="M45.88 61.3005C45.88 60.8864 45.7155 60.4893 45.4227 60.1965C45.1299 59.9037 44.7329 59.7393 44.3188 59.7393C43.9047 59.7393 43.5076 59.9037 43.2148 60.1965C42.9221 60.4893 42.7576 60.8864 42.7576 61.3005V88.3703C43.5004 88.2821 44.4069 88.9243 44.8476 88.8739C45.191 88.8428 45.5366 88.8428 45.88 88.8739V61.3005Z" fill="#990000"></path><path d="M51.2689 60.4065C51.2689 60.0726 51.1362 59.7523 50.9001 59.5162C50.664 59.2801 50.3437 59.1475 50.0098 59.1475C49.6759 59.1475 49.3556 59.2801 49.1195 59.5162C48.8834 59.7523 48.7507 60.0726 48.7507 60.4065V88.9998C49.2743 89.0015 49.7969 88.9551 50.312 88.8613C50.6285 88.7902 50.9398 88.6976 51.2437 88.5843L51.2689 60.4065Z" fill="#990000"></path><path d="M37.86 56.6294C27.2461 56.6294 18.1935 54.9674 13.5728 52.4619V81.6217C13.5728 81.7476 13.6735 82.1002 14.5674 82.3772C14.7374 82.4205 14.9098 82.4541 15.0836 82.4779V57.8381C15.1171 57.4822 15.2821 57.1517 15.5464 56.911C15.8107 56.6704 16.1553 56.5371 16.5127 56.5371C16.8701 56.5371 17.2147 56.6704 17.479 56.911C17.7433 57.1517 17.9083 57.4822 17.9417 57.8381V83.4222C18.395 83.611 18.7853 83.7495 19.1126 83.8754V59.2608C19.1488 58.8466 19.3388 58.4611 19.6453 58.1801C19.9518 57.8992 20.3525 57.7434 20.7683 57.7434C21.184 57.7434 21.5847 57.8992 21.8912 58.1801C22.1977 58.4611 22.3878 58.8466 22.4239 59.2608V84.1776H23.0409L23.7334 84.2909V60.3688C23.7116 60.0968 23.7464 59.8232 23.8355 59.5653C23.9247 59.3074 24.0663 59.0708 24.2514 58.8703C24.4365 58.6698 24.6611 58.5098 24.911 58.4004C25.161 58.2909 25.4309 58.2344 25.7038 58.2344C25.9767 58.2344 26.2466 58.2909 26.4966 58.4004C26.7465 58.5098 26.9711 58.6698 27.1562 58.8703C27.3413 59.0708 27.4829 59.3074 27.5721 59.5653C27.6612 59.8232 27.696 60.0968 27.6742 60.3688V85.1345L29.1221 85.487V61.3005C29.165 60.7237 29.4244 60.1845 29.8482 59.791C30.272 59.3975 30.829 59.1788 31.4073 59.1788C31.9857 59.1788 32.5426 59.3975 32.9665 59.791C33.3903 60.1845 33.6497 60.7237 33.6925 61.3005V86.4817C34.0577 86.4817 34.171 86.9979 34.5109 86.9979C34.8509 86.9979 35.0901 87.426 35.2664 87.4386V61.8293C35.3122 61.171 35.606 60.5546 36.0886 60.1045C36.5711 59.6544 37.2064 59.4041 37.8663 59.4041C38.5262 59.4041 39.1615 59.6544 39.6441 60.1045C40.1266 60.5546 40.4204 61.171 40.4663 61.8293V88.471H42.0401V61.3005C42.0401 60.6961 42.2802 60.1165 42.7076 59.6891C43.1349 59.2617 43.7146 59.0216 44.319 59.0216C44.9234 59.0216 45.503 59.2617 45.9304 59.6891C46.3578 60.1165 46.5979 60.6961 46.5979 61.3005V88.8487H47.1896H48.0584V60.4066C48.0584 59.8857 48.2653 59.3861 48.6337 59.0177C49.002 58.6494 49.5016 58.4424 50.0225 58.4424C50.5434 58.4424 51.043 58.6494 51.4114 59.0177C51.7797 59.3861 51.9867 59.8857 51.9867 60.4066V88.2821C52.5386 87.9975 52.9974 87.5605 53.3087 87.0231V59.2608C53.3448 58.8466 53.5349 58.4611 53.8414 58.1801C54.1479 57.8992 54.5486 57.7434 54.9643 57.7434C55.3801 57.7434 55.7807 57.8992 56.0872 58.1801C56.3937 58.4611 56.5838 58.8466 56.62 59.2608V85.7892H56.8718C57.1775 85.8172 57.4852 85.8172 57.7909 85.7892V57.8381C57.8244 57.4822 57.9894 57.1517 58.2537 56.911C58.518 56.6704 58.8625 56.5371 59.2199 56.5371C59.5774 56.5371 59.922 56.6704 60.1863 56.911C60.4506 57.1517 60.6156 57.4822 60.649 57.8381V84.6812L61.5807 84.4168C61.7449 84.3791 61.8909 84.2858 61.9942 84.1528C62.0975 84.0197 62.1515 83.855 62.1473 83.6866V52.4871C57.5391 55.0052 48.4865 56.6294 37.86 56.6294Z" fill="#990000"></path><path d="M59.9187 57.8379C59.9187 57.6509 59.8444 57.4716 59.7122 57.3393C59.58 57.2071 59.4006 57.1328 59.2136 57.1328C59.0266 57.1328 58.8473 57.2071 58.7151 57.3393C58.5828 57.4716 58.5085 57.6509 58.5085 57.8379V85.5372C58.7463 85.458 58.9777 85.3612 59.2011 85.2476C59.4032 85.1352 59.6137 85.0384 59.8306 84.958H59.9187V57.8379Z" fill="#990000"></path><path d="M39.7486 61.829C39.7486 61.3281 39.5496 60.8478 39.1955 60.4936C38.8413 60.1394 38.3609 59.9404 37.86 59.9404C37.3591 59.9404 36.8788 60.1394 36.5246 60.4936C36.1704 60.8478 35.9714 61.3281 35.9714 61.829V87.6397H36.2736C36.946 87.7409 37.6107 87.8881 38.2629 88.0804C38.747 88.2254 39.2388 88.3431 39.736 88.4329L39.7486 61.829Z" fill="#990000"></path><path d="M26.9564 60.4065C26.9564 60.0726 26.8237 59.7523 26.5876 59.5162C26.3515 59.2801 26.0312 59.1475 25.6973 59.1475C25.3634 59.1475 25.0431 59.2801 24.807 59.5162C24.5709 59.7523 24.4382 60.0726 24.4382 60.4065V84.4671H24.5641C25.093 84.6056 25.6973 84.7441 26.3268 84.8449C26.5157 84.8449 26.7297 84.933 26.9312 84.9708L26.9564 60.4065Z" fill="#990000"></path><path d="M32.9747 61.3005C32.9747 60.8864 32.8102 60.4893 32.5175 60.1965C32.2247 59.9037 31.8276 59.7393 31.4135 59.7393C30.9995 59.7393 30.6024 59.9037 30.3096 60.1965C30.0168 60.4893 29.8523 60.8864 29.8523 61.3005V85.6759L30.2678 85.7892L31.3506 86.0914C31.8838 86.2291 32.4268 86.3259 32.9747 86.3809V61.3005Z" fill="#990000"></path><path d="M21.6937 59.2608C21.6937 59.0137 21.5956 58.7767 21.4209 58.602C21.2461 58.4273 21.0092 58.3291 20.7621 58.3291C20.5149 58.3291 20.2779 58.4273 20.1032 58.602C19.9285 58.7767 19.8303 59.0137 19.8303 59.2608V84.102C20.4434 84.2253 21.071 84.2592 21.6937 84.2028V59.2608Z" fill="#990000"></path></svg>