<svg xmlns="http://www.w3.org/2000/svg" width="55" height="104" viewBox="0 0 55 104" fill="none"><path d="M14.7992 86.5168C14.4814 87.0265 14.373 87.6394 14.4967 88.2272C14.7002 89.1289 14.9885 90.0093 15.3577 90.8568C15.5838 91.1959 15.9029 91.4625 16.2769 91.6247C16.9766 91.9788 17.5467 92.5448 17.9058 93.242C18.4517 94.2731 18.8437 95.3785 19.0693 96.5232L19.1857 96.977L19.2904 97.4424C19.4009 98.1836 19.706 98.8822 20.1747 99.4669C20.6253 99.9116 21.1884 100.225 21.8036 100.374C22.0275 100.431 22.24 100.526 22.432 100.654C22.9465 101.174 23.6162 101.513 24.3401 101.619C24.9284 101.694 25.4802 101.946 25.9226 102.341C26.4164 102.869 27.0314 103.268 27.7144 103.504C28.1571 103.583 28.6037 103.638 29.0524 103.667C29.4051 103.656 29.7492 103.556 30.0531 103.376C30.3828 103.211 30.7016 103.024 31.0072 102.818C31.3239 102.606 31.6543 102.416 31.9962 102.248C33.3564 101.699 34.8323 101.499 36.2896 101.666H37.2437C37.5025 101.686 37.7622 101.642 38 101.538C38.9076 101.062 39.7753 100.513 40.5947 99.8974C40.9554 99.304 41.1532 98.9201 41.3161 98.6059C41.6361 97.9636 42.0263 97.3588 42.4796 96.8024C43.2885 95.6701 44.2386 94.6456 45.307 93.754C45.7957 93.3816 46.3658 93.0326 46.9011 92.6952C48.4253 91.7643 49.9844 90.787 50.3916 89.0417C50.5271 88.2719 50.5271 87.4844 50.3916 86.7146L49.996 83.5033C49.9607 82.9775 49.8347 82.4619 49.6237 81.979C49.4058 81.5941 49.1399 81.2383 48.8325 80.9202L48.6347 80.6991C47.7289 79.7601 47.0236 78.6467 46.5615 77.4265C46.0995 76.2064 45.8904 74.9051 45.9469 73.6016C46.0778 69.2735 46.7263 64.9767 47.8784 60.8027C46.4833 63.1282 44.7981 65.2668 42.8636 67.1673C42.5843 67.4232 42.0026 67.8886 41.2928 68.4355C38.1629 75.2422 36.5107 84.0617 35.3122 90.5426L34.9981 92.2181C34.9822 92.2931 34.9413 92.3604 34.8821 92.4091C34.8229 92.4577 34.7489 92.4847 34.6723 92.4857H34.6141C34.5721 92.4774 34.5321 92.4608 34.4964 92.437C34.4608 92.4132 34.4302 92.3825 34.4064 92.3469C34.3826 92.3112 34.3661 92.2712 34.3578 92.2291C34.3496 92.1871 34.3497 92.1438 34.3582 92.1018L34.6723 90.4263C35.8358 84.2479 37.3833 75.9403 40.2573 69.2267C38.732 70.3586 37.1388 71.3961 35.4868 72.3333C33.8128 73.2613 31.952 73.8021 30.0414 73.9157H29.2153C27.7821 73.9279 26.3678 73.5883 25.0964 72.9267L24.8986 72.8337C21.6241 71.2952 18.5033 69.4484 15.5787 67.3185C16.8703 71.9726 18.5457 78.6746 16.6492 82.9099C16.3699 83.5382 16.0442 84.1665 15.73 84.7715C15.4158 85.3765 15.0784 85.935 14.7992 86.5168ZM39.2333 88.4948C39.9208 85.8513 40.9331 83.3032 42.2469 80.9086C42.2906 80.8369 42.3602 80.7849 42.4414 80.7633C42.5225 80.7417 42.6088 80.7523 42.6823 80.7928C42.7558 80.8333 42.8109 80.9006 42.836 80.9807C42.8611 81.0608 42.8543 81.1475 42.817 81.2227C41.5263 83.567 40.5372 86.0652 39.8733 88.6577C39.8553 88.7274 39.8147 88.7892 39.7579 88.8334C39.701 88.8776 39.6311 88.9018 39.5591 88.902H39.4777C39.3953 88.8752 39.3258 88.8186 39.2828 88.7433C39.2397 88.6681 39.2263 88.5795 39.245 88.4948H39.2333ZM21.6989 78.8142C21.7369 78.7947 21.7785 78.7831 21.8211 78.7802C21.8637 78.7773 21.9064 78.783 21.9467 78.7972C21.987 78.8114 22.024 78.8336 22.0554 78.8625C22.0868 78.8914 22.112 78.9265 22.1294 78.9655C23.6701 82.2734 24.8897 85.7217 25.7713 89.2627C25.7929 89.3475 25.7807 89.4374 25.7372 89.5134C25.6938 89.5894 25.6226 89.6455 25.5386 89.67H25.4571C25.3846 89.6718 25.3137 89.6484 25.2564 89.6039C25.1992 89.5594 25.1591 89.4964 25.143 89.4256C24.2682 85.9262 23.0644 82.5174 21.5477 79.2447C21.5285 79.206 21.5174 79.1638 21.5153 79.1206C21.5132 79.0775 21.52 79.0344 21.5353 78.994C21.5506 78.9536 21.574 78.9168 21.6042 78.8858C21.6343 78.8549 21.6705 78.8305 21.7105 78.8142H21.6989Z" fill="white"></path><path d="M7.08496 25.6987C7.62071 23.8398 7.95234 21.9281 8.07397 19.9974C8.07397 19.2643 8.17869 17.8914 9.2375 17.4841C9.49102 17.3808 9.76529 17.3385 10.0382 17.3607C10.311 17.383 10.5748 17.4691 10.8083 17.6121C11.2545 17.8868 11.6042 18.2934 11.8089 18.7757C10.0985 21.0795 8.42302 23.5927 7.08496 25.6987Z" fill="#990000"></path><path d="M51.5669 52.4018C52.448 50.6409 53.1646 48.8025 53.7078 46.9099C54.0719 44.962 54.2124 42.9789 54.1267 40.9992C54.0625 39.2529 53.733 37.5267 53.1493 35.8796C52.6257 34.4368 52.1487 33.122 52.6374 31.8073C52.7537 31.4815 52.9049 31.1208 53.0562 30.7484C53.485 29.8338 53.809 28.8736 54.022 27.8861C54.062 27.3885 54.0108 26.8877 53.8707 26.4085C53.254 23.7091 52.649 21.2191 52.0556 18.8106C51.4622 16.4021 50.8921 13.9121 50.2405 11.2127C50.0737 10.3266 49.7632 9.47377 49.3213 8.68786C48.7188 7.91175 48.0007 7.23286 47.192 6.67495L46.8546 6.40733C46.6245 6.20026 46.3477 6.0519 46.0478 5.97491C45.748 5.89793 45.434 5.89459 45.1325 5.96519C44.7427 6.05853 44.3327 6.01753 43.969 5.84884C43.1711 5.38181 42.436 4.81485 41.7816 4.16172C41.4907 3.90574 41.1998 3.63813 40.9089 3.39378C40.697 3.22752 40.4434 3.12285 40.1759 3.09127C40.045 3.07921 39.9181 3.03956 39.8036 2.97491C39.3204 2.62305 38.8827 2.21269 38.5004 1.7532C37.5929 0.7642 36.6621 -0.248073 35.5916 0.0544451C34.7862 0.232298 34.005 0.505726 33.2645 0.868918C32.9586 1.05681 32.703 1.31639 32.5199 1.62521C32.4014 1.79817 32.2648 1.95808 32.1126 2.10226L31.8566 2.33497C31.5658 2.57931 31.2865 2.80038 30.9956 3.00982C31.1825 4.04316 31.0143 5.1093 30.5186 6.035C29.871 7.13172 29.0034 8.0825 27.9704 8.82748L27.284 9.40925C26.0348 10.6132 24.9226 11.9516 23.9679 13.4002C25.5969 11.9209 27.375 10.6146 29.2736 9.50233C30.0299 9.06019 30.7746 8.69949 31.4959 8.3388C32.6361 7.81004 33.7366 7.19953 34.7888 6.51205L35.1262 6.27935C35.8476 5.76739 36.8366 5.11581 37.6045 5.38343C38.0081 5.61131 38.3346 5.95456 38.5419 6.36916C38.7492 6.78377 38.8279 7.25083 38.768 7.71049C38.6082 8.69158 38.2373 9.62626 37.6808 10.4499C37.1243 11.2736 36.3956 11.9666 35.5451 12.481C34.9633 12.8998 34.3815 13.2722 33.7532 13.6445C32.7339 14.2119 31.7783 14.8867 30.9026 15.6574C29.6851 16.904 28.5465 18.2252 27.4934 19.6134C26.9349 20.3116 26.3299 21.0097 25.8063 21.6845C26.1204 21.4634 26.4113 21.2307 26.7138 21.0097C27.4454 20.4677 28.2242 19.9926 29.0409 19.5902C30.0614 19.1234 31.1062 18.7117 32.1708 18.3568C33.1528 17.991 34.109 17.5595 35.0331 17.0653C35.7661 16.693 36.4526 16.3555 36.8948 16.181C37.7783 15.8249 38.7133 15.6128 39.664 15.5527C40.3621 15.4829 41.3278 15.3782 43.0498 15.0524C43.585 14.9477 44.0621 14.808 44.4926 14.6801C45.5398 14.3775 46.3659 14.1332 47.0524 14.7848C47.3528 15.1106 47.5454 15.5213 47.6037 15.9608C47.662 16.4002 47.5832 16.8469 47.3782 17.2398C46.8524 18.1792 46.0357 18.9223 45.0511 19.3575C44.1908 19.7323 43.294 20.0169 42.375 20.2068C40.4777 20.6724 38.6615 21.4216 36.9878 22.4292L36.0221 22.9411C34.7189 23.6276 33.695 24.2559 32.5897 24.9308C33.4187 24.9576 34.2439 24.8069 35.0098 24.4886C35.4054 24.3606 35.8127 24.2327 36.1734 24.1279C38.83 23.2432 41.7133 23.3215 44.3181 24.349C45.5254 24.9757 46.6914 25.6791 47.8087 26.455L48.4254 26.8622C48.9622 27.2259 49.556 27.4972 50.1823 27.6651C50.2245 27.6746 50.2644 27.6925 50.2996 27.7177C50.3349 27.7428 50.3647 27.7748 50.3875 27.8116C50.4102 27.8484 50.4254 27.8894 50.4321 27.9322C50.4388 27.975 50.437 28.0186 50.4266 28.0607C50.4109 28.1326 50.3712 28.197 50.3142 28.2435C50.2571 28.2899 50.186 28.3157 50.1125 28.3167H50.031C49.3289 28.1334 48.6637 27.8303 48.0647 27.4207L47.448 27.0135C46.3643 26.2619 45.2376 25.5743 44.0737 24.954C41.5956 23.9867 38.8555 23.9249 36.3362 24.7795C35.9639 24.8726 35.5683 25.0006 35.1727 25.1169C33.8463 25.5358 32.5897 25.9198 31.9381 25.3496L31.2633 25.7802C30.0679 26.7066 28.9509 27.7301 27.9239 28.8402C27.6912 29.073 27.4701 29.3057 27.2607 29.5035C27.9821 29.4104 28.7616 29.294 29.6692 29.1428C29.9717 29.1428 30.3557 29.0148 30.7629 28.9217C31.6189 28.676 32.5024 28.5392 33.3925 28.5145L34.1023 28.5843C35.3256 27.589 36.7636 26.8919 38.3026 26.5481C39.3086 26.4091 40.3325 26.4801 41.3098 26.7564C42.287 27.0328 43.1964 27.5085 43.9807 28.1538L44.3995 28.4446C45.947 29.55 46.5753 30.0154 48.3323 31.1673C48.3323 31.1673 48.3323 31.1673 48.3323 31.2255C48.3752 31.2821 48.3959 31.3525 48.3905 31.4233C48.38 31.4844 48.3516 31.5411 48.309 31.5862C47.8785 31.8073 47.448 32.0749 46.9942 32.3657C45.9798 33.0893 44.8335 33.6071 43.62 33.89C42.8869 34.495 41.1067 35.3677 37.0227 34.751L36.0221 34.5997L34.8586 34.4136C33.6227 34.2906 32.3747 34.4051 31.1818 34.751H30.984C30.8807 36.748 30.9079 38.7497 31.0654 40.7432C31.0703 40.786 31.0666 40.8294 31.0545 40.8708C31.0425 40.9121 31.0224 40.9507 30.9953 40.9843C30.9683 41.0178 30.9348 41.0457 30.8969 41.0662C30.859 41.0867 30.8174 41.0995 30.7746 41.1039C30.6931 41.1071 30.6136 41.0786 30.5528 41.0243C30.4921 40.97 30.4547 40.8943 30.4488 40.813C30.2989 38.8542 30.2678 36.8881 30.3557 34.9255C29.7623 35.0768 29.1922 35.228 28.494 35.3677C28.4087 37.239 28.2145 39.1038 27.9123 40.9526C27.901 41.0276 27.863 41.0961 27.8053 41.1452C27.7476 41.1944 27.674 41.2211 27.5981 41.2202H27.5283C27.4862 41.2119 27.4463 41.1953 27.4106 41.1715C27.375 41.1477 27.3444 41.1171 27.3206 41.0814C27.2968 41.0457 27.2803 41.0057 27.272 40.9636C27.2637 40.9216 27.2638 40.8783 27.2723 40.8363C27.5542 39.0713 27.7407 37.2924 27.8308 35.5073L27.3305 35.5771L27.0163 36.1007C26.8302 36.4032 26.6673 36.6825 26.4695 36.9501C26.4633 39.3328 26.0379 41.6959 25.2129 43.9313C25.5117 43.9205 25.8093 43.9754 26.0847 44.092C26.3601 44.2086 26.6066 44.3841 26.8069 44.6061C26.8513 44.6525 26.8816 44.7105 26.8942 44.7735C26.9068 44.8365 26.9011 44.9017 26.8779 44.9616C26.8547 45.0214 26.8149 45.0734 26.7631 45.1114C26.7114 45.1495 26.6499 45.172 26.5858 45.1762C26.5416 45.1776 26.4977 45.1689 26.4574 45.1508C26.4171 45.1326 26.3814 45.1055 26.3532 45.0715C26.0623 44.7923 25.4921 44.3734 24.9336 44.6876C24.1626 46.6761 23.1588 48.5664 21.9434 50.3191C21.3034 51.2266 20.4773 52.2622 19.6163 53.3559C19.6248 54.7095 19.2669 56.0403 18.5807 57.2072C18.5483 57.2469 18.5075 57.2789 18.4612 57.301C18.415 57.3231 18.3644 57.3348 18.3131 57.3352C18.2526 57.3346 18.1935 57.3173 18.1423 57.285C18.0911 57.2527 18.0499 57.2068 18.0233 57.1525C17.9968 57.0981 17.9858 57.0374 17.9918 56.9772C17.9978 56.917 18.0204 56.8596 18.0572 56.8116C18.528 56.0283 18.8182 55.1498 18.9065 54.2402C16.6609 57.0326 14.1826 60.2789 13.0889 63.5484C13.4233 64.2809 13.871 64.9563 14.4153 65.5497C16.4515 67.4812 20.0584 69.7035 25.1663 72.1702L25.3758 72.2749C26.8092 73.0135 28.4247 73.3244 30.0299 73.1708C31.845 73.0686 33.6124 72.5511 35.196 71.6582C37.7414 70.1843 40.1584 68.499 42.4215 66.6202C45.6213 63.5717 48.0879 59.5459 50.799 54.0307L51.5669 52.4018ZM38.768 52.7508C38.7596 52.7088 38.7595 52.6655 38.7677 52.6235C38.776 52.5814 38.7925 52.5414 38.8163 52.5057C38.8401 52.4701 38.8707 52.4394 38.9063 52.4156C38.942 52.3918 38.982 52.3752 39.024 52.3669C39.0653 52.3566 39.1083 52.3549 39.1503 52.3617C39.1923 52.3686 39.2325 52.3839 39.2684 52.4067C39.3043 52.4296 39.3352 52.4595 39.3592 52.4946C39.3832 52.5298 39.3998 52.5695 39.408 52.6112C39.716 53.9431 40.4417 55.1417 41.4791 56.032C41.5291 56.0761 41.5643 56.1344 41.5801 56.1992C41.5959 56.264 41.5915 56.332 41.5674 56.3942C41.5433 56.4563 41.5007 56.5096 41.4454 56.5468C41.3901 56.584 41.3247 56.6033 41.258 56.6021C41.1803 56.6029 41.1053 56.5737 41.0486 56.5207C39.9016 55.5411 39.0983 54.22 38.7564 52.7508H38.768ZM24.8056 64.5491C26.0184 63.7403 27.4145 63.2483 28.8664 63.1179C30.6702 62.9393 32.4727 63.4692 33.8928 64.5956C33.9234 64.6249 33.9478 64.6601 33.9645 64.6991C33.9811 64.7381 33.9897 64.7801 33.9897 64.8225C33.9897 64.8649 33.9811 64.9069 33.9645 64.9458C33.9478 64.9848 33.9234 65.0201 33.8928 65.0494C33.8627 65.0888 33.824 65.1208 33.7797 65.143C33.7353 65.1652 33.6864 65.1769 33.6368 65.1774C33.5649 65.1775 33.495 65.1528 33.4391 65.1076C32.1547 64.1255 30.5451 63.668 28.9362 63.8277C27.603 63.9485 26.3202 64.3961 25.2012 65.1308C25.1672 65.1604 25.1275 65.1827 25.0844 65.1961C25.0414 65.2096 24.9961 65.2139 24.9513 65.209C24.9064 65.204 24.8632 65.1898 24.8241 65.1672C24.7851 65.1446 24.7512 65.1142 24.7245 65.0778C24.6979 65.0415 24.679 65 24.6692 64.956C24.6594 64.912 24.6589 64.8664 24.6676 64.8222C24.6763 64.7779 24.6941 64.736 24.7199 64.699C24.7456 64.662 24.7788 64.6308 24.8173 64.6072L24.8056 64.5491ZM22.2226 57.5679C22.2519 57.5372 22.2871 57.5129 22.3261 57.4962C22.3651 57.4796 22.4071 57.471 22.4495 57.471C22.4919 57.471 22.5338 57.4796 22.5728 57.4962C22.6118 57.5129 22.6471 57.5372 22.6764 57.5679C23.5505 58.6206 24.805 59.2855 26.167 59.4179C26.632 59.3854 27.0923 59.3035 27.5399 59.1735C28.0957 59.0104 28.6712 58.9242 29.2503 58.9176C29.7563 58.9499 30.2564 59.0437 30.7397 59.1968C31.1198 59.3112 31.5091 59.3929 31.9032 59.4412C32.9504 59.5342 34.1372 58.8361 35.3938 57.3468C35.4546 57.2878 35.536 57.2548 35.6207 57.2548C35.7054 57.2548 35.7868 57.2878 35.8476 57.3468C35.8782 57.3761 35.9026 57.4113 35.9192 57.4503C35.9359 57.4893 35.9444 57.5313 35.9444 57.5737C35.9444 57.6161 35.9359 57.658 35.9192 57.697C35.9026 57.736 35.8782 57.7712 35.8476 57.8006C34.4979 59.3481 33.2063 60.1276 32.0079 60.1276H31.8683C31.4426 60.0744 31.0222 59.9848 30.6117 59.86C30.1776 59.721 29.7283 59.635 29.2736 59.604C28.7523 59.6082 28.2346 59.6906 27.7378 59.8484C27.2443 59.9882 26.7371 60.074 26.2251 60.1044C25.4471 60.0468 24.6889 59.8314 23.9968 59.4713C23.3047 59.1112 22.6931 58.6141 22.1993 58.01C22.1548 57.9473 22.1338 57.8709 22.1402 57.7942C22.1466 57.7175 22.1799 57.6456 22.2342 57.5911L22.2226 57.5679ZM30.7048 45.9325C30.2624 46.3998 29.6597 46.6825 29.0176 46.7237C28.6852 46.7348 28.3556 46.6604 28.0602 46.5076C27.7648 46.3548 27.5135 46.1288 27.3305 45.8511C27.2781 45.7817 27.2553 45.6942 27.2673 45.608C27.2793 45.5219 27.3251 45.444 27.3945 45.3915C27.4639 45.339 27.5514 45.3163 27.6376 45.3283C27.7237 45.3403 27.8016 45.3861 27.8541 45.4555C27.9749 45.6532 28.1467 45.8148 28.3514 45.9233C28.5561 46.0318 28.7862 46.0832 29.0176 46.0722C29.483 46.0278 29.9167 45.8171 30.2393 45.4788C30.2683 45.4447 30.3039 45.4169 30.344 45.3972C30.384 45.3775 30.4278 45.3662 30.4724 45.3641C30.517 45.362 30.5616 45.3691 30.6034 45.3849C30.6451 45.4008 30.6832 45.4251 30.7152 45.4563C30.7472 45.4874 30.7724 45.5249 30.7893 45.5662C30.8062 45.6076 30.8145 45.652 30.8135 45.6967C30.8125 45.7413 30.8024 45.7853 30.7837 45.8259C30.7649 45.8665 30.7381 45.9028 30.7048 45.9325ZM33.7183 44.292C33.7489 44.3213 33.7733 44.3565 33.79 44.3955C33.8066 44.4345 33.8152 44.4764 33.8152 44.5188C33.8152 44.5612 33.8066 44.6032 33.79 44.6422C33.7733 44.6812 33.7489 44.7164 33.7183 44.7457C33.6618 44.8115 33.5829 44.8539 33.4968 44.8646C33.4108 44.8754 33.3238 44.8538 33.2529 44.8039C32.7875 44.4316 32.0894 44.7341 31.5541 45.1646C31.4985 45.2209 31.4237 45.2541 31.3447 45.2577C31.298 45.2569 31.252 45.2462 31.2099 45.2261C31.1677 45.206 31.1304 45.1771 31.1003 45.1413C31.0682 45.1129 31.0424 45.078 31.0247 45.0389C31.0071 44.9998 30.9979 44.9574 30.9979 44.9144C30.9979 44.8715 31.0071 44.8291 31.0247 44.79C31.0424 44.7509 31.0682 44.716 31.1003 44.6876C31.4159 44.3125 31.8587 44.0671 32.3439 43.9984C32.8292 43.9297 33.3227 44.0425 33.7299 44.3152L33.7183 44.292ZM34.719 45.5253C34.6771 45.5373 34.6328 45.5373 34.5909 45.5253C34.5156 45.5243 34.443 45.4972 34.3854 45.4486C34.3278 45.4 34.2888 45.333 34.2751 45.2589C34.2614 45.1848 34.2738 45.1082 34.3101 45.0423C34.3465 44.9763 34.4046 44.9249 34.4746 44.897C34.7816 44.736 35.0287 44.4806 35.1796 44.1684C35.3304 43.8563 35.3769 43.5039 35.3123 43.1633C35.1288 42.4558 34.7205 41.827 34.1488 41.3715C33.7615 41.0398 33.4313 40.6467 33.1714 40.208C33.1522 40.1693 33.1413 40.127 33.1391 40.0839C33.137 40.0407 33.1438 39.9976 33.159 39.9572C33.1743 39.9168 33.1978 39.88 33.228 39.8491C33.2581 39.8181 33.2943 39.7938 33.3343 39.7775C33.373 39.7583 33.4153 39.7473 33.4584 39.7451C33.5016 39.743 33.5447 39.7498 33.5851 39.7651C33.6255 39.7804 33.6623 39.8038 33.6932 39.834C33.7242 39.8641 33.7485 39.9003 33.7648 39.9403C33.9834 40.3203 34.267 40.659 34.6026 40.941C35.2924 41.49 35.7829 42.2503 35.9988 43.1052C36.0865 43.5953 36.0097 44.1007 35.7803 44.5426C35.5509 44.9845 35.1819 45.3382 34.7306 45.5486L34.719 45.5253ZM37.5463 54.9965C37.5802 55.0245 37.6114 55.0557 37.6394 55.0895C37.6745 55.1074 37.703 55.1359 37.7209 55.171C37.7267 55.2057 37.7267 55.2411 37.7209 55.2757C37.7209 55.2757 37.7209 55.3572 37.7209 55.3921C37.7209 55.3921 37.7208 55.4502 37.6394 55.4851C37.618 55.5245 37.5857 55.5568 37.5463 55.5782C35.8516 56.0686 34.0494 56.0443 32.3686 55.5084C31.9562 55.3741 31.5196 55.3305 31.0887 55.3804L30.4604 55.6015C30.1195 55.7432 29.7646 55.8485 29.4016 55.9157C28.8433 55.9543 28.2827 55.8872 27.7494 55.7178C27.5273 55.6551 27.3021 55.6047 27.0745 55.5666C26.4109 55.5331 25.7479 55.6442 25.1314 55.8924C24.2406 56.2044 23.3059 56.3732 22.3622 56.3927C21.8383 56.3914 21.3159 56.3368 20.8031 56.2298C20.7512 56.2026 20.7041 56.1672 20.6635 56.1251C20.6635 56.1251 20.6635 56.0669 20.6635 56.032C20.6635 55.9971 20.6635 55.9622 20.6635 55.9273C20.6785 55.8875 20.7023 55.8517 20.7333 55.8226L20.8147 55.7411C21.9663 55.2074 23.0486 54.5354 24.0377 53.7398C24.5497 53.3675 25.0733 52.9719 25.6667 52.5763C26.0171 52.3178 26.4112 52.1247 26.8302 52.0062H27.0396C27.5232 50.909 27.7386 49.7125 27.6679 48.5156C27.6645 48.4298 27.6939 48.346 27.7501 48.2812C27.8063 48.2163 27.8851 48.1753 27.9704 48.1665C28.0132 48.1634 28.0563 48.1687 28.097 48.1822C28.1377 48.1957 28.1754 48.2171 28.2079 48.2452C28.2403 48.2733 28.2668 48.3076 28.286 48.346C28.3052 48.3844 28.3166 48.4262 28.3195 48.469C28.4042 49.6973 28.201 50.9284 27.7261 52.0644L28.1799 52.1458C28.4647 52.2213 28.7579 52.2604 29.0525 52.2622C29.3679 52.2293 29.6796 52.167 29.9834 52.076C30.2093 52.0133 30.4385 51.9628 30.6698 51.9247C30.2087 50.8936 29.9822 49.7729 30.0066 48.6436C30.0051 48.6008 30.012 48.5581 30.0269 48.518C30.0419 48.4779 30.0646 48.4411 30.0938 48.4097C30.1229 48.3784 30.158 48.3531 30.1969 48.3353C30.2359 48.3176 30.278 48.3076 30.3208 48.3061C30.4063 48.309 30.4875 48.3443 30.5479 48.4048C30.6084 48.4653 30.6437 48.5465 30.6466 48.6319C30.5964 49.7624 30.8452 50.8862 31.368 51.8898H31.4378C31.9888 51.9882 32.5102 52.211 32.962 52.5414C33.3576 52.7741 33.7416 53.0301 34.1255 53.2744C35.1916 53.9984 36.3449 54.5848 37.558 55.0197L37.5463 54.9965ZM45.47 35.9029C43.3238 37.6306 40.6506 38.571 37.8954 38.5674C37.4678 38.5676 37.0405 38.5443 36.6155 38.4976C36.572 38.4948 36.5296 38.4831 36.4908 38.4631C36.4521 38.443 36.418 38.4152 36.3907 38.3812C36.3633 38.3473 36.3433 38.3081 36.3319 38.266C36.3206 38.2239 36.3181 38.18 36.3246 38.1369C36.3288 38.0944 36.3417 38.0532 36.3624 38.0159C36.3831 37.9785 36.4111 37.9458 36.4449 37.9197C36.4787 37.8935 36.5174 37.8746 36.5587 37.8639C36.6 37.8532 36.6431 37.8511 36.6853 37.8576C39.6918 38.1701 42.7005 37.2884 45.0627 35.4026C45.13 35.3621 45.2095 35.3472 45.2868 35.3607C45.3641 35.3742 45.434 35.4151 45.4835 35.476C45.5331 35.5368 45.5589 35.6135 45.5564 35.692C45.554 35.7704 45.5233 35.8453 45.47 35.9029ZM48.2625 52.9719C48.1577 53.1348 48.0647 53.2744 48.0065 53.3792C47.9849 53.4171 47.9558 53.4504 47.9211 53.4769C47.8863 53.5034 47.8466 53.5227 47.8043 53.5336C47.7619 53.5444 47.7178 53.5466 47.6746 53.5401C47.6314 53.5336 47.59 53.5184 47.5527 53.4955C47.4803 53.4478 47.429 53.3741 47.4095 53.2896C47.39 53.2051 47.4038 53.1163 47.448 53.0417L47.7039 52.6229C50.1056 49.0824 51.1999 44.8163 50.799 40.557C50.7924 40.5139 50.7949 40.47 50.8063 40.4279C50.8177 40.3858 50.8377 40.3466 50.865 40.3126C50.8924 40.2787 50.9265 40.2509 50.9652 40.2308C51.0039 40.2108 51.0463 40.1991 51.0898 40.1963C51.1751 40.1923 51.259 40.2197 51.3254 40.2733C51.3919 40.3269 51.4364 40.403 51.4505 40.4872C51.8535 44.8805 50.7274 49.2781 48.2625 52.937V52.9719Z" fill="white"></path><path d="M32.5665 54.915C32.055 54.7553 31.5135 54.7155 30.9841 54.7987C30.7371 54.8545 30.4957 54.9324 30.2627 55.0314C29.974 55.1537 29.6739 55.2472 29.3668 55.3106C28.887 55.3389 28.406 55.2798 27.9473 55.1361C27.6994 55.064 27.4466 55.0095 27.191 54.9732C26.4383 54.9233 25.6838 55.0384 24.9802 55.3106C24.0331 55.6489 23.0299 55.8029 22.0249 55.7644C22.8336 55.2872 23.6109 54.7586 24.352 54.182C24.8523 53.8097 25.3642 53.4257 25.9344 53.0184C26.2206 52.8094 26.5389 52.6483 26.8768 52.5414C27.2316 52.4959 27.592 52.5236 27.9356 52.6228C28.2825 52.7059 28.6378 52.7489 28.9945 52.7508C29.3494 52.7148 29.7001 52.6446 30.0416 52.5414C30.4397 52.4137 30.8574 52.3585 31.275 52.3785C31.7278 52.47 32.1561 52.6564 32.5316 52.9254L33.6951 53.6584C34.5619 54.2562 35.4764 54.7816 36.4294 55.2292C35.1337 55.3799 33.8209 55.2732 32.5665 54.915Z" fill="white"></path><path d="M38.5005 27.1767C39.4244 27.0444 40.3657 27.1076 41.2637 27.3621C42.1616 27.6167 42.9961 28.0569 43.7131 28.6544L44.1203 28.9569C45.0512 29.6201 45.6678 30.0622 46.3776 30.5509C45.2141 30.1088 44.0505 29.4805 42.887 28.8987C41.7798 28.3447 40.5588 28.0563 39.3208 28.0563C38.0827 28.0563 36.8617 28.3447 35.7545 28.8987L35.1262 28.7474C36.123 27.9841 37.2747 27.448 38.5005 27.1767Z" fill="white"></path><path d="M42.7472 30.6203C41.1599 30.4564 39.5976 30.1049 38.0931 29.5731L36.8015 29.1542C37.7394 28.7933 38.7435 28.6368 39.7468 28.695C40.75 28.7531 41.7293 29.0248 42.6192 29.4917C44.1492 30.3213 45.7495 31.0144 47.4013 31.5627L46.7963 31.9351C46.0757 32.4458 45.2939 32.8641 44.4692 33.1801C44.7209 32.7912 44.8164 32.3216 44.7368 31.8653C44.3761 30.9228 43.2242 30.6785 42.7472 30.6203Z" fill="white"></path><path d="M0.0107224 54.9386C0.23688 55.6738 0.570134 56.3716 0.999732 57.0097C1.36043 57.5798 1.62804 57.6613 1.94219 57.7078C2.25634 57.7543 2.3378 57.7078 2.74503 58.3245C2.94283 58.5804 2.84976 58.7783 2.8963 59.0575C3.0941 60.221 3.3268 59.7091 3.67586 60.6399C3.74865 60.877 3.7724 61.1264 3.74567 61.3729C3.69907 61.5866 3.71364 61.8092 3.78773 62.0149C3.86182 62.2207 3.99242 62.4015 4.16454 62.5365C4.45142 62.8699 4.82042 63.1226 5.23499 63.2695C5.59354 63.3017 5.93217 63.4486 6.20073 63.6884C6.2811 63.7897 6.34403 63.9037 6.38689 64.0258C6.54979 64.3981 6.53815 64.6541 7.62024 65.1893C8.09764 65.4429 8.61203 65.6196 9.14446 65.7129C9.47025 65.7129 9.42371 65.5733 9.65642 65.4453C9.88912 65.3173 9.9473 65.2242 10.308 65.3755C10.6935 65.4361 11.086 65.4361 11.4715 65.3755C11.5991 65.3717 11.7234 65.3342 11.8317 65.2668C11.9401 65.1993 12.0286 65.1043 12.0882 64.9915C12.9376 60.8377 16.3002 56.649 19.0694 53.2631C19.9886 52.0996 20.8496 51.0408 21.5012 50.1216C24.0705 46.5317 25.5894 42.2973 25.8877 37.8928C25.4808 38.2624 25.0317 38.5827 24.5496 38.8469C24.4966 38.8639 24.4397 38.8639 24.3867 38.8469C24.3159 38.8459 24.2474 38.8218 24.1915 38.7783C24.1356 38.7348 24.0954 38.6743 24.077 38.6059C24.0586 38.5375 24.063 38.465 24.0895 38.3993C24.116 38.3336 24.1631 38.2784 24.2238 38.2419C25.228 37.7345 26.0435 36.919 26.5509 35.9148V35.8567C26.1105 35.907 25.6678 35.9342 25.2245 35.9381H24.7241C24.6818 35.9367 24.6403 35.9267 24.6019 35.9088C24.5636 35.8908 24.5293 35.8654 24.501 35.8338C24.4728 35.8023 24.4512 35.7654 24.4375 35.7254C24.4239 35.6853 24.4185 35.6429 24.4217 35.6007C24.4276 35.5153 24.4657 35.4353 24.5284 35.377C24.591 35.3187 24.6735 35.2863 24.7591 35.2865C26.6761 35.2792 28.5815 34.9891 30.4138 34.4255L31.112 34.2393C32.3895 33.878 33.7235 33.7596 35.0447 33.8903L36.2082 34.0765L37.1856 34.2393C41.2812 34.8444 42.8404 33.9019 43.3174 33.4714C43.5352 33.3053 43.7109 33.0902 43.8301 32.8436C43.9494 32.597 44.0089 32.3258 44.0039 32.0519C43.8294 31.4585 42.9218 31.3072 42.6426 31.2723C41.0123 31.0965 39.4076 30.7334 37.8604 30.1903C37.4532 30.0623 37.0111 29.911 36.4875 29.7597C35.4995 29.4336 34.4761 29.2265 33.439 29.1431C32.6098 29.1875 31.7872 29.3161 30.984 29.527C30.5651 29.6318 30.1695 29.7132 29.8204 29.7714C27.982 30.0739 26.7022 30.2252 25.1663 30.3997L23.5606 30.5975C23.5184 30.604 23.4754 30.6019 23.434 30.5912C23.3927 30.5806 23.354 30.5616 23.3202 30.5354C23.2865 30.5093 23.2584 30.4766 23.2377 30.4392C23.217 30.4019 23.2042 30.3607 23.1999 30.3182C23.1934 30.2761 23.1955 30.233 23.2062 30.1916C23.2169 30.1503 23.2359 30.1116 23.262 30.0778C23.2881 30.0441 23.3208 30.016 23.3582 29.9953C23.3955 29.9746 23.4367 29.9618 23.4792 29.9575L25.0965 29.7597L26.1553 29.6201C26.4927 29.3176 26.9465 28.8638 27.4468 28.3519C28.5179 27.2099 29.6858 26.1626 30.9374 25.222L31.8566 24.6169C33.0201 23.8374 34.1837 23.1392 35.7195 22.3597L36.6737 21.8477C38.4414 20.8266 40.3511 20.0738 42.34 19.6137C43.2118 19.4374 44.0621 19.1683 44.8765 18.8109C45.7034 18.4274 46.3877 17.792 46.8313 16.9958C46.972 16.726 47.0294 16.4206 46.9963 16.1181C46.9631 15.8157 46.8409 15.5299 46.6451 15.297C46.2495 14.9247 45.7376 15.0527 44.7253 15.297C44.2321 15.4513 43.7311 15.5795 43.2243 15.681C42.0705 15.9124 40.9054 16.0833 39.7337 16.193C38.8422 16.2471 37.9656 16.4476 37.1391 16.7864C36.7318 16.9376 36.057 17.275 35.3356 17.6357C34.3802 18.1447 33.393 18.5916 32.3802 18.9738C31.3376 19.2996 30.3157 19.6881 29.3201 20.1373C28.5309 20.5159 27.7791 20.9677 27.0745 21.487C24.5496 23.2672 22.0946 25.2336 19.6977 27.1418C19.6646 27.169 19.6263 27.1892 19.5851 27.201C19.5439 27.2129 19.5007 27.2162 19.4582 27.2107C19.4157 27.2053 19.3748 27.1912 19.3379 27.1693C19.3011 27.1475 19.2691 27.1183 19.2439 27.0836C19.1842 27.0209 19.1509 26.9376 19.1509 26.8509C19.1509 26.7643 19.1842 26.6809 19.2439 26.6182C20.3027 25.7805 21.3732 24.9195 22.4669 24.0817C24.1061 22.5906 25.5948 20.9421 26.9116 19.16C27.9893 17.7533 29.1552 16.4164 30.4022 15.1574C31.3183 14.3647 32.3124 13.6669 33.3692 13.0747C33.951 12.714 34.5328 12.3417 35.1145 11.9112C35.8852 11.4481 36.5477 10.8253 37.0575 10.0847C37.5672 9.34411 37.9124 8.50291 38.0699 7.61772C38.1256 7.29566 38.0858 6.96434 37.9556 6.66457C37.8254 6.3648 37.6103 6.10967 37.3369 5.9306C36.9064 5.74443 36.0221 6.37274 35.4985 6.75671L35.1494 7.00105C34.0991 7.71934 33.003 8.36842 31.8683 8.94415C31.1352 9.30484 30.4371 9.64227 29.6925 10.1077C27.2831 11.5079 25.082 13.239 23.1534 15.2505C22.5664 15.8928 22.0222 16.573 21.5244 17.2867C21.1172 17.8568 20.6635 18.4502 20.105 19.1949C18.6726 21.068 17.1178 22.8444 15.4508 24.5122C15.4205 24.5432 15.3843 24.5678 15.3443 24.5846C15.3044 24.6013 15.2614 24.61 15.2181 24.61C15.1748 24.61 15.1318 24.6013 15.0919 24.5846C15.0519 24.5678 15.0157 24.5432 14.9854 24.5122C14.9548 24.4829 14.9304 24.4477 14.9138 24.4087C14.8971 24.3697 14.8885 24.3277 14.8885 24.2853C14.8885 24.2429 14.8971 24.201 14.9138 24.162C14.9304 24.123 14.9548 24.0878 14.9854 24.0584C16.6525 22.4113 18.2073 20.6543 19.6395 18.7993C20.1864 18.1011 20.6402 17.4728 21.0474 16.9143L21.6175 16.1348C23.0521 13.5166 24.8458 11.112 26.9465 8.99069L27.6446 8.39729C28.6001 7.7043 29.4105 6.83069 30.0299 5.82588C30.499 4.96068 30.6157 3.94771 30.3557 2.9985C30.1782 2.73061 29.9094 2.53628 29.5994 2.45164C29.0459 2.35124 28.475 2.46791 28.0053 2.77742C26.8418 3.48718 25.9575 4.01077 24.9918 4.56927L23.3047 5.55827C22.591 5.94858 21.9203 6.41265 21.3034 6.94287C20.7916 7.43685 20.328 7.9784 19.9188 8.56018C19.226 9.48888 18.5925 10.4604 18.0222 11.469C17.5248 12.3918 16.9812 13.2889 16.3933 14.1568C15.9279 14.82 14.8458 16.0882 13.7986 17.3216L13.2634 17.9499C10.5575 21.489 8.05577 25.1795 5.77022 29.0034C5.29498 29.9931 4.96951 31.048 4.80449 32.1334C4.62072 33.2465 4.50028 34.3692 4.44378 35.496C4.33906 37.0784 4.19944 38.9866 3.7573 41.8256C3.30641 45.0537 2.52667 48.2272 1.43023 51.2967C1.1107 52.157 0.721571 52.9897 0.266701 53.7867C0.0571181 54.1321 -0.0328452 54.5369 0.0107224 54.9386ZM15.6952 33.0874C15.7849 31.7194 16.3873 30.4354 17.3823 29.4921C17.4116 29.4615 17.4468 29.4371 17.4858 29.4205C17.5248 29.4038 17.5668 29.3953 17.6092 29.3953C17.6516 29.3953 17.6935 29.4038 17.7325 29.4205C17.7715 29.4371 17.8067 29.4615 17.8361 29.4921C17.8682 29.5205 17.894 29.5554 17.9117 29.5946C17.9293 29.6337 17.9385 29.6761 17.9385 29.719C17.9385 29.7619 17.9293 29.8044 17.9117 29.8435C17.894 29.8826 17.8682 29.9175 17.8361 29.9459C16.9668 30.7802 16.4399 31.9086 16.3584 33.1107C16.3525 33.193 16.3156 33.27 16.2551 33.3262C16.1946 33.3823 16.1151 33.4134 16.0326 33.4132C15.9888 33.4148 15.9452 33.4075 15.9043 33.3919C15.8634 33.3762 15.8261 33.3524 15.7947 33.322C15.7632 33.2916 15.7381 33.2552 15.721 33.2149C15.7039 33.1746 15.6951 33.1312 15.6952 33.0874ZM13.0074 43.6872L13.9731 38.2186C13.9901 38.1353 14.0378 38.0615 14.1068 38.0119C14.1759 37.9622 14.2611 37.9405 14.3455 37.951C14.3885 37.958 14.4298 37.9736 14.4668 37.9968C14.5037 38.0201 14.5356 38.0505 14.5606 38.0863C14.5855 38.1221 14.6031 38.1626 14.6121 38.2053C14.6211 38.248 14.6214 38.2921 14.6131 38.335L13.6473 43.8036C13.6335 43.8796 13.5932 43.9482 13.5336 43.9972C13.4739 44.0462 13.3987 44.0724 13.3215 44.0712H13.2517C13.1689 44.0517 13.097 44.0007 13.0514 43.929C13.0057 43.8572 12.9899 43.7705 13.0074 43.6872ZM9.51678 31.2956C9.86464 29.5984 10.7648 28.0641 12.0766 26.9324C12.1367 26.8691 12.2196 26.8323 12.3069 26.8302C12.3941 26.828 12.4787 26.8606 12.542 26.9207C12.6052 26.9809 12.642 27.0637 12.6442 27.151C12.6464 27.2383 12.6138 27.3229 12.5536 27.3861C11.3584 28.4325 10.5406 29.8431 10.2265 31.4003C10.2153 31.4784 10.176 31.5498 10.1161 31.6012C10.0562 31.6525 9.97966 31.6804 9.90075 31.6796C9.84479 31.6889 9.78736 31.6835 9.73413 31.6639C9.6809 31.6442 9.63372 31.611 9.59728 31.5675C9.56084 31.524 9.53639 31.4717 9.52635 31.4159C9.51632 31.36 9.52104 31.3025 9.54006 31.2491L9.51678 31.2956ZM6.32871 46.2935C7.67759 42.7055 8.53854 38.9525 8.88848 35.1353C8.89143 35.0924 8.90281 35.0506 8.92197 35.0122C8.94113 34.9738 8.9677 34.9396 9.00014 34.9115C9.03257 34.8833 9.07023 34.8619 9.11098 34.8484C9.15172 34.8349 9.19474 34.8296 9.23755 34.8327C9.3229 34.8416 9.40169 34.8826 9.45789 34.9474C9.51409 35.0122 9.54347 35.0961 9.54006 35.1818C9.1854 39.0584 8.31274 42.8699 6.94539 46.5146C6.92384 46.5781 6.88322 46.6334 6.82908 46.673C6.77494 46.7126 6.70992 46.7345 6.64287 46.7357H6.52651C6.44497 46.6999 6.38087 46.6334 6.34817 46.5506C6.31548 46.4677 6.31686 46.3754 6.35199 46.2935H6.32871Z" fill="#990000"></path></svg>