<svg xmlns="http://www.w3.org/2000/svg" width="96" height="113" viewBox="0 0 96 113" fill="none"><path d="M44.896 43.4272C44.3236 44.2101 43.6627 44.9241 42.9263 45.5551C42.4148 46.0086 41.844 46.3907 41.2298 46.6909C39.7701 47.9709 38.1023 48.992 36.2984 49.7101H36.2266C36.1394 49.7244 36.0499 49.7096 35.972 49.668C35.894 49.6264 35.8319 49.5604 35.7952 49.48C35.7601 49.3862 35.7613 49.2826 35.7985 49.1895C35.8357 49.0964 35.9063 49.0206 35.9965 48.9768C37.2463 48.453 38.4368 47.7976 39.5477 47.0215C38.978 47.0002 38.4275 46.8101 37.9662 46.4752C35.8345 48.0618 33.3806 49.1611 30.7776 49.6957C30.7776 49.6957 30.7776 49.6957 30.7776 49.8107C30.7554 50.0505 30.7938 50.292 30.8893 50.513C30.9848 50.7341 31.1342 50.9276 31.3239 51.0759C32.0253 51.5235 32.8172 51.8099 33.6427 51.9143C34.4681 52.0187 35.3064 51.9386 36.0972 51.6797C37.2172 51.4297 38.3067 51.0585 39.3464 50.5727C39.9868 50.2524 40.5896 49.8618 41.1435 49.4082C42.7881 47.6905 44.065 45.6553 44.896 43.4272V43.4272Z" fill="#990000"></path><path d="M17.0906 18.5978C16.7057 18.1021 16.4223 17.5354 16.2567 16.9301C12.8286 15.7136 9.46901 14.3121 6.19267 12.7319C6.10164 12.6855 6.03167 12.6062 5.99696 12.5101C5.96225 12.4139 5.9654 12.3082 6.00576 12.2143C6.02723 12.1698 6.05734 12.1299 6.09434 12.097C6.13135 12.0642 6.17451 12.039 6.22132 12.0229C6.26813 12.0069 6.31765 12.0003 6.36703 12.0035C6.41641 12.0068 6.46466 12.0198 6.50897 12.0418C9.63214 13.5521 12.8332 14.8959 16.0985 16.0674C16.034 15.4982 16.1551 14.9233 16.4436 14.4284C16.4732 14.3779 16.5069 14.3298 16.5442 14.2847L15.3509 13.7958C11.6197 12.3738 7.99257 10.6924 4.49615 8.76382C4.08898 8.67761 3.66699 8.69144 3.26634 8.80413C2.86569 8.91681 2.49835 9.12498 2.19582 9.41079C1.93278 9.82838 1.79321 10.3118 1.79321 10.8054C1.79321 11.2989 1.93278 11.7824 2.19582 12.2C3.36446 14.1251 5.02102 15.7073 6.99779 16.7863C10.6293 18.3578 14.4615 19.4175 18.3845 19.9349C17.8884 19.5569 17.4521 19.1061 17.0906 18.5978V18.5978Z" fill="#990000"></path><path d="M3.48959 7.19661C7.3724 9.504 11.4524 11.4622 15.6814 13.0481L17.6655 13.8676C18.2701 13.9023 18.8639 14.0435 19.4195 14.2846L19.6639 14.3708L23.0713 15.5066C20.9425 14.453 18.9647 13.1184 17.191 11.5385C16.7595 11.1109 16.3871 10.6273 16.084 10.1008C12.3701 8.88846 8.84272 7.1659 5.60303 4.98253C5.56527 4.95043 5.5342 4.91121 5.5116 4.86711C5.48899 4.823 5.4753 4.77488 5.4713 4.72548C5.46729 4.67609 5.47305 4.62638 5.48825 4.57922C5.50346 4.53205 5.52781 4.48833 5.5599 4.45057C5.592 4.41281 5.63121 4.38174 5.67532 4.35914C5.71942 4.33653 5.76755 4.32284 5.81695 4.31883C5.86634 4.31483 5.91604 4.32059 5.96321 4.3358C6.01038 4.351 6.05409 4.37534 6.09185 4.40744C9.04276 6.39924 12.2428 7.9944 15.6096 9.15191C15.5001 8.91274 15.4181 8.66194 15.3651 8.4043C15.2551 7.97776 15.2446 7.53166 15.3343 7.10041C15.4241 6.66916 15.6117 6.26429 15.8827 5.91704C13.453 4.96815 11.282 3.94737 9.19733 2.95535C7.32829 2.06396 5.38737 1.14382 3.30268 0.295568C2.9246 0.101323 2.50568 0 2.08063 0C1.65557 0 1.23663 0.101323 0.85856 0.295568C0.407586 0.702666 0.113266 1.25472 0.0266116 1.85605C-0.0600428 2.45738 0.066428 3.07008 0.38411 3.58794C1.17721 4.9796 2.23169 6.20494 3.48959 7.19661V7.19661Z" fill="#990000"></path><path d="M88.9331 105.163C88.8993 105.415 88.8993 105.672 88.9331 105.925C88.9618 106.029 89.0145 106.124 89.0869 106.204C89.1593 106.284 89.2494 106.346 89.35 106.385C89.624 106.471 89.9126 106.5 90.1982 106.471C91.0773 106.444 91.9402 106.228 92.7286 105.838C93.1427 105.658 93.4968 105.364 93.7494 104.99C93.8626 104.86 93.9363 104.7 93.9618 104.529C93.9873 104.359 93.9635 104.184 93.8932 104.027C93.7367 103.663 93.5009 103.339 93.2031 103.078C93.0753 102.978 92.9286 102.904 92.7718 102.862C92.5811 102.834 92.3873 102.834 92.1967 102.862H91.866C91.0403 103.012 90.259 103.347 89.58 103.84V103.84C89.199 104.179 88.9666 104.654 88.9331 105.163Z" fill="white"></path><path d="M52.6596 29.6969L53.3209 29.9557C55.4025 30.872 57.4241 31.9188 59.3737 33.09C61.907 34.73 64.682 35.9622 67.5974 36.7418C69.5877 37.3105 71.7145 37.163 73.6071 36.3248C73.7653 36.2386 73.9522 36.1379 74.0097 35.9941C74.0672 35.8504 73.5927 35.1603 73.4058 35.0165C72.5852 34.4319 71.7199 33.9127 70.8179 33.4638C70.1997 33.1331 69.6103 32.8168 69.1358 32.5149C67.6981 31.6235 65.8147 30.5021 64.5351 29.8551C61.1837 28.3233 57.5954 27.3752 53.9248 27.0515C51.0493 26.6921 50.1436 27.3535 50.0717 27.5404C49.8992 28.5468 51.0493 29.0931 52.6596 29.6969Z" fill="white"></path><path d="M18.7583 6.2191C18.469 6.04836 18.1428 5.95005 17.8073 5.93253C17.4719 5.915 17.1372 5.97879 16.8317 6.11846C16.4851 6.34343 16.2244 6.67848 16.0914 7.06968C15.9584 7.46087 15.9609 7.88545 16.0985 8.27504C16.4091 9.29063 16.9503 10.2206 17.68 10.9923C21.1428 13.9211 25.1992 16.0645 29.5699 17.2752C29.6628 17.3021 29.7422 17.3627 29.7927 17.4451C29.8433 17.5276 29.8612 17.6259 29.8431 17.7208C29.8223 17.8162 29.7663 17.9002 29.6864 17.9561C29.6065 18.012 29.5084 18.0358 29.4117 18.0228C25.9984 17.2831 22.6366 16.3226 19.3477 15.1473L19.0889 15.0611C18.5139 14.8454 17.3349 14.4141 17.0043 14.9173C16.8206 15.4736 16.7809 16.0674 16.889 16.6432C16.9972 17.2189 17.2495 17.7579 17.6225 18.2097C18.3275 18.9902 19.1899 19.6124 20.1528 20.0356H20.2247L21.0442 20.4381C23.5624 21.5705 26.2386 22.3123 28.9804 22.6378C29.0296 22.6432 29.0773 22.6583 29.1207 22.6822C29.164 22.7061 29.2022 22.7384 29.2329 22.7772C29.2637 22.816 29.2864 22.8605 29.2999 22.9081C29.3133 22.9558 29.3171 23.0056 29.3111 23.0548C29.3076 23.1034 29.2942 23.1507 29.2718 23.194C29.2494 23.2373 29.2184 23.2755 29.1808 23.3065C29.1431 23.3374 29.0996 23.3604 29.0528 23.3739C29.006 23.3875 28.9569 23.3914 28.9086 23.3855C26.4213 23.2273 23.9197 23.1698 21.4612 23.2273C20.4691 23.2273 19.2902 23.3855 18.8445 24.1906C18.6944 24.5823 18.6635 25.0097 18.7556 25.419C18.8476 25.8283 19.0587 26.2012 19.3621 26.4909C20.8297 27.8734 22.7662 28.649 24.7823 28.6619C26.5094 28.8056 28.2454 28.8056 29.9725 28.6619C30.5763 28.5756 31.1658 28.5037 31.7696 28.4462C31.8681 28.4379 31.9662 28.4674 32.0437 28.5289C32.1211 28.5903 32.1723 28.679 32.1866 28.7769C32.1997 28.8257 32.2016 28.8768 32.1919 28.9264C32.1822 28.976 32.1613 29.0228 32.1308 29.063C32.1002 29.1033 32.0609 29.136 32.0157 29.1587C31.9705 29.1814 31.9208 29.1934 31.8703 29.1938C31.2664 29.2993 30.6626 29.3712 30.0587 29.4095C27.7245 29.7361 25.4143 30.2164 23.1433 30.8472C22.7695 30.9478 21.5474 31.336 21.605 32.0693C21.6392 32.24 21.7094 32.4014 21.8111 32.5427C21.9128 32.6841 22.0434 32.802 22.1944 32.8888C23.5731 33.7388 25.1775 34.1499 26.7951 34.0677C29.0459 34.1299 31.2977 33.9904 33.5236 33.6508C33.6224 33.6381 33.7222 33.6639 33.8025 33.7228C33.8827 33.7816 33.9373 33.8691 33.9549 33.9671C33.9721 34.0622 33.9517 34.1602 33.8981 34.2407C33.8445 34.3211 33.7618 34.3776 33.6674 34.3984L28.4772 35.6061C27.8261 35.7191 27.2019 35.9532 26.637 36.2962C26.5776 36.3363 26.5244 36.3847 26.4788 36.4399C26.3106 36.5941 26.1841 36.7883 26.1112 37.0045C26.0383 37.2207 26.0213 37.4518 26.0619 37.6764C26.2488 38.3521 27.1258 38.6109 27.9453 38.7834C31.5103 39.3903 35.1758 38.7827 38.3544 37.0581C38.4444 37.0174 38.5467 37.0126 38.6402 37.0447C38.7337 37.0767 38.8114 37.1433 38.8576 37.2307C38.9031 37.3184 38.912 37.4206 38.8824 37.5149C38.8527 37.6092 38.787 37.688 38.6994 37.7339C37.8069 38.2051 36.8848 38.6181 35.939 38.9703C34.6297 39.3401 33.4109 39.9764 32.3591 40.8393C32.3037 40.9162 32.2555 40.998 32.2153 41.0838V41.1556C32.1616 41.317 32.148 41.489 32.1756 41.6568C32.2031 41.8246 32.271 41.9832 32.3734 42.1189C32.5636 42.4654 32.8544 42.7461 33.2073 42.924C33.6096 43.1203 34.0541 43.2141 34.5013 43.1972C35.5077 43.1241 36.4874 42.84 37.3767 42.3633C39.1174 41.5319 40.7574 40.5044 42.2649 39.301C42.3037 39.2698 42.3481 39.2466 42.3958 39.2326C42.4435 39.2187 42.4934 39.2142 42.5428 39.2196C42.5922 39.2249 42.6401 39.2399 42.6837 39.2638C42.7273 39.2876 42.7657 39.3198 42.7969 39.3585C42.828 39.3972 42.8513 39.4417 42.8653 39.4893C42.8792 39.537 42.8837 39.587 42.8783 39.6364C42.873 39.6858 42.858 39.7336 42.8341 39.7772C42.8103 39.8208 42.7781 39.8593 42.7394 39.8904L39.1307 42.7659C38.7625 43.0459 38.4294 43.3693 38.1387 43.7292V43.8154C37.961 44.0537 37.8561 44.3383 37.8368 44.6349C37.836 44.8156 37.8726 44.9944 37.9444 45.1602C38.0162 45.326 38.1215 45.4751 38.2537 45.5982C38.6365 45.9765 39.1532 46.1884 39.6914 46.1877C40.0832 46.1752 40.4688 46.0873 40.8272 45.9289C41.4046 45.6654 41.9418 45.3217 42.4231 44.9081C43.9867 43.5454 45.2039 41.8305 45.9743 39.9048C46.2331 38.9703 46.4775 38.0789 46.7219 37.1588C47.0669 35.8505 47.3832 34.5565 47.6852 33.2482C47.5916 32.8401 47.41 32.4574 47.1532 32.1268C46.9451 31.875 46.6867 31.6694 46.3946 31.5233C46.1024 31.3773 45.783 31.2939 45.4567 31.2785C45.1072 31.2565 44.7567 31.2565 44.4072 31.2785C43.7779 31.3406 43.1426 31.2771 42.5381 31.0916C42.1061 30.8523 41.7453 30.5027 41.4927 30.0783C41.2401 29.6539 41.1048 29.1701 41.1004 28.6763C41.0586 27.9405 41.102 27.2023 41.2298 26.4765C41.2298 26.1459 41.3161 25.8152 41.3448 25.4701C41.6467 22.1921 41.5317 18.7704 38.8 16.0675C37.5606 14.8692 36.0941 13.9307 34.4869 13.3071C28.9668 11.6153 23.6822 9.23387 18.7583 6.2191ZM44.249 40.4224C44.2842 40.4572 44.3122 40.4986 44.3313 40.5443C44.3503 40.5899 44.3601 40.6389 44.3601 40.6884C44.3601 40.7379 44.3503 40.7869 44.3313 40.8325C44.3122 40.8782 44.2842 40.9196 44.249 40.9544C43.1188 42.4541 41.7431 43.7519 40.1803 44.7931H40.0509C39.9762 44.8093 39.8984 44.8013 39.8286 44.7703C39.7588 44.7393 39.7007 44.6868 39.6627 44.6205C39.6077 44.5385 39.5873 44.438 39.6062 44.341C39.6251 44.244 39.6815 44.1584 39.7633 44.103C41.2573 43.1117 42.5703 41.8717 43.6452 40.4368C43.6787 40.3884 43.7232 40.3486 43.775 40.3207C43.8269 40.2928 43.8846 40.2775 43.9434 40.2761C44.0023 40.2747 44.0606 40.2872 44.1137 40.3127C44.1668 40.3381 44.2132 40.3757 44.249 40.4224ZM19.2327 9.42521C19.1912 9.39784 19.1554 9.36255 19.1275 9.32136C19.0996 9.28017 19.0801 9.23389 19.0701 9.18516C19.0601 9.13643 19.0598 9.08621 19.0692 9.03736C19.0786 8.98851 19.0975 8.94198 19.1249 8.90045C19.1523 8.85891 19.1875 8.82317 19.2287 8.79527C19.2699 8.76738 19.3162 8.74786 19.3649 8.73785C19.4137 8.72784 19.4639 8.72752 19.5127 8.73692C19.5616 8.74632 19.6081 8.76524 19.6497 8.79262C22.7408 10.8198 28.6354 14.371 33.4949 15.2192C33.5442 15.2262 33.5917 15.243 33.6344 15.2686C33.6772 15.2942 33.7144 15.3281 33.7439 15.3683C33.7733 15.4085 33.7944 15.4541 33.806 15.5026C33.8176 15.5511 33.8193 15.6014 33.8112 15.6505C33.7967 15.7267 33.7605 15.7971 33.7069 15.8532C33.6533 15.9094 33.5847 15.9488 33.5093 15.9668H33.3655C28.3622 15.0898 22.3669 11.4955 19.2327 9.42521ZM19.8653 17.5339C19.8109 17.5185 19.7606 17.4913 19.7178 17.4544C19.6751 17.4174 19.6409 17.3716 19.6177 17.32C19.5945 17.2685 19.5828 17.2125 19.5834 17.156C19.5841 17.0995 19.5971 17.0438 19.6215 16.9928C19.6459 16.9419 19.6812 16.8969 19.7248 16.8609C19.7685 16.825 19.8194 16.799 19.8741 16.7848C19.9288 16.7706 19.986 16.7686 20.0416 16.7788C20.0972 16.789 20.1499 16.8112 20.196 16.8438C24.304 18.7742 28.758 19.8596 33.2936 20.0356C33.3915 20.0428 33.483 20.0869 33.5497 20.159C33.6164 20.231 33.6533 20.3256 33.653 20.4238C33.6446 20.5071 33.6113 20.5859 33.5575 20.65C33.5036 20.7141 33.4317 20.7605 33.3511 20.7832H33.2505C28.6157 20.6107 24.0633 19.5056 19.8653 17.5339ZM20.9436 25.6283C20.8511 25.5959 20.7744 25.5297 20.7286 25.443C20.6829 25.3564 20.6717 25.2556 20.6972 25.161C20.7226 25.0664 20.7829 24.985 20.866 24.933C20.949 24.881 21.0486 24.8623 21.1449 24.8807C25.5941 25.9903 30.225 26.1665 34.7457 25.3983C34.8045 25.379 34.8671 25.3746 34.928 25.3855C34.9889 25.3964 35.0462 25.4222 35.0946 25.4607C35.1431 25.4992 35.1812 25.5491 35.2056 25.6059C35.2301 25.6628 35.24 25.7248 35.2345 25.7864C35.2476 25.8831 35.2238 25.9812 35.1678 26.0611C35.1119 26.141 35.0279 26.197 34.9326 26.2178C30.2786 26.9847 25.5165 26.784 20.9436 25.6283ZM26.6945 32.4431C26.6382 32.454 26.5803 32.4524 26.5248 32.4384C26.4692 32.4243 26.4175 32.3981 26.3733 32.3617C26.3291 32.3253 26.2935 32.2795 26.269 32.2277C26.2446 32.1759 26.2319 32.1194 26.2319 32.0621C26.2319 32.0048 26.2446 31.9482 26.269 31.8964C26.2935 31.8446 26.3291 31.7989 26.3733 31.7625C26.4175 31.726 26.4692 31.6999 26.5248 31.6858C26.5803 31.6717 26.6382 31.6701 26.6945 31.6811C29.8859 31.7133 33.0687 31.3463 36.169 30.5884C36.2663 30.5655 36.3686 30.5822 36.4535 30.6348C36.5385 30.6874 36.599 30.7715 36.6219 30.8688C36.6448 30.966 36.6281 31.0683 36.5755 31.1533C36.5229 31.2382 36.4388 31.2988 36.3416 31.3217L35.2776 31.5661C32.4724 32.1747 29.608 32.4688 26.7376 32.4431H26.6945ZM41.9055 37.2882C41.9407 37.323 41.9687 37.3644 41.9878 37.41C42.0068 37.4557 42.0167 37.5047 42.0167 37.5542C42.0167 37.6036 42.0068 37.6526 41.9878 37.6983C41.9687 37.744 41.9407 37.7854 41.9055 37.8201C39.7783 39.6011 37.3415 40.9754 34.7169 41.8745C34.6276 41.8935 34.5344 41.8791 34.4549 41.8341C34.3755 41.7891 34.3152 41.7165 34.2856 41.6301C34.2675 41.583 34.259 41.5327 34.2609 41.4822C34.2627 41.4318 34.2747 41.3822 34.2962 41.3365C34.3177 41.2909 34.3482 41.25 34.3859 41.2164C34.4236 41.1829 34.4678 41.1573 34.5157 41.1413C37.035 40.2718 39.3703 38.9408 41.4023 37.2163C41.4798 37.1626 41.5747 37.1402 41.668 37.1535C41.7613 37.1669 41.8462 37.215 41.9055 37.2882ZM39.0301 35.1604C36.9466 36.0809 34.7737 36.7843 32.546 37.2594C31.7121 37.432 30.8639 37.5757 30.0012 37.6907C29.9025 37.7034 29.8027 37.6776 29.7224 37.6187C29.6421 37.5599 29.5875 37.4724 29.5699 37.3744C29.5618 37.3242 29.5641 37.2729 29.5765 37.2235C29.589 37.1742 29.6113 37.1279 29.6423 37.0875C29.6733 37.0471 29.7121 37.0135 29.7565 36.9887C29.801 36.9639 29.85 36.9484 29.9006 36.9431C32.9496 36.5294 35.9229 35.6771 38.7282 34.4127C38.8217 34.374 38.9267 34.3734 39.0207 34.411C39.1147 34.4486 39.1903 34.5215 39.2314 34.614C39.2651 34.7038 39.263 34.8032 39.2255 34.8915C39.1881 34.9798 39.1181 35.0503 39.0301 35.0885V35.1604Z" fill="#990000"></path><path d="M10.9945 25.3259C13.4496 25.8983 15.9364 26.3256 18.4419 26.6054C18.1601 26.2169 17.9875 25.7599 17.942 25.2821C17.8964 24.8042 17.9797 24.3229 18.1831 23.8882V23.8882C14.7497 23.3962 11.3768 22.5482 8.11903 21.3578C8.07156 21.3431 8.02748 21.3191 7.9894 21.2872C7.95131 21.2552 7.91997 21.216 7.89722 21.1719C7.87446 21.1277 7.86075 21.0794 7.85687 21.0299C7.85299 20.9803 7.85902 20.9305 7.87462 20.8833C7.9104 20.7886 7.9806 20.7108 8.07121 20.6655C8.16181 20.6202 8.26616 20.6107 8.36344 20.6389C11.7366 21.891 15.2444 22.745 18.8157 23.1837C19.5954 22.7603 20.4736 22.5519 21.3604 22.5798C22.3093 22.5798 23.2726 22.5798 24.2359 22.5798C23.0241 22.2183 21.8377 21.7764 20.6847 21.2571C20.4115 21.1421 20.1384 20.9983 19.8508 20.8546C15.3933 20.4698 11.0255 19.3778 6.91135 17.6197C6.38938 17.591 5.86622 17.591 5.34425 17.6197C4.95324 17.6257 4.56874 17.7208 4.21998 17.8977C3.87121 18.0746 3.56733 18.3286 3.33143 18.6405C3.1507 18.9701 3.06448 19.3431 3.08224 19.7186C3.09999 20.094 3.22106 20.4573 3.43208 20.7683C3.80491 21.3433 4.29481 21.8332 4.8698 22.206C6.77756 23.49 8.83416 24.5376 10.9945 25.3259V25.3259Z" fill="#990000"></path><path d="M27.4421 49.4222C31.0614 49.2416 34.5535 48.0294 37.5061 45.9285C37.2348 45.5689 37.0929 45.1281 37.1036 44.6777C37.0966 44.6446 37.0966 44.6103 37.1036 44.5771C34.8811 45.8045 32.487 46.6914 30.0013 47.2081C29.4054 47.352 28.8 47.4529 28.1897 47.51C28.089 47.5181 27.9891 47.4866 27.9112 47.4222C27.8334 47.3577 27.7837 47.2655 27.7728 47.165C27.7668 47.1155 27.7711 47.0653 27.7856 47.0175C27.8 46.9698 27.8243 46.9256 27.8567 46.8878C27.8892 46.8499 27.9291 46.8192 27.9741 46.7976C28.0191 46.776 28.068 46.7641 28.1179 46.7624C31.4826 46.3142 34.7129 45.1525 37.5924 43.355L37.8943 42.9956H37.7649C36.7701 43.5304 35.6716 43.8443 34.5445 43.9157C34.0516 43.9242 33.5622 43.8313 33.1067 43.6426C31.6875 44.2515 30.2081 44.7093 28.6929 45.0084C26.7416 45.4336 24.7522 45.66 22.7552 45.6841C22.4889 45.9759 22.3359 46.3533 22.3239 46.7481C22.3554 47.0741 22.4629 47.3883 22.6377 47.6654C22.8124 47.9425 23.0496 48.1749 23.3303 48.3439C24.5754 49.0952 26.0192 49.4511 27.4709 49.3647L27.4421 49.4222Z" fill="#990000"></path><path d="M21.6048 33.3198C21.3967 33.1737 21.2214 32.9856 21.0902 32.7677C20.959 32.5499 20.8747 32.307 20.8428 32.0547C20.8293 31.8179 20.8717 31.5813 20.9666 31.364C21.0615 31.1467 21.2063 30.9548 21.3892 30.8038C18.0857 30.6345 14.8162 30.0549 11.6558 29.0786C11.5595 29.0486 11.4786 28.9824 11.4303 28.8938C11.382 28.8052 11.3701 28.7013 11.397 28.6041C11.4117 28.5567 11.4357 28.5126 11.4676 28.4745C11.4996 28.4364 11.5388 28.4051 11.583 28.3823C11.6271 28.3596 11.6754 28.3459 11.7249 28.342C11.7745 28.3381 11.8243 28.3441 11.8715 28.3597C15.4648 29.5063 19.2132 30.093 22.985 30.0994C23.7758 29.8837 24.5665 29.6824 25.3716 29.5099H24.7103C22.6904 29.4779 20.7364 28.7862 19.1463 27.5402C15.9101 27.1983 12.7045 26.6119 9.55675 25.7862H9.35547C8.46385 25.6756 7.56476 25.6371 6.66695 25.6712C6.19302 25.6709 5.7344 25.8391 5.37299 26.1456C5.13708 26.4108 4.99628 26.747 4.97284 27.1011C4.94941 27.4552 5.04469 27.807 5.2436 28.1009C5.76723 28.7995 6.39803 29.4109 7.11264 29.9125C9.44179 31.4063 12.0398 32.4318 14.7613 32.9317C17.0248 33.28 19.3165 33.41 21.6048 33.3198V33.3198Z" fill="#990000"></path><path d="M95.0579 105.22C94.961 104.887 94.831 104.564 94.6697 104.257C94.6897 104.662 94.5732 105.061 94.339 105.392C94.0084 105.88 93.5511 106.267 93.0163 106.514C92.1204 106.957 91.1398 107.202 90.1409 107.233C89.7469 107.268 89.3499 107.219 88.9763 107.089C88.7509 106.998 88.5522 106.851 88.3989 106.663C88.2455 106.474 88.1424 106.25 88.0993 106.011C88.0567 105.686 88.0567 105.357 88.0993 105.033C88.2085 104.409 88.5281 103.84 89.0051 103.423C89.8917 102.766 90.9306 102.346 92.0243 102.201C92.2998 102.149 92.5826 102.149 92.8582 102.201C91.7993 101.371 90.6574 100.653 89.4508 100.058L84.5338 97.4706C83.0593 96.7501 81.6784 95.8521 80.4219 94.7964C77.5465 92.2229 76.5257 88.2836 75.5193 84.4736L75.1742 83.1797C73.9783 78.766 72.3755 74.4728 70.3866 70.3552L69.9984 69.5501C69.2136 68.0921 68.5732 66.5608 68.0863 64.9781C67.52 62.6989 67.3883 60.3333 67.6981 58.0052C68.3595 51.8087 70.6742 45.799 72.9314 39.9906C73.334 38.9555 73.7365 37.9203 74.1247 36.8708L73.9666 36.9714C73.405 37.265 72.8048 37.478 72.1838 37.604C70.6103 37.8965 68.9922 37.8475 67.4393 37.4602C64.4426 36.6659 61.5897 35.4044 58.9855 33.7222C57.0678 32.56 55.0745 31.5273 53.019 30.6311L52.3864 30.3723C51.2578 30.0856 50.2504 29.4459 49.511 28.5464V28.6326C48.9215 31.7813 48.3177 34.4554 47.5701 37.259C47.0237 39.2861 46.5205 41.2127 45.6723 43.6424C44.6644 46.2487 43.0934 48.6002 41.0716 50.5291C40.1255 51.6937 39.5187 53.0965 39.3176 54.5834C39.3408 54.6436 39.3408 54.7102 39.3176 54.7704C39.5393 56.3087 40.2739 57.7271 41.4022 58.796C42.4578 59.8945 43.2236 61.2384 43.6307 62.7066C43.6475 62.8037 43.6251 62.9036 43.5686 62.9844C43.512 63.0652 43.4258 63.1203 43.3288 63.1379V63.1379C43.2301 63.1505 43.1302 63.1247 43.05 63.0659C42.9697 63.007 42.9151 62.9195 42.8975 62.8216C42.5016 61.4818 41.7862 60.2582 40.8128 59.256C40.4102 58.7385 39.9933 58.2209 39.6195 57.6889C38.951 59.3218 38.0022 60.8253 36.8159 62.1315C36.4278 62.6059 36.0396 63.0804 35.6801 63.5692C33.8941 65.8714 32.7306 68.5946 32.3015 71.4766C31.8916 74.4051 32.6565 77.3768 34.4293 79.7435C35.4207 80.9038 36.5561 81.9329 37.8079 82.8058C38.8344 83.574 39.7961 84.4251 40.6834 85.3506C42.3154 87.4446 43.5439 89.8237 44.3064 92.3667C44.6946 93.4162 45.0828 94.4945 45.5429 95.5297C48.2036 101.337 52.8766 105.984 58.698 108.613C61.1646 109.867 63.882 110.55 66.6486 110.611C66.2279 109.757 65.9002 108.861 65.6709 107.937C65.3838 108.168 65.0422 108.321 64.6789 108.383C64.0292 108.521 63.3532 108.461 62.738 108.21C61.6702 107.699 60.7683 106.896 60.1357 105.896L59.7475 105.306C59.517 104.926 59.2625 104.561 58.9855 104.213C57.977 103.174 56.749 102.374 55.3913 101.87C55.3442 101.851 55.3014 101.823 55.2655 101.787C55.2296 101.751 55.2014 101.709 55.1826 101.662C55.1638 101.615 55.1547 101.564 55.156 101.513C55.1573 101.463 55.1688 101.413 55.19 101.367C55.2337 101.277 55.3096 101.206 55.4026 101.169C55.4957 101.132 55.5993 101.13 55.6932 101.166C57.1595 101.715 58.4819 102.59 59.5606 103.725C59.8609 104.093 60.1348 104.482 60.3801 104.889L60.7683 105.464C61.3191 106.344 62.1062 107.052 63.0399 107.506C63.4317 107.704 63.8769 107.77 64.3094 107.695C64.7419 107.62 65.1387 107.407 65.4409 107.089C65.3115 106.586 65.1965 106.068 65.0815 105.565C64.8774 104.328 64.51 103.125 63.9888 101.985C63.3075 100.827 62.4652 99.7718 61.4872 98.8508C61.4403 98.818 61.4013 98.7754 61.3728 98.7258C61.3443 98.6762 61.3272 98.621 61.3225 98.564C61.3179 98.507 61.3259 98.4497 61.346 98.3962C61.366 98.3427 61.3977 98.2943 61.4386 98.2544C61.4796 98.2145 61.5288 98.1842 61.5829 98.1656C61.6369 98.1469 61.6944 98.1405 61.7512 98.1466C61.8081 98.1528 61.8628 98.1714 61.9116 98.2012C61.9604 98.2309 62.002 98.2711 62.0335 98.3188C63.0608 99.2926 63.9464 100.406 64.6645 101.626C65.221 102.819 65.6174 104.081 65.8434 105.378C65.9728 105.939 66.0879 106.485 66.246 107.017L66.3467 107.391C66.5921 108.846 67.2282 110.208 68.1869 111.33C68.3999 111.492 68.6316 111.627 68.877 111.733C69.3116 111.914 69.7797 112.002 70.2506 111.989C70.7214 111.977 71.1843 111.865 71.6087 111.661C71.8912 111.511 72.1368 111.299 72.3276 111.043C71.7271 109.549 71.4243 107.951 71.4362 106.341C71.4198 105.676 71.3574 105.013 71.2493 104.357C70.9322 102.868 70.1278 101.528 68.9633 100.547C68.9211 100.515 68.8859 100.475 68.8598 100.429C68.8338 100.383 68.8174 100.332 68.8117 100.28C68.806 100.227 68.8111 100.174 68.8267 100.123C68.8423 100.073 68.868 100.026 68.9024 99.9858C68.9367 99.9455 68.9789 99.9127 69.0264 99.8894C69.0738 99.8661 69.1256 99.8527 69.1784 99.8501C69.2312 99.8475 69.284 99.8557 69.3336 99.8742C69.3831 99.8927 69.4283 99.9212 69.4665 99.9578C70.7503 101.083 71.6292 102.598 71.9681 104.271C72.0798 104.966 72.1471 105.667 72.1694 106.37C72.2988 108.512 72.4426 111.186 74.4266 112.38C74.6083 112.469 74.7956 112.545 74.9873 112.61C75.8148 112.933 76.7164 113.018 77.5896 112.854V112.854C78.3359 112.686 78.9924 112.245 79.4299 111.618C78.8033 110.734 78.435 109.694 78.366 108.613V108.469C78.2474 105.817 77.2339 103.283 75.4905 101.281C75.4553 101.246 75.4274 101.204 75.4083 101.159C75.3892 101.113 75.3794 101.064 75.3794 101.015C75.3794 100.965 75.3892 100.916 75.4083 100.87C75.4274 100.825 75.4553 100.783 75.4905 100.749C75.5625 100.681 75.6577 100.643 75.7565 100.643C75.8554 100.643 75.9505 100.681 76.0225 100.749C77.8698 102.873 78.9485 105.557 79.0848 108.368V108.512C79.1855 109.418 79.4011 111.273 80.9251 111.776H81.2702C82.0495 111.92 82.8487 111.92 83.628 111.776C83.8631 111.721 84.0938 111.649 84.3181 111.56C85.0326 111.291 85.6321 110.783 86.0146 110.122C84.3756 109.03 83.5705 106.888 82.7798 104.803C81.989 102.718 81.342 101.007 80.0481 100.173C79.9763 100.113 79.9291 100.028 79.9153 99.9345C79.9015 99.8414 79.922 99.7464 79.973 99.6672C80.024 99.5881 80.102 99.5302 80.1925 99.5043C80.2831 99.4784 80.3799 99.4863 80.4651 99.5265C81.9028 100.504 82.7366 102.546 83.4842 104.53C84.3469 106.801 85.2383 109.159 87.1792 109.864C88.1222 110.107 89.1116 110.107 90.0546 109.864C91.404 109.561 92.6764 108.984 93.7927 108.167C94.3844 107.805 94.8356 107.252 95.0722 106.6C95.1954 106.148 95.1905 105.67 95.0579 105.22Z" fill="white"></path><path d="M19.0745 44.6203C23.0858 45.6124 29.383 44.3615 32.2297 43.1826C32.0001 42.9796 31.81 42.7359 31.669 42.4638C31.479 42.1557 31.3702 41.8045 31.3527 41.443C30.5475 41.6443 29.7712 41.8168 29.0379 41.9749C26.5868 42.5795 24.072 42.8884 21.5474 42.8951C21.459 42.8778 21.3794 42.8304 21.3222 42.7609C21.2649 42.6914 21.2336 42.6041 21.2336 42.5141C21.2336 42.424 21.2649 42.3368 21.3222 42.2673C21.3794 42.1978 21.459 42.1503 21.5474 42.1331C24.9302 42.0614 28.2892 41.5491 31.5395 40.6091L31.7265 40.3503C31.9603 40.0599 32.2424 39.8118 32.5603 39.6171C30.9449 39.8501 29.3016 39.8063 27.7008 39.4877L26.9532 39.3008L26.2775 39.4589C23.94 39.9292 21.5593 40.1508 19.1752 40.1203C17.5362 40.5803 16.4004 41.1554 16.1704 41.9749C16.1324 42.2815 16.1858 42.5924 16.3239 42.8686C16.462 43.1449 16.6787 43.3742 16.9467 43.5277C17.4538 43.9002 18.0102 44.2002 18.6001 44.4191L19.0745 44.6203Z" fill="#990000"></path><path d="M15.696 39.1571C19.0969 39.5609 22.5397 39.4397 25.9038 38.7976C25.5949 38.5622 25.3685 38.2351 25.2568 37.8631C25.164 37.4861 25.1891 37.0897 25.3287 36.7273C22.1036 37.3639 18.788 37.3932 15.5522 36.8136C15.4537 36.7896 15.3685 36.7281 15.3147 36.6421C15.261 36.5561 15.243 36.4526 15.2647 36.3535C15.2917 36.2577 15.3545 36.1759 15.4401 36.125C15.5258 36.0742 15.6277 36.0582 15.7247 36.0804C19.1228 36.6555 22.6008 36.5578 25.9613 35.7928L26.1913 35.6059C26.8329 35.1949 27.5524 34.9208 28.3048 34.8008H28.4342H26.7664C25.3984 34.8271 24.0391 34.5777 22.7696 34.0675C20.1783 34.2431 17.5757 34.1418 15.0059 33.7656H13.942C13.3957 33.7656 10.664 33.7656 9.74385 34.8152C9.62701 34.9444 9.53954 35.0975 9.48742 35.2637C9.4353 35.43 9.41977 35.6056 9.44192 35.7784C9.68633 37.8631 13.8413 38.7976 15.6241 39.1858L15.696 39.1571Z" fill="#990000"></path></svg>