<svg width="420" height="420" viewBox="0 0 420 420" fill="none" xmlns="http://www.w3.org/2000/svg">
<g opacity="0.06">
<path d="M273.501 9.70964C261.666 5.99656 249.528 3.33231 237.226 1.74774C236.268 9.06233 235.313 16.3737 234.361 23.6818C240.129 24.4197 245.861 25.4263 251.557 26.7015L253.305 18.6716C255.684 19.2057 258.043 19.7785 260.403 20.3999L257.198 32.5176C248.356 30.1903 239.353 28.5221 230.264 27.5268C221.199 26.5386 212.073 26.2141 202.96 26.5559C202.805 22.3807 202.646 18.2088 202.485 14.0401C204.902 13.943 207.339 13.9042 209.747 13.8945C209.747 16.6326 209.747 19.3804 209.699 22.1186C215.525 22.1186 221.328 22.3742 227.108 22.8856L229.147 0.86416C204.441 -1.3691 179.535 0.743949 155.558 7.10746C157.5 14.2279 159.413 21.3483 161.296 28.4687C166.947 26.9734 172.65 25.7402 178.405 24.7693C177.919 22.07 177.434 19.3707 176.958 16.6714C179.353 16.2636 181.755 15.9044 184.163 15.5937C184.719 19.73 185.269 23.8663 185.813 28.0026C167.56 30.4101 149.767 35.525 133.022 43.1788C131.287 39.3855 129.546 35.5891 127.798 31.7894C130.041 30.7601 132.313 29.7795 134.595 28.8765C135.644 31.401 136.692 33.9158 137.731 36.4403C139.349 35.793 140.968 35.1456 142.586 34.4983C141.071 30.4397 139.553 26.3843 138.032 22.3322C132.148 24.5719 126.355 27.0931 120.652 29.896C123.927 36.4985 127.19 43.1108 130.439 49.7328C149.551 40.3565 170.172 34.4394 191.348 32.2554C190.584 24.9279 189.814 17.5939 189.037 10.2534C182.861 10.8942 176.696 11.8263 170.589 13.04C171.152 15.7199 171.708 18.403 172.259 21.0893C169.919 21.5457 167.579 22.0603 165.248 22.604L162.335 10.4184C182.225 5.71724 202.701 3.97988 223.098 5.26263C222.839 9.4313 222.574 13.6 222.302 17.7686C219.926 17.6133 217.548 17.5065 215.165 17.4482C215.263 14.7101 215.35 11.972 215.447 9.23387C209.239 9.07204 203.032 9.19179 196.824 9.59312L198.28 31.6631C219.359 30.2812 240.517 32.6079 260.791 38.5375C262.849 31.4236 264.924 24.3291 267.015 17.254C261.014 15.4998 254.952 14.0272 248.829 12.8361C248.324 15.5354 247.816 18.2282 247.304 20.9146C244.961 20.4614 242.611 20.0504 240.255 19.6814C240.902 15.5645 241.55 11.4412 242.197 7.31136C252.308 8.89993 262.287 11.2334 272.054 14.2926C281.898 17.3786 291.496 21.2021 300.766 25.7305L295.241 36.9743C293.066 35.9159 290.862 34.8867 288.648 33.9158C289.755 31.4236 290.865 28.9282 291.978 26.4296C290.269 25.6723 288.551 24.9408 286.823 24.2353C285.133 28.2162 283.463 32.2166 281.793 36.2072C287.243 38.4275 292.6 40.9164 297.862 43.6739C301.287 37.1361 304.724 30.608 308.174 24.0896C297.068 18.2736 285.464 13.4611 273.501 9.70964Z" fill="#C1C1C1"/>
<path d="M113.273 23.4682C102.279 29.2142 91.8106 35.9137 81.9881 43.4895L95.4747 61.0251C100.077 57.4713 104.845 54.1312 109.777 51.0047C108.291 48.7035 106.864 46.3926 105.34 44.0915C107.388 42.7807 109.466 41.5184 111.573 40.2853L117.865 51.1212C102.081 60.3393 87.7472 71.84 75.3273 85.2506L66.1322 76.7061C67.7699 74.9325 69.4464 73.1848 71.1618 71.4629C73.1037 73.4048 75.0457 75.3468 76.9876 77.2887C81.0721 73.2042 85.3476 69.2977 89.814 65.5692L75.6671 48.5482C56.6214 64.4442 40.5032 83.5495 28.0413 105L47.2081 116.05C50.1405 111.001 53.2993 106.097 56.6847 101.339L49.9463 96.6303C51.3444 94.6884 52.7912 92.6979 54.267 90.8045C57.5877 93.3355 60.9052 95.8729 64.2194 98.4169C52.9929 113.026 44.0157 129.233 37.5859 146.499L25.8372 142.149C26.7046 139.825 27.6076 137.527 28.5462 135.255L36.1197 138.382C36.7897 136.77 37.4791 135.158 38.1976 133.527L26.4004 128.167C23.8112 133.902 21.497 139.78 19.458 145.8C26.4425 148.163 33.4237 150.532 40.4017 152.907C47.2789 132.76 57.6701 113.989 71.0938 97.4653L53.9078 83.5029C49.9851 88.3253 46.289 93.329 42.8194 98.514L49.6938 103.029C48.3636 104.971 47.0625 107.029 45.81 109.059L35.1294 102.505C40.4943 93.8202 46.4985 85.5474 53.0922 77.7548C59.6678 69.9652 66.8075 62.6697 74.4534 55.9275L82.726 65.3361C80.9394 66.9091 79.182 68.5274 77.4537 70.191L71.8512 64.1613C67.32 68.4335 63.0154 72.9097 58.9374 77.5897L75.5797 92.1542C89.5029 76.2851 106.094 62.9733 124.604 52.8204C121.069 46.3473 117.542 39.8742 114.02 33.4012C108.544 36.4111 103.204 39.6542 98.0478 43.1108L102.679 49.9075C100.699 51.2475 98.7566 52.6165 96.8535 54.0147L89.4353 43.8973C97.709 37.8742 106.416 32.4707 115.486 27.7307C124.63 22.9578 134.121 18.8812 143.877 15.5354C145.227 19.497 146.567 23.4488 147.926 27.4006C145.625 28.1871 143.353 29.0221 141.129 29.896C140.158 27.3423 139.188 24.7984 138.217 22.2448C136.469 22.8921 134.734 23.5912 133.012 24.3421C134.643 28.3489 136.278 32.3557 137.916 36.3626C143.353 34.0841 148.904 32.0547 154.568 30.2746C152.321 23.2319 150.111 16.1827 147.936 9.12706C135.977 12.8656 124.377 17.6651 113.273 23.4682Z" fill="#C1C1C1"/>
<path d="M9.70961 146.489C5.99651 158.327 3.33227 170.469 1.74771 182.774L23.6818 185.639C24.4197 179.871 25.4263 174.139 26.7015 168.443L18.6716 166.695C19.2056 164.316 19.7785 161.957 20.3999 159.597L32.5176 162.801C30.1902 171.644 28.5221 180.647 27.5268 189.736C26.5386 198.801 26.2141 207.927 26.5558 217.039L14.0401 217.496C13.9527 215.078 13.9042 212.641 13.8945 210.233L22.1185 210.282C22.1185 204.456 22.3742 198.653 22.8856 192.872L0.864135 190.843C-1.36812 215.549 0.744915 240.455 7.10743 264.432C14.2278 262.49 21.3482 260.577 28.4686 258.694C26.9669 253.043 25.7338 247.34 24.7693 241.585L16.6714 243.032C16.2636 240.637 15.9044 238.236 15.5937 235.828L28.0026 234.177C30.4037 252.444 35.5188 270.251 43.1787 287.007L31.7893 292.26C30.7601 290.007 29.7891 287.742 28.8764 285.463L36.4402 282.327C35.7929 280.709 35.1456 279.091 34.4983 277.472L22.3321 281.948C24.5718 287.832 27.0931 293.626 29.8959 299.329C36.4985 296.06 43.1108 292.797 49.7327 289.541C40.3565 270.43 34.4394 249.808 32.2554 228.633L10.2534 230.944C10.9007 237.132 11.8296 243.281 13.04 249.392L21.0796 247.722C21.5457 250.062 22.0506 252.402 22.604 254.732L10.4184 257.645C5.70052 237.768 3.94355 217.302 5.20434 196.911L17.7104 197.708C17.555 200.09 17.4482 202.469 17.3899 204.844L9.17558 204.563C9.01376 210.77 9.13351 216.978 9.53484 223.186L31.6048 221.729C30.2252 200.657 32.5519 179.506 38.4793 159.238L17.254 152.995C15.4998 158.989 14.0272 165.048 12.8361 171.171L20.9145 172.696C20.4614 175.039 20.0504 177.389 19.6814 179.745L7.31133 177.803C10.5034 157.469 16.7218 137.727 25.7596 119.234L37.0034 124.759C35.9451 126.934 34.9158 129.138 33.9449 131.352L26.4587 128.022C25.7014 129.73 24.9699 131.449 24.2644 133.177C28.2453 134.867 32.2457 136.537 36.2363 138.207C38.4566 132.757 40.9455 127.4 43.703 122.138C37.1782 118.707 30.6501 115.27 24.1187 111.826C18.2944 122.929 13.4723 134.529 9.70961 146.489Z" fill="#C1C1C1"/>
<path d="M23.4681 306.727C29.2176 317.719 35.9169 328.187 43.4894 338.012L61.025 324.525C57.4712 319.923 54.1311 315.155 51.0046 310.223L44.0914 314.66C42.7806 312.611 41.5183 310.534 40.2852 308.427L51.1114 302.135C60.3308 317.926 71.835 332.267 85.2505 344.692L76.706 353.868C74.9324 352.224 73.1847 350.547 71.4628 348.838L77.2886 343.012C73.2041 338.954 69.2976 334.678 65.5691 330.186L48.5481 344.333C64.4441 363.379 83.5494 379.497 105 391.959C108.683 385.557 112.366 379.168 116.049 372.792C110.988 369.859 106.084 366.701 101.339 363.315C99.7664 365.558 98.2031 367.811 96.6302 370.063C94.6494 368.659 92.7075 367.215 90.8044 365.733C93.3354 362.425 95.8728 359.111 98.4168 355.79C113.029 367.012 129.235 375.989 146.499 382.424C145.042 386.308 143.592 390.224 142.149 394.172C139.825 393.311 137.527 392.408 135.255 391.463L138.382 383.89C136.77 383.22 135.158 382.521 133.527 381.812L128.167 393.6C133.902 396.189 139.78 398.503 145.8 400.542C148.162 393.564 150.532 386.583 152.907 379.598C132.759 372.721 113.989 362.33 97.4652 348.906C92.8111 354.635 88.1569 360.35 83.5028 366.053C88.3252 369.976 93.3289 373.672 98.5139 377.142L103.029 370.267C104.971 371.597 107.029 372.899 109.059 374.151L102.505 384.832C85.1138 374.095 69.4082 360.844 55.8983 345.508L65.2972 337.235C66.8702 339.022 68.4884 340.779 70.152 342.507L64.1417 348.12C68.414 352.651 72.8901 356.955 77.5702 361.033C82.425 355.479 87.2798 349.932 92.1346 344.391C76.2752 330.475 62.9702 313.894 52.8203 295.396C46.3472 298.931 39.8741 302.458 33.401 305.98C36.4013 311.456 39.6443 316.796 43.1107 321.952L49.9074 317.321C51.2474 319.301 52.6164 321.243 54.0146 323.146L43.868 330.516C37.845 322.242 32.4415 313.535 27.7015 304.465C22.9408 295.336 18.8739 285.862 15.5353 276.123L27.4005 272.074C28.1902 274.378 29.022 276.644 29.8959 278.87L22.2447 281.783C22.892 283.531 23.5911 285.266 24.342 286.988C28.3488 285.356 32.3556 283.719 36.3625 282.075C34.084 276.65 32.0546 271.103 30.2745 265.432C23.2318 267.678 16.1826 269.889 9.12695 272.064C12.8697 284.021 17.669 295.621 23.4681 306.727Z" fill="#C1C1C1"/>
<path d="M146.499 410.29C158.334 414 170.473 416.664 182.774 418.252C183.732 410.944 184.687 403.633 185.638 396.318C179.871 395.58 174.139 394.574 168.443 393.298L166.695 401.328C164.313 400.798 161.947 400.221 159.597 399.6L162.801 387.482C180.488 392.133 198.765 394.142 217.039 393.444C217.195 397.619 217.353 401.791 217.515 405.96C215.097 406.057 212.66 406.096 210.252 406.105C210.252 403.367 210.252 400.62 210.252 397.881C204.426 397.881 198.601 397.629 192.853 397.114C192.205 404.455 191.532 411.795 190.833 419.136C215.542 421.369 240.452 419.256 264.432 412.893C262.49 405.772 260.577 398.652 258.694 391.531C253.043 393.027 247.34 394.26 241.585 395.231C242.071 397.93 242.556 400.629 243.032 403.329C240.637 403.736 238.235 404.096 235.827 404.406C235.271 400.27 234.721 396.134 234.177 391.997C252.447 389.595 270.256 384.48 287.017 376.821C288.758 380.621 290.499 384.417 292.24 388.211C289.988 389.24 287.722 390.211 285.444 391.124C284.395 388.599 283.346 386.084 282.307 383.56C280.689 384.207 279.071 384.854 277.453 385.502C278.967 389.554 280.485 393.609 282.006 397.668C287.891 395.435 293.684 392.913 299.387 390.104C296.118 383.501 292.855 376.889 289.599 370.267C270.486 379.64 249.866 385.557 228.691 387.745C229.455 395.072 230.225 402.406 231.002 409.747C237.19 409.099 243.339 408.17 249.45 406.96C248.887 404.28 248.33 401.6 247.78 398.92C250.12 398.454 252.46 397.949 254.79 397.396L257.703 409.582C237.813 414.283 217.338 416.02 196.94 414.737C197.199 410.575 197.465 406.406 197.737 402.231C200.119 402.387 202.497 402.493 204.873 402.552C204.776 405.29 204.689 408.028 204.592 410.766C210.796 410.931 217.02 410.766 223.215 410.407L221.748 388.385C200.67 389.77 179.513 387.447 159.238 381.521C157.16 388.602 155.079 395.677 152.995 402.746C158.989 404.5 165.047 405.973 171.171 407.164C171.676 404.465 172.184 401.772 172.695 399.085C175.039 399.545 177.388 399.956 179.745 400.319C179.097 404.435 178.45 408.559 177.803 412.689C157.469 409.497 137.727 403.278 119.234 394.24L124.759 382.997C126.934 384.065 129.138 385.094 131.352 386.065C130.245 388.563 129.135 391.059 128.021 393.551C129.73 394.308 131.459 395.036 133.177 395.745C134.867 391.764 136.546 387.764 138.216 383.773C132.76 381.547 127.4 379.058 122.137 376.307C118.707 382.831 115.269 389.36 111.826 395.891C122.932 401.714 134.535 406.533 146.499 410.29Z" fill="#C1C1C1"/>
<path d="M306.727 396.532C317.722 390.788 328.191 384.089 338.012 376.511L324.525 358.975C319.923 362.529 315.155 365.859 310.223 368.966L314.67 375.879C312.611 377.19 310.533 378.452 308.426 379.686L302.135 368.859C317.918 359.64 332.258 348.147 344.692 334.749L353.887 343.265C352.243 345.038 350.566 346.786 348.857 348.508C346.916 346.566 344.974 344.624 343.032 342.682C338.96 346.786 334.678 350.693 330.186 354.402L344.333 371.403C363.378 355.507 379.497 336.402 391.958 314.951L372.792 303.912C369.859 308.974 366.7 313.877 363.315 318.622L370.063 323.331C368.659 325.312 367.215 327.254 365.733 329.157L355.78 321.544C367.003 306.932 375.979 290.726 382.414 273.462L394.163 277.812C393.302 280.129 392.399 282.427 391.454 284.706L383.88 281.579C383.233 283.191 382.54 284.81 381.802 286.434L393.619 291.813C396.208 286.078 398.522 280.201 400.561 274.181L379.647 267.112C372.769 287.26 362.378 306.03 348.955 322.554L366.053 336.478C369.976 331.649 373.672 326.645 377.142 321.467L370.267 316.952C371.597 315.01 372.898 312.951 374.151 310.922L384.832 317.476C374.095 334.867 360.844 350.572 345.508 364.082L337.235 354.683C339.022 353.11 340.779 351.492 342.507 349.828C344.372 351.829 346.246 353.829 348.11 355.839C352.641 351.567 356.949 347.09 361.033 342.41L344.391 327.846C330.459 343.724 313.854 357.04 295.328 367.189C298.869 373.662 302.4 380.135 305.921 386.609C311.404 383.605 316.728 380.369 321.894 376.899L317.262 370.102C319.243 368.762 321.185 367.39 323.088 365.985L330.458 376.122C313.826 388.247 295.476 397.819 276.016 404.523C274.676 400.561 273.326 396.606 271.967 392.658C274.271 391.868 276.537 391.036 278.764 390.162C279.735 392.716 280.705 395.26 281.676 397.813C283.424 397.134 285.159 396.435 286.881 395.716C285.25 391.709 283.612 387.703 281.968 383.696C276.543 385.981 270.996 388.007 265.325 389.774C267.52 396.817 269.704 403.863 271.879 410.912C283.901 407.167 295.563 402.354 306.727 396.532Z" fill="#C1C1C1"/>
<path d="M410.29 273.501C414 261.665 416.664 249.527 418.252 237.226L396.318 234.361C395.58 240.129 394.574 245.861 393.298 251.557L401.328 253.305C400.804 255.684 400.221 258.043 399.6 260.403L387.482 257.199C389.81 248.356 391.478 239.353 392.473 230.264C393.461 221.199 393.786 212.073 393.444 202.961L405.96 202.485C406.057 204.902 406.096 207.34 406.105 209.748H397.881C397.881 215.573 397.639 221.399 397.114 227.147L419.136 229.147C421.37 204.438 419.256 179.528 412.892 155.548C405.772 157.49 398.652 159.403 391.531 161.287C393.026 166.938 394.26 172.641 395.231 178.395L403.328 176.948C403.736 179.343 404.095 181.745 404.406 184.153L391.978 185.804C389.582 167.553 384.473 149.763 376.821 133.022L388.211 127.798C389.24 130.041 390.22 132.313 391.123 134.595L383.56 137.731C384.207 139.349 384.854 140.968 385.502 142.586L397.668 138.032C395.434 132.148 392.913 126.355 390.104 120.652C383.501 123.927 376.889 127.19 370.267 130.439C379.64 149.552 385.557 170.173 387.744 191.348L409.746 189.037C409.099 182.849 408.17 176.699 406.96 170.589L398.92 172.259C398.454 169.919 397.949 167.579 397.396 165.248L409.581 162.335C414.283 182.225 416.02 202.701 414.737 223.098L402.231 222.302C402.387 219.926 402.493 217.548 402.552 215.166L410.766 215.447C410.931 209.243 410.766 203.019 410.407 196.824L388.385 198.251C389.767 219.33 387.44 240.487 381.511 260.762L402.746 267.015C404.5 261.027 405.973 254.969 407.164 248.839L399.066 247.304C399.525 244.961 399.936 242.611 400.299 240.255L412.669 242.197C409.477 262.531 403.259 282.273 394.221 300.766L382.977 295.241C384.045 293.066 385.074 290.862 386.045 288.648L393.531 291.978C394.289 290.27 395.02 288.551 395.726 286.823C391.745 285.133 387.744 283.453 383.754 281.783C381.527 287.24 379.038 292.6 376.287 297.862C382.812 301.287 389.34 304.724 395.871 308.174C401.699 297.068 406.524 285.464 410.29 273.501Z" fill="#C1C1C1"/>
<path d="M396.532 113.273C390.784 102.28 384.085 91.8116 376.51 81.9882L358.975 95.4749C362.529 100.077 365.869 104.845 368.995 109.777L375.908 105.33C377.219 107.389 378.481 109.466 379.715 111.573L368.879 117.865C359.659 102.074 348.155 87.7331 334.74 75.3079L343.255 66.1129C345.029 67.7506 346.776 69.4271 348.498 71.1425L342.672 76.9683C346.783 81.0658 350.692 85.3477 354.402 89.8141L371.403 75.6672C355.516 56.6241 336.421 40.5061 314.98 28.0414C311.304 34.4433 307.614 40.8323 303.911 47.2083C308.96 50.1211 313.883 53.3059 318.622 56.6849L323.331 49.8881C325.311 51.2993 327.253 52.7427 329.157 54.2186L321.534 64.171C306.946 52.9656 290.762 44.0079 273.52 37.5957C274.977 33.7119 276.427 29.7956 277.87 25.8471C280.188 26.7145 282.486 27.6174 284.764 28.556L281.638 36.1296C283.249 36.7769 284.868 37.4695 286.492 38.2074L291.872 26.3908C286.136 23.8016 280.259 21.4874 274.239 19.4484C271.876 26.4329 269.507 33.4141 267.131 40.3921C287.279 47.2693 306.05 57.6605 322.573 71.0843C327.215 65.3556 331.856 59.6269 336.497 53.8982C331.668 49.9755 326.664 46.2794 321.486 42.8098L316.971 49.6842C315.029 48.354 312.971 47.0529 310.941 45.8004L317.495 35.1198C334.886 45.8562 350.592 59.1079 364.101 74.4438L354.703 82.7164C353.13 80.9298 351.511 79.1724 349.848 77.4441L355.839 71.8513C351.566 67.3202 347.09 63.0123 342.41 58.9278C337.555 64.4817 332.701 70.0291 327.846 75.5701C343.724 89.5019 357.04 106.107 367.189 124.633C373.662 121.086 380.135 117.555 386.608 114.04C383.605 108.55 380.368 103.226 376.899 98.0673L370.102 102.699C368.762 100.718 367.39 98.7761 365.985 96.873L376.112 89.5034C388.237 106.135 397.81 124.485 404.513 143.945C400.551 145.285 396.596 146.635 392.648 147.994C391.858 145.69 391.026 143.424 390.152 141.198L397.804 138.285C397.124 136.547 396.425 134.809 395.706 133.09C391.7 134.721 387.689 136.359 383.676 138.003C385.968 143.434 387.997 148.981 389.764 154.645C396.807 152.451 403.853 150.266 410.902 148.091C407.158 136.08 402.349 124.428 396.532 113.273Z" fill="#C1C1C1"/>
</g>
</svg>
