<svg width="340" height="340" viewBox="0 0 340 340" fill="none" xmlns="http://www.w3.org/2000/svg">
<g opacity="0.03" filter="url(#filter0_b_163_268)">
<path d="M170.027 328.91C138.59 328.915 107.858 319.598 81.7162 302.136C55.5749 284.673 35.1992 259.851 23.1662 230.808C11.1332 201.765 7.98341 169.805 14.1152 138.972C20.2469 108.139 35.3848 79.8162 57.6143 57.5867C79.8437 35.3573 108.166 20.2194 139 14.0876C169.833 7.95588 201.792 11.1057 230.835 23.1387C259.879 35.1717 284.701 55.5474 302.163 81.6887C319.625 107.83 328.943 138.563 328.938 170C328.938 212.146 312.195 252.565 282.394 282.366C252.592 312.168 212.173 328.91 170.027 328.91ZM170.027 2.21727e-06C136.403 -0.00542714 103.533 9.96028 75.5731 28.6368C47.6131 47.3133 25.8195 73.8618 12.9484 104.925C0.0773305 135.988 -3.29315 170.17 3.26323 203.148C9.81962 236.127 26.0084 266.421 49.7822 290.198C73.556 313.976 103.847 330.17 136.825 336.731C169.802 343.293 203.985 339.928 235.05 327.062C266.115 314.196 292.667 292.407 311.348 264.45C330.029 236.493 340 203.624 340 170C340 124.918 322.093 81.6819 290.218 49.8015C258.343 17.9212 215.11 0.00728173 170.027 2.21727e-06V2.21727e-06Z" fill="#C1C1C1"/>
</g>
<path d="M252.933 312.644C284.312 294.399 308.801 266.317 322.604 232.746C336.407 199.175 338.755 161.989 329.285 126.949C319.814 91.9081 299.053 60.9683 270.217 38.9218C241.382 16.8752 206.081 4.95241 169.783 5.00014" stroke="white" stroke-width="3"/>
<defs>
<filter id="filter0_b_163_268" x="-20" y="-20" width="380" height="380" filterUnits="userSpaceOnUse" color-interpolation-filters="sRGB">
<feFlood flood-opacity="0" result="BackgroundImageFix"/>
<feGaussianBlur in="BackgroundImage" stdDeviation="10"/>
<feComposite in2="SourceAlpha" operator="in" result="effect1_backgroundBlur_163_268"/>
<feBlend mode="normal" in="SourceGraphic" in2="effect1_backgroundBlur_163_268" result="shape"/>
</filter>
</defs>
</svg>
