<svg width="300" height="301" viewBox="0 0 300 301" fill="none" xmlns="http://www.w3.org/2000/svg">
<g opacity="0.6">
<path d="M151.09 0H148.931V9.13305H151.09V0Z" fill="#C1C1C1"/>
<path opacity="0.42" d="M135.4 0.696319L133.253 0.921967L134.208 10.005L136.354 9.77934L135.4 0.696319Z" fill="#C1C1C1"/>
<path opacity="0.32" d="M119.884 3.05528L117.772 3.5041L119.671 12.4376L121.782 11.9888L119.884 3.05528Z" fill="#C1C1C1"/>
<path opacity="0.22" d="M104.586 6.88115L102.536 7.55035L105.367 16.2268L107.418 15.5576L104.586 6.88115Z" fill="#C1C1C1"/>
<path opacity="0.1" d="M89.9933 12.5408L88.0212 13.4188L91.736 21.7623L93.7081 20.8842L89.9933 12.5408Z" fill="#C1C1C1"/>
<path opacity="0.1" d="M75.9415 19.5572L74.072 20.6365L78.6385 28.546L80.508 27.4666L75.9415 19.5572Z" fill="#C1C1C1"/>
<path opacity="0.1" d="M62.7059 28.0232L60.9595 29.292L66.3277 36.6808L68.0742 35.412L62.7059 28.0232Z" fill="#C1C1C1"/>
<path opacity="0.1" d="M50.4582 37.7972L48.854 39.2417L54.9652 46.0289L56.5694 44.5844L50.4582 37.7972Z" fill="#C1C1C1"/>
<path opacity="0.1" d="M39.2523 48.8255L37.8079 50.4297L44.595 56.541L46.0395 54.9367L39.2523 48.8255Z" fill="#C1C1C1"/>
<path opacity="0.1" d="M29.2828 60.9632L28.0139 62.7097L35.4027 68.078L36.6716 66.3315L29.2828 60.9632Z" fill="#C1C1C1"/>
<path opacity="0.1" d="M20.6365 74.0554L19.5571 75.9249L27.4666 80.4914L28.5459 78.6219L20.6365 74.0554Z" fill="#C1C1C1"/>
<path opacity="0.1" d="M13.4027 88.0034L12.5247 89.9755L20.8681 93.6902L21.7461 91.7181L13.4027 88.0034Z" fill="#C1C1C1"/>
<path opacity="0.1" d="M7.65816 102.62L6.99072 104.673L15.6763 107.497L16.3437 105.444L7.65816 102.62Z" fill="#C1C1C1"/>
<path opacity="0.1" d="M3.50961 117.779L3.06079 119.891L11.9943 121.789L12.4431 119.678L3.50961 117.779Z" fill="#C1C1C1"/>
<path opacity="0.1" d="M0.937318 133.25L0.71167 135.396L9.79469 136.351L10.0203 134.204L0.937318 133.25Z" fill="#C1C1C1"/>
<path opacity="0.1" d="M0 148.931L0 151.09H9.13305V148.931H0Z" fill="#C1C1C1"/>
<path opacity="0.1" d="M0.707702 164.597L0.93335 166.744L10.0164 165.79L9.79072 163.643L0.707702 164.597Z" fill="#C1C1C1"/>
<path opacity="0.1" d="M3.04507 180.123L3.4939 182.235L12.4274 180.336L11.9785 178.224L3.04507 180.123Z" fill="#C1C1C1"/>
<path opacity="0.1" d="M7.01676 195.339L7.68384 197.392L16.3699 194.57L15.7028 192.517L7.01676 195.339Z" fill="#C1C1C1"/>
<path opacity="0.1" d="M12.5121 210.021L13.3901 211.993L21.7336 208.278L20.8556 206.306L12.5121 210.021Z" fill="#C1C1C1"/>
<path opacity="0.1" d="M20.4289 223.955L21.5083 225.834L29.4541 221.267L28.3747 219.389L20.4289 223.955Z" fill="#C1C1C1"/>
<path opacity="0.1" d="M28.0214 237.301L29.2903 239.047L36.6791 233.679L35.4102 231.933L28.0214 237.301Z" fill="#C1C1C1"/>
<path opacity="0.1" d="M37.8119 249.576L39.2563 251.18L46.0435 245.069L44.5991 243.464L37.8119 249.576Z" fill="#C1C1C1"/>
<path opacity="0.1" d="M48.8262 260.739L50.4304 262.183L56.5416 255.396L54.9374 253.951L48.8262 260.739Z" fill="#C1C1C1"/>
<path opacity="0.1" d="M60.9774 270.739L62.7239 272.008L68.0921 264.619L66.3457 263.35L60.9774 270.739Z" fill="#C1C1C1"/>
<path opacity="0.1" d="M74.0682 279.362L75.9377 280.441L80.5043 272.532L78.6348 271.452L74.0682 279.362Z" fill="#C1C1C1"/>
<path opacity="0.1" d="M87.9979 286.586L89.97 287.464L93.6847 279.12L91.7126 278.242L87.9979 286.586Z" fill="#C1C1C1"/>
<path opacity="0.1" d="M102.613 292.335L104.667 293.002L107.489 284.316L105.436 283.649L102.613 292.335Z" fill="#C1C1C1"/>
<path opacity="0.1" d="M117.772 296.501L119.884 296.949L121.782 288.016L119.671 287.567L117.772 296.501Z" fill="#C1C1C1"/>
<path opacity="0.1" d="M133.273 299.072L135.42 299.298L136.374 290.215L134.227 289.989L133.273 299.072Z" fill="#C1C1C1"/>
<path opacity="0.1" d="M148.911 300.021H151.069V290.888H148.911V300.021Z" fill="#C1C1C1"/>
<path opacity="0.1" d="M164.604 299.293L166.751 299.067L165.797 289.984L163.65 290.21L164.604 299.293Z" fill="#C1C1C1"/>
<path opacity="0.1" d="M180.113 296.973L182.225 296.525L180.326 287.591L178.214 288.04L180.113 296.973Z" fill="#C1C1C1"/>
<path opacity="0.1" d="M195.321 293.014L197.375 292.346L194.552 283.66L192.499 284.327L195.321 293.014Z" fill="#C1C1C1"/>
<path opacity="0.1" d="M210.031 287.482L212.003 286.604L208.289 278.261L206.317 279.139L210.031 287.482Z" fill="#C1C1C1"/>
<path d="M224.071 280.441L225.941 279.362L221.374 271.452L219.505 272.532L224.071 280.441Z" fill="#C1C1C1"/>
<path d="M237.303 271.993L239.049 270.724L233.681 263.335L231.935 264.604L237.303 271.993Z" fill="#C1C1C1"/>
<path d="M249.561 262.196L251.166 260.751L245.054 253.964L243.45 255.409L249.561 262.196Z" fill="#C1C1C1"/>
<path d="M260.752 251.188L262.196 249.584L255.409 243.473L253.965 245.077L260.752 251.188Z" fill="#C1C1C1"/>
<path d="M270.725 239.042L271.994 237.295L264.605 231.927L263.336 233.673L270.725 239.042Z" fill="#C1C1C1"/>
<path d="M279.359 225.936L280.438 224.067L272.529 219.5L271.449 221.37L279.359 225.936Z" fill="#C1C1C1"/>
<path d="M286.611 212.022L287.489 210.05L279.145 206.335L278.267 208.307L286.611 212.022Z" fill="#C1C1C1"/>
<path d="M292.326 197.383L292.993 195.33L284.307 192.508L283.64 194.561L292.326 197.383Z" fill="#C1C1C1"/>
<path d="M296.507 182.238L296.956 180.127L288.022 178.228L287.573 180.339L296.507 182.238Z" fill="#C1C1C1"/>
<path d="M299.07 166.761L299.295 164.615L290.212 163.66L289.986 165.807L299.07 166.761Z" fill="#C1C1C1"/>
<path d="M300 151.069V148.91H290.867V151.069H300Z" fill="#C1C1C1"/>
<path d="M299.306 135.393L299.081 133.246L289.998 134.2L290.223 136.347L299.306 135.393Z" fill="#C1C1C1"/>
<path d="M296.959 119.873L296.51 117.762L287.577 119.661L288.026 121.772L296.959 119.873Z" fill="#C1C1C1"/>
<path d="M293.017 104.688L292.35 102.635L283.664 105.458L284.331 107.511L293.017 104.688Z" fill="#C1C1C1"/>
<path d="M287.474 89.9836L286.596 88.0114L278.253 91.7262L279.131 93.6983L287.474 89.9836Z" fill="#C1C1C1"/>
<path d="M280.485 75.9359L279.405 74.0664L271.496 78.6329L272.575 80.5025L280.485 75.9359Z" fill="#C1C1C1"/>
<path d="M271.991 62.7039L270.722 60.9575L263.333 66.3258L264.602 68.0722L271.991 62.7039Z" fill="#C1C1C1"/>
<path d="M262.205 50.4383L260.761 48.8341L253.974 54.9453L255.418 56.5495L262.205 50.4383Z" fill="#C1C1C1"/>
<path d="M251.175 39.2544L249.571 37.81L243.459 44.5971L245.064 46.0416L251.175 39.2544Z" fill="#C1C1C1"/>
<path d="M239.056 29.2767L237.31 28.0078L231.941 35.3966L233.688 36.6655L239.056 29.2767Z" fill="#C1C1C1"/>
<path d="M225.939 20.6365L224.07 19.5571L219.503 27.4666L221.373 28.5459L225.939 20.6365Z" fill="#C1C1C1"/>
<path d="M212.007 13.4182L210.035 12.5402L206.32 20.8836L208.293 21.7617L212.007 13.4182Z" fill="#C1C1C1"/>
<path d="M197.393 7.67108L195.34 7.004L192.518 15.69L194.571 16.3571L197.393 7.67108Z" fill="#C1C1C1"/>
<path d="M182.252 3.48662L180.141 3.0378L178.242 11.9713L180.353 12.4201L182.252 3.48662Z" fill="#C1C1C1"/>
<path d="M166.765 0.937577L164.618 0.711929L163.663 9.79495L165.81 10.0206L166.765 0.937577Z" fill="#C1C1C1"/>
</g>
</svg>
