<svg xmlns="http://www.w3.org/2000/svg" width="11" height="13" viewBox="0 0 11 13" fill="none"><path d="M0.00036368 12.0193C0.00036368 11.2874 0.00036368 10.5557 0.00036368 9.82408C-0.00146617 9.79264 0.00362494 9.76118 0.0152786 9.73192C0.0269322 9.70266 0.0448647 9.67631 0.0678097 9.65474C2.27654 7.4441 4.48444 5.23273 6.6915 3.02065C6.71374 2.99841 6.73742 2.9776 6.7532 2.96289C7.51592 3.72668 8.27432 4.48688 9.04027 5.25426C9.02089 5.27471 8.99291 5.30592 8.96385 5.33534C6.76564 7.53689 4.56803 9.73857 2.37101 11.9404C2.3459 11.9655 2.32294 11.9927 2.29926 12.0193H0.00036368Z" fill="#8DB161"></path><path d="M11.0002 3.15082C10.9435 3.34742 10.8104 3.48912 10.669 3.62796C10.3462 3.94438 10.0305 4.26583 9.7205 4.57687L7.41406 2.26577C7.45589 2.23857 7.49558 2.20823 7.53281 2.17501C7.81515 1.89482 8.09785 1.61499 8.37552 1.33014C8.514 1.18664 8.65571 1.05533 8.85195 0.998291H9.0672C9.26057 1.05067 9.40049 1.17767 9.53717 1.3183C9.91578 1.70312 10.297 2.08508 10.6809 2.46416C10.8197 2.60121 10.9485 2.74148 11.0005 2.93557L11.0002 3.15082Z" fill="#8DB161"></path></svg>