<svg width="88" height="81" viewBox="0 0 88 81" fill="none" xmlns="http://www.w3.org/2000/svg">
<path d="M20.4676 20.1695C21.0119 20.042 21.5714 19.9911 22.1298 20.0184C22.7163 20.0513 23.2844 20.2359 23.7782 20.5542C24.2453 20.4443 24.7123 20.3206 25.1519 20.2382C24.0431 19.0051 22.7217 17.9815 21.2506 17.2161C19.3849 16.2866 17.5977 15.207 15.9069 13.9879C13.9438 12.5409 11.8071 11.3457 9.54675 10.4301C9.16333 10.2425 8.73499 10.1664 8.31043 10.2103C7.26643 10.3751 7.00543 11.845 7.32137 12.834C7.79608 13.8769 8.55253 14.7666 9.50554 15.4028C12.1155 17.3535 14.602 18.5348 16.8273 20.8976L17.363 20.7739C18.3933 20.5954 19.4236 20.3756 20.4676 20.1695Z" fill="white"/>
<path d="M29.0807 27.5599C30.613 26.6937 32.3237 26.1908 34.081 26.0901C35.7844 25.884 37.4877 25.8291 39.1499 25.5956C39.8944 25.5021 40.6296 25.3459 41.3478 25.1285C38.0951 24.4836 34.8841 23.6441 31.732 22.6147C30.8253 22.3262 29.9187 22.0102 28.9846 21.6805C28.1343 21.3207 27.251 21.0447 26.3471 20.8563C25.4385 20.8258 24.5317 20.956 23.6684 21.241C22.7618 21.4745 21.8689 21.763 20.921 22.0789C19.9732 22.3949 19.149 22.7246 18.1737 22.9856L15.4263 23.7686C14.5196 24.0296 13.5993 24.3043 12.6789 24.6065C11.8283 24.9289 11.0387 25.3934 10.3436 25.9802L6.04395 29.7029L4.94502 30.6095C4.58663 30.8789 4.2512 31.1776 3.94221 31.5024C3.68635 31.83 3.56369 32.2422 3.59879 32.6563C3.70738 33.0988 3.94835 33.4976 4.28953 33.7995C4.63071 34.1014 5.05587 34.292 5.50824 34.346C7.13325 34.328 8.69226 33.7005 9.87656 32.5877C12.1844 30.9392 13.3657 29.4831 14.3411 29.3183C15.0828 29.2084 23.5036 28.3292 24.1217 28.2605C24.7399 28.1918 25.4954 28.81 26.0861 29.4831L26.8004 29.0023C27.6933 28.604 28.3389 28.0545 29.0807 27.5599Z" fill="white"/>
<path d="M4.78016 30.211L6.79945 28.5626C7.66487 27.8346 10.2062 25.6229 10.2062 25.6229C10.9386 24.9686 11.7802 24.4478 12.6926 24.0844C13.5992 23.7547 14.5059 23.48 15.44 23.2052L18.1874 22.3948C19.0802 22.1475 19.9732 21.7903 20.8661 21.4881C21.5254 21.2546 22.1711 21.0348 22.8304 20.8425C22.107 20.641 21.3423 20.641 20.6188 20.8425L17.5143 21.4194C16.484 21.6255 15.4537 21.8315 14.4235 22.0651L11.3189 22.6695C9.2408 22.9905 7.26572 23.7899 5.54943 25.0048C4.69483 25.74 3.80057 26.4279 2.87071 27.0653C1.64813 28.0269 0.549164 28.7275 0.453006 28.8099C0.310969 28.9311 0.19693 29.0817 0.118722 29.2513C0.0405141 29.4208 0 29.6053 0 29.7921C0 29.9788 0.0405141 30.1633 0.118722 30.3329C0.19693 30.5024 0.310969 30.653 0.453006 30.7743C0.681435 31.0272 0.961599 31.228 1.27446 31.3631C1.58732 31.4982 1.92558 31.5644 2.26629 31.5573C2.73118 31.5805 3.19646 31.52 3.63998 31.3787C3.65781 31.3391 3.6809 31.3022 3.70865 31.2688C4.01558 30.8687 4.37616 30.5128 4.78016 30.211Z" fill="white"/>
<path d="M87.9022 67.8915C81.8031 62.7265 80.553 56.2289 76.9127 52.7809C74.9772 51.1372 72.925 49.6359 70.7723 48.289C63.4368 43.0964 58.2031 35.4999 52.8045 28.3018C51.7953 26.9331 50.5019 25.7991 49.0131 24.9775C47.4635 24.3996 45.7503 24.4439 44.2326 25.1011C42.6279 25.7324 40.9611 26.1928 39.2599 26.4748C37.5428 26.6946 35.8257 26.722 34.1635 26.9006C32.5047 26.9954 30.8891 27.4651 29.438 28.2743C28.7511 28.7139 28.0643 29.2634 27.3637 29.7442L25.2345 31.1179C23.792 31.9682 22.4627 32.9975 21.2783 34.1812C20.7507 34.8091 20.2903 35.4905 19.9046 36.2142C19.4755 36.9784 18.9389 37.677 18.3111 38.2885C17.7287 38.8551 17.2375 39.5085 16.855 40.2254C16.7909 40.3772 16.7627 40.5417 16.7726 40.7062C16.8056 40.8772 16.8709 41.0404 16.9649 41.187C17.1517 41.487 17.4468 41.7035 17.7891 41.7914C18.5641 41.9529 19.37 41.8714 20.0969 41.5579C20.8559 41.2412 21.5429 40.7739 22.1162 40.1842C23.2286 38.8724 24.492 37.6967 25.8801 36.6813C27.3724 35.8308 28.9136 35.0694 30.4957 34.401C31.2543 34.0505 31.9846 33.6418 32.6799 33.1784C32.797 33.0912 32.9339 33.0346 33.0783 33.0135H33.4354H34.0948H35.3723C37.0614 33.0435 38.7505 32.9563 40.4275 32.7525L41.0457 32.6564C41.1768 32.6264 41.3129 32.6264 41.444 32.6564L41.7737 32.7525L42.9689 33.2196C43.756 33.5262 44.5584 33.7922 45.3728 34.0163C47.003 34.4955 48.7141 34.6357 50.4005 34.4284C48.7126 34.7267 46.9807 34.6658 45.3178 34.2499C44.4821 34.0536 43.6569 33.8152 42.8452 33.5355L41.6501 33.1234H41.3616C41.2847 33.1067 41.2051 33.1067 41.1281 33.1234L40.4962 33.2471C38.8046 33.5417 37.0893 33.6796 35.3723 33.6592H34.0948C33.7303 33.6185 33.3613 33.6512 33.0096 33.7553C32.2962 34.2442 31.5425 34.6716 30.7567 35.0329L30.1111 35.3351C31.7725 38.6322 33.0405 42.1132 33.8887 45.7064C32.8035 45.5279 31.5397 45.2943 31.0177 45.1707C27.859 44.4426 24.9548 42.8766 22.6108 40.6375L22.5283 40.7199C21.9146 41.3861 21.1457 41.8901 20.2901 42.1873C19.4345 42.4845 18.5187 42.5656 17.6242 42.4233C17.3727 42.3719 17.1348 42.2681 16.9261 42.1186C16.7174 41.9691 16.5425 41.7772 16.4128 41.5556C16.2832 41.3339 16.2018 41.0875 16.1738 40.8322C16.1459 40.577 16.172 40.3188 16.2506 40.0743C16.6648 39.2878 17.1977 38.5696 17.8303 37.9451L18.1875 37.5605C17.0618 36.733 15.6803 36.3293 14.2862 36.4203C13.5987 36.4789 12.9585 36.7941 12.4928 37.3031C12.027 37.8121 11.7699 38.4777 11.7724 39.1677C11.9161 39.9355 12.2358 40.6596 12.7065 41.2832C14.9318 44.319 18.6683 46.201 22.0201 47.9043C26.2258 50.1167 30.2536 52.6519 34.0673 55.4871C38.3807 58.5092 40.6061 60.4187 45.0568 61.6687C47.2685 62.3006 51.0461 61.9709 53.9996 63.1523C61.967 66.3393 69.5772 73.6748 75.3742 80.1037C75.3742 80.1037 79.6601 81.0927 84.0971 76.6969C86.3983 74.3249 87.7517 71.1928 87.9022 67.8915ZM48.2576 56.902C47.7768 55.5283 47.2823 54.1546 46.719 52.8771C46.1752 51.5538 45.5607 50.2607 44.8783 49.0033C44.2197 47.7318 43.4905 46.4981 42.6941 45.3081C41.8974 44.1267 41.0319 42.9728 40.1116 41.8601C41.2229 42.8 42.2272 43.8595 43.1062 45.0196C43.9917 46.1762 44.7819 47.4029 45.469 48.6874C46.1413 49.9765 46.7198 51.3124 47.1998 52.6848C47.679 54.0567 48.0375 55.4678 48.2713 56.902H48.2576ZM60.6208 50.638C59.0917 50.4108 57.5996 49.9812 56.1837 49.3605C54.7605 48.751 53.3832 48.0394 52.0627 47.2312C50.7664 46.3802 49.5147 45.4632 48.3125 44.4839C47.1137 43.5298 45.9673 42.5118 44.8783 41.4343L48.6147 44.0855C49.8648 44.9372 51.1148 45.8163 52.4198 46.5856C53.6955 47.3973 55.0164 48.1357 56.3761 48.7972C57.7373 49.4695 59.147 50.0389 60.5933 50.5006C60.5933 50.5006 60.5658 50.638 60.5658 50.6243L60.6208 50.638Z" fill="white"/>
<path d="M19.726 22.5325C19.149 22.8485 15.3989 23.8238 15.3989 23.8238C15.1001 22.4994 14.9754 21.1418 15.028 19.7851C15.2261 17.1477 15.2583 14.5004 15.1242 11.8589C14.7395 10.0457 13.5169 9.4275 13.1048 7.44939C12.7752 5.78722 13.4483 4.16628 13.3521 2.95743C13.2559 1.74858 12.9263 0.608412 14.1351 0.0864095C15.1104 -0.325698 15.6874 0.814471 16.5803 1.831C17.4732 2.84753 19.2452 3.36954 19.9733 5.47128C20.7013 7.57303 19.9733 9.08409 19.7535 10.8561C19.4957 14.0132 19.3994 17.1814 19.465 20.3483C19.5337 21.4336 19.726 22.5325 19.726 22.5325Z" fill="#990000"/>
<path d="M22.6243 28.5081C23.4633 29.4992 24.5623 30.2366 25.7975 30.6373C25.7975 30.6373 23.9018 31.9011 23.1738 32.4643C22.643 32.8322 22.1381 33.2361 21.6627 33.6731C20.9199 33.2243 20.2127 32.7192 19.5473 32.1621C18.5205 31.3296 17.6862 30.2845 17.1021 29.0987C17.1021 29.0987 21.0308 28.6454 22.6243 28.5081Z" fill="#990000"/>
<path d="M32.1852 33.4121C35.7005 33.6898 39.2336 33.1831 42.5291 31.9285C45.6199 30.5548 48.6833 28.5905 47.0074 25.7744C45.3314 22.9583 41.3478 25.1288 41.3478 25.1288C39.3679 24.8769 37.4201 24.4164 35.537 23.7551C37.0725 21.7293 39.1555 20.1849 41.54 19.3043C43.4458 18.7212 45.4892 18.7714 47.364 19.4476C49.2388 20.1237 50.844 21.3892 51.9389 23.0545C54.5077 26.9283 53.3126 31.0494 50.2355 33.7555C46.9139 36.6631 42.6438 38.2558 38.2295 38.2338C34.1693 38.4672 30.1066 37.8205 26.3196 36.3381L27.1575 35.8436C27.9543 35.3902 29.0257 34.9369 30.1659 34.4699C30.8665 34.0715 31.7182 33.6869 32.1852 33.4121Z" fill="#990000"/>
<path d="M31.4708 38.2614C29.9826 39.9727 28.9523 42.0333 28.4762 44.2506C30.0765 44.8958 31.7598 45.312 33.4764 45.487C33.5272 45.2997 33.6109 45.1229 33.7237 44.965C33.1719 42.6684 32.418 40.4251 31.4708 38.2614Z" fill="#990000"/>
<path d="M27.968 51.2013C28.751 57.2181 33.8337 62.1908 38.7652 64.114C43.6968 66.0372 51.1284 67.1087 60.2635 62.5068C69.0826 58.056 74.7697 50.6244 72.9701 45.3494C71.0057 39.5524 64.1923 40.1294 62.64 40.8712C63.8093 42.2911 65.1009 43.6058 66.5 44.7999C67.0293 45.0976 67.4382 45.5705 67.6563 46.1371C67.8744 46.7038 67.8882 47.3288 67.6952 47.9045C67.2144 50.2397 63.8488 54.5119 58.3541 56.9983C54.007 59.2126 49.1127 60.1237 44.26 59.622C39.9741 59.2099 37.1718 58.1247 35.4134 56.3527C35.4134 56.3527 33.7101 55.1163 31.732 53.7427C29.1632 51.9706 27.968 51.2013 27.968 51.2013Z" fill="#990000"/>
<path d="M57.3924 64.6912C59.1704 65.5109 60.8256 66.5743 62.3102 67.8506C62.3102 67.8506 62.3102 69.3205 64.2883 70.2409C66.0741 71.0651 68.9589 70.2409 70.7035 69.6639C73.1074 68.826 76.6378 67.5484 79.5637 68.5787C80.6668 68.8587 81.6558 69.4742 82.394 70.3404C83.1322 71.2066 83.5832 72.2806 83.6848 73.4141C83.6848 74.4169 83.3002 75.2136 82.9018 74.9801C82.7233 74.8565 82.8057 74.4169 82.682 73.8674C82.3526 72.8386 81.6324 71.9803 80.6765 71.4772C78.3412 70.3645 76.2532 71.1475 74.2751 72.1228C71.4178 73.4965 66.0329 76.7247 61.8157 74.8702C59.9241 74.0519 58.4145 72.5448 57.593 70.6546C56.7716 68.7643 56.6999 66.6324 57.3924 64.6912Z" fill="#990000"/>
</svg>
