<svg width="55" height="104" viewBox="0 0 55 104" fill="none" xmlns="http://www.w3.org/2000/svg">
<path d="M14.7993 86.5167C14.4815 87.0265 14.3731 87.6393 14.4968 88.2271C14.7003 89.1288 14.9886 90.0093 15.3578 90.8567C15.5839 91.1958 15.9031 91.4625 16.277 91.6246C16.9767 91.9787 17.5468 92.5448 17.9059 93.242C18.4519 94.273 18.8439 95.3785 19.0695 96.5231L19.1858 96.9769L19.2905 97.4423C19.401 98.1835 19.7061 98.8821 20.1748 99.4669C20.6255 99.9115 21.1885 100.225 21.8038 100.374C22.0276 100.431 22.2401 100.525 22.4321 100.654C22.9466 101.174 23.6163 101.513 24.3403 101.619C24.9285 101.694 25.4803 101.946 25.9227 102.341C26.4165 102.869 27.0315 103.268 27.7145 103.504C28.1572 103.583 28.6039 103.638 29.0525 103.667C29.4052 103.656 29.7493 103.556 30.0532 103.376C30.383 103.211 30.7017 103.024 31.0073 102.818C31.324 102.606 31.6544 102.416 31.9963 102.248C33.3565 101.699 34.8325 101.499 36.2897 101.666H37.2438C37.5026 101.686 37.7623 101.642 38.0001 101.538C38.9077 101.062 39.7755 100.513 40.5948 99.8974C40.9555 99.304 41.1533 98.92 41.3162 98.6058C41.6362 97.9636 42.0265 97.3587 42.4797 96.8024C43.2886 95.67 44.2387 94.6456 45.3071 93.7539C45.7958 93.3816 46.3659 93.0325 46.9012 92.6951C48.4254 91.7643 49.9845 90.7869 50.3918 89.0416C50.5272 88.2718 50.5272 87.4843 50.3918 86.7145L49.9961 83.5032C49.9608 82.9775 49.8348 82.4618 49.6238 81.979C49.4059 81.594 49.14 81.2383 48.8326 80.9202L48.6348 80.6991C47.729 79.76 47.0237 78.6466 46.5616 77.4265C46.0996 76.2063 45.8905 74.905 45.9471 73.6015C46.078 69.2735 46.7264 64.9766 47.8785 60.8027C46.4834 63.1281 44.7983 65.2668 42.8637 67.1672C42.5845 67.4232 42.0027 67.8886 41.2929 68.4354C38.163 75.2421 36.5108 84.0617 35.3124 90.5426L34.9982 92.2181C34.9824 92.293 34.9415 92.3604 34.8822 92.409C34.823 92.4576 34.7491 92.4847 34.6724 92.4857H34.6142C34.5722 92.4773 34.5322 92.4608 34.4966 92.4369C34.4609 92.4131 34.4303 92.3825 34.4065 92.3468C34.3828 92.3111 34.3663 92.2711 34.358 92.2291C34.3497 92.187 34.3498 92.1437 34.3583 92.1017L34.6724 90.4262C35.836 84.2479 37.3834 75.9402 40.2574 69.2266C38.7321 70.3586 37.1389 71.3961 35.4869 72.3333C33.8129 73.2613 31.9522 73.802 30.0416 73.9157H29.2155C27.7823 73.9279 26.368 73.5883 25.0965 72.9267L24.8988 72.8336C21.6242 71.2951 18.5035 69.4484 15.5789 67.3185C16.8704 71.9726 18.5459 78.6745 16.6493 82.9098C16.3701 83.5381 16.0443 84.1664 15.7301 84.7714C15.416 85.3765 15.0785 85.935 14.7993 86.5167ZM39.2335 88.4947C39.9209 85.8513 40.9332 83.3031 42.247 80.9085C42.2907 80.8368 42.3604 80.7848 42.4415 80.7632C42.5226 80.7417 42.6089 80.7522 42.6824 80.7927C42.756 80.8332 42.811 80.9006 42.8361 80.9807C42.8612 81.0608 42.8544 81.1474 42.8172 81.2227C41.5264 83.567 40.5373 86.0651 39.8734 88.6576C39.8554 88.7274 39.8148 88.7892 39.758 88.8334C39.7011 88.8776 39.6313 88.9017 39.5592 88.902H39.4778C39.3954 88.8751 39.3259 88.8186 39.2829 88.7433C39.2399 88.668 39.2264 88.5794 39.2451 88.4947H39.2335ZM21.699 78.8142C21.737 78.7946 21.7786 78.783 21.8212 78.7801C21.8638 78.7772 21.9065 78.783 21.9468 78.7971C21.9871 78.8113 22.0241 78.8335 22.0555 78.8625C22.0869 78.8914 22.1121 78.9264 22.1295 78.9654C23.6702 82.2734 24.8898 85.7216 25.7714 89.2627C25.793 89.3475 25.7808 89.4374 25.7374 89.5133C25.6939 89.5893 25.6227 89.6455 25.5387 89.6699H25.4572C25.3847 89.6717 25.3138 89.6484 25.2565 89.6038C25.1993 89.5593 25.1592 89.4963 25.1431 89.4256C24.2684 85.9262 23.0646 82.5173 21.5478 79.2447C21.5286 79.206 21.5176 79.1637 21.5154 79.1206C21.5133 79.0774 21.5201 79.0343 21.5354 78.9939C21.5507 78.9535 21.5742 78.9167 21.6043 78.8858C21.6345 78.8548 21.6707 78.8305 21.7107 78.8142H21.699Z" fill="white"/>
<path d="M7.08484 25.6988C7.62059 23.8399 7.95222 21.9282 8.07385 19.9975C8.07385 19.2645 8.17857 17.8915 9.23738 17.4843C9.49089 17.3809 9.76517 17.3386 10.038 17.3609C10.3109 17.3831 10.5747 17.4692 10.8081 17.6123C11.2543 17.8869 11.604 18.2935 11.8088 18.7758C10.0984 21.0796 8.4229 23.5928 7.08484 25.6988Z" fill="#990000"/>
<path d="M51.5669 52.4021C52.448 50.6413 53.1646 48.8029 53.7078 46.9103C54.0719 44.9624 54.2124 42.9793 54.1267 40.9995C54.0625 39.2533 53.733 37.527 53.1493 35.88C52.6257 34.4372 52.1487 33.1224 52.6374 31.8076C52.7537 31.4818 52.9049 31.1211 53.0562 30.7488C53.485 29.8342 53.809 28.874 54.022 27.8865C54.062 27.3888 54.0108 26.8881 53.8707 26.4088C53.254 23.7094 52.649 21.2195 52.0556 18.811C51.4622 16.4024 50.8921 13.9125 50.2405 11.2131C50.0737 10.327 49.7632 9.47413 49.3213 8.68822C48.7188 7.91212 48.0007 7.23322 47.192 6.67531L46.8546 6.4077C46.6245 6.20062 46.3477 6.05227 46.0478 5.97528C45.748 5.89829 45.434 5.89496 45.1325 5.96556C44.7427 6.05889 44.3327 6.01789 43.969 5.8492C43.1711 5.38217 42.436 4.81522 41.7816 4.16208C41.4907 3.9061 41.1998 3.63849 40.9089 3.39415C40.697 3.22789 40.4434 3.12322 40.1759 3.09163C40.045 3.07958 39.9181 3.03993 39.8036 2.97528C39.3204 2.62342 38.8827 2.21306 38.5004 1.75357C37.5929 0.764566 36.6621 -0.247707 35.5916 0.0548113C34.7862 0.232664 34.005 0.506092 33.2645 0.869284C32.9586 1.05717 32.703 1.31675 32.5199 1.62558C32.4014 1.79854 32.2648 1.95845 32.1126 2.10263L31.8566 2.33534C31.5658 2.57968 31.2865 2.80075 30.9956 3.01018C31.1825 4.04352 31.0143 5.10967 30.5186 6.03537C29.871 7.13208 29.0034 8.08286 27.9704 8.82785L27.284 9.40961C26.0348 10.6135 24.9226 11.952 23.9679 13.4005C25.5969 11.9212 27.375 10.615 29.2736 9.5027C30.0299 9.06056 30.7746 8.69986 31.4959 8.33916C32.6361 7.8104 33.7366 7.1999 34.7888 6.51242L35.1262 6.27971C35.8476 5.76776 36.8366 5.11618 37.6045 5.38379C38.0081 5.61168 38.3346 5.95492 38.5419 6.36953C38.7492 6.78413 38.8279 7.2512 38.768 7.71086C38.6082 8.69195 38.2373 9.62663 37.6808 10.4503C37.1243 11.2739 36.3956 11.9669 35.5451 12.4813C34.9633 12.9002 34.3815 13.2725 33.7532 13.6449C32.7339 14.2123 31.7783 14.8871 30.9026 15.6578C29.6851 16.9044 28.5465 18.2256 27.4934 19.6138C26.9349 20.3119 26.3299 21.01 25.8063 21.6849C26.1204 21.4638 26.4113 21.2311 26.7138 21.01C27.4454 20.4681 28.2242 19.993 29.0409 19.5905C30.0614 19.1238 31.1062 18.7121 32.1708 18.3572C33.1528 17.9913 34.109 17.5598 35.0331 17.0657C35.7661 16.6933 36.4526 16.3559 36.8948 16.1814C37.7783 15.8253 38.7133 15.6132 39.664 15.5531C40.3621 15.4833 41.3278 15.3785 43.0498 15.0527C43.585 14.948 44.0621 14.8084 44.4926 14.6804C45.5398 14.3779 46.3659 14.1336 47.0524 14.7851C47.3528 15.111 47.5454 15.5217 47.6037 15.9611C47.662 16.4005 47.5832 16.8472 47.3782 17.2402C46.8524 18.1795 46.0357 18.9227 45.0511 19.3578C44.1908 19.7327 43.294 20.0173 42.375 20.2072C40.4777 20.6728 38.6615 21.422 36.9878 22.4295L36.0221 22.9415C34.7189 23.628 33.695 24.2563 32.5897 24.9311C33.4187 24.958 34.2439 24.8072 35.0098 24.489C35.4054 24.361 35.8127 24.233 36.1734 24.1283C38.83 23.2436 41.7133 23.3218 44.3181 24.3494C45.5254 24.9761 46.6914 25.6795 47.8087 26.4554L48.4254 26.8626C48.9622 27.2263 49.556 27.4976 50.1823 27.6654C50.2245 27.675 50.2644 27.6929 50.2996 27.7181C50.3349 27.7432 50.3647 27.7751 50.3875 27.812C50.4102 27.8488 50.4254 27.8898 50.4321 27.9326C50.4388 27.9753 50.437 28.019 50.4266 28.061C50.4109 28.1329 50.3712 28.1973 50.3142 28.2438C50.2571 28.2903 50.186 28.3161 50.1125 28.317H50.031C49.3289 28.1337 48.6637 27.8306 48.0647 27.4211L47.448 27.0139C46.3643 26.2623 45.2376 25.5746 44.0737 24.9544C41.5956 23.9871 38.8555 23.9253 36.3362 24.7799C35.9639 24.873 35.5683 25.001 35.1727 25.1173C33.8463 25.5362 32.5897 25.9201 31.9381 25.35L31.2633 25.7805C30.0679 26.707 28.9509 27.7305 27.9239 28.8406C27.6912 29.0733 27.4701 29.306 27.2607 29.5038C27.9821 29.4107 28.7616 29.2944 29.6692 29.1431C29.9717 29.1431 30.3557 29.0151 30.7629 28.9221C31.6189 28.6764 32.5024 28.5396 33.3925 28.5148L34.1023 28.5846C35.3256 27.5894 36.7636 26.8923 38.3026 26.5485C39.3086 26.4095 40.3325 26.4804 41.3098 26.7568C42.287 27.0331 43.1964 27.5089 43.9807 28.1541L44.3995 28.445C45.947 29.5504 46.5753 30.0158 48.3323 31.1677C48.3323 31.1677 48.3323 31.1677 48.3323 31.2259C48.3752 31.2825 48.3959 31.3528 48.3905 31.4237C48.38 31.4848 48.3516 31.5415 48.309 31.5865C47.8785 31.8076 47.448 32.0752 46.9942 32.3661C45.9798 33.0896 44.8335 33.6075 43.62 33.8903C42.8869 34.4954 41.1067 35.368 37.0227 34.7514L36.0221 34.6001L34.8586 34.4139C33.6227 34.2909 32.3747 34.4055 31.1818 34.7514H30.984C30.8807 36.7484 30.9079 38.7501 31.0654 40.7435C31.0703 40.7864 31.0666 40.8297 31.0545 40.8711C31.0425 40.9125 31.0224 40.9511 30.9953 40.9846C30.9683 41.0182 30.9348 41.046 30.8969 41.0666C30.859 41.0871 30.8174 41.0999 30.7746 41.1042C30.6931 41.1075 30.6136 41.079 30.5528 41.0247C30.4921 40.9704 30.4547 40.8946 30.4488 40.8134C30.2989 38.8546 30.2678 36.8885 30.3557 34.9259C29.7623 35.0771 29.1922 35.2284 28.494 35.368C28.4087 37.2394 28.2145 39.1042 27.9123 40.953C27.901 41.028 27.863 41.0964 27.8053 41.1456C27.7476 41.1948 27.674 41.2214 27.5981 41.2206H27.5283C27.4862 41.2123 27.4463 41.1957 27.4106 41.1719C27.375 41.148 27.3444 41.1174 27.3206 41.0817C27.2968 41.0461 27.2803 41.0061 27.272 40.964C27.2637 40.9219 27.2638 40.8787 27.2723 40.8366C27.5542 39.0717 27.7407 37.2927 27.8308 35.5077L27.3305 35.5775L27.0163 36.1011C26.8302 36.4036 26.6673 36.6828 26.4695 36.9504C26.4633 39.3332 26.0379 41.6963 25.2129 43.9316C25.5117 43.9209 25.8093 43.9758 26.0847 44.0923C26.3601 44.2089 26.6066 44.3844 26.8069 44.6065C26.8513 44.6528 26.8816 44.7109 26.8942 44.7739C26.9068 44.8368 26.9011 44.9021 26.8779 44.9619C26.8547 45.0218 26.8149 45.0738 26.7631 45.1118C26.7114 45.1498 26.6499 45.1723 26.5858 45.1766C26.5416 45.178 26.4977 45.1693 26.4574 45.1511C26.4171 45.133 26.3814 45.1059 26.3532 45.0719C26.0623 44.7926 25.4921 44.3738 24.9336 44.6879C24.1626 46.6765 23.1588 48.5668 21.9434 50.3194C21.3034 51.227 20.4773 52.2625 19.6163 53.3562C19.6248 54.7099 19.2669 56.0407 18.5807 57.2075C18.5483 57.2472 18.5075 57.2793 18.4612 57.3014C18.415 57.3235 18.3644 57.3352 18.3131 57.3355C18.2526 57.335 18.1935 57.3176 18.1423 57.2854C18.0911 57.2531 18.0499 57.2072 18.0233 57.1528C17.9968 57.0985 17.9858 57.0378 17.9918 56.9776C17.9978 56.9174 18.0204 56.86 18.0572 56.8119C18.528 56.0287 18.8182 55.1502 18.9065 54.2405C16.6609 57.033 14.1826 60.2793 13.0889 63.5488C13.4233 64.2813 13.871 64.9566 14.4153 65.5501C16.4515 67.4815 20.0584 69.7039 25.1663 72.1706L25.3758 72.2753C26.8092 73.0138 28.4247 73.3248 30.0299 73.1712C31.845 73.0689 33.6124 72.5515 35.196 71.6586C37.7414 70.1846 40.1584 68.4993 42.4215 66.6205C45.6213 63.5721 48.0879 59.5462 50.799 54.0311L51.5669 52.4021ZM38.768 52.7512C38.7596 52.7092 38.7595 52.6659 38.7677 52.6238C38.776 52.5818 38.7925 52.5418 38.8163 52.5061C38.8401 52.4704 38.8707 52.4398 38.9063 52.416C38.942 52.3921 38.982 52.3756 39.024 52.3672C39.0653 52.357 39.1083 52.3552 39.1503 52.3621C39.1923 52.3689 39.2325 52.3842 39.2684 52.4071C39.3043 52.4299 39.3352 52.4599 39.3592 52.495C39.3832 52.5302 39.3998 52.5698 39.408 52.6116C39.716 53.9435 40.4417 55.1421 41.4791 56.0324C41.5291 56.0765 41.5643 56.1348 41.5801 56.1996C41.5959 56.2643 41.5915 56.3324 41.5674 56.3945C41.5433 56.4567 41.5007 56.51 41.4454 56.5471C41.3901 56.5843 41.3247 56.6037 41.258 56.6025C41.1803 56.6033 41.1053 56.5741 41.0486 56.5211C39.9016 55.5415 39.0983 54.2204 38.7564 52.7512H38.768ZM24.8056 64.5494C26.0184 63.7407 27.4145 63.2487 28.8664 63.1183C30.6702 62.9396 32.4727 63.4695 33.8928 64.596C33.9234 64.6253 33.9478 64.6605 33.9645 64.6995C33.9811 64.7385 33.9897 64.7805 33.9897 64.8229C33.9897 64.8653 33.9811 64.9072 33.9645 64.9462C33.9478 64.9852 33.9234 65.0204 33.8928 65.0498C33.8627 65.0892 33.824 65.1212 33.7797 65.1434C33.7353 65.1655 33.6864 65.1773 33.6368 65.1777C33.5649 65.1778 33.495 65.1532 33.4391 65.1079C32.1547 64.1258 30.5451 63.6683 28.9362 63.828C27.603 63.9489 26.3202 64.3965 25.2012 65.1312C25.1672 65.1608 25.1275 65.183 25.0844 65.1965C25.0414 65.2099 24.9961 65.2143 24.9513 65.2093C24.9064 65.2044 24.8632 65.1901 24.8241 65.1675C24.7851 65.145 24.7512 65.1146 24.7245 65.0782C24.6979 65.0418 24.679 65.0004 24.6692 64.9563C24.6594 64.9123 24.6589 64.8668 24.6676 64.8225C24.6763 64.7783 24.6941 64.7364 24.7199 64.6994C24.7456 64.6624 24.7788 64.6311 24.8173 64.6076L24.8056 64.5494ZM22.2226 57.5682C22.2519 57.5376 22.2871 57.5132 22.3261 57.4966C22.3651 57.4799 22.4071 57.4714 22.4495 57.4714C22.4919 57.4714 22.5338 57.4799 22.5728 57.4966C22.6118 57.5132 22.6471 57.5376 22.6764 57.5682C23.5505 58.621 24.805 59.2859 26.167 59.4183C26.632 59.3858 27.0923 59.3039 27.5399 59.1739C28.0957 59.0107 28.6712 58.9246 29.2503 58.9179C29.7563 58.9502 30.2564 59.044 30.7397 59.1972C31.1198 59.3116 31.5091 59.3933 31.9032 59.4415C32.9504 59.5346 34.1372 58.8365 35.3938 57.3472C35.4546 57.2882 35.536 57.2552 35.6207 57.2552C35.7054 57.2552 35.7868 57.2882 35.8476 57.3472C35.8782 57.3765 35.9026 57.4117 35.9192 57.4507C35.9359 57.4897 35.9444 57.5317 35.9444 57.5741C35.9444 57.6165 35.9359 57.6584 35.9192 57.6974C35.9026 57.7364 35.8782 57.7716 35.8476 57.8009C34.4979 59.3484 33.2063 60.128 32.0079 60.128H31.8683C31.4426 60.0747 31.0222 59.9852 30.6117 59.8604C30.1776 59.7213 29.7283 59.6354 29.2736 59.6044C28.7523 59.6086 28.2346 59.691 27.7378 59.8488C27.2443 59.9886 26.7371 60.0744 26.2251 60.1047C25.4471 60.0471 24.6889 59.8317 23.9968 59.4717C23.3047 59.1116 22.6931 58.6144 22.1993 58.0104C22.1548 57.9477 22.1338 57.8712 22.1402 57.7946C22.1466 57.7179 22.1799 57.646 22.2342 57.5915L22.2226 57.5682ZM30.7048 45.9329C30.2624 46.4002 29.6597 46.6828 29.0176 46.7241C28.6852 46.7352 28.3556 46.6608 28.0602 46.508C27.7648 46.3552 27.5135 46.1291 27.3305 45.8515C27.2781 45.782 27.2553 45.6946 27.2673 45.6084C27.2793 45.5222 27.3251 45.4443 27.3945 45.3919C27.4639 45.3394 27.5514 45.3167 27.6376 45.3287C27.7237 45.3407 27.8016 45.3864 27.8541 45.4559C27.9749 45.6536 28.1467 45.8151 28.3514 45.9236C28.5561 46.0321 28.7862 46.0836 29.0176 46.0725C29.483 46.0281 29.9167 45.8174 30.2393 45.4791C30.2683 45.4451 30.3039 45.4173 30.344 45.3976C30.384 45.3778 30.4278 45.3666 30.4724 45.3645C30.517 45.3623 30.5616 45.3694 30.6034 45.3853C30.6451 45.4011 30.6832 45.4254 30.7152 45.4566C30.7472 45.4878 30.7724 45.5253 30.7893 45.5666C30.8062 45.608 30.8145 45.6524 30.8135 45.697C30.8125 45.7417 30.8024 45.7857 30.7837 45.8263C30.7649 45.8669 30.7381 45.9031 30.7048 45.9329ZM33.7183 44.2923C33.7489 44.3216 33.7733 44.3569 33.79 44.3959C33.8066 44.4349 33.8152 44.4768 33.8152 44.5192C33.8152 44.5616 33.8066 44.6036 33.79 44.6426C33.7733 44.6816 33.7489 44.7168 33.7183 44.7461C33.6618 44.8119 33.5829 44.8543 33.4968 44.865C33.4108 44.8758 33.3238 44.8541 33.2529 44.8043C32.7875 44.4319 32.0894 44.7345 31.5541 45.165C31.4985 45.2213 31.4237 45.2545 31.3447 45.2581C31.298 45.2573 31.252 45.2465 31.2099 45.2265C31.1677 45.2064 31.1304 45.1775 31.1003 45.1417C31.0682 45.1133 31.0424 45.0784 31.0247 45.0393C31.0071 45.0002 30.9979 44.9577 30.9979 44.9148C30.9979 44.8719 31.0071 44.8295 31.0247 44.7903C31.0424 44.7512 31.0682 44.7163 31.1003 44.6879C31.4159 44.3129 31.8587 44.0675 32.3439 43.9988C32.8292 43.9301 33.3227 44.0429 33.7299 44.3156L33.7183 44.2923ZM34.719 45.5257C34.6771 45.5376 34.6328 45.5376 34.5909 45.5257C34.5156 45.5246 34.443 45.4975 34.3854 45.4489C34.3278 45.4004 34.2888 45.3333 34.2751 45.2592C34.2614 45.1852 34.2738 45.1086 34.3101 45.0426C34.3465 44.9766 34.4046 44.9253 34.4746 44.8974C34.7816 44.7363 35.0287 44.4809 35.1796 44.1688C35.3304 43.8566 35.3769 43.5043 35.3123 43.1637C35.1288 42.4562 34.7205 41.8273 34.1488 41.3719C33.7615 41.0402 33.4313 40.6471 33.1714 40.2083C33.1522 40.1696 33.1413 40.1274 33.1391 40.0842C33.137 40.0411 33.1438 39.998 33.159 39.9576C33.1743 39.9172 33.1978 39.8804 33.228 39.8494C33.2581 39.8185 33.2943 39.7941 33.3343 39.7778C33.373 39.7586 33.4153 39.7476 33.4584 39.7455C33.5016 39.7434 33.5447 39.7501 33.5851 39.7654C33.6255 39.7807 33.6623 39.8042 33.6932 39.8343C33.7242 39.8645 33.7485 39.9007 33.7648 39.9407C33.9834 40.3207 34.267 40.6594 34.6026 40.9414C35.2924 41.4904 35.7829 42.2507 35.9988 43.1055C36.0865 43.5956 36.0097 44.101 35.7803 44.5429C35.5509 44.9849 35.1819 45.3386 34.7306 45.5489L34.719 45.5257ZM37.5463 54.9968C37.5802 55.0249 37.6114 55.056 37.6394 55.0899C37.6745 55.1078 37.703 55.1363 37.7209 55.1714C37.7267 55.206 37.7267 55.2414 37.7209 55.2761C37.7209 55.2761 37.7209 55.3575 37.7209 55.3924C37.7209 55.3924 37.7208 55.4506 37.6394 55.4855C37.618 55.5249 37.5857 55.5572 37.5463 55.5786C35.8516 56.069 34.0494 56.0447 32.3686 55.5088C31.9562 55.3745 31.5196 55.3308 31.0887 55.3808L30.4604 55.6019C30.1195 55.7435 29.7646 55.8488 29.4016 55.916C28.8433 55.9547 28.2827 55.8876 27.7494 55.7182C27.5273 55.6555 27.3021 55.605 27.0745 55.567C26.4109 55.5334 25.7479 55.6446 25.1314 55.8927C24.2406 56.2047 23.3059 56.3736 22.3622 56.3931C21.8383 56.3918 21.3159 56.3372 20.8031 56.2302C20.7512 56.203 20.7041 56.1676 20.6635 56.1255C20.6635 56.1255 20.6635 56.0673 20.6635 56.0324C20.6635 55.9975 20.6635 55.9626 20.6635 55.9277C20.6785 55.8879 20.7023 55.8521 20.7333 55.8229L20.8147 55.7415C21.9663 55.2078 23.0486 54.5357 24.0377 53.7402C24.5497 53.3679 25.0733 52.9723 25.6667 52.5767C26.0171 52.3182 26.4112 52.125 26.8302 52.0065H27.0396C27.5232 50.9094 27.7386 49.7129 27.6679 48.5159C27.6645 48.4302 27.6939 48.3464 27.7501 48.2815C27.8063 48.2167 27.8851 48.1757 27.9704 48.1669C28.0132 48.1637 28.0563 48.169 28.097 48.1825C28.1377 48.1961 28.1754 48.2175 28.2079 48.2456C28.2403 48.2737 28.2668 48.308 28.286 48.3464C28.3052 48.3848 28.3166 48.4266 28.3195 48.4694C28.4042 49.6977 28.201 50.9288 27.7261 52.0647L28.1799 52.1462C28.4647 52.2216 28.7579 52.2607 29.0525 52.2625C29.3679 52.2297 29.6796 52.1674 29.9834 52.0764C30.2093 52.0136 30.4385 51.9632 30.6698 51.9251C30.2087 50.8939 29.9822 49.7733 30.0066 48.6439C30.0051 48.6012 30.012 48.5585 30.0269 48.5183C30.0419 48.4782 30.0646 48.4414 30.0938 48.4101C30.1229 48.3788 30.158 48.3535 30.1969 48.3357C30.2359 48.3179 30.278 48.308 30.3208 48.3065C30.4063 48.3094 30.4875 48.3447 30.5479 48.4052C30.6084 48.4656 30.6437 48.5468 30.6466 48.6323C30.5964 49.7628 30.8452 50.8866 31.368 51.8902H31.4378C31.9888 51.9885 32.5102 52.2114 32.962 52.5418C33.3576 52.7745 33.7416 53.0305 34.1255 53.2748C35.1916 53.9988 36.3449 54.5852 37.558 55.0201L37.5463 54.9968ZM45.47 35.9033C43.3238 37.631 40.6506 38.5713 37.8954 38.5677C37.4678 38.568 37.0405 38.5447 36.6155 38.4979C36.572 38.4952 36.5296 38.4834 36.4908 38.4634C36.4521 38.4434 36.418 38.4155 36.3907 38.3816C36.3633 38.3477 36.3433 38.3084 36.3319 38.2664C36.3206 38.2243 36.3181 38.1803 36.3246 38.1372C36.3288 38.0948 36.3417 38.0536 36.3624 38.0162C36.3831 37.9789 36.4111 37.9462 36.4449 37.92C36.4787 37.8939 36.5174 37.8749 36.5587 37.8643C36.6 37.8536 36.6431 37.8515 36.6853 37.858C39.6918 38.1705 42.7005 37.2887 45.0627 35.4029C45.13 35.3624 45.2095 35.3476 45.2868 35.3611C45.3641 35.3746 45.434 35.4155 45.4835 35.4763C45.5331 35.5372 45.5589 35.6139 45.5564 35.6923C45.554 35.7708 45.5233 35.8457 45.47 35.9033ZM48.2625 52.9723C48.1577 53.1352 48.0647 53.2748 48.0065 53.3795C47.9849 53.4175 47.9558 53.4508 47.9211 53.4773C47.8863 53.5038 47.8466 53.5231 47.8043 53.5339C47.7619 53.5448 47.7178 53.547 47.6746 53.5405C47.6314 53.5339 47.59 53.5188 47.5527 53.4959C47.4803 53.4482 47.429 53.3744 47.4095 53.2899C47.39 53.2055 47.4038 53.1167 47.448 53.0421L47.7039 52.6232C50.1056 49.0828 51.1999 44.8167 50.799 40.5574C50.7924 40.5143 50.7949 40.4703 50.8063 40.4282C50.8177 40.3862 50.8377 40.3469 50.865 40.313C50.8924 40.2791 50.9265 40.2512 50.9652 40.2312C51.0039 40.2112 51.0463 40.1994 51.0898 40.1967C51.1751 40.1927 51.259 40.22 51.3254 40.2736C51.3919 40.3273 51.4364 40.4034 51.4505 40.4876C51.8535 44.8808 50.7274 49.2785 48.2625 52.9374V52.9723Z" fill="white"/>
<path d="M32.5665 54.9153C32.055 54.7556 31.5135 54.7158 30.9841 54.799C30.7371 54.8548 30.4957 54.9327 30.2627 55.0317C29.974 55.154 29.6739 55.2475 29.3668 55.3109C28.887 55.3392 28.406 55.2801 27.9473 55.1364C27.6994 55.0643 27.4466 55.0098 27.191 54.9735C26.4383 54.9236 25.6838 55.0387 24.9802 55.3109C24.0331 55.6492 23.0299 55.8032 22.0249 55.7647C22.8336 55.2875 23.6109 54.7589 24.352 54.1823C24.8523 53.81 25.3642 53.426 25.9344 53.0188C26.2206 52.8097 26.5389 52.6486 26.8768 52.5417C27.2316 52.4962 27.592 52.524 27.9356 52.6232C28.2825 52.7062 28.6378 52.7492 28.9945 52.7511C29.3494 52.7151 29.7001 52.6449 30.0416 52.5417C30.4397 52.414 30.8574 52.3588 31.275 52.3788C31.7278 52.4703 32.1561 52.6567 32.5316 52.9257L33.6951 53.6587C34.5619 54.2565 35.4764 54.7819 36.4294 55.2295C35.1337 55.3802 33.8209 55.2735 32.5665 54.9153Z" fill="white"/>
<path d="M38.5005 27.1767C39.4244 27.0444 40.3657 27.1076 41.2637 27.3621C42.1616 27.6167 42.9961 28.0569 43.7131 28.6544L44.1203 28.9569C45.0512 29.6201 45.6678 30.0622 46.3776 30.5509C45.2141 30.1088 44.0505 29.4805 42.887 28.8987C41.7798 28.3447 40.5588 28.0563 39.3208 28.0563C38.0827 28.0563 36.8617 28.3447 35.7545 28.8987L35.1262 28.7474C36.123 27.9841 37.2747 27.448 38.5005 27.1767Z" fill="white"/>
<path d="M42.7472 30.6206C41.1599 30.4567 39.5976 30.1052 38.0931 29.5734L36.8015 29.1545C37.7394 28.7937 38.7435 28.6371 39.7468 28.6953C40.75 28.7534 41.7293 29.0251 42.6192 29.492C44.1492 30.3216 45.7495 31.0147 47.4013 31.5631L46.7963 31.9354C46.0757 32.4461 45.2939 32.8644 44.4692 33.1804C44.7209 32.7915 44.8164 32.3219 44.7368 31.8656C44.3761 30.9231 43.2242 30.6788 42.7472 30.6206Z" fill="white"/>
<path d="M0.0107224 54.9385C0.23688 55.6737 0.570134 56.3716 0.999732 57.0096C1.36043 57.5798 1.62804 57.6612 1.94219 57.7077C2.25634 57.7543 2.3378 57.7077 2.74503 58.3244C2.94283 58.5804 2.84976 58.7782 2.8963 59.0574C3.0941 60.221 3.3268 59.709 3.67586 60.6398C3.74865 60.8769 3.7724 61.1263 3.74567 61.3729C3.69907 61.5866 3.71364 61.8091 3.78773 62.0149C3.86182 62.2207 3.99242 62.4014 4.16454 62.5364C4.45142 62.8698 4.82042 63.1225 5.23499 63.2694C5.59354 63.3017 5.93217 63.4485 6.20073 63.6883C6.2811 63.7896 6.34403 63.9037 6.38689 64.0257C6.54979 64.398 6.53815 64.654 7.62024 65.1893C8.09764 65.4428 8.61203 65.6195 9.14446 65.7128C9.47025 65.7128 9.42371 65.5732 9.65642 65.4452C9.88912 65.3172 9.9473 65.2242 10.308 65.3754C10.6935 65.436 11.086 65.436 11.4715 65.3754C11.5991 65.3717 11.7234 65.3342 11.8317 65.2667C11.9401 65.1993 12.0286 65.1043 12.0882 64.9915C12.9376 60.8376 16.3002 56.6489 19.0694 53.263C19.9886 52.0995 20.8496 51.0407 21.5012 50.1215C24.0705 46.5317 25.5894 42.2973 25.8877 37.8928C25.4808 38.2624 25.0317 38.5826 24.5496 38.8469C24.4966 38.8638 24.4397 38.8638 24.3867 38.8469C24.3159 38.8458 24.2474 38.8217 24.1915 38.7782C24.1356 38.7347 24.0954 38.6742 24.077 38.6058C24.0586 38.5374 24.063 38.4649 24.0895 38.3992C24.116 38.3336 24.1631 38.2783 24.2238 38.2418C25.228 37.7344 26.0435 36.9189 26.5509 35.9148V35.8566C26.1105 35.9069 25.6678 35.9341 25.2245 35.938H24.7241C24.6818 35.9366 24.6403 35.9266 24.6019 35.9087C24.5636 35.8908 24.5293 35.8653 24.501 35.8338C24.4728 35.8023 24.4512 35.7654 24.4375 35.7253C24.4239 35.6852 24.4185 35.6428 24.4217 35.6006C24.4276 35.5152 24.4657 35.4353 24.5284 35.3769C24.591 35.3186 24.6735 35.2863 24.7591 35.2865C26.6761 35.2791 28.5815 34.989 30.4138 34.4254L31.112 34.2393C32.3895 33.8779 33.7235 33.7595 35.0447 33.8902L36.2082 34.0764L37.1856 34.2393C41.2812 34.8443 42.8404 33.9019 43.3174 33.4714C43.5352 33.3052 43.7109 33.0901 43.8301 32.8435C43.9494 32.5969 44.0089 32.3257 44.0039 32.0518C43.8294 31.4584 42.9218 31.3072 42.6426 31.2723C41.0123 31.0964 39.4076 30.7333 37.8604 30.1902C37.4532 30.0622 37.0111 29.9109 36.4875 29.7597C35.4995 29.4335 34.4761 29.2265 33.439 29.143C32.6098 29.1874 31.7872 29.316 30.984 29.527C30.5651 29.6317 30.1695 29.7131 29.8204 29.7713C27.982 30.0738 26.7022 30.2251 25.1663 30.3996L23.5606 30.5974C23.5184 30.604 23.4754 30.6018 23.434 30.5912C23.3927 30.5805 23.354 30.5615 23.3202 30.5354C23.2865 30.5093 23.2584 30.4765 23.2377 30.4392C23.217 30.4018 23.2042 30.3607 23.1999 30.3182C23.1934 30.276 23.1955 30.2329 23.2062 30.1916C23.2169 30.1503 23.2359 30.1115 23.262 30.0778C23.2881 30.044 23.3208 30.0159 23.3582 29.9953C23.3955 29.9746 23.4367 29.9617 23.4792 29.9575L25.0965 29.7597L26.1553 29.6201C26.4927 29.3175 26.9465 28.8638 27.4468 28.3518C28.5179 27.2098 29.6858 26.1626 30.9374 25.2219L31.8566 24.6169C33.0201 23.8373 34.1837 23.1392 35.7195 22.3596L36.6737 21.8477C38.4414 20.8266 40.3511 20.0737 42.34 19.6137C43.2118 19.4374 44.0621 19.1682 44.8765 18.8108C45.7034 18.4273 46.3877 17.792 46.8313 16.9957C46.972 16.726 47.0294 16.4205 46.9963 16.1181C46.9631 15.8156 46.8409 15.5298 46.6451 15.297C46.2495 14.9246 45.7376 15.0526 44.7253 15.297C44.2321 15.4512 43.7311 15.5794 43.2243 15.6809C42.0705 15.9123 40.9054 16.0832 39.7337 16.1929C38.8422 16.2471 37.9656 16.4476 37.1391 16.7863C36.7318 16.9376 36.057 17.275 35.3356 17.6357C34.3802 18.1446 33.393 18.5915 32.3802 18.9737C31.3376 19.2995 30.3157 19.6881 29.3201 20.1373C28.5309 20.5158 27.7791 20.9677 27.0745 21.487C24.5496 23.2672 22.0946 25.2335 19.6977 27.1417C19.6646 27.1689 19.6263 27.1891 19.5851 27.201C19.5439 27.2128 19.5007 27.2161 19.4582 27.2107C19.4157 27.2052 19.3748 27.1911 19.3379 27.1693C19.3011 27.1474 19.2691 27.1182 19.2439 27.0836C19.1842 27.0208 19.1509 26.9375 19.1509 26.8509C19.1509 26.7642 19.1842 26.6809 19.2439 26.6181C20.3027 25.7804 21.3732 24.9194 22.4669 24.0816C24.1061 22.5906 25.5948 20.9421 26.9116 19.1599C27.9893 17.7532 29.1552 16.4164 30.4022 15.1574C31.3183 14.3647 32.3124 13.6669 33.3692 13.0746C33.951 12.7139 34.5328 12.3416 35.1145 11.9111C35.8852 11.448 36.5477 10.8252 37.0575 10.0846C37.5672 9.34405 37.9124 8.50285 38.0699 7.61766C38.1256 7.2956 38.0858 6.96428 37.9556 6.66451C37.8254 6.36474 37.6103 6.10961 37.3369 5.93054C36.9064 5.74437 36.0221 6.37268 35.4985 6.75665L35.1494 7.00099C34.0991 7.71928 33.003 8.36836 31.8683 8.94409C31.1352 9.30478 30.4371 9.64221 29.6925 10.1076C27.2831 11.5078 25.082 13.2389 23.1534 15.2504C22.5664 15.8927 22.0222 16.5729 21.5244 17.2866C21.1172 17.8567 20.6635 18.4501 20.105 19.1948C18.6726 21.068 17.1178 22.8443 15.4508 24.5122C15.4205 24.5431 15.3843 24.5677 15.3443 24.5845C15.3044 24.6013 15.2614 24.6099 15.2181 24.6099C15.1748 24.6099 15.1318 24.6013 15.0919 24.5845C15.0519 24.5677 15.0157 24.5431 14.9854 24.5122C14.9548 24.4828 14.9304 24.4476 14.9138 24.4086C14.8971 24.3696 14.8885 24.3277 14.8885 24.2853C14.8885 24.2429 14.8971 24.2009 14.9138 24.1619C14.9304 24.1229 14.9548 24.0877 14.9854 24.0584C16.6525 22.4112 18.2073 20.6542 19.6395 18.7992C20.1864 18.1011 20.6402 17.4728 21.0474 16.9143L21.6175 16.1347C23.0521 13.5166 24.8458 11.1119 26.9465 8.99063L27.6446 8.39723C28.6001 7.70424 29.4105 6.83063 30.0299 5.82582C30.499 4.96062 30.6157 3.94765 30.3557 2.99843C30.1782 2.73055 29.9094 2.53622 29.5994 2.45157C29.0459 2.35118 28.475 2.46785 28.0053 2.77736C26.8418 3.48712 25.9575 4.01071 24.9918 4.5692L23.3047 5.55821C22.591 5.94852 21.9203 6.41259 21.3034 6.94281C20.7916 7.43679 20.328 7.97833 19.9188 8.56012C19.226 9.48882 18.5925 10.4604 18.0222 11.469C17.5248 12.3917 16.9812 13.2888 16.3933 14.1567C15.9279 14.8199 14.8458 16.0882 13.7986 17.3215L13.2634 17.9498C10.5575 21.4889 8.05577 25.1794 5.77022 29.0034C5.29498 29.9931 4.96951 31.0479 4.80449 32.1333C4.62072 33.2464 4.50028 34.3691 4.44378 35.4959C4.33906 37.0783 4.19944 38.9865 3.7573 41.8255C3.30641 45.0536 2.52667 48.2272 1.43023 51.2967C1.1107 52.1569 0.721571 52.9896 0.266701 53.7866C0.0571181 54.132 -0.0328452 54.5369 0.0107224 54.9385ZM15.6952 33.0874C15.7849 31.7193 16.3873 30.4354 17.3823 29.4921C17.4116 29.4615 17.4468 29.4371 17.4858 29.4204C17.5248 29.4038 17.5668 29.3952 17.6092 29.3952C17.6516 29.3952 17.6935 29.4038 17.7325 29.4204C17.7715 29.4371 17.8067 29.4615 17.8361 29.4921C17.8682 29.5205 17.894 29.5554 17.9117 29.5945C17.9293 29.6336 17.9385 29.676 17.9385 29.719C17.9385 29.7619 17.9293 29.8043 17.9117 29.8434C17.894 29.8825 17.8682 29.9175 17.8361 29.9458C16.9668 30.7801 16.4399 31.9086 16.3584 33.1107C16.3525 33.193 16.3156 33.27 16.2551 33.3261C16.1946 33.3823 16.1151 33.4134 16.0326 33.4132C15.9888 33.4147 15.9452 33.4075 15.9043 33.3918C15.8634 33.3761 15.8261 33.3524 15.7947 33.322C15.7632 33.2916 15.7381 33.2551 15.721 33.2148C15.7039 33.1745 15.6951 33.1312 15.6952 33.0874ZM13.0074 43.6872L13.9731 38.2186C13.9901 38.1353 14.0378 38.0614 14.1068 38.0118C14.1759 37.9622 14.2611 37.9405 14.3455 37.951C14.3885 37.9579 14.4298 37.9735 14.4668 37.9968C14.5037 38.02 14.5356 38.0504 14.5606 38.0863C14.5855 38.1221 14.6031 38.1625 14.6121 38.2053C14.6211 38.248 14.6214 38.2921 14.6131 38.3349L13.6473 43.8035C13.6335 43.8795 13.5932 43.9481 13.5336 43.9971C13.4739 44.0461 13.3987 44.0724 13.3215 44.0711H13.2517C13.1689 44.0517 13.097 44.0006 13.0514 43.9289C13.0057 43.8571 12.9899 43.7704 13.0074 43.6872ZM9.51678 31.2955C9.86464 29.5983 10.7648 28.064 12.0766 26.9323C12.1367 26.869 12.2196 26.8323 12.3069 26.8301C12.3941 26.8279 12.4787 26.8605 12.542 26.9207C12.6052 26.9808 12.642 27.0637 12.6442 27.151C12.6464 27.2382 12.6138 27.3228 12.5536 27.3861C11.3584 28.4325 10.5406 29.8431 10.2265 31.4003C10.2153 31.4784 10.176 31.5497 10.1161 31.6011C10.0562 31.6525 9.97966 31.6803 9.90075 31.6795C9.84479 31.6889 9.78736 31.6835 9.73413 31.6638C9.6809 31.6441 9.63372 31.6109 9.59728 31.5674C9.56084 31.5239 9.53639 31.4717 9.52635 31.4158C9.51632 31.36 9.52104 31.3025 9.54006 31.249L9.51678 31.2955ZM6.32871 46.2935C7.67759 42.7054 8.53854 38.9524 8.88848 35.1352C8.89143 35.0924 8.90281 35.0506 8.92197 35.0122C8.94113 34.9737 8.9677 34.9395 9.00014 34.9114C9.03257 34.8833 9.07023 34.8619 9.11098 34.8483C9.15172 34.8348 9.19474 34.8295 9.23755 34.8327C9.3229 34.8415 9.40169 34.8825 9.45789 34.9473C9.51409 35.0122 9.54347 35.096 9.54006 35.1817C9.1854 39.0583 8.31274 42.8698 6.94539 46.5146C6.92384 46.5781 6.88322 46.6334 6.82908 46.6729C6.77494 46.7125 6.70992 46.7344 6.64287 46.7356H6.52651C6.44497 46.6999 6.38087 46.6333 6.34817 46.5505C6.31548 46.4677 6.31686 46.3753 6.35199 46.2935H6.32871Z" fill="#990000"/>
</svg>
