<svg width="96" height="113" viewBox="0 0 96 113" fill="none" xmlns="http://www.w3.org/2000/svg">
<path d="M44.896 43.4271C44.3236 44.2099 43.6627 44.9239 42.9263 45.5549C42.4148 46.0084 41.844 46.3905 41.2298 46.6907C39.7701 47.9707 38.1023 48.9918 36.2984 49.7099H36.2266C36.1394 49.7242 36.0499 49.7094 35.972 49.6678C35.894 49.6263 35.8319 49.5602 35.7952 49.4799C35.7601 49.386 35.7613 49.2824 35.7985 49.1893C35.8357 49.0962 35.9063 49.0204 35.9965 48.9767C37.2463 48.4529 38.4368 47.7974 39.5477 47.0214C38.978 47 38.4275 46.8099 37.9662 46.475C35.8345 48.0616 33.3806 49.1609 30.7776 49.6955C30.7776 49.6955 30.7776 49.6955 30.7776 49.8105C30.7554 50.0503 30.7938 50.2918 30.8893 50.5129C30.9848 50.7339 31.1342 50.9275 31.3239 51.0757C32.0253 51.5233 32.8172 51.8097 33.6427 51.9141C34.4681 52.0185 35.3064 51.9384 36.0972 51.6796C37.2172 51.4295 38.3067 51.0583 39.3464 50.5725C39.9868 50.2522 40.5896 49.8616 41.1435 49.408C42.7881 47.6903 44.065 45.6552 44.896 43.4271Z" fill="#990000"/>
<path d="M17.0906 18.5979C16.7057 18.1022 16.4223 17.5354 16.2567 16.9301C12.8286 15.7136 9.46901 14.3122 6.19267 12.732C6.10164 12.6855 6.03167 12.6062 5.99696 12.5101C5.96225 12.414 5.9654 12.3083 6.00576 12.2144C6.02723 12.1698 6.05734 12.1299 6.09434 12.0971C6.13135 12.0642 6.17451 12.039 6.22132 12.023C6.26813 12.0069 6.31765 12.0003 6.36703 12.0036C6.41641 12.0068 6.46466 12.0198 6.50897 12.0419C9.63214 13.5522 12.8331 14.896 16.0985 16.0675C16.034 15.4982 16.1551 14.9234 16.4436 14.4285C16.4732 14.3779 16.5069 14.3299 16.5442 14.2847L15.3509 13.7959C11.6197 12.3739 7.99257 10.6924 4.49615 8.76388C4.08898 8.67767 3.66699 8.6915 3.26634 8.80419C2.86569 8.91687 2.49835 9.12504 2.19582 9.41085C1.93278 9.82844 1.79321 10.3119 1.79321 10.8054C1.79321 11.299 1.93278 11.7824 2.19582 12.2C3.36446 14.1252 5.02102 15.7073 6.99779 16.7863C10.6293 18.3579 14.4615 19.4175 18.3845 19.9349C17.8884 19.5569 17.4521 19.1061 17.0906 18.5979Z" fill="#990000"/>
<path d="M3.48959 7.19661C7.3724 9.50399 11.4524 11.4622 15.6814 13.0481L17.6655 13.8676C18.2701 13.9023 18.8639 14.0435 19.4195 14.2846L19.6639 14.3708L23.0713 15.5066C20.9425 14.453 18.9647 13.1184 17.191 11.5385C16.7595 11.1109 16.3871 10.6273 16.084 10.1008C12.3701 8.88846 8.84272 7.16589 5.60303 4.98253C5.56527 4.95043 5.5342 4.91121 5.5116 4.86711C5.48899 4.823 5.4753 4.77488 5.4713 4.72548C5.46729 4.67609 5.47305 4.62638 5.48825 4.57922C5.50346 4.53205 5.52781 4.48833 5.5599 4.45057C5.592 4.41281 5.63121 4.38174 5.67532 4.35914C5.71942 4.33653 5.76755 4.32284 5.81695 4.31883C5.86634 4.31483 5.91604 4.32059 5.96321 4.3358C6.01038 4.351 6.05409 4.37534 6.09185 4.40744C9.04276 6.39924 12.2428 7.9944 15.6096 9.15191C15.5001 8.91274 15.4181 8.66194 15.3651 8.40429C15.2551 7.97776 15.2446 7.53166 15.3343 7.10041C15.4241 6.66916 15.6117 6.26429 15.8827 5.91704C13.453 4.96815 11.282 3.94737 9.19733 2.95535C7.32829 2.06396 5.38737 1.14382 3.30268 0.295568C2.9246 0.101323 2.50568 0 2.08063 0C1.65557 0 1.23663 0.101323 0.85856 0.295568C0.407586 0.702666 0.113266 1.25472 0.0266116 1.85605C-0.0600428 2.45738 0.066428 3.07008 0.38411 3.58794C1.17721 4.9796 2.23169 6.20494 3.48959 7.19661Z" fill="#990000"/>
<path d="M88.9331 105.163C88.8993 105.416 88.8993 105.672 88.9331 105.925C88.9618 106.029 89.0145 106.124 89.0869 106.204C89.1593 106.284 89.2494 106.346 89.35 106.385C89.624 106.471 89.9126 106.5 90.1982 106.471C91.0773 106.444 91.9402 106.228 92.7286 105.838C93.1427 105.659 93.4968 105.364 93.7494 104.99C93.8626 104.86 93.9363 104.7 93.9618 104.529C93.9873 104.359 93.9635 104.184 93.8932 104.027C93.7367 103.663 93.5009 103.339 93.2031 103.078C93.0753 102.978 92.9286 102.904 92.7718 102.862C92.5811 102.834 92.3873 102.834 92.1967 102.862H91.866C91.0403 103.013 90.259 103.347 89.58 103.84C89.199 104.179 88.9666 104.654 88.9331 105.163Z" fill="white"/>
<path d="M52.6597 29.697L53.321 29.9558C55.4026 30.872 57.4242 31.9189 59.3738 33.09C61.9071 34.73 64.6821 35.9623 67.5976 36.7418C69.5878 37.3106 71.7146 37.163 73.6072 36.3249C73.7654 36.2386 73.9523 36.138 74.0098 35.9942C74.0673 35.8504 73.5929 35.1603 73.406 35.0166C72.5854 34.432 71.7201 33.9128 70.8181 33.4638C70.1998 33.1331 69.6104 32.8168 69.1359 32.5149C67.6982 31.6235 65.8148 30.5021 64.5352 29.8552C61.1839 28.3234 57.5955 27.3753 53.9249 27.0516C51.0494 26.6922 50.1437 27.3535 50.0718 27.5404C49.8993 28.5468 51.0494 29.0932 52.6597 29.697Z" fill="white"/>
<path d="M18.7583 6.21892C18.469 6.04818 18.1428 5.94987 17.8073 5.93234C17.4719 5.91482 17.1372 5.97861 16.8317 6.11828C16.4851 6.34325 16.2244 6.6783 16.0914 7.06949C15.9584 7.46069 15.9609 7.88526 16.0985 8.27486C16.4091 9.29045 16.9503 10.2204 17.68 10.9921C21.1428 13.9209 25.1992 16.0644 29.5699 17.275C29.6628 17.3019 29.7422 17.3625 29.7927 17.4449C29.8433 17.5274 29.8612 17.6257 29.8431 17.7207C29.8223 17.816 29.7663 17.9 29.6864 17.9559C29.6065 18.0119 29.5084 18.0357 29.4117 18.0226C25.9984 17.2829 22.6366 16.3224 19.3477 15.1471L19.0889 15.0609C18.5139 14.8452 17.3349 14.4139 17.0043 14.9171C16.8206 15.4734 16.7809 16.0672 16.889 16.643C16.9972 17.2188 17.2495 17.7577 17.6225 18.2095C18.3275 18.99 19.1899 19.6123 20.1528 20.0354H20.2247L21.0442 20.4379C23.5624 21.5703 26.2386 22.3121 28.9804 22.6377C29.0296 22.643 29.0773 22.6581 29.1207 22.682C29.164 22.7059 29.2022 22.7382 29.2329 22.777C29.2637 22.8158 29.2864 22.8603 29.2999 22.908C29.3133 22.9556 29.3171 23.0055 29.3111 23.0546C29.3076 23.1032 29.2942 23.1506 29.2718 23.1938C29.2494 23.2371 29.2184 23.2754 29.1808 23.3063C29.1431 23.3372 29.0996 23.3602 29.0528 23.3737C29.006 23.3873 28.9569 23.3912 28.9086 23.3853C26.4213 23.2271 23.9197 23.1696 21.4612 23.2271C20.4691 23.2271 19.2902 23.3853 18.8445 24.1904C18.6944 24.5821 18.6635 25.0095 18.7556 25.4188C18.8476 25.8281 19.0587 26.201 19.3621 26.4907C20.8297 27.8732 22.7662 28.6488 24.7823 28.6617C26.5094 28.8054 28.2454 28.8054 29.9725 28.6617C30.5763 28.5754 31.1658 28.5035 31.7696 28.446C31.8681 28.4377 31.9662 28.4672 32.0437 28.5287C32.1211 28.5901 32.1723 28.6789 32.1866 28.7767C32.1997 28.8255 32.2016 28.8767 32.1919 28.9263C32.1822 28.9759 32.1613 29.0226 32.1308 29.0628C32.1002 29.1031 32.0609 29.1358 32.0157 29.1585C31.9705 29.1812 31.9208 29.1932 31.8703 29.1937C31.2664 29.2991 30.6626 29.371 30.0587 29.4093C27.7245 29.7359 25.4143 30.2162 23.1433 30.847C22.7695 30.9477 21.5474 31.3358 21.605 32.0691C21.6392 32.2398 21.7094 32.4012 21.8111 32.5425C21.9128 32.6839 22.0434 32.8019 22.1944 32.8886C23.5731 33.7386 25.1775 34.1497 26.7951 34.0675C29.0459 34.1298 31.2977 33.9902 33.5236 33.6506C33.6224 33.6379 33.7222 33.6637 33.8025 33.7226C33.8827 33.7814 33.9373 33.8689 33.9549 33.9669C33.9721 34.062 33.9517 34.16 33.8981 34.2405C33.8445 34.3209 33.7618 34.3774 33.6674 34.3982L28.4772 35.6059C27.8261 35.7189 27.2019 35.953 26.637 36.296C26.5776 36.3361 26.5244 36.3845 26.4788 36.4397C26.3106 36.5939 26.1841 36.7881 26.1112 37.0043C26.0383 37.2205 26.0213 37.4517 26.0619 37.6762C26.2488 38.3519 27.1258 38.6107 27.9453 38.7832C31.5103 39.3901 35.1758 38.7825 38.3544 37.058C38.4444 37.0172 38.5467 37.0124 38.6402 37.0445C38.7337 37.0765 38.8114 37.1431 38.8576 37.2305C38.9031 37.3182 38.912 37.4204 38.8824 37.5147C38.8527 37.609 38.787 37.6878 38.6994 37.7337C37.8069 38.2049 36.8848 38.6179 35.939 38.9701C34.6297 39.3399 33.4109 39.9762 32.3591 40.8392C32.3037 40.916 32.2555 40.9978 32.2153 41.0836V41.1555C32.1616 41.3168 32.148 41.4888 32.1756 41.6566C32.2031 41.8244 32.271 41.983 32.3734 42.1187C32.5636 42.4652 32.8544 42.7459 33.2073 42.9239C33.6096 43.1201 34.0541 43.2139 34.5013 43.197C35.5077 43.1239 36.4874 42.8398 37.3767 42.3631C39.1174 41.5317 40.7574 40.5043 42.2649 39.3008C42.3037 39.2696 42.3481 39.2464 42.3958 39.2325C42.4435 39.2185 42.4934 39.214 42.5428 39.2194C42.5922 39.2247 42.6401 39.2397 42.6837 39.2636C42.7273 39.2874 42.7657 39.3196 42.7969 39.3583C42.828 39.397 42.8513 39.4415 42.8653 39.4892C42.8792 39.5368 42.8837 39.5868 42.8783 39.6362C42.873 39.6856 42.858 39.7335 42.8341 39.7771C42.8103 39.8206 42.7781 39.8591 42.7394 39.8903L39.1307 42.7657C38.7625 43.0457 38.4294 43.3692 38.1387 43.729V43.8152C37.961 44.0535 37.8561 44.3381 37.8368 44.6347C37.836 44.8154 37.8726 44.9942 37.9444 45.16C38.0162 45.3258 38.1215 45.4749 38.2537 45.598C38.6365 45.9763 39.1532 46.1882 39.6914 46.1875C40.0832 46.175 40.4688 46.0872 40.8272 45.9287C41.4046 45.6652 41.9418 45.3216 42.4231 44.9079C43.9867 43.5452 45.2039 41.8303 45.9743 39.9046C46.2331 38.9701 46.4775 38.0787 46.7219 37.1586C47.0669 35.8503 47.3832 34.5563 47.6852 33.248C47.5916 32.8399 47.41 32.4572 47.1532 32.1266C46.9451 31.8748 46.6867 31.6692 46.3946 31.5232C46.1024 31.3771 45.783 31.2937 45.4567 31.2783C45.1072 31.2563 44.7567 31.2563 44.4072 31.2783C43.7779 31.3404 43.1426 31.2769 42.5381 31.0914C42.1061 30.8522 41.7453 30.5025 41.4927 30.0781C41.2401 29.6537 41.1048 29.1699 41.1004 28.6761C41.0586 27.9403 41.102 27.2022 41.2298 26.4764C41.2298 26.1457 41.3161 25.815 41.3448 25.47C41.6467 22.192 41.5317 18.7702 38.8 16.0673C37.5606 14.869 36.0941 13.9305 34.4869 13.3069C28.9668 11.6151 23.6822 9.23369 18.7583 6.21892ZM44.249 40.4222C44.2842 40.457 44.3122 40.4984 44.3313 40.5441C44.3503 40.5897 44.3601 40.6387 44.3601 40.6882C44.3601 40.7377 44.3503 40.7867 44.3313 40.8323C44.3122 40.878 44.2842 40.9194 44.249 40.9542C43.1188 42.4539 41.7431 43.7517 40.1803 44.7929H40.0509C39.9762 44.8091 39.8984 44.8011 39.8286 44.7701C39.7588 44.7391 39.7007 44.6866 39.6627 44.6204C39.6076 44.5383 39.5873 44.4378 39.6062 44.3408C39.6251 44.2438 39.6815 44.1582 39.7633 44.1028C41.2573 43.1116 42.5703 41.8715 43.6452 40.4366C43.6787 40.3882 43.7232 40.3485 43.775 40.3205C43.8269 40.2926 43.8846 40.2773 43.9434 40.2759C44.0023 40.2745 44.0606 40.287 44.1137 40.3125C44.1668 40.3379 44.2132 40.3755 44.249 40.4222ZM19.2327 9.42503C19.1912 9.39766 19.1554 9.36237 19.1275 9.32118C19.0996 9.27999 19.0801 9.23371 19.0701 9.18498C19.0601 9.13625 19.0598 9.08603 19.0692 9.03718C19.0786 8.98832 19.0975 8.9418 19.1249 8.90026C19.1523 8.85873 19.1875 8.82299 19.2287 8.79509C19.2699 8.76719 19.3162 8.74768 19.3649 8.73767C19.4137 8.72765 19.4639 8.72734 19.5127 8.73673C19.5616 8.74613 19.6081 8.76506 19.6497 8.79244C22.7408 10.8196 28.6354 14.3708 33.4949 15.219C33.5442 15.226 33.5917 15.2428 33.6344 15.2684C33.6772 15.294 33.7144 15.3279 33.7439 15.3681C33.7733 15.4083 33.7944 15.4539 33.806 15.5024C33.8176 15.5509 33.8193 15.6012 33.8112 15.6503C33.7967 15.7266 33.7605 15.7969 33.7069 15.8531C33.6533 15.9092 33.5847 15.9486 33.5093 15.9666H33.3655C28.3622 15.0896 22.3669 11.4953 19.2327 9.42503ZM19.8653 17.5338C19.8109 17.5183 19.7606 17.4911 19.7178 17.4542C19.6751 17.4172 19.6409 17.3714 19.6177 17.3199C19.5945 17.2683 19.5828 17.2124 19.5834 17.1558C19.5841 17.0993 19.5971 17.0436 19.6215 16.9927C19.6459 16.9417 19.6812 16.8967 19.7248 16.8607C19.7685 16.8248 19.8194 16.7988 19.8741 16.7847C19.9288 16.7705 19.986 16.7684 20.0416 16.7786C20.0972 16.7888 20.1499 16.811 20.196 16.8437C24.304 18.774 28.758 19.8594 33.2936 20.0354C33.3915 20.0427 33.483 20.0867 33.5497 20.1588C33.6164 20.2308 33.6533 20.3254 33.653 20.4236C33.6446 20.5069 33.6113 20.5857 33.5575 20.6498C33.5036 20.7139 33.4317 20.7603 33.3511 20.783H33.2505C28.6157 20.6105 24.0633 19.5054 19.8653 17.5338ZM20.9436 25.6281C20.8511 25.5957 20.7744 25.5295 20.7286 25.4429C20.6829 25.3562 20.6717 25.2555 20.6972 25.1609C20.7226 25.0663 20.7829 24.9848 20.866 24.9328C20.949 24.8808 21.0486 24.8621 21.1449 24.8805C25.5941 25.9901 30.225 26.1663 34.7457 25.3981C34.8045 25.3788 34.8671 25.3744 34.928 25.3853C34.9889 25.3962 35.0462 25.4221 35.0946 25.4605C35.1431 25.499 35.1812 25.5489 35.2056 25.6058C35.2301 25.6626 35.24 25.7246 35.2345 25.7863C35.2476 25.8829 35.2238 25.981 35.1678 26.0609C35.1119 26.1408 35.0279 26.1968 34.9326 26.2176C30.2786 26.9845 25.5165 26.7838 20.9436 25.6281ZM26.6945 32.4429C26.6382 32.4539 26.5803 32.4523 26.5248 32.4382C26.4692 32.4241 26.4175 32.3979 26.3733 32.3615C26.3291 32.3251 26.2935 32.2794 26.269 32.2276C26.2446 32.1757 26.2319 32.1192 26.2319 32.0619C26.2319 32.0046 26.2446 31.948 26.269 31.8962C26.2935 31.8444 26.3291 31.7987 26.3733 31.7623C26.4175 31.7259 26.4692 31.6997 26.5248 31.6856C26.5803 31.6715 26.6382 31.6699 26.6945 31.6809C29.8859 31.7132 33.0687 31.3461 36.169 30.5882C36.2663 30.5654 36.3686 30.582 36.4535 30.6346C36.5385 30.6872 36.599 30.7714 36.6219 30.8686C36.6448 30.9658 36.6281 31.0682 36.5755 31.1531C36.5229 31.238 36.4388 31.2986 36.3416 31.3215L35.2776 31.5659C32.4724 32.1745 29.608 32.4686 26.7376 32.4429H26.6945ZM41.9055 37.288C41.9407 37.3228 41.9687 37.3642 41.9878 37.4098C42.0068 37.4555 42.0167 37.5045 42.0167 37.554C42.0167 37.6035 42.0068 37.6525 41.9878 37.6981C41.9687 37.7438 41.9407 37.7852 41.9055 37.82C39.7783 39.6009 37.3415 40.9752 34.7169 41.8743C34.6276 41.8933 34.5344 41.8789 34.4549 41.8339C34.3755 41.7889 34.3152 41.7163 34.2856 41.6299C34.2675 41.5828 34.259 41.5325 34.2609 41.482C34.2627 41.4316 34.2747 41.382 34.2962 41.3363C34.3177 41.2907 34.3482 41.2498 34.3859 41.2163C34.4236 41.1827 34.4678 41.1571 34.5157 41.1411C37.035 40.2716 39.3703 38.9406 41.4023 37.2161C41.4798 37.1624 41.5747 37.14 41.668 37.1534C41.7613 37.1667 41.8462 37.2148 41.9055 37.288ZM39.0301 35.1602C36.9466 36.0808 34.7737 36.7842 32.546 37.2592C31.7121 37.4318 30.8638 37.5755 30.0012 37.6906C29.9025 37.7032 29.8027 37.6774 29.7224 37.6185C29.6421 37.5597 29.5875 37.4722 29.5699 37.3743C29.5618 37.324 29.5641 37.2727 29.5765 37.2233C29.589 37.174 29.6113 37.1277 29.6423 37.0873C29.6733 37.047 29.7121 37.0133 29.7565 36.9885C29.801 36.9637 29.85 36.9482 29.9006 36.9429C32.9496 36.5292 35.9229 35.6769 38.7282 34.4126C38.8217 34.3739 38.9267 34.3733 39.0207 34.4109C39.1147 34.4485 39.1903 34.5213 39.2314 34.6138C39.2651 34.7036 39.263 34.803 39.2255 34.8913C39.1881 34.9796 39.1181 35.0501 39.0301 35.0883V35.1602Z" fill="#990000"/>
<path d="M10.9943 25.3261C13.4495 25.8985 15.9363 26.3258 18.4417 26.6056C18.16 26.217 17.9873 25.7601 17.9418 25.2823C17.8963 24.8044 17.9796 24.3231 18.1829 23.8883C14.7495 23.3964 11.3767 22.5484 8.11891 21.358C8.07144 21.3433 8.02736 21.3193 7.98928 21.2873C7.95119 21.2554 7.91985 21.2162 7.8971 21.172C7.87434 21.1279 7.86063 21.0796 7.85675 21.0301C7.85287 20.9805 7.8589 20.9307 7.8745 20.8835C7.91028 20.7887 7.98048 20.7109 8.07108 20.6656C8.16169 20.6203 8.26603 20.6109 8.36332 20.6391C11.7365 21.8911 15.2443 22.7452 18.8155 23.1839C19.5952 22.7605 20.4735 22.5521 21.3603 22.58C22.3092 22.58 23.2725 22.58 24.2357 22.58C23.024 22.2184 21.8376 21.7766 20.6846 21.2573C20.4114 21.1423 20.1382 20.9985 19.8507 20.8548C15.3932 20.47 11.0254 19.378 6.91123 17.6199C6.38926 17.5911 5.8661 17.5911 5.34412 17.6199C4.95312 17.6259 4.56862 17.721 4.21985 17.8979C3.87109 18.0747 3.5672 18.3288 3.33131 18.6407C3.15058 18.9702 3.06436 19.3433 3.08211 19.7187C3.09987 20.0942 3.22093 20.4575 3.43196 20.7685C3.80479 21.3435 4.29469 21.8334 4.86967 22.2062C6.77744 23.4902 8.83404 24.5378 10.9943 25.3261Z" fill="#990000"/>
<path d="M27.442 49.4223C31.0613 49.2417 34.5533 48.0294 37.506 45.9286C37.2347 45.569 37.0928 45.1282 37.1035 44.6778C37.0965 44.6446 37.0965 44.6103 37.1035 44.5772C34.881 45.8045 32.4869 46.6914 30.0011 47.2082C29.4053 47.352 28.7999 47.4529 28.1896 47.5101C28.0889 47.5182 27.989 47.4866 27.9111 47.4222C27.8332 47.3578 27.7836 47.2655 27.7727 47.165C27.7667 47.1155 27.771 47.0653 27.7855 47.0176C27.7999 46.9699 27.8241 46.9257 27.8566 46.8878C27.889 46.85 27.929 46.8193 27.974 46.7977C28.0189 46.7761 28.0679 46.7641 28.1177 46.7625C31.4825 46.3142 34.7127 45.1525 37.5923 43.3551L37.8942 42.9957H37.7648C36.77 43.5305 35.6715 43.8443 34.5443 43.9158C34.0514 43.9243 33.562 43.8313 33.1066 43.6426C31.6874 44.2516 30.2079 44.7094 28.6928 45.0085C26.7414 45.4336 24.752 45.66 22.7551 45.6842C22.4888 45.9759 22.3358 46.3533 22.3237 46.7481C22.3553 47.0742 22.4628 47.3884 22.6375 47.6655C22.8123 47.9426 23.0495 48.175 23.3301 48.344C24.5753 49.0952 26.0191 49.4512 27.4708 49.3648L27.442 49.4223Z" fill="#990000"/>
<path d="M21.605 33.3198C21.3968 33.1737 21.2215 32.9856 21.0903 32.7677C20.9591 32.5499 20.8749 32.307 20.843 32.0547C20.8294 31.8179 20.8718 31.5813 20.9667 31.364C21.0616 31.1467 21.2064 30.9548 21.3893 30.8038C18.0859 30.6345 14.8163 30.0549 11.656 29.0786C11.5596 29.0486 11.4787 28.9824 11.4304 28.8938C11.3821 28.8052 11.3702 28.7013 11.3972 28.6041C11.4118 28.5567 11.4358 28.5126 11.4678 28.4745C11.4997 28.4364 11.5389 28.4051 11.5831 28.3823C11.6273 28.3596 11.6755 28.3459 11.7251 28.342C11.7746 28.3381 11.8244 28.3441 11.8716 28.3597C15.4649 29.5063 19.2133 30.093 22.9852 30.0994C23.7759 29.8837 24.5666 29.6824 25.3718 29.5099H24.7104C22.6905 29.4779 20.7366 28.7862 19.1464 27.5402C15.9103 27.1983 12.7046 26.6119 9.55688 25.7862H9.3556C8.46397 25.6756 7.56488 25.6371 6.66707 25.6712C6.19314 25.6709 5.73453 25.8391 5.37311 26.1456C5.1372 26.4108 4.9964 26.747 4.97297 27.1011C4.94953 27.4552 5.04481 27.807 5.24372 28.1009C5.76735 28.7995 6.39816 29.4109 7.11276 29.9125C9.44192 31.4063 12.0399 32.4318 14.7614 32.9317C17.0249 33.28 19.3166 33.41 21.605 33.3198Z" fill="#990000"/>
<path d="M95.0579 105.22C94.961 104.887 94.831 104.564 94.6697 104.257C94.6897 104.662 94.5732 105.062 94.339 105.393C94.0084 105.88 93.5511 106.268 93.0163 106.514C92.1204 106.957 91.1398 107.202 90.1409 107.233C89.7469 107.268 89.3499 107.219 88.9763 107.089C88.7509 106.998 88.5522 106.852 88.3989 106.663C88.2455 106.474 88.1424 106.25 88.0993 106.011C88.0567 105.686 88.0567 105.358 88.0993 105.033C88.2085 104.409 88.5281 103.84 89.0051 103.423C89.8917 102.766 90.9306 102.346 92.0243 102.201C92.2998 102.149 92.5826 102.149 92.8582 102.201C91.7993 101.371 90.6574 100.653 89.4508 100.059L84.5338 97.4708C83.0593 96.7503 81.6784 95.8523 80.4219 94.7966C77.5465 92.2231 76.5257 88.2837 75.5193 84.4738L75.1742 83.1798C73.9783 78.7662 72.3755 74.473 70.3866 70.3554L69.9984 69.5503C69.2136 68.0923 68.5732 66.561 68.0863 64.9783C67.52 62.6991 67.3883 60.3335 67.6981 58.0054C68.3595 51.8088 70.6742 45.7992 72.9314 39.9908C73.334 38.9556 73.7365 37.9205 74.1247 36.871L73.9666 36.9716C73.405 37.2652 72.8048 37.4781 72.1838 37.6042C70.6103 37.8967 68.9922 37.8477 67.4393 37.4604C64.4426 36.6661 61.5897 35.4046 58.9855 33.7224C57.0678 32.5602 55.0745 31.5275 53.019 30.6313L52.3864 30.3725C51.2578 30.0858 50.2504 29.4461 49.511 28.5466V28.6328C48.9215 31.7814 48.3177 34.4556 47.5701 37.2591C47.0237 39.2863 46.5205 41.2129 45.6723 43.6426C44.6644 46.2489 43.0934 48.6004 41.0716 50.5293C40.1255 51.6939 39.5187 53.0967 39.3176 54.5836C39.3408 54.6438 39.3408 54.7104 39.3176 54.7705C39.5393 56.3089 40.2739 57.7273 41.4022 58.7961C42.4578 59.8947 43.2236 61.2386 43.6307 62.7067C43.6475 62.8039 43.6251 62.9038 43.5686 62.9846C43.512 63.0654 43.4258 63.1205 43.3288 63.1381C43.2301 63.1507 43.1302 63.1249 43.05 63.066C42.9697 63.0072 42.9151 62.9197 42.8975 62.8218C42.5016 61.482 41.7862 60.2584 40.8128 59.2562C40.4102 58.7386 39.9933 58.2211 39.6195 57.6891C38.951 59.322 38.0022 60.8255 36.8159 62.1316C36.4278 62.6061 36.0396 63.0805 35.6801 63.5694C33.8941 65.8716 32.7306 68.5948 32.3015 71.4768C31.8916 74.4053 32.6565 77.377 34.4293 79.7437C35.4207 80.904 36.5561 81.9331 37.8079 82.806C38.8344 83.5742 39.7961 84.4253 40.6834 85.3508C42.3154 87.4448 43.5439 89.8239 44.3064 92.3669C44.6946 93.4164 45.0828 94.4947 45.5429 95.5298C48.2036 101.337 52.8766 105.984 58.698 108.613C61.1646 109.868 63.882 110.551 66.6486 110.611C66.2279 109.758 65.9002 108.861 65.6709 107.937C65.3838 108.168 65.0422 108.322 64.6789 108.383C64.0292 108.521 63.3532 108.461 62.738 108.211C61.6702 107.699 60.7683 106.897 60.1357 105.896L59.7475 105.306C59.517 104.926 59.2625 104.561 58.9855 104.214C57.977 103.174 56.749 102.374 55.3913 101.87C55.3442 101.851 55.3014 101.823 55.2655 101.787C55.2296 101.752 55.2014 101.709 55.1826 101.662C55.1638 101.615 55.1547 101.564 55.156 101.514C55.1573 101.463 55.1688 101.413 55.19 101.367C55.2337 101.277 55.3096 101.206 55.4026 101.169C55.4957 101.132 55.5993 101.131 55.6932 101.166C57.1595 101.715 58.4819 102.59 59.5606 103.725C59.8609 104.093 60.1348 104.482 60.3801 104.889L60.7683 105.464C61.3191 106.345 62.1062 107.052 63.0399 107.506C63.4317 107.704 63.8769 107.77 64.3094 107.695C64.7419 107.62 65.1387 107.407 65.4409 107.089C65.3115 106.586 65.1965 106.068 65.0815 105.565C64.8774 104.329 64.51 103.125 63.9888 101.985C63.3075 100.827 62.4652 99.772 61.4872 98.851C61.4403 98.8182 61.4013 98.7756 61.3728 98.726C61.3443 98.6764 61.3272 98.6212 61.3225 98.5642C61.3179 98.5072 61.3259 98.4499 61.346 98.3964C61.366 98.3429 61.3977 98.2945 61.4386 98.2546C61.4796 98.2147 61.5288 98.1844 61.5829 98.1657C61.6369 98.1471 61.6944 98.1406 61.7512 98.1468C61.8081 98.1529 61.8628 98.1716 61.9116 98.2013C61.9604 98.2311 62.002 98.2713 62.0335 98.319C63.0608 99.2928 63.9464 100.406 64.6645 101.626C65.221 102.819 65.6174 104.081 65.8434 105.378C65.9728 105.939 66.0879 106.485 66.246 107.017L66.3467 107.391C66.5921 108.847 67.2282 110.208 68.1869 111.33C68.3999 111.492 68.6316 111.627 68.877 111.733C69.3116 111.914 69.7797 112.002 70.2506 111.99C70.7214 111.977 71.1843 111.865 71.6087 111.661C71.8912 111.511 72.1368 111.3 72.3276 111.043C71.7271 109.549 71.4243 107.952 71.4362 106.341C71.4198 105.677 71.3574 105.014 71.2493 104.357C70.9322 102.869 70.1278 101.528 68.9633 100.547C68.9211 100.516 68.8859 100.475 68.8598 100.429C68.8338 100.383 68.8174 100.332 68.8117 100.28C68.806 100.227 68.8111 100.174 68.8267 100.124C68.8423 100.073 68.868 100.026 68.9024 99.9859C68.9367 99.9457 68.9789 99.9129 69.0264 99.8896C69.0738 99.8663 69.1256 99.8529 69.1784 99.8503C69.2312 99.8477 69.284 99.8559 69.3336 99.8744C69.3831 99.8929 69.4283 99.9214 69.4665 99.958C70.7503 101.083 71.6292 102.598 71.9681 104.271C72.0798 104.966 72.1471 105.667 72.1694 106.37C72.2988 108.512 72.4426 111.187 74.4266 112.38C74.6083 112.469 74.7956 112.546 74.9873 112.61C75.8148 112.933 76.7164 113.018 77.5896 112.854C78.3359 112.686 78.9924 112.245 79.4299 111.618C78.8033 110.734 78.435 109.694 78.366 108.613V108.469C78.2474 105.817 77.2339 103.283 75.4905 101.281C75.4553 101.246 75.4274 101.205 75.4083 101.159C75.3892 101.113 75.3794 101.064 75.3794 101.015C75.3794 100.965 75.3892 100.916 75.4083 100.871C75.4274 100.825 75.4553 100.784 75.4905 100.749C75.5625 100.681 75.6577 100.643 75.7565 100.643C75.8554 100.643 75.9505 100.681 76.0225 100.749C77.8698 102.873 78.9485 105.557 79.0848 108.369V108.512C79.1855 109.418 79.4011 111.273 80.9251 111.776H81.2702C82.0495 111.92 82.8487 111.92 83.628 111.776C83.8631 111.721 84.0938 111.649 84.3181 111.56C85.0326 111.291 85.6321 110.783 86.0146 110.123C84.3756 109.03 83.5705 106.888 82.7798 104.803C81.989 102.718 81.342 101.008 80.0481 100.174C79.9763 100.113 79.9291 100.028 79.9153 99.9347C79.9015 99.8416 79.922 99.7466 79.973 99.6674C80.024 99.5883 80.102 99.5304 80.1925 99.5045C80.2831 99.4786 80.3799 99.4865 80.465 99.5267C81.9028 100.504 82.7366 102.546 83.4842 104.53C84.3469 106.802 85.2383 109.159 87.1792 109.864C88.1222 110.107 89.1116 110.107 90.0546 109.864C91.404 109.561 92.6764 108.984 93.7927 108.167C94.3844 107.805 94.8356 107.253 95.0722 106.6C95.1954 106.148 95.1905 105.67 95.0579 105.22Z" fill="white"/>
<path d="M19.0745 44.6206C23.0858 45.6126 29.383 44.3618 32.2297 43.1829C32.0001 42.9798 31.81 42.7361 31.669 42.464C31.479 42.1559 31.3702 41.8047 31.3527 41.4432C30.5475 41.6445 29.7712 41.817 29.0379 41.9752C26.5868 42.5797 24.072 42.8886 21.5474 42.8953C21.459 42.8781 21.3794 42.8306 21.3222 42.7611C21.2649 42.6916 21.2336 42.6044 21.2336 42.5143C21.2336 42.4243 21.2649 42.337 21.3222 42.2675C21.3794 42.198 21.459 42.1506 21.5474 42.1333C24.9302 42.0617 28.2892 41.5494 31.5395 40.6093L31.7265 40.3506C31.9603 40.0601 32.2424 39.8121 32.5603 39.6173C30.9449 39.8503 29.3016 39.8066 27.7008 39.4879L26.9532 39.301L26.2775 39.4592C23.94 39.9294 21.5593 40.1511 19.1752 40.1205C17.5362 40.5806 16.4004 41.1557 16.1704 41.9752C16.1324 42.2817 16.1858 42.5926 16.3239 42.8689C16.462 43.1451 16.6787 43.3744 16.9467 43.5279C17.4538 43.9004 18.0102 44.2004 18.6001 44.4193L19.0745 44.6206Z" fill="#990000"/>
<path d="M15.696 39.1571C19.0969 39.5609 22.5397 39.4397 25.9038 38.7976C25.5949 38.5622 25.3685 38.2351 25.2568 37.8631C25.164 37.4861 25.1891 37.0897 25.3287 36.7273C22.1036 37.3639 18.788 37.3932 15.5522 36.8136C15.4537 36.7896 15.3685 36.7281 15.3147 36.6421C15.261 36.5561 15.243 36.4526 15.2647 36.3535C15.2917 36.2577 15.3545 36.1759 15.4401 36.125C15.5258 36.0742 15.6277 36.0582 15.7247 36.0804C19.1228 36.6555 22.6008 36.5578 25.9613 35.7928L26.1913 35.6059C26.8329 35.1949 27.5524 34.9208 28.3048 34.8008H28.4342H26.7664C25.3984 34.8271 24.0391 34.5777 22.7696 34.0675C20.1783 34.2431 17.5757 34.1418 15.0059 33.7656H13.942C13.3957 33.7656 10.664 33.7656 9.74385 34.8152C9.62701 34.9444 9.53954 35.0975 9.48742 35.2637C9.4353 35.43 9.41977 35.6056 9.44192 35.7784C9.68633 37.8631 13.8413 38.7976 15.6241 39.1858L15.696 39.1571Z" fill="#990000"/>
</svg>
