<svg width="77" height="89" viewBox="0 0 77 89" fill="none" xmlns="http://www.w3.org/2000/svg">
<path d="M44.9988 21.8416C45.3261 21.6779 45.5779 21.5772 45.792 21.4891C46.2286 21.3476 46.6082 21.0695 46.8748 20.6959C47.2564 20.3512 47.6793 20.0551 48.1338 19.8145L48.713 19.4242C49.1869 19.0981 49.7385 18.9027 50.312 18.8576C50.7554 18.8317 51.1866 18.7024 51.5711 18.4799C51.9703 18.1647 52.3488 17.824 52.7042 17.4601L52.956 17.2083L53.1323 17.0698L43.3494 19.462H43.0976C43.0057 19.4751 42.9125 19.4751 42.8206 19.462L37.6584 18.0896L37.9228 18.2659C38.542 18.6665 39.1273 19.117 39.6729 19.6131L40.655 20.5825C41.3311 21.2942 42.1394 21.8672 43.0347 22.2697C43.3902 22.1537 43.7576 22.0777 44.13 22.043C44.4282 22.0206 44.7212 21.9526 44.9988 21.8416Z" fill="white"/>
<path d="M64.7032 48.6216C64.6738 48.2608 64.5716 47.9097 64.4028 47.5894C64.234 47.2692 64.0022 46.9864 63.7212 46.7582C59.8433 49.8303 49.8715 51.9833 37.8601 51.9833C25.8487 51.9833 15.751 49.8429 11.9738 46.7582C11.4316 47.2245 11.0928 47.884 11.0295 48.5964C11.0295 52.5624 23.3431 55.9115 37.8979 55.9115C52.4526 55.9115 64.7032 52.575 64.7032 48.6216Z" fill="white"/>
<path d="M55.5118 16.4655C54.7011 16.6836 53.9653 17.1189 53.384 17.7246L53.1322 17.9638C52.7343 18.3493 52.3138 18.7109 51.8731 19.0466C51.4061 19.341 50.8747 19.5181 50.3245 19.5628C49.8761 19.591 49.4425 19.7341 49.0654 19.9783C48.9395 20.079 48.6877 20.2301 48.4233 20.4064C48.0542 20.6295 47.7008 20.8777 47.3657 21.1492C47.0279 21.6151 46.5522 21.9631 46.0059 22.1439C45.7569 22.24 45.5131 22.3493 45.2757 22.4712C44.9272 22.635 44.5517 22.7331 44.1677 22.7608C43.8816 22.793 43.5991 22.852 43.3241 22.9371V24.6116L76.0596 16.6544C76.0596 16.6544 76.0596 16.6544 76.1478 16.6544V11.4041L55.5118 16.4655Z" fill="white"/>
<path d="M42.9339 18.7569H43.0976L75.7576 10.7744L63.872 7.22389C62.2118 6.91532 60.524 6.7803 58.8358 6.82099H58.5588C58.2965 6.82362 58.0374 6.76316 57.8034 6.64472C57.3963 6.47706 56.9749 6.34643 56.5443 6.25441C56.0586 6.1518 55.5569 6.1518 55.0712 6.25441C54.6117 6.33355 54.1391 6.27665 53.7114 6.09074C53.0024 5.74482 52.3756 5.25112 51.8732 4.64282C51.3167 3.92921 50.5831 3.37362 49.7454 3.03122C46.9251 2.1247 38.2628 0.0346625 38.1746 0.00948134C38.1423 -0.00316044 38.1063 -0.00316044 38.0739 0.00948134L0.553955 7.50088L42.9339 18.7569Z" fill="white"/>
<path d="M43.0221 25.4173C42.9175 25.4296 42.8119 25.4296 42.7073 25.4173L25.3449 20.8092C24.3503 20.5448 24.0859 20.3559 23.7963 20.0411L23.6578 19.8775C23.5186 19.7069 23.3625 19.5508 23.1919 19.4116C23.0071 19.271 22.8037 19.1566 22.5876 19.0717L22.3861 18.9835C21.9782 18.7527 21.6121 18.4548 21.3033 18.1022C20.9759 17.6919 20.5396 17.3821 20.0443 17.2083C19.931 17.2083 19.868 17.2083 19.6665 17.4223C19.5662 17.559 19.4325 17.6678 19.2783 17.7383C19.124 17.8089 18.9543 17.8388 18.7852 17.8252C18.5754 17.8032 18.3732 17.7343 18.1935 17.6238C18.1935 17.6238 18.1179 17.6238 17.7654 17.6238C17.6017 17.6238 17.5262 17.6993 17.4128 17.8378C17.3297 17.9408 17.2269 18.0263 17.1106 18.0896C16.0875 18.3416 15.0104 18.2577 14.0386 17.8504L9.53113 16.6669C9.64444 23.3651 22.298 28.779 37.8474 28.779C50.312 28.779 61.1274 25.304 64.766 20.2426L43.2739 25.4551C43.1888 25.4519 43.1044 25.4392 43.0221 25.4173ZM29.9782 25.7321C22.4994 24.8759 16.4308 22.7733 13.7364 20.0915C13.7011 20.0579 13.6729 20.0176 13.6535 19.973C13.634 19.9283 13.6237 19.8803 13.6231 19.8316C13.6225 19.7829 13.6316 19.7345 13.65 19.6894C13.6684 19.6443 13.6956 19.6034 13.73 19.5689C13.7644 19.5345 13.8054 19.5073 13.8505 19.4889C13.8956 19.4706 13.944 19.4614 13.9927 19.462C14.0414 19.4626 14.0894 19.4729 14.1341 19.4924C14.1787 19.5118 14.219 19.54 14.2526 19.5753C16.7707 22.0934 22.7386 24.1835 30.0538 25.0144C30.1495 25.027 30.2368 25.0758 30.2976 25.1507C30.3585 25.2257 30.3884 25.3211 30.3811 25.4173C30.3686 25.5121 30.3193 25.5981 30.244 25.657C30.1686 25.7159 30.0732 25.7428 29.9782 25.7321Z" fill="white"/>
<path d="M62.3989 40.8911V42.0494C62.3989 45.8266 49.9217 48.1558 37.8599 48.1558C25.7981 48.1558 13.3334 45.8769 13.3334 42.0368V40.954C12.7105 41.2125 12.1664 41.63 11.7555 42.1646C11.3445 42.6993 11.0811 43.3325 10.9916 44.0009C11.0261 44.3935 11.1426 44.7745 11.3334 45.1193C11.5243 45.4641 11.7853 45.7651 12.0996 46.0028C12.0996 46.0028 12.0996 46.0028 12.1751 46.0028C12.2506 46.0028 12.1751 46.0028 12.1751 46.0784C15.6123 49.0246 26.0248 51.2279 37.8347 51.2279C48.4486 51.2279 59.7172 49.226 63.444 46.0784C63.444 46.0784 63.444 46.0784 63.444 46.0028C63.444 45.9273 63.5195 46.0028 63.5573 46.0028C63.8753 45.7571 64.1406 45.4498 64.3374 45.0994C64.5343 44.749 64.6586 44.3626 64.703 43.9632C64.6408 43.288 64.3925 42.6434 63.9857 42.1011C63.5789 41.5587 63.0296 41.1398 62.3989 40.8911Z" fill="white"/>
<path d="M37.885 29.4338C26.0498 29.4338 15.8515 26.261 11.3314 21.7283C11.0932 22.188 10.964 22.6964 10.9537 23.214C10.9537 28.2503 23.2925 32.594 37.885 32.594C52.4775 32.594 64.854 28.3006 64.854 23.214C64.841 22.6776 64.7031 22.1517 64.4511 21.678C60.0318 26.3239 49.6572 29.4338 37.885 29.4338Z" fill="white"/>
<path d="M14.2653 17.0823C15.5873 17.4348 16.3553 17.5733 16.8463 17.3467L16.9093 17.2837C17.0116 17.1486 17.1426 17.0379 17.2928 16.9595C17.443 16.8811 17.6087 16.8371 17.778 16.8304C18.0682 16.7737 18.3692 16.8276 18.6216 16.9815C18.7184 17.0347 18.8261 17.0649 18.9364 17.0697C18.9993 17.0697 19.0371 17.0697 19.1882 16.8808C19.3056 16.7169 19.4679 16.5905 19.6556 16.5168C19.8432 16.443 20.0482 16.4252 20.2458 16.4653C20.8625 16.6697 21.4084 17.0452 21.8196 17.5481C22.069 17.8392 22.3621 18.0898 22.6884 18.291L22.8898 18.3791C23.1516 18.4905 23.4007 18.6298 23.6327 18.7946C23.8445 18.9726 24.0384 19.1708 24.2118 19.3863L24.3378 19.5374C24.4637 19.6885 24.577 19.8144 25.5338 20.0788L42.6444 24.6114V22.8865C41.6954 22.4513 40.8401 21.8355 40.1263 21.0735C40.0256 20.9476 39.3331 20.2677 39.1946 20.1418C38.6426 19.6745 38.053 19.2534 37.432 18.8827C36.8038 18.5168 36.2097 18.0954 35.6567 17.6237L0.00012207 8.10516V13.4562C0.00012207 13.4562 0.0630965 13.4562 0.100868 13.4562L14.2653 17.0823Z" fill="white"/>
<path d="M19.188 37.5923V37.7433C19.3014 38.2973 19.4021 38.6625 19.9812 38.8135L20.2582 38.8891C20.7095 38.956 21.1398 39.1239 21.5173 39.3801C21.7755 39.591 21.9822 39.8579 22.1216 40.1607C22.1947 40.3248 22.2971 40.4742 22.4238 40.6014C22.6421 40.7201 22.8837 40.7895 23.1317 40.8047C23.3797 40.82 23.628 40.7806 23.8591 40.6895L24.2621 40.6266C25.2988 40.4646 26.3579 40.5203 27.3719 40.7903C27.1682 40.625 26.9537 40.4736 26.7298 40.337C26.3143 40.0852 25.8107 39.8712 25.3448 39.5438C24.8835 39.2295 24.4609 38.8618 24.0858 38.4484C23.7813 38.0796 23.4096 37.772 22.9904 37.5419C22.7635 37.4569 22.5265 37.4018 22.2853 37.3782L21.895 37.3027L21.4921 37.1264C21.0308 36.8811 20.5558 36.6625 20.0694 36.4717C19.6916 36.3458 19.2636 36.2325 18.8103 36.1066C18.9326 36.4272 19.0171 36.761 19.0621 37.1012C19.1251 37.2523 19.1503 37.3782 19.188 37.5923Z" fill="white"/>
<path d="M37.8851 33.3116C27.5986 33.3116 18.8104 31.3475 14.0511 28.3761V31.6874C14.3785 32.3673 15.7635 32.4429 16.5693 33.3242C16.9631 33.718 17.3291 34.1387 17.6646 34.5833C17.7925 34.7497 17.9506 34.8907 18.1305 34.9987C18.3524 35.0987 18.5793 35.1869 18.8104 35.2632C19.2888 35.4268 19.8051 35.5401 20.3339 35.729C20.831 35.9235 21.3147 36.1506 21.7818 36.4089L22.0966 36.56L22.4869 36.6229C22.7699 36.6547 23.0461 36.7312 23.3052 36.8496C23.8225 37.1163 24.2807 37.4846 24.6524 37.9324C25.3655 38.6855 26.2216 39.289 27.1706 39.7076C28.1046 40.3023 28.9026 41.0875 29.5124 42.0117C30.1545 42.8175 30.7714 43.7996 31.5521 44.1395C32.0033 44.3607 32.4816 44.5216 32.9748 44.618C33.5147 44.6982 34.0329 44.8866 34.4983 45.1719C34.5183 45.1874 34.5326 45.2091 34.5388 45.2336C34.5451 45.258 34.543 45.2839 34.5329 45.3071C34.5227 45.3302 34.5052 45.3494 34.4829 45.3614C34.4607 45.3734 34.4351 45.3776 34.4101 45.3734C33.9122 45.2441 33.401 45.1723 32.8867 45.1594C32.3269 45.1327 31.7766 45.0047 31.2625 44.7816C30.9811 44.676 30.7178 44.5273 30.4819 44.341C30.2759 44.1479 30.0824 43.9418 29.9027 43.724C29.5502 43.3085 29.2228 42.8931 28.9081 42.465L28.7569 42.2761C28.1296 41.8435 27.4227 41.5395 26.6771 41.3817C25.9315 41.224 25.1621 41.2156 24.4132 41.357L24.0481 41.4325C23.7143 41.5344 23.3623 41.5624 23.0166 41.5145C22.6709 41.4667 22.3398 41.3442 22.0462 41.1555C21.8231 40.9726 21.6463 40.7397 21.53 40.4757C21.4366 40.2713 21.304 40.0874 21.1397 39.9343C20.8465 39.7331 20.51 39.6037 20.1576 39.5565L19.8428 39.481C19.4894 39.3719 19.1786 39.1559 18.9531 38.8628C18.7276 38.5696 18.5986 38.2138 18.5838 37.8442V37.6931C18.5838 37.5169 18.5082 37.3406 18.4831 37.1895C18.4388 36.5738 18.17 35.9958 17.7276 35.5653C17.518 35.4222 17.3312 35.2481 17.1736 35.0491C16.86 34.6443 16.5237 34.2576 16.1664 33.8908C15.8105 33.5395 15.3802 33.2727 14.9073 33.1102C14.633 32.9866 14.368 32.8435 14.1141 32.6821V41.9991C14.1141 44.5172 23.897 47.4005 37.9229 47.4005C51.9488 47.4005 61.7443 44.555 61.7443 42.0117V37.7939L61.0392 37.2651C60.8196 37.1143 60.6094 36.9504 60.4097 36.774C59.9817 37.267 59.4594 37.6693 58.8737 37.9575C58.5085 38.159 58.1308 38.3227 57.7657 38.4863C57.6138 38.5431 57.4699 38.6192 57.3376 38.713C57.2064 38.8339 57.0844 38.9643 56.9725 39.1033C56.7207 39.3929 56.5192 39.7202 56.1919 40.0602C55.8645 40.4001 55.1594 40.4127 55.0587 40.526C54.452 41.0924 53.7306 41.5218 52.9435 41.7851C52.91 41.7977 52.873 41.7968 52.8402 41.7827C52.8073 41.7687 52.7812 41.7424 52.7672 41.7095C52.7498 41.6858 52.7405 41.6571 52.7405 41.6277C52.7405 41.5983 52.7498 41.5696 52.7672 41.5459C53.4593 41.1791 54.0781 40.6883 54.5929 40.0979C54.7928 39.9456 55.0257 39.8421 55.2728 39.7958C55.4058 39.7675 55.5281 39.702 55.6253 39.6069C55.8519 39.3677 56.0785 39.0151 56.3429 38.6878C56.4854 38.5202 56.6412 38.3644 56.8088 38.2219C56.9919 38.0754 57.1955 37.9567 57.4131 37.8694C57.7909 37.7057 58.1434 37.5546 58.4834 37.3784C59.1115 37.088 59.6442 36.6252 60.0194 36.0438C60.0821 35.826 60.1753 35.6183 60.2964 35.4268C60.3824 35.2964 60.4541 35.1571 60.5104 35.0113C60.5104 34.6588 60.8252 34.2937 61.1903 33.8782C61.3895 33.6794 61.5553 33.4498 61.6814 33.1983C61.6814 32.3547 61.6814 29.6729 61.6814 28.4265C56.834 31.3223 47.9954 33.3116 37.8851 33.3116Z" fill="white"/>
<path d="M17.2241 57.838C17.2012 57.6656 17.1163 57.5074 16.9855 57.3929C16.8546 57.2783 16.6867 57.2151 16.5128 57.2151C16.3389 57.2151 16.1708 57.2783 16.04 57.3929C15.9092 57.5074 15.8244 57.6656 15.8014 57.838V82.6288L16.3554 82.7925L17.1486 83.1073H17.2241V57.838Z" fill="#990000"/>
<path d="M55.8897 59.261C55.8897 59.0139 55.7915 58.7769 55.6168 58.6022C55.4421 58.4274 55.2051 58.3293 54.958 58.3293C54.7109 58.3293 54.4739 58.4274 54.2991 58.6022C54.1244 58.7769 54.0262 59.0139 54.0262 59.261V86.4818C54.504 86.2886 54.9915 86.1205 55.4868 85.9782L55.8897 85.8901V59.261Z" fill="#990000"/>
<path d="M45.88 61.3004C45.88 60.8864 45.7155 60.4893 45.4227 60.1965C45.1299 59.9037 44.7329 59.7392 44.3188 59.7392C43.9047 59.7392 43.5076 59.9037 43.2148 60.1965C42.9221 60.4893 42.7576 60.8864 42.7576 61.3004V88.3702C43.5004 88.2821 44.4069 88.9242 44.8476 88.8738C45.191 88.8428 45.5366 88.8428 45.88 88.8738V61.3004Z" fill="#990000"/>
<path d="M51.2687 60.4065C51.2687 60.0726 51.1361 59.7523 50.9 59.5162C50.6639 59.2801 50.3436 59.1475 50.0097 59.1475C49.6757 59.1475 49.3555 59.2801 49.1194 59.5162C48.8833 59.7523 48.7506 60.0726 48.7506 60.4065V88.9998C49.2742 89.0015 49.7968 88.9551 50.3119 88.8613C50.6284 88.7902 50.9396 88.6976 51.2436 88.5843L51.2687 60.4065Z" fill="#990000"/>
<path d="M37.8599 56.6292C27.246 56.6292 18.1934 54.9673 13.5726 52.4617V81.6215C13.5726 81.7474 13.6734 82.1 14.5673 82.377C14.7373 82.4203 14.9097 82.4539 15.0835 82.4777V57.8379C15.117 57.4821 15.282 57.1515 15.5463 56.9109C15.8105 56.6702 16.1551 56.5369 16.5126 56.5369C16.87 56.5369 17.2145 56.6702 17.4788 56.9109C17.7431 57.1515 17.9081 57.4821 17.9416 57.8379V83.422C18.3948 83.6109 18.7852 83.7493 19.1125 83.8753V59.2607C19.1487 58.8465 19.3387 58.4609 19.6452 58.18C19.9517 57.899 20.3524 57.7432 20.7681 57.7432C21.1839 57.7432 21.5846 57.899 21.8911 58.18C22.1976 58.4609 22.3877 58.8465 22.4238 59.2607V84.1774H23.0408L23.7332 84.2907V60.3686C23.7115 60.0966 23.7463 59.8231 23.8354 59.5652C23.9246 59.3073 24.0662 59.0706 24.2513 58.8701C24.4364 58.6696 24.661 58.5096 24.9109 58.4002C25.1609 58.2908 25.4308 58.2343 25.7037 58.2343C25.9765 58.2343 26.2465 58.2908 26.4964 58.4002C26.7464 58.5096 26.971 58.6696 27.1561 58.8701C27.3412 59.0706 27.4828 59.3073 27.5719 59.5652C27.6611 59.8231 27.6959 60.0966 27.6741 60.3686V85.1343L29.122 85.4869V61.3003C29.1649 60.7236 29.4242 60.1843 29.8481 59.7908C30.2719 59.3973 30.8289 59.1786 31.4072 59.1786C31.9856 59.1786 32.5425 59.3973 32.9664 59.7908C33.3902 60.1843 33.6496 60.7236 33.6924 61.3003V86.4815C34.0575 86.4815 34.1708 86.9977 34.5108 86.9977C34.8507 86.9977 35.09 87.4258 35.2662 87.4384V61.8291C35.3121 61.1708 35.6059 60.5544 36.0885 60.1043C36.571 59.6542 37.2063 59.4039 37.8662 59.4039C38.5261 59.4039 39.1614 59.6542 39.6439 60.1043C40.1265 60.5544 40.4203 61.1708 40.4662 61.8291V88.4708H42.04V61.3003C42.04 60.6959 42.2801 60.1163 42.7074 59.6889C43.1348 59.2615 43.7145 59.0214 44.3189 59.0214C44.9233 59.0214 45.5029 59.2615 45.9303 59.6889C46.3577 60.1163 46.5978 60.6959 46.5978 61.3003V88.8485H47.1895H48.0583V60.4064C48.0583 59.8855 48.2652 59.3859 48.6336 59.0175C49.0019 58.6492 49.5015 58.4423 50.0224 58.4423C50.5433 58.4423 51.0429 58.6492 51.4113 59.0175C51.7796 59.3859 51.9865 59.8855 51.9865 60.4064V88.282C52.5385 87.9973 52.9973 87.5603 53.3085 87.0229V59.2607C53.3447 58.8465 53.5348 58.4609 53.8413 58.18C54.1478 57.899 54.5484 57.7432 54.9642 57.7432C55.38 57.7432 55.7806 57.899 56.0871 58.18C56.3936 58.4609 56.5837 58.8465 56.6199 59.2607V85.789H56.8717C57.1774 85.817 57.4851 85.817 57.7908 85.789V57.8379C57.8243 57.4821 57.9893 57.1515 58.2536 56.9109C58.5178 56.6702 58.8624 56.5369 59.2198 56.5369C59.5773 56.5369 59.9218 56.6702 60.1861 56.9109C60.4504 57.1515 60.6154 57.4821 60.6489 57.8379V84.6811L61.5806 84.4167C61.7447 84.379 61.8908 84.2857 61.9941 84.1526C62.0973 84.0195 62.1514 83.8548 62.1472 83.6864V52.4869C57.539 55.005 48.4864 56.6292 37.8599 56.6292Z" fill="#990000"/>
<path d="M59.9187 57.838C59.9187 57.651 59.8444 57.4717 59.7122 57.3394C59.58 57.2072 59.4006 57.1329 59.2136 57.1329C59.0266 57.1329 58.8473 57.2072 58.7151 57.3394C58.5828 57.4717 58.5085 57.651 58.5085 57.838V85.5373C58.7463 85.4581 58.9777 85.3613 59.2011 85.2477C59.4032 85.1353 59.6137 85.0385 59.8306 84.9581H59.9187V57.838Z" fill="#990000"/>
<path d="M39.7486 61.8291C39.7486 61.3283 39.5496 60.8479 39.1955 60.4937C38.8413 60.1395 38.3609 59.9406 37.86 59.9406C37.3591 59.9406 36.8788 60.1395 36.5246 60.4937C36.1704 60.8479 35.9714 61.3283 35.9714 61.8291V87.6399H36.2736C36.946 87.741 37.6107 87.8882 38.2629 88.0805C38.747 88.2255 39.2388 88.3432 39.736 88.4331L39.7486 61.8291Z" fill="#990000"/>
<path d="M26.9564 60.4065C26.9564 60.0726 26.8237 59.7523 26.5876 59.5162C26.3515 59.2801 26.0312 59.1475 25.6973 59.1475C25.3634 59.1475 25.0431 59.2801 24.807 59.5162C24.5709 59.7523 24.4382 60.0726 24.4382 60.4065V84.4671H24.5641C25.093 84.6056 25.6973 84.7441 26.3268 84.8449C26.5157 84.8449 26.7297 84.933 26.9312 84.9708L26.9564 60.4065Z" fill="#990000"/>
<path d="M32.9746 61.3004C32.9746 60.8864 32.8101 60.4893 32.5173 60.1965C32.2245 59.9037 31.8275 59.7392 31.4134 59.7392C30.9993 59.7392 30.6022 59.9037 30.3095 60.1965C30.0167 60.4893 29.8522 60.8864 29.8522 61.3004V85.6758L30.2676 85.7891L31.3505 86.0913C31.8837 86.229 32.4266 86.3258 32.9746 86.3809V61.3004Z" fill="#990000"/>
<path d="M21.6936 59.261C21.6936 59.0139 21.5955 58.7769 21.4207 58.6022C21.246 58.4274 21.009 58.3293 20.7619 58.3293C20.5148 58.3293 20.2778 58.4274 20.1031 58.6022C19.9284 58.7769 19.8302 59.0139 19.8302 59.261V84.1022C20.4432 84.2255 21.0709 84.2594 21.6936 84.2029V59.261Z" fill="#990000"/>
</svg>
