<svg width="67" height="110" viewBox="0 0 67 110" fill="none" xmlns="http://www.w3.org/2000/svg">
<path d="M21.3613 16.7884C22.3131 16.0494 23.3784 15.4697 24.5159 15.0718C25.8304 14.7037 27.1747 14.4511 28.5332 14.3169C28.1647 14.5596 27.7873 14.7842 27.4188 14.9999C26.6524 15.417 25.9246 15.9012 25.2438 16.4469C24.4961 17.0769 23.785 17.7491 23.1138 18.4601C21.6445 20.1085 19.7928 21.3708 17.7214 22.1359C17.7214 21.9382 17.7214 21.7315 17.7214 21.5338V21.2821C18.4306 20.5498 19.0191 19.7095 19.4649 18.7926C20.001 18.0398 20.6392 17.3653 21.3613 16.7884Z" fill="#990000"/>
<path d="M46.4451 14.1371C46.2635 14.1382 46.0848 14.0914 45.927 14.0015C45.7692 13.9116 45.6379 13.7816 45.5463 13.6248C45.6446 13.44 45.704 13.237 45.721 13.0284C45.738 12.8197 45.7122 12.6098 45.6452 12.4115C45.7434 12.2975 45.8646 12.2057 46.001 12.1422C46.1373 12.0786 46.2856 12.0448 46.4361 12.043C46.697 12.0672 46.9395 12.188 47.1161 12.3817C47.2926 12.5754 47.3905 12.828 47.3905 13.0901C47.3905 13.3521 47.2926 13.6048 47.1161 13.7984C46.9395 13.9921 46.697 14.1129 46.4361 14.1371H46.4451Z" fill="#990000"/>
<path d="M44.1354 13.9485C43.8724 13.9469 43.6198 13.8459 43.4282 13.6659C43.2365 13.4859 43.1199 13.2402 43.1018 12.9779L43.3535 12.852C43.7866 12.5765 44.2038 12.2764 44.6027 11.9533C44.8173 12.0544 44.9906 12.2262 45.0936 12.4399C45.1965 12.6537 45.2227 12.8963 45.1679 13.1271C45.1131 13.3579 44.9806 13.5629 44.7926 13.7075C44.6046 13.8522 44.3725 13.9277 44.1354 13.9215V13.9485Z" fill="#990000"/>
<path d="M46.5349 10.4435C46.6196 10.8294 46.743 11.2058 46.9034 11.5669C46.7552 11.5197 46.6006 11.4955 46.445 11.495C46.0463 11.4919 45.6611 11.6396 45.3666 11.9084C45.2808 11.7942 45.1777 11.6941 45.061 11.6118L45.4205 11.3153C45.798 11.0097 46.1575 10.7221 46.5349 10.4435Z" fill="#990000"/>
<path d="M14.8723 28.9934C13.9454 29.1317 13.0593 29.469 12.275 29.982C12.4766 29.0426 12.8062 28.1354 13.2546 27.2857C13.4972 26.8184 13.7579 26.387 14.0275 25.9197C14.2971 25.4523 14.5847 24.967 14.8364 24.4817C15.3716 23.4057 15.7817 22.2719 16.0587 21.1024C16.2755 20.2515 16.5426 19.4142 16.8585 18.5949C16.9214 18.4511 17.0293 18.2085 17.1641 17.9388C17.1641 18.0557 17.1641 18.1635 17.1641 18.2444C17.1641 19.3049 17.1641 20.3924 17.1641 21.4529V21.5967C17.2451 22.4129 17.1843 23.2369 16.9844 24.0323C16.6208 24.1256 16.2984 24.3368 16.0675 24.6327C15.8366 24.9286 15.7103 25.2927 15.7081 25.668C15.7104 25.8513 15.7407 26.0331 15.798 26.2073C15.4875 26.2377 15.1926 26.3582 14.9497 26.5541C14.7067 26.75 14.5264 27.0126 14.4309 27.3097C14.3354 27.6068 14.3288 27.9253 14.4121 28.226C14.4953 28.5268 14.6646 28.7966 14.8993 29.0023L14.8723 28.9934Z" fill="#990000"/>
<path d="M42.4457 5.63513L43.0479 5.3026L43.2905 5.16779C43.4397 5.30713 43.5589 5.47544 43.6408 5.66242C43.7227 5.84941 43.7656 6.05113 43.7668 6.25526C43.7645 6.48749 43.7059 6.71568 43.5961 6.92033C42.6791 6.68227 41.7488 6.49921 40.81 6.3721C41.3688 6.15784 41.915 5.91178 42.4457 5.63513Z" fill="#990000"/>
<path d="M53.644 19.6554C53.0126 18.7756 52.4421 17.8538 51.9364 16.8963C51.2127 15.5055 50.6402 14.0412 50.2288 12.5284C50.6272 13.0195 51.0596 13.482 51.5229 13.9124L51.8735 14.254C53.1017 15.3824 54.1263 16.714 54.9022 18.1904C55.7309 19.7617 56.0124 21.5642 55.7021 23.3133C55.3355 22.3673 54.8685 21.4634 54.3091 20.617C54.0844 20.3205 53.8597 19.9879 53.644 19.6554Z" fill="#990000"/>
<path d="M24.0665 12.106C23.8284 12.4962 23.7479 12.9624 23.8414 13.4099C23.9349 13.8573 24.1953 14.2524 24.5698 14.5146C24.499 14.5368 24.427 14.5548 24.3541 14.5685C23.4358 14.8787 22.5648 15.3142 21.7657 15.8627C21.7907 15.7981 21.8117 15.7321 21.8286 15.665C22.233 14.4786 22.8172 12.7261 23.7609 11.8543C23.8502 11.9524 23.9531 12.0371 24.0665 12.106Z" fill="#990000"/>
<path d="M17.7033 18.2445C17.6857 17.6498 17.796 17.0582 18.0269 16.5099C18.0269 16.5099 18.0269 16.5099 18.0269 16.456C18.0269 16.402 18.0269 16.456 18.0269 16.3931C18.0269 16.3301 18.0269 16.3931 18.0269 16.3391C18.0303 16.3123 18.0303 16.2851 18.0269 16.2582C18.0269 16.2582 18.0269 16.2582 18.0269 16.1953H17.8292H17.7662H17.7123C17.6859 16.1876 17.6578 16.1876 17.6314 16.1953H17.5685L15.6362 17.885C15.846 16.3872 16.3566 14.9473 17.1371 13.6519L17.227 13.4811C17.6494 12.6453 18.0808 11.7825 18.4313 10.9467C19.0692 9.31133 19.5419 7.61626 19.8423 5.88678C19.8423 5.9407 19.8423 5.98564 19.8423 6.03956C19.9502 6.42602 20.1929 7.42362 20.4175 8.46616C20.5755 9.44031 20.6267 10.4288 20.5703 11.414C20.4265 14.2181 19.7794 17.9659 17.6584 20.4464C17.7123 19.6914 17.6854 18.9635 17.7033 18.2445Z" fill="#990000"/>
<path d="M14.9173 19.2421L16.6429 17.7411C16.5081 18.0198 16.3912 18.2624 16.3463 18.3793C16.0202 19.215 15.747 20.0705 15.5284 20.9407C15.2549 22.0732 14.8602 23.1731 14.3511 24.2211C14.0994 24.6974 13.8208 25.1198 13.5512 25.6321C13.2816 26.1444 13.012 26.5308 12.7603 27.0162C12.1986 28.0771 11.8217 29.2259 11.6459 30.4134C11.3685 30.6277 11.1072 30.862 10.864 31.1144C10.2693 29.4214 10.1468 27.5984 10.5093 25.8409C10.8719 24.0835 11.706 22.4579 12.9221 21.1384C13.5475 20.4658 14.2138 19.8325 14.9173 19.2421Z" fill="#990000"/>
<path d="M9.91138 26.0456C9.61559 27.9078 9.79172 29.8144 10.4237 31.5909C9.61126 32.4428 8.94613 33.4238 8.45542 34.4938C8.2668 34.4179 8.06556 34.3783 7.86225 34.377H7.72743C7.32224 32.2753 7.32224 30.1156 7.72743 28.0139C8.16781 25.0301 8.34756 21.9474 6.99945 19.4309C8.53548 21.341 9.53998 23.6228 9.91138 26.0456Z" fill="#990000"/>
<path d="M38.2307 3.95445C40.6485 3.44228 43.1247 3.26088 45.5914 3.4152C44.6206 3.81642 43.6804 4.28802 42.7783 4.82623C42.5266 4.96104 42.3289 5.07787 42.1941 5.14079C41.1532 5.75707 39.9911 6.14035 38.7879 6.26421C37.3849 6.23796 35.9993 6.57712 34.7671 7.24837C33.5349 7.91963 32.4985 8.89989 31.7597 10.0928L30.9868 10.3715C31.5962 9.44052 32.1024 8.44605 32.4967 7.40561C33.9536 5.6293 35.979 4.41029 38.2307 3.95445Z" fill="#990000"/>
<path d="M49.0514 8.36724C49.5051 8.77584 49.937 9.20782 50.3456 9.66143C51.2143 10.7512 51.7397 12.0743 51.8555 13.4631C51.0085 12.7724 50.332 11.896 49.8783 10.9017C49.8588 10.8582 49.8277 10.8209 49.7884 10.7938C49.7314 10.7522 49.661 10.733 49.5907 10.7399C49.5219 10.7524 49.4607 10.7911 49.4199 10.8478C49.4199 10.8478 49.4199 10.8478 49.4199 10.9017C49.4199 10.9556 49.375 10.9646 49.375 11.0006C49.3134 12.2984 49.3464 13.599 49.4739 14.8921C49.2582 14.5326 49.0425 14.1731 48.8178 13.8226C48.0004 12.7067 47.3914 11.4523 47.0203 10.1198C47.4889 9.79471 47.9961 9.52905 48.5302 9.32889C48.5588 9.31013 48.5858 9.28909 48.6111 9.26598C48.6525 9.21532 48.6748 9.15168 48.674 9.08624C48.6644 9.0258 48.6323 8.97123 48.5841 8.93345C48.5841 8.93345 48.5841 8.93345 48.5392 8.93345C48.4942 8.93345 48.5392 8.93345 48.4673 8.93345C47.9924 8.79587 47.5365 8.59963 47.1102 8.34927C46.8495 8.21446 46.5889 8.07965 46.3373 7.9718H46.2474C46.2697 7.22406 46.3478 6.47903 46.4811 5.74292L46.544 5.34747C47.1303 6.53752 47.9894 7.57221 49.0514 8.36724Z" fill="#990000"/>
<path d="M33.054 0.37738C33.2525 4.11027 32.1749 7.7996 29.9983 10.8387C29.7466 10.9735 29.504 11.1173 29.2703 11.2611C29.2626 10.9573 29.178 10.6604 29.0244 10.3982C28.8708 10.1359 28.6532 9.9169 28.3919 9.76159C28.1307 9.60628 27.8343 9.51975 27.5305 9.51008C27.2268 9.50041 26.9255 9.56793 26.655 9.70631C26.5753 9.57122 26.482 9.44472 26.3763 9.32884C29.1624 7.32464 32.2092 3.54095 33.054 0.37738Z" fill="#990000"/>
<path d="M53.0239 31.1682C54.372 29.3708 54.0665 26.8543 53.2756 25.0478C53.0689 24.5984 52.8262 24.1491 52.5836 23.7536L52.1971 23.0616C52.0083 22.7021 51.8286 22.3246 51.6578 21.9202C51.4871 21.5068 51.3253 21.0215 51.1545 20.5631C50.3986 18.2373 49.9721 15.8172 49.8873 13.3732C50.2977 14.6877 50.8178 15.9654 51.4421 17.1928C51.9608 18.1678 52.5433 19.1076 53.1857 20.0059L53.8508 21.0035C54.9551 22.584 55.6331 24.4228 55.819 26.342C55.8177 27.3283 55.5592 28.2971 55.069 29.153C54.5788 30.0088 53.874 30.722 53.0239 31.2222V31.1682Z" fill="#990000"/>
<path d="M25.7202 11.6746C26.0777 11.6746 26.4207 11.8167 26.6735 12.0695C26.9263 12.3223 27.0683 12.6652 27.0683 13.0227C27.077 13.1244 27.077 13.2266 27.0683 13.3283C26.8881 13.5613 26.7258 13.8077 26.583 14.0653C26.1786 14.1282 25.7831 14.2091 25.3877 14.3079C25.0769 14.2173 24.809 14.0179 24.6332 13.746C24.4573 13.4742 24.3851 13.1482 24.4299 12.8275C24.4746 12.5069 24.6332 12.213 24.8767 11.9997C25.1202 11.7864 25.4324 11.6678 25.7562 11.6656L25.7202 11.6746Z" fill="#990000"/>
<path d="M25.073 9.338C25.4099 9.33799 25.7332 9.47121 25.9722 9.70861C26.2113 9.946 26.3468 10.2683 26.3492 10.6052C26.3456 10.8105 26.2899 11.0115 26.1874 11.1894C26.0346 11.1503 25.8778 11.1292 25.7201 11.1265C25.2232 11.125 24.7455 11.3187 24.3899 11.6657C24.1558 11.5207 23.9757 11.3029 23.8773 11.0457C23.7789 10.7885 23.7676 10.506 23.8452 10.2418C23.9227 9.97753 24.0848 9.74601 24.3066 9.58275C24.5284 9.41949 24.7976 9.33351 25.073 9.338Z" fill="#990000"/>
<path d="M27.5805 12.6632C27.5292 12.4003 27.4225 12.1514 27.2676 11.9329C27.1126 11.7144 26.9129 11.5314 26.6818 11.396C26.814 11.1531 26.885 10.8816 26.8885 10.6051C26.9023 10.4767 26.9023 10.3471 26.8885 10.2187C27.08 10.1091 27.2971 10.0522 27.5178 10.0538C27.7384 10.0554 27.9547 10.1154 28.1447 10.2277C28.3346 10.34 28.4914 10.5007 28.5991 10.6932C28.7068 10.8858 28.7616 11.1035 28.7579 11.3241C28.7538 11.4456 28.7357 11.5662 28.7039 11.6836C28.3001 11.9749 27.924 12.3028 27.5805 12.6632Z" fill="#990000"/>
<path d="M32.7844 13.2474C32.2662 13.9468 31.7049 14.6132 31.1037 15.2426C30.4044 15.9474 29.5139 16.4317 28.5423 16.6357L29.8095 14.0743C29.8095 14.0743 29.8095 14.0743 29.8095 14.0114C29.8095 13.9485 29.8095 14.0114 29.8095 14.0114C29.8128 13.9512 29.7971 13.8914 29.7646 13.8406C29.7282 13.8033 29.6811 13.7781 29.6298 13.7687H29.5129C28.767 13.8496 28.012 13.9305 27.2481 14.0473C28.4056 12.418 30.0818 11.2297 32.0024 10.677C33.5183 10.2219 35.0854 9.95916 36.6669 9.89514C35.6452 10.3516 34.7276 11.0122 33.9707 11.8364C33.5932 12.2049 33.1888 12.7352 32.7844 13.2474Z" fill="#990000"/>
<path d="M47.263 8.87958C43.7309 9.23908 40.3157 9.77833 37.2151 11.468C37.5583 10.7913 38.0211 10.1824 38.5811 9.67048C38.6336 9.63746 38.672 9.58625 38.689 9.52668C38.716 9.45733 38.716 9.38033 38.689 9.31098C38.6684 9.25665 38.6313 9.21011 38.583 9.17788C38.5347 9.14565 38.4774 9.12934 38.4194 9.13124C36.4553 9.15017 34.4992 9.38526 32.5865 9.83225C34.1593 7.73819 36.1815 6.78552 39.1743 6.78552C41.56 6.8899 43.91 7.40367 46.1216 8.30439C46.3642 8.40325 46.6069 8.53806 46.8585 8.66389L47.263 8.87958Z" fill="#990000"/>
<path d="M46.499 16.1145L45.834 15.5483C47.4319 15.8295 48.8745 16.6785 49.8963 17.9389C50.0311 18.595 50.2108 19.2511 50.3996 19.8982C49.2289 18.51 47.9222 17.2424 46.499 16.1145Z" fill="#990000"/>
<path d="M12.1043 61.312C13.5243 62.013 15.2948 63.478 15.6364 65.3024C15.6364 65.6529 15.6364 66.0394 15.6364 66.4528C14.9753 65.2741 14.1041 64.2263 13.066 63.3611C11.2773 61.9115 9.07418 61.068 6.77478 60.9525C8.53621 60.423 10.43 60.5507 12.1043 61.312Z" fill="#990000"/>
<path d="M42.5716 13.2474C43.9247 13.5443 45.2288 14.0315 46.4452 14.6944C46.7901 14.6942 47.1257 14.582 47.4013 14.3745C47.6769 14.167 47.8775 13.8755 47.973 13.544L48.3146 14.1012C48.7639 14.8112 49.2133 15.5572 49.5997 16.3032C49.5997 16.5099 49.6716 16.7166 49.7076 16.9233C48.4327 15.7122 46.7714 14.9897 45.0162 14.8831C44.9834 14.8792 44.9501 14.8828 44.919 14.8937C44.8878 14.9046 44.8596 14.9225 44.8364 14.9461C44.8364 14.9461 44.8364 14.9461 44.8364 15C44.8093 15.0465 44.7939 15.099 44.7915 15.1528C44.8454 15.4044 44.9263 15.6291 44.9892 15.8718C44.6392 15.5589 44.2634 15.2763 43.8658 15.0269C43.7103 14.9315 43.563 14.8233 43.4254 14.7034C42.8849 14.1996 42.2535 13.8031 41.565 13.535C41.9076 13.4661 42.2442 13.3699 42.5716 13.2474Z" fill="#990000"/>
<path d="M3.16177 48.8555C2.80844 48.7614 2.43662 48.7614 2.08329 48.8555C1.78312 48.9241 1.50876 49.0769 1.29241 49.2959C1.02097 49.0168 0.86938 48.6427 0.869997 48.2534C0.869997 47.8458 1.03191 47.4549 1.32012 47.1667C1.60834 46.8785 1.99924 46.7165 2.40684 46.7165C2.5025 46.7078 2.59878 46.7078 2.69444 46.7165C2.7517 47.3929 2.89051 48.0598 3.10785 48.7028C3.12119 48.7552 3.13924 48.8063 3.16177 48.8555Z" fill="#990000"/>
<path d="M5.88495 54.6254L5.78609 54.5355C4.38072 53.2729 2.80066 52.2196 1.09467 51.4079C2.81805 51.4411 4.50068 51.9379 5.96584 52.8459C6.60394 53.4211 7.26901 53.9603 7.9161 54.4366H8.00598C8.00607 55.0577 8.06322 55.6775 8.17673 56.2881C8.24452 56.6608 8.33152 57.0298 8.43738 57.3935C7.6885 56.3818 6.83275 55.4537 5.88495 54.6254Z" fill="#990000"/>
<path d="M1.3643 50.1227C1.4256 49.9333 1.53612 49.7636 1.68457 49.6309C1.83301 49.4983 2.01404 49.4074 2.20911 49.3677C2.44153 49.2952 2.69025 49.2932 2.9238 49.362C3.15736 49.4308 3.36528 49.5673 3.52128 49.7542C3.85958 50.4234 4.27917 51.0482 4.77053 51.6146C3.67897 51.1875 2.52585 50.9387 1.35531 50.8776C1.31995 50.7365 1.30185 50.5917 1.30139 50.4462C1.31332 50.3368 1.33436 50.2286 1.3643 50.1227Z" fill="#990000"/>
<path d="M12.967 61.1502C12.9818 60.127 13.1237 59.1097 13.3894 58.1215C13.5332 57.4654 13.686 56.7823 13.7669 56.0993C15.3307 58.454 15.5643 60.7278 15.6362 63.7656C14.9712 62.6906 14.0553 61.7932 12.967 61.1502Z" fill="#990000"/>
<path d="M11.1335 57.8968C11.1335 58.7237 11.1335 59.5415 11.1335 60.3684C10.8184 60.2762 10.497 60.2071 10.1719 60.1616C9.50337 58.9315 9.02463 57.6074 8.75187 56.2341C8.4475 54.772 8.53746 53.2552 9.01251 51.8393C9.1601 51.4385 9.32808 51.0456 9.5158 50.662C9.68656 50.2935 9.86631 49.916 10.0101 49.5295C10.1133 49.261 10.1945 48.9844 10.2528 48.7027C11.1605 51.6326 11.1515 54.6883 11.1335 57.8968Z" fill="#990000"/>
<path d="M6.5141 61.5367C8.77918 61.5926 10.9624 62.3951 12.7244 63.8196C13.9488 64.8511 14.9308 66.14 15.6004 67.5943V68.3043C13.7472 67.7993 12.0604 66.8133 10.7112 65.4463C10.3912 65.0917 10.0912 64.7197 9.81248 64.3318C9.51679 63.92 9.19244 63.5296 8.84183 63.1635L8.64411 62.9747C8.08342 62.3047 7.34518 61.8063 6.5141 61.5367Z" fill="#990000"/>
<path d="M1.72372 53.0348C1.51358 52.7451 1.28545 52.469 1.04069 52.2079C0.941825 52.1181 0.842953 52.0192 0.735104 51.9383C0.668735 51.8955 0.608302 51.8441 0.555359 51.7855C2.3286 52.5847 3.96848 53.6517 5.41755 54.9491L5.51641 55.039C7.00385 56.35 8.27476 57.8878 9.28214 59.5956L9.53378 60.1079C8.80232 60.0722 8.06921 60.1235 7.34984 60.2606C6.53218 59.7127 5.81729 59.0251 5.2378 58.2295C4.6716 57.4656 4.06943 56.5399 3.48525 55.6321C2.90107 54.7244 2.36183 53.8706 1.72372 53.0348Z" fill="#990000"/>
<path d="M12.8501 58.0047C12.6191 58.9293 12.4806 59.8747 12.4367 60.8267H12.3738C12.1608 60.7209 11.9417 60.6279 11.7177 60.5481C11.7177 59.6494 11.7177 58.7506 11.7177 57.9148C11.8749 54.828 11.5873 51.7346 10.8639 48.7297C11.364 49.4518 11.8173 50.2053 12.221 50.9855C12.9253 52.3147 13.2955 53.7953 13.2995 55.2995C13.2387 56.2138 13.0882 57.1199 12.8501 58.0047Z" fill="#990000"/>
<path d="M4.49195 42.4385C4.70047 42.1144 4.87801 41.7714 5.0222 41.414C5.08433 41.2406 5.13536 41.0635 5.17499 40.8837C5.38657 41.5805 5.49852 42.3036 5.50752 43.0317C5.52434 43.584 5.50032 44.1367 5.43563 44.6854C5.37889 45.2437 5.35488 45.8049 5.36373 46.3661C5.37537 48.9915 6.33256 51.5249 8.05995 53.5021C8.05995 53.5021 8.05995 53.5021 8.13185 53.5021C8.20375 53.5021 8.13185 53.6908 8.13185 53.7896C7.21043 53.1349 6.35282 52.3946 5.57043 51.5788C4.72562 50.7101 4.08676 49.6627 3.70105 48.514C3.43594 47.7481 3.30224 46.9429 3.3056 46.1324C3.38942 45.0424 3.69527 43.9811 4.20434 43.0137C4.26726 42.852 4.34815 42.6363 4.49195 42.4385Z" fill="#990000"/>
<path d="M9.39001 36.7495C9.53656 36.4742 9.58716 36.158 9.53382 35.8508C10.7795 35.6575 11.9534 35.1434 12.94 34.3588L13.1827 34.1971C13.5152 33.9814 13.8208 33.7567 14.0814 33.541C14.9173 32.9032 15.8216 32.3606 16.7777 31.9232C17.9382 31.4609 19.1427 31.1176 20.3726 30.8987L21.0107 30.7549L19.0515 32.9658C18.2896 33.8489 17.4404 34.6529 16.517 35.3654C15.4847 36.0849 14.2763 36.5105 13.0209 36.5967H12.8322C12.3966 36.6095 11.9659 36.6914 11.556 36.8394C10.834 36.9284 10.1022 36.898 9.39001 36.7495Z" fill="#990000"/>
<path d="M16.4812 26.2791C16.353 26.0977 16.284 25.8811 16.2835 25.659C16.272 25.4099 16.3392 25.1636 16.4756 24.9549C16.6121 24.7463 16.8108 24.5859 17.0435 24.4966C17.2763 24.4073 17.5313 24.3936 17.7723 24.4574C18.0133 24.5212 18.228 24.6593 18.3861 24.8521C18.5441 25.0449 18.6374 25.2826 18.6527 25.5315C18.668 25.7803 18.6044 26.0276 18.4712 26.2383C18.3379 26.449 18.1417 26.6124 17.9103 26.7052C17.6789 26.798 17.4242 26.8156 17.1822 26.7554C16.9931 26.5394 16.7517 26.3754 16.4812 26.2791Z" fill="#990000"/>
<path d="M22.8981 27.9149C23.4066 27.8616 23.911 27.7745 24.408 27.6543C24.7238 28.9329 24.5473 30.2835 23.9137 31.438C23.9276 30.1895 23.5745 28.9644 22.8981 27.9149Z" fill="white"/>
<path d="M18.5302 26.9173C18.8372 26.6433 19.0324 26.2657 19.0784 25.8568C21.3142 25.133 23.6408 24.7276 25.9897 24.6525C27.6338 24.5535 29.2698 24.3493 30.8878 24.0413C29.7347 24.7928 28.5339 25.4683 27.2929 26.0635C25.5619 26.9171 23.6678 27.3891 21.7387 27.4475C20.644 27.4942 19.5516 27.3136 18.5302 26.9173Z" fill="#990000"/>
<path d="M7.2061 39.6974C6.97998 39.6992 6.75843 39.6338 6.56955 39.5095C6.38067 39.3851 6.23298 39.2075 6.14521 38.9991C6.05744 38.7907 6.03355 38.5609 6.07657 38.3389C6.11959 38.1169 6.22758 37.9127 6.38685 37.7522C6.54611 37.5917 6.74947 37.482 6.97112 37.4373C7.19277 37.3925 7.42273 37.4146 7.63182 37.5007C7.8409 37.5868 8.0197 37.7331 8.14552 37.921C8.27134 38.1089 8.33852 38.3299 8.33852 38.556C8.33853 38.8572 8.21951 39.1462 8.00739 39.36C7.79528 39.5738 7.50726 39.6951 7.2061 39.6974Z" fill="#990000"/>
<path d="M7.86225 34.934C8.16258 34.934 8.45061 35.0533 8.66297 35.2657C8.87534 35.478 8.99465 35.7661 8.99465 36.0664C8.99603 36.3161 8.91351 36.559 8.76031 36.7562C8.60712 36.9534 8.39213 37.0935 8.14984 37.1539C7.92436 37.0096 7.66951 36.9175 7.40388 36.8842C7.30916 36.4898 7.07645 36.1424 6.7478 35.9046C6.77711 35.6322 6.90819 35.3809 7.11481 35.2009C7.32143 35.0209 7.58837 34.9256 7.86225 34.934Z" fill="#990000"/>
<path d="M4.65363 37.2707C4.65363 36.9704 4.77294 36.6824 4.9853 36.47C5.19767 36.2576 5.48571 36.1383 5.78605 36.1383C6.02074 36.1378 6.24961 36.2113 6.44004 36.3485C6.63047 36.4857 6.77274 36.6795 6.84655 36.9022C6.50303 36.9772 6.19165 37.158 5.95626 37.4191C5.72087 37.6803 5.57333 38.0088 5.5344 38.3582C5.28545 38.3048 5.06228 38.1678 4.90204 37.9699C4.74179 37.7721 4.65413 37.5253 4.65363 37.2707Z" fill="#990000"/>
<path d="M6.52302 19.7363C7.77227 22.109 7.59252 25.0659 7.17012 27.9418C6.75138 30.1118 6.75138 32.3417 7.17012 34.5116C6.9771 34.5889 6.80028 34.7017 6.64884 34.8442C5.94952 33.709 5.12006 32.6593 4.17731 31.7165C4.25647 29.9922 4.55856 28.2854 5.07605 26.6387C5.23782 26.1443 5.41758 25.65 5.58834 25.1557C5.831 24.5086 6.07366 23.8436 6.26239 23.1695C6.61417 22.0608 6.70339 20.8855 6.52302 19.7363Z" fill="#990000"/>
<path d="M2.16424 31.1145C3.32361 32.8401 3.12589 35.1319 2.99108 36.5609V36.8664C2.99108 37.199 2.91917 37.5764 2.87423 37.9809C2.75899 38.8061 2.69296 39.6374 2.67651 40.4704C2.65595 41.5491 2.88027 42.6185 3.33259 43.598C3.08747 44.1748 2.90955 44.778 2.80233 45.3955C1.85568 44.6665 1.18659 43.636 0.90599 42.4746C0.730976 41.8547 0.643259 41.2134 0.645362 40.5693C0.695985 39.4331 0.942255 38.3143 1.37334 37.2619L1.60701 36.6328C1.92964 35.8268 2.19102 34.9976 2.38892 34.1522C2.62491 33.1404 2.54653 32.0806 2.16424 31.1145Z" fill="#990000"/>
<path d="M8.18569 52.828C6.72638 50.982 5.92603 48.7012 5.91188 46.3481C5.9108 45.8078 5.93779 45.2678 5.99276 44.7304C6.04964 44.16 6.07365 43.5869 6.06466 43.0138C6.04815 42.303 5.94555 41.5968 5.75909 40.9107C6.8734 42.1086 7.62452 43.5984 7.92505 45.2067C8.03705 46.1711 8.03705 47.1452 7.92505 48.1096L7.87113 48.8196C7.70732 50.081 7.84911 51.3633 8.28455 52.5584C8.22164 52.6483 8.20367 52.7381 8.18569 52.828Z" fill="#990000"/>
<path d="M53.5542 14.8291C53.5542 14.919 53.4913 15.0269 53.4553 15.1257C53.1767 14.7932 52.8622 14.4606 52.5566 14.1281L52.4847 13.6877C52.3734 12.0896 51.7847 10.5616 50.795 9.30187C50.3738 8.83107 49.9267 8.38401 49.4559 7.96275C48.4682 7.18813 47.6744 6.19427 47.1371 5.05981C47.8241 5.5243 48.5594 5.91303 49.3301 6.21919C50.7455 6.70372 52.0118 7.5458 53.0059 8.66377C53.4443 9.22689 53.7735 9.86701 53.9766 10.5511C54.2867 11.9862 54.1389 13.4824 53.5542 14.8291Z" fill="#990000"/>
<path d="M56.1515 16.0696C55.9949 16.2145 55.8079 16.3228 55.6043 16.3865C55.4007 16.4502 55.1854 16.4678 54.9741 16.4381C54.7941 16.4153 54.6209 16.3547 54.466 16.2602C54.3111 16.1657 54.178 16.0395 54.0754 15.8898C54.0084 15.799 53.9364 15.712 53.8597 15.6292C53.9316 15.4135 53.9945 15.1978 54.0664 15.0001C54.2192 14.5237 54.363 14.1013 54.4708 13.643C54.6027 13.6074 54.7387 13.5893 54.8753 13.5891C55.2918 13.5895 55.6932 13.7455 56.0007 14.0265C56.3083 14.3074 56.4999 14.6931 56.5379 15.1079C56.534 15.4655 56.3961 15.8087 56.1515 16.0696Z" fill="#990000"/>
<path d="M55.9449 19.2061C55.7926 18.7768 55.6156 18.3567 55.4146 17.9479C55.2491 17.615 55.066 17.291 54.8664 16.9773H54.9293H55.154C55.6713 16.9885 56.1721 16.7947 56.547 16.438C56.6195 16.3659 56.6856 16.2877 56.7448 16.2043C57.0509 16.3778 57.2909 16.6479 57.4272 16.9723C57.5635 17.2967 57.5884 17.6571 57.498 17.9972C57.4076 18.3372 57.207 18.6377 56.9276 18.8516C56.6482 19.0655 56.3058 19.1807 55.9539 19.1792L55.9449 19.2061Z" fill="#990000"/>
<path d="M38.1137 3.41523C36.1402 3.81169 34.3271 4.78072 32.901 6.20132C33.0628 5.62613 33.1886 5.03296 33.3054 4.40384C33.8928 3.49759 34.6616 2.723 35.5635 2.12898C36.4653 1.53496 37.4806 1.13442 38.5451 0.952671C41.2965 0.799491 44.0296 1.48589 46.3821 2.92092C43.6171 2.65385 40.8273 2.82063 38.1137 3.41523Z" fill="#990000"/>
<path d="M25.9178 8.98741C25.6401 8.82679 25.3244 8.74345 25.0035 8.74604C24.6827 8.74863 24.3684 8.83706 24.0932 9.00214C23.8181 9.16722 23.5922 9.40293 23.4389 9.68482C23.2856 9.9667 23.2106 10.2845 23.2216 10.6051C23.2251 10.8817 23.2961 11.1532 23.4283 11.396C22.3409 12.3487 21.7117 14.2271 21.2893 15.4943C21.1545 15.8897 21.0467 16.2313 20.9568 16.393C20.6637 16.6183 20.3873 16.8646 20.1299 17.13C20.735 15.2715 21.0857 13.3396 21.1725 11.387C21.1725 10.8388 21.1725 10.3355 21.1725 9.84121C21.4312 9.28316 21.7604 8.76063 22.1521 8.28639C22.7204 7.63889 23.3395 7.03782 24.0035 6.48891C24.5741 6.05716 25.1748 5.66671 25.801 5.32054C26.7716 4.74535 27.7603 4.18813 28.7309 3.66686L28.8747 3.58597C29.5927 3.2157 30.2653 2.7633 30.8789 2.23786C31.5688 1.67904 32.1246 0.972696 32.5056 0.170763C32.5262 0.109381 32.5565 0.0517187 32.5955 0C31.8765 3.12762 28.7309 7.01917 25.9178 8.98741Z" fill="#990000"/>
<path d="M36.8646 33.1277C35.7054 33.0891 34.5618 33.4025 33.5842 34.0264L33.1348 34.2601C32.8023 34.4308 32.4427 34.6016 32.0833 34.7544C32.5692 34.292 33.0857 33.8626 33.6291 33.4692C34.3574 32.9011 35.1961 32.491 36.0917 32.2649C36.5381 32.1567 37.0058 32.1751 37.4424 32.318C37.879 32.4608 38.2671 32.7226 38.5632 33.0737C38.8268 33.4881 39.0097 33.9486 39.1024 34.4308C38.5398 33.7387 37.7442 33.2754 36.8646 33.1277Z" fill="white"/>
<path d="M50.9208 35.5003C51.316 35.9611 51.5881 36.5146 51.7116 37.109C51.6545 36.9903 51.5884 36.8761 51.5139 36.7675C51.2757 36.4053 50.9535 36.1059 50.5749 35.8947C50.1963 35.6835 49.7723 35.5667 49.339 35.5542C48.596 35.5869 47.8848 35.865 47.3168 36.3451L47.2449 36.1923L47.0562 35.7879C47.609 35.2239 48.3454 34.8764 49.1322 34.8082C49.4634 34.7799 49.7966 34.8275 50.1065 34.9475C50.4165 35.0674 50.6949 35.2565 50.9208 35.5003Z" fill="white"/>
<path d="M49.339 36.1113C49.6831 36.1243 50.0191 36.2191 50.3192 36.3879C50.6193 36.5568 50.8748 36.7947 51.0646 37.082C51.3631 37.5032 51.5824 37.9752 51.7117 38.475C50.8843 38.5959 50.0451 38.614 49.2132 38.5289C48.9607 38.518 48.7132 38.4539 48.4871 38.3409C48.261 38.2278 48.0613 38.0683 47.901 37.8729C47.8167 37.5269 47.6993 37.1898 47.5505 36.8663C48.0395 36.4124 48.6727 36.1451 49.339 36.1113Z" fill="white"/>
<path d="M17.955 10.704C17.6045 11.5218 17.1731 12.3846 16.7597 13.2025L16.6699 13.3732C15.6812 15.3415 15.115 16.5548 15.0881 18.3612L14.5578 18.8286C14.1354 19.1971 13.713 19.5745 13.2996 19.97C12.713 18.3248 12.5826 16.5515 12.9221 14.8382C13.0164 14.3084 13.1578 13.788 13.3445 13.2834C13.492 12.9177 13.6601 12.5606 13.8478 12.2139C15.3119 9.79989 17.1572 7.63891 19.3121 5.81482C19.0187 7.48453 18.5642 9.1219 17.955 10.704Z" fill="#990000"/>
<path d="M33.3775 34.7632L33.8359 34.5295C34.7139 33.9433 35.746 33.6305 36.8017 33.6308C37.3504 33.774 37.864 34.0282 38.3107 34.3775C38.7574 34.7268 39.1278 35.164 39.3991 35.6619C38.3368 36.4311 37.0275 36.7801 35.7232 36.6416C34.9358 36.5322 34.1693 36.305 33.4494 35.9675C32.9641 35.7788 32.4788 35.59 31.9575 35.4373C32.4339 35.2485 32.9281 34.9969 33.3775 34.7632Z" fill="white"/>
<path d="M45.3395 51.7584C45.1101 51.8076 44.8729 51.8074 44.6435 51.7578C44.4142 51.7082 44.198 51.6104 44.0094 51.4708C43.7741 51.3179 43.5163 51.2027 43.2455 51.1293C42.7854 51.0475 42.3121 51.0846 41.8704 51.2372L41.3042 51.3989C40.6778 51.5837 40.0418 51.7337 39.3989 51.8483C39.6938 51.7122 39.9791 51.5561 40.2527 51.381L40.8908 50.9316C41.1802 50.7244 41.4802 50.5324 41.7895 50.3564C42.2527 50.0667 42.8041 49.9519 43.3443 50.0328C43.5647 50.0995 43.7784 50.1868 43.9824 50.2935C44.2485 50.445 44.5366 50.5542 44.8362 50.617C45.108 50.6481 45.3824 50.6481 45.6541 50.617H46.0406C46.2444 50.6027 46.4478 50.6497 46.6247 50.7518C46.7748 50.8664 46.9001 51.0101 46.9932 51.1742C47.2817 51.6358 47.5055 52.1348 47.6583 52.6572C47.2521 52.1684 46.6787 51.8481 46.0495 51.7584C45.8133 51.7382 45.5758 51.7382 45.3395 51.7584Z" fill="white"/>
<path d="M51.6848 29.0743C52.4222 28.0695 52.8444 26.8683 52.8981 25.6231C53.5182 27.2408 53.707 29.3259 52.5925 30.8358C52.3948 30.4404 52.1971 30.0629 51.9994 29.6854C51.8915 29.4787 51.7927 29.272 51.6848 29.0743Z" fill="#990000"/>
<path d="M49.9323 23.2145C50.2125 23.5246 50.4567 23.8652 50.6603 24.2301C51.3114 25.4974 51.5443 26.9385 51.3253 28.3463C51.1602 28.0099 51.0132 27.6649 50.885 27.3128C50.4426 25.9788 50.1237 24.6069 49.9323 23.2145Z" fill="#990000"/>
<path d="M37.269 14.9909C37.3821 15.3012 37.3997 15.6382 37.3196 15.9585C37.2395 16.2789 37.0654 16.5679 36.8196 16.7884C36.1342 17.2723 35.3012 17.5012 34.4649 17.4355H34.1413C33.8358 17.4355 33.5122 17.4355 33.1887 17.5074C33.9729 16.7467 34.672 15.9029 35.2737 14.9909C35.3996 14.8022 35.4984 14.6135 35.6153 14.4247C35.7457 14.3371 35.894 14.2795 36.0495 14.2562C36.2049 14.2329 36.3636 14.2444 36.514 14.2899C36.6866 14.3381 36.8452 14.4268 36.9766 14.5488C37.1079 14.6707 37.2082 14.8223 37.269 14.9909Z" fill="white"/>
<path d="M25.2168 20.4823C24.9089 20.6359 24.5868 20.7593 24.2551 20.8508L23.8687 20.9856H23.7609C23.5283 21.069 23.3028 21.1712 23.0868 21.2912C22.5386 21.6237 22.0173 21.9832 21.505 22.3247L20.6063 22.9718C19.8023 23.5239 18.8777 23.8752 17.91 23.9964H17.6494C17.7459 23.5894 17.8031 23.1741 17.8202 22.7561C20.0428 21.9796 22.0272 20.6422 23.5811 18.8736C24.2408 18.1779 24.94 17.5207 25.6752 16.9053C26.3238 16.3775 27.022 15.914 27.7602 15.5213C28.1287 15.2966 28.5152 15.0719 28.8837 14.8292L27.4007 17.6872C26.9811 18.8233 26.2177 19.8004 25.2168 20.4823Z" fill="#990000"/>
<path d="M12.8682 20.3834C12.7424 20.5092 12.6166 20.6261 12.4998 20.7519C12.3829 20.8777 12.356 20.9406 12.2841 21.0305C12.0923 21.1159 11.8811 21.1483 11.6725 21.1246C11.464 21.1009 11.2655 21.0219 11.0977 20.8957C10.8575 20.7256 10.6702 20.4911 10.5573 20.2192C10.4444 19.9473 10.4106 19.6491 10.4596 19.3589C10.5631 19.0219 10.7714 18.7268 11.0544 18.5167C11.3373 18.3065 11.68 18.1922 12.0324 18.1905C12.1223 18.1905 12.2122 18.1905 12.302 18.1905C12.4069 18.9406 12.5969 19.6763 12.8682 20.3834Z" fill="#990000"/>
<path d="M36.523 12.7621L36.7387 12.3577C39.8393 10.4793 43.3355 9.8502 46.9664 9.46375C46.3051 9.90011 45.6717 10.3774 45.07 10.8927C44.4425 11.4397 43.7723 11.9356 43.0658 12.3757C42.1625 12.9138 41.1411 13.2224 40.091 13.2744C39.6983 13.2805 39.3063 13.2413 38.9226 13.1576C38.5379 13.0781 38.147 13.033 37.7543 13.0228C37.2693 13.012 36.7852 13.0695 36.3163 13.1935C36.3882 13.0407 36.4601 12.8969 36.523 12.7621Z" fill="#990000"/>
<path d="M27.2301 19.1791C27.4907 18.7477 27.7064 18.2803 27.9042 17.9298L28.2277 17.2737C29.4654 17.0959 30.6111 16.5183 31.4902 15.629C32.1097 14.9852 32.689 14.3039 33.2247 13.5889C33.6381 13.0586 34.0246 12.5643 34.42 12.115C35.2617 11.1909 36.3126 10.482 37.4847 10.0479C36.9198 10.8221 36.4322 11.65 36.0288 12.5194C35.6683 13.2738 35.2631 14.0061 34.8155 14.7123C33.9688 16.0919 32.8308 17.2698 31.4812 18.1635C30.2003 18.9262 28.7174 19.2805 27.2301 19.1791Z" fill="#990000"/>
<path d="M20.5255 30.3326H20.3277C19.0484 30.5612 17.7957 30.9195 16.589 31.4021C15.6035 31.8587 14.6695 32.4191 13.8029 33.0738C13.5063 33.2895 13.2097 33.5052 12.9042 33.7209L12.6705 33.8737C11.7298 34.6364 10.5986 35.1274 9.39905 35.2937C9.29411 35.0784 9.14389 34.8883 8.95868 34.7365C9.525 33.5111 10.3143 32.4017 11.2864 31.465C12.2599 30.4168 13.5579 29.7267 14.9713 29.5058C16.2239 29.4185 17.482 29.5617 18.683 29.9282C19.2582 30.1079 19.8874 30.2697 20.5255 30.3326Z" fill="#990000"/>
<path d="M15.951 28.8586C15.7412 28.8586 15.5362 28.7964 15.3618 28.6799C15.1874 28.5633 15.0514 28.3977 14.9712 28.2039C14.8909 28.0101 14.8699 27.7969 14.9108 27.5912C14.9517 27.3854 15.0527 27.1965 15.2011 27.0482C15.3494 26.8998 15.5383 26.7988 15.7441 26.7579C15.9498 26.717 16.163 26.738 16.3568 26.8183C16.5506 26.8985 16.7162 27.0345 16.8327 27.2089C16.9493 27.3833 17.0115 27.5883 17.0115 27.7981C17.0115 28.0793 16.8997 28.3491 16.7009 28.548C16.502 28.7468 16.2322 28.8586 15.951 28.8586Z" fill="#990000"/>
<path d="M10.0551 20.4824C10.2084 20.8471 10.4645 21.1593 10.7921 21.3811C11.0792 21.5771 11.4154 21.6892 11.7627 21.7046C11.3727 22.2496 11.0299 22.8269 10.7381 23.4302C10.3642 23.3515 10.0278 23.149 9.78314 22.8555C9.53852 22.5619 9.40002 22.1945 9.39002 21.8125C9.38932 21.5542 9.44911 21.2994 9.5646 21.0684C9.68009 20.8375 9.84808 20.6367 10.0551 20.4824Z" fill="#990000"/>
<path d="M28.9107 22.4415C29.7025 22.7852 30.5126 23.0852 31.3373 23.3403C29.5632 23.7359 27.7597 23.9854 25.9448 24.0862C23.607 24.1688 21.2911 24.5678 19.0605 25.2726C18.9865 24.9627 18.8278 24.6795 18.6021 24.4547C19.4077 24.2516 20.1733 23.9143 20.8669 23.4571C21.1905 23.2504 21.505 23.0257 21.8196 22.81C22.3229 22.4685 22.8352 22.109 23.3654 21.7944C23.6503 21.6384 23.9518 21.5148 24.2642 21.426C24.7969 21.2781 25.3563 21.2535 25.8999 21.3541C26.9337 21.6266 27.9413 21.9905 28.9107 22.4415Z" fill="#990000"/>
<path d="M5.78612 35.5812C5.36104 35.5863 4.95351 35.7514 4.6448 36.0437C4.33609 36.3359 4.14889 36.7338 4.12054 37.158C4.09218 37.5821 4.22476 38.0014 4.49182 38.3321C4.75889 38.6629 5.14082 38.8808 5.56144 38.9424C5.6309 39.2284 5.77343 39.4913 5.9751 39.7056C6.17676 39.9199 6.43063 40.0781 6.71182 40.1647C6.74755 40.5083 6.74755 40.8547 6.71182 41.1983C6.21169 40.5541 5.65852 39.9528 5.05813 39.4008C5.01068 39.3636 4.95214 39.3434 4.89186 39.3434C4.83159 39.3434 4.77305 39.3636 4.7256 39.4008C4.67386 39.4349 4.63453 39.4849 4.61348 39.5432C4.59242 39.6015 4.59076 39.665 4.60876 39.7244C4.75102 40.2465 4.70979 40.8017 4.49193 41.2971C4.35654 41.6102 4.19415 41.911 4.0066 42.1959C3.88977 42.4026 3.76395 42.6093 3.6561 42.825C3.64359 42.8663 3.62545 42.9056 3.60217 42.9418C3.32488 42.1599 3.18502 41.3359 3.18876 40.5063C3.18876 39.8232 3.2966 38.8885 3.38647 38.0797L3.51231 36.9472V36.6507C3.80886 34.8592 3.59069 33.0204 2.88318 31.3481C4.23123 32.4913 5.38202 33.8486 6.28941 35.3655C6.23723 35.4712 6.19799 35.5828 6.17257 35.698C6.0492 35.6429 5.91936 35.6036 5.78612 35.5812Z" fill="#990000"/>
<path d="M0.852023 97.5763C1.63912 98.7055 2.5868 99.7137 3.66509 100.569L10.4326 106.456C11.3217 107.304 12.3226 108.027 13.4074 108.604C14.8359 109.189 16.3581 109.512 17.9011 109.557C21.0377 109.808 24.1923 109.961 27.3829 109.997H28.2816C29.4436 110.018 30.605 109.931 31.7507 109.736C33.8749 109.244 35.922 108.464 37.8352 107.418L38.3565 107.166C41.0833 105.807 43.8929 104.622 46.7687 103.616C47.7124 103.301 48.674 103.005 49.6357 102.717C53.653 101.468 57.8052 100.174 60.816 97.1989C63.8268 94.224 65.13 90.2516 66.2084 86.2882C66.3756 85.8191 66.428 85.3167 66.3612 84.8232C66.1186 83.6638 64.8783 83.1336 63.8178 82.7921L63.2786 82.6213C58.668 81.381 54.7135 82.4685 51.2174 83.4571C50.6782 83.6099 50.1389 83.7627 49.6087 83.8975C48.3505 84.23 47.0383 84.5536 45.7351 84.8771C43.5422 85.4074 41.2414 85.9736 39.4439 86.5398C38.137 86.8949 36.9683 87.6375 36.0917 88.6698C36.0689 88.7149 36.0342 88.7529 35.9915 88.7798C35.9487 88.8067 35.8995 88.8215 35.849 88.8226C35.8079 88.8346 35.7642 88.8346 35.7232 88.8226C35.6582 88.7898 35.6087 88.7328 35.5852 88.664C35.5617 88.5951 35.566 88.5198 35.5973 88.4541C36.5381 87.2797 37.8289 86.436 39.2822 86.0455C41.1336 85.4703 43.4164 84.9131 45.6183 84.3738C46.9215 84.0503 48.2336 83.7267 49.4829 83.4032L51.0916 82.9538C53.9231 82.0143 56.8891 81.5438 59.8723 81.5608L53.8328 79.6375C52.4083 79.2822 51.0677 78.65 49.8873 77.7771C48.2528 76.3415 47.0591 74.4716 46.4451 72.3846C45.7788 69.9473 45.6228 67.3986 45.9868 64.8981C45.3666 65.4733 44.7645 66.0395 44.3421 66.4529C41.8346 68.9245 37.3409 74.4877 36.3523 79.6554C36.3434 79.7197 36.3108 79.7784 36.261 79.82C36.2111 79.8615 36.1475 79.883 36.0827 79.8801H36.0287C35.9577 79.865 35.8954 79.8226 35.8551 79.7622C35.8148 79.7018 35.7997 79.628 35.813 79.5566C36.8286 74.254 41.4032 68.574 43.9466 66.0755C44.4409 65.5902 45.1689 64.9071 45.8969 64.278L46.2924 63.9275C46.8127 63.4838 47.2883 62.9901 47.7124 62.4536C48.9436 60.5932 49.1414 58.3463 49.3391 56.1624C49.408 54.779 49.6157 53.406 49.9592 52.0641C50.2574 51.142 50.6177 50.2412 51.0377 49.3679C51.804 47.937 52.2862 46.3714 52.4577 44.7573C52.4723 43.8674 52.3909 42.9786 52.2151 42.1061C52.0273 41.1748 51.9578 40.2237 52.0083 39.275C52.0083 39.275 52.0083 39.1852 52.0083 39.1402C51.4152 39.247 50.8135 39.2982 50.2109 39.293C49.8385 39.2913 49.4666 39.2703 49.0964 39.2301C48.7862 39.1956 48.4831 39.1137 48.1977 38.9874C48.1168 38.9425 48.0449 38.8796 47.973 38.8347C47.973 38.9874 47.973 39.1312 47.973 39.284C47.9705 39.6395 48.0006 39.9945 48.0629 40.3445C48.2583 40.9491 48.5629 41.5126 48.9616 42.0072L49.357 42.6094C49.5382 42.8398 49.664 43.1087 49.7247 43.3954C49.7855 43.6821 49.7796 43.979 49.7076 44.2631C49.6305 44.4683 49.5105 44.6547 49.3555 44.8097C49.2004 44.9647 49.0141 45.0848 48.8088 45.1618C48.9277 45.4496 48.9277 45.7727 48.8088 46.0605C48.6594 46.3963 48.4078 46.6762 48.0898 46.8604C47.9101 46.9593 47.7303 47.0402 47.5416 47.121C47.5061 47.1291 47.4692 47.1291 47.4338 47.121C47.3795 47.1212 47.3265 47.105 47.2816 47.0745C47.2367 47.0441 47.202 47.0008 47.1821 46.9503C47.166 46.9175 47.157 46.8817 47.1556 46.8453C47.1542 46.8088 47.1605 46.7724 47.174 46.7385C47.1876 46.7046 47.2081 46.674 47.2343 46.6485C47.2604 46.6231 47.2917 46.6034 47.3259 46.5908C47.489 46.522 47.648 46.444 47.8022 46.3571C48.0161 46.2335 48.1883 46.0489 48.2965 45.8269C48.3321 45.7493 48.3505 45.665 48.3505 45.5797C48.3505 45.4944 48.3321 45.4101 48.2965 45.3325H48.1168H48.0179C47.5365 45.3824 47.0864 45.5948 46.7417 45.9347C46.7211 45.965 46.6946 45.9908 46.6637 46.0105C46.6328 46.0302 46.5982 46.0434 46.562 46.0493C46.5259 46.0552 46.4889 46.0536 46.4533 46.0448C46.4178 46.0359 46.3844 46.0198 46.3553 45.9976C46.296 45.9544 46.2563 45.8896 46.2445 45.8173C46.2327 45.745 46.2499 45.6709 46.2924 45.6112C46.7086 45.1582 47.2725 44.8682 47.8831 44.7933H47.982C48.665 44.6225 49.0515 44.3799 49.1683 44.0294C49.2095 43.8248 49.2043 43.6137 49.153 43.4114C49.1016 43.2092 49.0055 43.0211 48.8717 42.861C48.7459 42.6633 48.6201 42.4656 48.4853 42.2768C48.056 41.7239 47.733 41.0961 47.5326 40.4254C47.4555 40.0379 47.4224 39.643 47.4338 39.2481C47.4358 38.9476 47.4178 38.6474 47.3798 38.3493C47.2407 37.703 47.0107 37.0797 46.6968 36.4979C46.1785 35.6517 45.9338 34.6663 45.9958 33.6759C46.0069 33.6034 46.0461 33.5382 46.105 33.4944C46.1639 33.4507 46.2377 33.4319 46.3103 33.4422C46.3818 33.4554 46.4457 33.4952 46.489 33.5535C46.5324 33.6119 46.552 33.6845 46.544 33.7568C46.4869 34.2874 46.5706 34.8236 46.7867 35.3116C47.4117 34.7354 48.2128 34.3871 49.0605 34.323C49.4686 34.2994 49.877 34.3635 50.2583 34.5107C50.6396 34.658 50.985 34.8851 51.2714 35.1768C51.8459 35.8566 52.2057 36.6918 52.3049 37.5764L52.3858 37.2708C52.5296 36.7496 52.6824 36.2193 52.7813 35.6711C52.7813 35.4554 52.8262 35.2307 52.8442 35.015C52.8442 34.8982 52.8442 34.7903 52.8442 34.6825C52.671 34.224 52.3892 33.8143 52.0229 33.4887C51.6566 33.1631 51.2167 32.9313 50.7411 32.8131C50.3314 32.7387 49.917 32.6936 49.5008 32.6783H48.7729C48.2503 32.6754 47.7304 32.6029 47.227 32.4626C46.9103 32.3569 46.6381 32.1481 46.4541 31.8694C46.4344 31.8382 46.421 31.8034 46.4149 31.767C46.4087 31.7306 46.4099 31.6933 46.4182 31.6574C46.4266 31.6214 46.442 31.5875 46.4636 31.5575C46.4852 31.5276 46.5125 31.5023 46.544 31.483C46.5745 31.4634 46.6086 31.4503 46.6443 31.4442C46.68 31.4382 46.7166 31.4394 46.7518 31.4477C46.7871 31.4561 46.8202 31.4715 46.8494 31.493C46.8785 31.5145 46.903 31.5417 46.9215 31.5728C47.0413 31.7466 47.215 31.8761 47.4158 31.9413C47.8675 32.0603 48.3327 32.1207 48.7998 32.1211H49.2043H49.5368C49.9801 32.1374 50.4216 32.1854 50.858 32.2649C51.6328 32.4435 52.322 32.8849 52.8082 33.5141C52.8082 33.3433 52.8082 33.1816 52.7453 33.0198C52.4239 31.9896 51.9899 30.998 51.4511 30.0629C51.0119 29.28 50.6304 28.4659 50.3097 27.6274C49.7799 26.0153 49.4185 24.3528 49.2312 22.6663L48.6291 22.1181C48.1805 21.7419 47.7571 21.3366 47.3618 20.9048C46.8537 20.3065 46.4108 19.6557 46.0407 18.9635C45.9753 19.3079 45.8403 19.6354 45.6441 19.9259C45.4478 20.2164 45.1944 20.4638 44.8993 20.6531C44.8352 20.6885 44.7602 20.6989 44.6888 20.6823C44.6175 20.6657 44.5548 20.6233 44.5128 20.5633C44.4762 20.4986 44.4659 20.4222 44.4844 20.3501C44.5028 20.278 44.5484 20.2159 44.6117 20.1768C44.9418 19.9635 45.2026 19.6587 45.3622 19.2996C45.5218 18.9404 45.5733 18.5426 45.5104 18.1546C45.3276 17.3915 44.8822 16.7171 44.2522 16.2493C44.5381 16.876 44.6379 17.5717 44.5398 18.2535C44.4505 18.7532 44.2293 19.22 43.899 19.6055C43.5688 19.9911 43.1415 20.2814 42.6614 20.4464H42.5985C42.5306 20.4468 42.4649 20.4224 42.4137 20.3778C42.3625 20.3332 42.3294 20.2714 42.3205 20.204C42.3117 20.1367 42.3278 20.0685 42.3657 20.0121C42.4037 19.9558 42.4609 19.9153 42.5266 19.8982C42.9066 19.7527 43.2418 19.5102 43.4989 19.1948C43.7559 18.8795 43.9258 18.5022 43.9916 18.1007C44.0953 17.2985 43.8932 16.4867 43.4254 15.8269C42.6655 14.8247 41.5546 14.1472 40.3157 13.9305C40.5763 14.1339 40.8037 14.3764 40.9898 14.6495C41.0282 14.6404 41.0682 14.6404 41.1066 14.6495C41.6174 14.9005 42.0527 15.2821 42.3684 15.7556C42.6841 16.2292 42.8689 16.7778 42.9041 17.3458C42.9069 17.6951 42.827 18.0401 42.6708 18.3525C42.5145 18.665 42.2865 18.9359 42.0054 19.1432C41.9552 19.1562 41.9027 19.1562 41.8526 19.1432C41.8062 19.1434 41.7606 19.1319 41.7198 19.1099C41.679 19.088 41.6443 19.0562 41.6189 19.0174C41.581 18.9562 41.5683 18.8828 41.5834 18.8124C41.5985 18.742 41.6402 18.6802 41.6998 18.6399C41.9064 18.486 42.0752 18.287 42.1936 18.0581C42.3119 17.8292 42.3766 17.5764 42.3828 17.3188C42.3344 16.6536 42.0319 16.0325 41.538 15.5842C41.73 16.2459 41.6757 16.9547 41.3852 17.5794C41.177 17.9743 40.882 18.3169 40.5224 18.5815C40.1629 18.8461 39.7481 19.0259 39.3091 19.1073H39.2462C39.1836 19.1069 39.1229 19.0854 39.074 19.0462C39.025 19.0071 38.9907 18.9526 38.9766 18.8916C38.9672 18.8568 38.9649 18.8204 38.9698 18.7847C38.9747 18.7489 38.9867 18.7145 39.0052 18.6835C39.0236 18.6525 39.0481 18.6255 39.0771 18.6041C39.1062 18.5828 39.1392 18.5674 39.1743 18.5591C39.5309 18.4954 39.8689 18.3536 40.1641 18.1438C40.4594 17.934 40.7045 17.6615 40.8819 17.3458C41.0426 17.0051 41.1168 16.63 41.098 16.2538C41.0792 15.8775 40.9679 15.5118 40.7741 15.1888C40.3469 14.4866 39.6692 13.9726 38.8778 13.7508C38.9502 13.7967 39.0193 13.8478 39.0844 13.9036C39.3945 14.1953 39.636 14.5521 39.7914 14.9485C39.9468 15.3448 40.0123 15.7707 39.9832 16.1954C39.8843 17.3637 38.7699 18.2984 37.1432 18.577H37.0982C37.0328 18.5783 36.969 18.5564 36.9181 18.5154C36.8671 18.4743 36.8323 18.4166 36.8196 18.3523C36.8091 18.2787 36.8276 18.2038 36.8712 18.1434C36.9148 18.0831 36.9801 18.042 37.0533 18.0288C38.4194 17.7951 39.3631 17.0582 39.435 16.1504C39.4477 15.8147 39.3876 15.4803 39.2589 15.17C39.1301 14.8597 38.9357 14.581 38.689 14.353C38.4712 14.1344 38.2071 13.9677 37.9162 13.865C37.6253 13.7623 37.315 13.7264 37.0084 13.7598C36.9639 13.769 36.918 13.769 36.8736 13.7598C36.7165 13.7795 36.5625 13.8188 36.4152 13.8766H36.6758C36.922 13.9462 37.1492 14.0704 37.3406 14.24C37.532 14.4096 37.6827 14.6203 37.7813 14.8562C37.947 15.2758 37.9798 15.7361 37.8753 16.175C37.7708 16.6138 37.5341 17.0099 37.1971 17.3098C36.4237 17.8919 35.4665 18.1758 34.5009 18.1097H34.1683C33.4334 18.0609 32.6993 18.2164 32.0473 18.5591H31.9754C31.9035 18.5591 31.8496 18.6579 31.7687 18.7029C30.5529 19.4356 29.1619 19.8268 27.7423 19.8353C27.4419 19.8364 27.1417 19.8183 26.8436 19.7814C26.5406 20.1967 26.1699 20.5582 25.7471 20.8508H26.0168C27.0788 21.1246 28.1136 21.4946 29.1084 21.9563C30.1917 22.4718 31.332 22.8579 32.5057 23.1067C32.5599 23.1173 32.6099 23.1432 32.6497 23.1815C32.6896 23.2197 32.7176 23.2687 32.7303 23.3224C32.7407 23.3774 32.7342 23.4343 32.7118 23.4856C32.6894 23.5369 32.652 23.5802 32.6045 23.61C30.9727 24.7243 29.2638 25.7214 27.4907 26.5938C26.6601 26.9637 25.8004 27.2643 24.9203 27.4925C25.5494 29.4518 24.5069 31.6447 23.7879 32.8041C23.7629 32.844 23.7286 32.8771 23.6878 32.9006C23.6471 32.9241 23.6012 32.9373 23.5542 32.9389C23.5053 32.938 23.4574 32.9243 23.4155 32.8991C23.3736 32.8738 23.339 32.838 23.3153 32.7952C23.2917 32.7524 23.2797 32.7041 23.2806 32.6552C23.2815 32.6062 23.2953 32.5584 23.3205 32.5165C23.3205 32.5165 23.3205 32.4716 23.3205 32.4446C23.5718 30.8668 23.1943 29.2534 22.269 27.9509C22.0803 27.9509 21.8916 27.9509 21.7118 27.9509H21.604C20.3368 27.9974 19.0768 27.7417 17.9281 27.2049C17.7821 27.25 17.6312 27.2772 17.4787 27.2858C17.5259 27.4341 17.5501 27.5886 17.5506 27.7442C17.5504 27.9843 17.4962 28.2212 17.3919 28.4375C17.2877 28.6537 17.1361 28.8437 16.9485 28.9934C17.5686 29.0923 18.1797 29.2271 18.746 29.3709C19.7962 29.669 20.8808 29.8291 21.9724 29.8472C22.0276 29.8417 22.0831 29.8546 22.1302 29.8838C22.1774 29.9131 22.2135 29.9571 22.2331 30.009C22.2559 30.058 22.263 30.1128 22.2533 30.1659C22.2437 30.219 22.2177 30.2678 22.1791 30.3056L19.42 33.3074C18.6353 34.2188 17.7589 35.047 16.8047 35.7789C16.0894 36.2685 15.2962 36.6331 14.459 36.8574C15.2702 37.135 15.9992 37.6108 16.58 38.2415C17.0566 38.7704 17.4368 39.3788 17.7034 40.039C17.7753 39.6435 17.8652 39.2571 17.9551 38.8706C18.3007 37.8189 18.3779 36.6974 18.1797 35.6082C18.1688 35.5734 18.1651 35.5367 18.1687 35.5004C18.1724 35.4641 18.1834 35.4289 18.201 35.397C18.2186 35.3651 18.2426 35.3371 18.2714 35.3147C18.3002 35.2923 18.3332 35.2759 18.3685 35.2666C18.4039 35.2571 18.4408 35.2547 18.4772 35.2595C18.5135 35.2643 18.5486 35.2763 18.5803 35.2946C18.612 35.313 18.6398 35.3374 18.6621 35.3666C18.6843 35.3957 18.7006 35.4289 18.71 35.4644C18.9421 36.6407 18.8679 37.8571 18.4943 38.9964L18.4404 39.2211C19.128 38.5559 19.6293 37.722 19.8943 36.8027C20.1592 35.8833 20.1785 34.9106 19.9503 33.9815C19.9439 33.9453 19.945 33.9083 19.9534 33.8726C19.9618 33.8369 19.9775 33.8033 19.9993 33.7738C20.0212 33.7444 20.0489 33.7197 20.0806 33.7013C20.1124 33.683 20.1475 33.6712 20.1839 33.6669C20.2552 33.6564 20.3279 33.6739 20.3865 33.7158C20.4452 33.7577 20.4853 33.8207 20.4985 33.8916C20.743 35.0173 20.6778 36.1882 20.3098 37.2798C21.6399 36.1294 21.9814 33.9275 21.559 32.157C21.5428 32.0855 21.5554 32.0105 21.5941 31.9483C21.6328 31.8861 21.6945 31.8416 21.7657 31.8245C21.8012 31.8152 21.8381 31.8132 21.8744 31.8187C21.9106 31.8242 21.9453 31.8369 21.9764 31.8563C22.0076 31.8756 22.0344 31.9011 22.0554 31.9312C22.0763 31.9613 22.0909 31.9953 22.0983 32.0312C22.6465 34.3499 22.0353 37.2079 19.8424 38.2325C19.3882 38.981 18.8417 39.6695 18.2157 40.2816C18.1408 40.7238 18.1107 41.1725 18.1258 41.6208C18.1258 41.6208 18.1258 41.8724 18.1887 41.9982C18.1937 42.0707 18.1702 42.1423 18.1232 42.1977C18.0762 42.2531 18.0094 42.288 17.9371 42.2948C17.9005 42.2985 17.8635 42.295 17.8282 42.2843C17.793 42.2736 17.7603 42.2561 17.7318 42.2327C17.7034 42.2093 17.6799 42.1805 17.6627 42.148C17.6455 42.1154 17.6349 42.0798 17.6315 42.0432C17.5406 40.7545 17.0326 39.5305 16.1845 38.556C15.7628 38.0811 15.2452 37.701 14.6658 37.4407C14.0864 37.1805 13.4584 37.046 12.8232 37.0462C12.1991 37.0623 11.59 37.2406 11.0558 37.5637C10.5215 37.8868 10.0807 38.3434 9.77651 38.8886C9.46291 39.5453 9.30016 40.2639 9.30018 40.9916C9.2212 42.0826 9.35552 43.1785 9.69563 44.2181C10.0357 45.2415 10.6938 46.1295 11.574 46.7526L11.9784 46.9952C12.2489 47.1491 12.5073 47.3234 12.7514 47.5165C13.1949 47.9452 13.5572 48.4507 13.8208 49.0084L14.0186 49.3589C14.2985 49.9495 14.7796 50.421 15.3757 50.689C15.7364 50.7716 16.1139 50.7409 16.4565 50.6009C16.7991 50.461 17.0902 50.2187 17.29 49.9071C17.7079 49.2278 17.8555 48.4163 17.7034 47.6333C17.697 47.5972 17.6981 47.5602 17.7066 47.5245C17.715 47.4888 17.7306 47.4552 17.7525 47.4257C17.7744 47.3963 17.802 47.3716 17.8338 47.3532C17.8655 47.3348 17.9007 47.3231 17.9371 47.3188C18.0097 47.3085 18.0835 47.3272 18.1424 47.371C18.2013 47.4147 18.2405 47.4799 18.2516 47.5524C18.4116 48.4325 18.2522 49.3408 17.8023 50.1138C17.886 52.3039 18.5733 54.4283 19.7885 56.2523C20.3882 57.201 21.2231 57.9785 22.212 58.5092C23.201 59.0399 24.3105 59.3058 25.4326 59.281C25.506 59.2758 25.5787 59.2991 25.6356 59.3459C25.6924 59.3927 25.7291 59.4596 25.7381 59.5326C25.7406 59.5693 25.7358 59.606 25.724 59.6407C25.7122 59.6754 25.6937 59.7075 25.6694 59.7351C25.6452 59.7626 25.6158 59.7851 25.5829 59.8013C25.5499 59.8175 25.5141 59.8269 25.4775 59.8292H25.0371C23.8934 59.7764 22.7788 59.4511 21.7862 58.8805C20.7935 58.3099 19.9515 57.5105 19.3301 56.5488C18.1662 54.7979 17.4729 52.7767 17.3169 50.6801C16.8912 51.0549 16.3472 51.268 15.7801 51.2822C15.5848 51.2837 15.3905 51.2533 15.2049 51.1923C14.4713 50.8899 13.8757 50.3264 13.5333 49.6106C13.4703 49.4937 13.4074 49.3769 13.3355 49.26C13.1038 48.7607 12.7841 48.3071 12.3919 47.9209C12.1749 47.7457 11.9434 47.5894 11.6998 47.4536L11.2684 47.1929C10.2878 46.5069 9.5537 45.5239 9.17436 44.3889C8.80838 43.2804 8.66185 42.1112 8.74297 40.9467C8.75285 40.141 8.93681 39.3469 9.28222 38.6189C9.55599 38.1018 9.9431 37.6533 10.4146 37.3068C9.94756 37.3104 9.48306 37.2376 9.03955 37.0911C8.90186 37.2381 8.73706 37.3571 8.55422 37.4416C8.7394 37.6912 8.85218 37.987 8.88012 38.2965C8.90806 38.606 8.85008 38.9172 8.71259 39.1959C8.5751 39.4746 8.36341 39.71 8.10079 39.8762C7.83818 40.0424 7.53482 40.1329 7.22409 40.1378C7.32917 40.7022 7.32917 41.2811 7.22409 41.8454C7.85809 42.802 8.27809 43.8842 8.45538 45.018C8.56779 46.0275 8.56779 47.0463 8.45538 48.0557C8.45538 48.2894 8.41043 48.5141 8.39246 48.7478C8.30356 49.6482 8.34899 50.5569 8.52726 51.444C8.68005 51.0395 8.85981 50.6531 9.03057 50.2756C9.20133 49.8981 9.37208 49.5476 9.51588 49.1791C9.80059 48.5102 9.87581 47.7707 9.73159 47.0581C9.73159 47.0581 9.73159 46.9683 9.73159 46.9233C9.70619 46.8589 9.70571 46.7872 9.73027 46.7224C9.75483 46.6576 9.80264 46.6043 9.86439 46.5729C9.92614 46.5415 9.99739 46.5342 10.0642 46.5524C10.1311 46.5707 10.1887 46.6132 10.2259 46.6717C11.1085 47.8516 11.9074 49.0919 12.6165 50.3835C14.6207 51.5698 16.2115 53.6998 17.308 56.6747C17.3206 56.7088 17.3262 56.7452 17.3244 56.7816C17.3226 56.818 17.3135 56.8537 17.2975 56.8864C17.2816 56.9192 17.2591 56.9484 17.2316 56.9722C17.204 56.9961 17.1719 57.0141 17.1372 57.0252H17.0473C16.9905 57.0265 16.9347 57.0098 16.8878 56.9776C16.841 56.9453 16.8056 56.899 16.7867 56.8454C16.1005 54.6778 14.8059 52.753 13.0569 51.3002C13.5832 52.4704 13.8588 53.7379 13.8658 55.021C15.9329 57.7801 16.1666 60.4134 16.2475 63.8107C16.3014 65.9946 15.9329 74.4068 15.4655 77.6962C15.442 78.7483 15.1312 79.7739 14.5668 80.662C13.9173 81.3377 13.1251 81.8597 12.248 82.1899L10.4955 83.0078C12.2625 83.4363 13.9685 84.0855 15.5734 84.94C16.0587 85.1737 16.4721 85.3894 16.8766 85.5512C19.4829 86.6926 19.9413 87.5823 20.2738 88.2474C20.3163 88.3372 20.3644 88.4242 20.4176 88.5081C20.4538 88.5714 20.4638 88.6464 20.4453 88.717C20.4268 88.7876 20.3814 88.8481 20.3188 88.8855C20.2718 88.899 20.2219 88.899 20.1749 88.8855C20.1276 88.8856 20.0811 88.8731 20.04 88.8494C19.999 88.8258 19.965 88.7917 19.9413 88.7507L19.7795 88.4631C19.4919 87.8879 19.0785 87.106 16.6609 86.0455L15.3397 85.4254C13.3715 84.4817 10.4056 83.0707 9.20132 83.6279L5.34573 85.4254C4.51975 85.7784 3.73842 86.2279 3.01799 86.7645C0.905951 88.4901 0.411634 91.375 0.213911 93.3882C-0.000633294 94.0895 -0.0546792 94.83 0.0557785 95.555C0.166236 96.28 0.438374 96.9708 0.852023 97.5763ZM15.852 40.9557C15.8651 41.0284 15.8488 41.1033 15.8066 41.164C15.7645 41.2246 15.7 41.2661 15.6273 41.2792C15.5536 41.2897 15.4788 41.2712 15.4184 41.2276C15.3581 41.1841 15.317 41.1188 15.3038 41.0456C15.2118 40.5767 14.9969 40.1408 14.681 39.7823C14.3652 39.4238 13.9598 39.1557 13.5063 39.0054C13.061 38.8735 12.5839 38.8988 12.155 39.0772C11.7262 39.2556 11.3719 39.5762 11.1516 39.985C10.8761 40.5427 10.7462 41.1611 10.7741 41.7825C10.7391 42.8563 11.0305 43.9155 11.61 44.8203C11.9332 45.2925 12.3646 45.6807 12.8682 45.9527C13.1019 46.0965 13.3355 46.2493 13.5872 46.438C14.4341 47.0495 15.0913 47.8874 15.4835 48.8556C15.4964 48.8892 15.5024 48.925 15.5012 48.961C15.5 48.9969 15.4916 49.0323 15.4765 49.065C15.4614 49.0976 15.44 49.1269 15.4134 49.1512C15.3868 49.1754 15.3557 49.1941 15.3218 49.2061C15.2893 49.2141 15.2554 49.2141 15.2229 49.2061C15.1671 49.2081 15.1121 49.1928 15.0654 49.1622C15.0187 49.1316 14.9827 49.0873 14.9622 49.0354C14.6124 48.1622 14.0199 47.4075 13.2546 46.8604C13.012 46.6807 12.7873 46.5369 12.5716 46.402C12.0009 46.084 11.5117 45.6379 11.1426 45.0989C10.5125 44.1073 10.199 42.9475 10.2439 41.7735C10.2155 41.0575 10.3702 40.3461 10.6932 39.7064C10.9783 39.1898 11.4313 38.786 11.9773 38.5621C12.5232 38.3382 13.1293 38.3075 13.695 38.4752C14.2428 38.6646 14.7308 38.9955 15.1096 39.4343C15.4884 39.873 15.7445 40.4041 15.852 40.9737V40.9557ZM16.0048 43.4452C16.1292 43.7142 16.3212 43.9464 16.562 44.1192L16.6609 44.2091C16.9388 44.4039 17.1692 44.6589 17.3349 44.9551C17.4343 45.1595 17.4859 45.3839 17.4859 45.6112C17.4859 45.8385 17.4343 46.0628 17.3349 46.2672C17.2507 46.4492 17.1259 46.6094 16.9701 46.7356C16.8143 46.8618 16.6317 46.9506 16.4362 46.9952C16.2597 47.0383 16.0786 47.0594 15.8969 47.0581C15.2658 47.0402 14.6651 46.7832 14.2163 46.3391C13.8441 46.0406 13.5447 45.6614 13.3407 45.2301C13.1367 44.7988 13.0335 44.3267 13.0389 43.8496C13.0397 43.4185 13.1669 42.997 13.405 42.6376C13.643 42.2781 13.9814 41.9964 14.3781 41.8275C14.4454 41.7979 14.5213 41.7944 14.591 41.8177C14.6608 41.8409 14.7194 41.8893 14.7555 41.9533C14.7866 42.0214 14.7899 42.0989 14.7647 42.1694C14.7396 42.2399 14.6879 42.2977 14.6207 42.3308C14.3164 42.4533 14.056 42.6645 13.8733 42.937C13.6906 43.2095 13.594 43.5306 13.5962 43.8586C13.5977 44.2561 13.6871 44.6484 13.8581 45.0073C14.029 45.3663 14.2771 45.6829 14.5848 45.9347C14.8002 46.1643 15.0721 46.3333 15.3734 46.4248C15.6747 46.5163 15.9947 46.527 16.3014 46.456C16.4103 46.4274 16.5114 46.3746 16.597 46.3015C16.6826 46.2283 16.7505 46.1367 16.7957 46.0336C16.8573 45.9029 16.8893 45.7602 16.8893 45.6156C16.8893 45.4711 16.8573 45.3284 16.7957 45.1977C16.6584 44.9755 16.4781 44.783 16.2654 44.6315L16.1576 44.5417C15.847 44.3064 15.5999 43.9976 15.4386 43.6429C15.3482 43.4213 15.3383 43.175 15.4105 42.9468C15.4827 42.7186 15.6326 42.5229 15.834 42.3937C16.3912 42.0791 17.0204 42.5195 17.254 42.6813C17.3094 42.7251 17.346 42.7883 17.3565 42.8581C17.3671 42.9279 17.3507 42.9991 17.3108 43.0573C17.2708 43.1155 17.2103 43.1564 17.1413 43.1717C17.0724 43.1869 17.0003 43.1755 16.9395 43.1396C16.544 42.861 16.2744 42.7801 16.0947 42.879C16.0231 42.9568 15.9783 43.0556 15.967 43.1607C15.9557 43.2659 15.9784 43.3719 16.0318 43.4632L16.0048 43.4452ZM39.6597 30.1438L39.8484 30.2157C40.4126 30.4912 41.0212 30.6646 41.6459 30.728C42.0503 30.728 42.1042 30.6471 42.275 30.4314C42.3195 30.3736 42.3849 30.3356 42.4572 30.3255C42.5295 30.3154 42.6028 30.3341 42.6614 30.3775C42.7185 30.4249 42.755 30.4925 42.7634 30.5662C42.7717 30.6399 42.7513 30.714 42.7064 30.7729C42.5942 30.9387 42.4406 31.0724 42.2609 31.1606C42.0812 31.2489 41.8816 31.2888 41.6818 31.2762C40.9748 31.232 40.2839 31.0455 39.6507 30.728L39.4619 30.6561C38.0942 30.095 36.6349 29.7904 35.157 29.7574C33.4836 29.8985 31.8833 30.5056 30.5374 31.5099C29.8184 31.9683 28.6141 32.5614 28.5602 32.5884C28.5217 32.5967 28.4819 32.5967 28.4434 32.5884C28.3911 32.5901 28.3395 32.5765 28.2948 32.5494C28.2502 32.5223 28.2143 32.4827 28.1917 32.4356C28.1604 32.3699 28.1561 32.2946 28.1796 32.2257C28.2031 32.1569 28.2526 32.1 28.3176 32.0671C28.3176 32.0671 29.5488 31.456 30.2408 31.0156C31.6739 29.9519 33.3777 29.3133 35.157 29.1732C36.704 29.2378 38.2278 29.5724 39.6597 30.1618V30.1438ZM33.2157 36.48C32.4332 36.1272 31.6086 35.8764 30.7621 35.734H30.6902C30.6562 35.7119 30.6259 35.6846 30.6003 35.6531C30.6003 35.6531 30.6003 35.6531 30.6003 35.5992C30.5954 35.5785 30.5954 35.557 30.6003 35.5363C30.6003 35.5363 30.6003 35.5363 30.6003 35.4913C30.5952 35.4646 30.5952 35.4372 30.6003 35.4105C30.6196 35.3744 30.6473 35.3435 30.6812 35.3206C31.0162 35.1362 31.3196 34.8995 31.58 34.6196C32.1256 34.0787 32.7115 33.5799 33.3325 33.1276C34.1324 32.515 35.0504 32.0743 36.0287 31.8335C36.5837 31.6992 37.1653 31.7251 37.7062 31.908C38.247 32.091 38.7249 32.4235 39.0844 32.867C39.4261 33.4155 39.6553 34.0266 39.7585 34.6645C39.8347 35.019 39.9368 35.3675 40.0641 35.707C40.0641 35.707 40.0641 35.707 40.0641 35.761C40.0732 35.7994 40.0732 35.8394 40.0641 35.8778C40.069 35.9045 40.069 35.9319 40.0641 35.9587C40.0641 35.9587 40.0641 35.9587 40.0641 36.0126C39.023 36.8912 37.6962 37.358 36.3343 37.3248H35.7771C34.8849 37.1865 34.0203 36.9074 33.2157 36.4979V36.48ZM34.0066 50.2217C36.1493 49.0444 37.9205 47.2919 39.1204 45.1618C39.1373 45.1291 39.1607 45.1003 39.1891 45.077C39.2176 45.0537 39.2505 45.0364 39.2858 45.0263C39.3212 45.0162 39.3582 45.0135 39.3947 45.0182C39.4312 45.023 39.4663 45.0351 39.4979 45.0539C39.562 45.0899 39.6094 45.1497 39.6296 45.2204C39.6498 45.2912 39.6412 45.367 39.6057 45.4314C38.3561 47.6473 36.5136 49.471 34.2852 50.698C34.2412 50.7113 34.1943 50.7113 34.1504 50.698C34.1017 50.6987 34.0536 50.6867 34.011 50.663C33.9685 50.6393 33.9328 50.6049 33.9077 50.5632C33.8818 50.5037 33.8775 50.437 33.8956 50.3746C33.9136 50.3123 33.9529 50.2582 34.0066 50.2217ZM41.1426 45.3775C41.3649 45.6062 41.6156 45.8056 41.8885 45.9707C41.9488 46.0126 41.9907 46.076 42.0058 46.1478C42.0208 46.2197 42.0078 46.2945 41.9694 46.3571C41.9435 46.3948 41.9085 46.4253 41.8677 46.4457C41.8268 46.4662 41.7814 46.4759 41.7357 46.4739C41.6814 46.4747 41.6282 46.459 41.5829 46.429C41.2522 46.2455 40.9496 46.0155 40.6842 45.746C40.4669 45.4965 40.3081 45.2015 40.2195 44.8827C40.1309 44.564 40.1146 44.2294 40.1719 43.9035C40.2368 43.5802 40.3719 43.275 40.5676 43.0094C40.7632 42.7439 41.0147 42.5245 41.3043 42.3667C41.3361 42.3497 41.3709 42.3392 41.4068 42.3359C41.4427 42.3325 41.4789 42.3364 41.5133 42.3473C41.5476 42.3582 41.5794 42.3759 41.6068 42.3993C41.6342 42.4227 41.6567 42.4513 41.6728 42.4835C41.7083 42.548 41.7169 42.6238 41.6967 42.6945C41.6765 42.7652 41.6291 42.8251 41.565 42.861C41.3465 42.9752 41.1568 43.1376 41.0103 43.3359C40.8638 43.5342 40.7643 43.7632 40.7193 44.0056C40.6742 44.248 40.6849 44.4974 40.7505 44.7351C40.816 44.9728 40.9347 45.1924 41.0976 45.3775H41.1426ZM44.5488 39.2121C44.4859 39.0054 44.414 38.8077 44.3331 38.601C44.2522 38.3943 44.1893 38.2235 44.1264 38.0258C43.9172 37.2159 43.8174 36.3816 43.8298 35.5453C43.8286 35.5091 43.8347 35.4731 43.8477 35.4393C43.8607 35.4056 43.8804 35.3748 43.9055 35.3488C43.9307 35.3228 43.9608 35.3021 43.9941 35.288C44.0274 35.2739 44.0633 35.2666 44.0994 35.2666C44.1727 35.2665 44.2432 35.2943 44.2967 35.3444C44.3501 35.3945 44.3824 35.4632 44.387 35.5363C44.3725 36.3207 44.4632 37.1036 44.6567 37.864C44.7106 38.0438 44.7825 38.2235 44.8544 38.4033C44.9263 38.583 45.0161 38.8347 45.0791 39.0593C45.2221 39.5188 45.2221 40.0109 45.0791 40.4704C45.0594 40.5242 45.024 40.571 44.9776 40.6046C44.9312 40.6382 44.8757 40.6572 44.8184 40.6591H44.7196C44.6857 40.6471 44.6545 40.6284 44.6279 40.6042C44.6013 40.5799 44.5799 40.5506 44.5648 40.5179C44.5497 40.4853 44.5413 40.4499 44.5401 40.414C44.5389 40.378 44.5449 40.3422 44.5578 40.3086C44.6714 39.9686 44.6808 39.6024 44.5847 39.2571L44.5488 39.2121ZM45.4475 44.7753C45.4818 44.7883 45.5131 44.8079 45.5398 44.833C45.5664 44.8581 45.5879 44.8882 45.6029 44.9215C45.6179 44.9549 45.6263 44.991 45.6274 45.0275C45.6285 45.0641 45.6223 45.1006 45.6093 45.1348C45.5973 45.1687 45.5786 45.1999 45.5544 45.2265C45.5301 45.2531 45.5008 45.2745 45.4681 45.2896C45.4355 45.3047 45.4001 45.3131 45.3642 45.3143C45.3282 45.3155 45.2924 45.3095 45.2588 45.2966C44.8476 45.1551 44.4044 45.1349 43.9821 45.2385C43.5597 45.3421 43.1761 45.565 42.8771 45.8808C42.852 45.9066 42.822 45.9271 42.7888 45.9411C42.7556 45.9551 42.7199 45.9624 42.6839 45.9624C42.6479 45.9624 42.6122 45.9551 42.579 45.9411C42.5458 45.9271 42.5158 45.9066 42.4907 45.8808C42.4646 45.8549 42.4439 45.8241 42.4298 45.7901C42.4156 45.7562 42.4083 45.7198 42.4083 45.6831C42.4083 45.6463 42.4156 45.6099 42.4298 45.576C42.4439 45.542 42.4646 45.5112 42.4907 45.4853C42.8643 45.097 43.3413 44.8238 43.8653 44.698C44.3893 44.5722 44.9383 44.599 45.4475 44.7753ZM47.6584 23.619C47.6339 23.6879 47.5839 23.7449 47.5188 23.7783C47.4537 23.8117 47.3782 23.819 47.3079 23.7987C46.6752 23.5686 45.9924 23.5127 45.3307 23.6369L45.0521 23.6909C44.7575 23.763 44.4564 23.8052 44.1534 23.8167H43.9017C43.6183 23.774 43.3408 23.6986 43.0749 23.592L42.8052 23.4842C42.1045 23.1444 41.3256 22.9985 40.5494 23.0618C40.477 23.0725 40.4032 23.0552 40.3431 23.0135C40.283 22.9718 40.2411 22.9087 40.2259 22.8371C40.2128 22.7644 40.2291 22.6895 40.2712 22.6288C40.3133 22.5681 40.3779 22.5267 40.4506 22.5135C41.3303 22.427 42.2168 22.5857 43.0119 22.9719L43.2726 23.0707C43.4951 23.1625 43.7272 23.2289 43.9646 23.2685C44.3033 23.292 44.6436 23.2586 44.9712 23.1696L45.2588 23.1157C46.0095 22.9703 46.7855 23.0293 47.5056 23.2864C47.567 23.3141 47.6162 23.363 47.6443 23.4241C47.6724 23.4852 47.6774 23.5544 47.6584 23.619ZM45.6902 26.2433C45.3525 26.3374 45.0063 26.3976 44.6567 26.423C43.9663 26.3915 43.29 26.217 42.6704 25.9108H42.5985C41.3961 25.3605 40.0584 25.1761 38.7519 25.3805C38.6795 25.3912 38.6057 25.374 38.5456 25.3322C38.4855 25.2905 38.4436 25.2274 38.4284 25.1558C38.4192 25.1203 38.4175 25.0832 38.4236 25.047C38.4297 25.0108 38.4434 24.9763 38.4638 24.9458C38.4842 24.9152 38.5107 24.8893 38.5418 24.8698C38.5729 24.8502 38.6077 24.8374 38.6441 24.8323C40.0567 24.6113 41.503 24.8082 42.8052 25.3985H42.8861C43.4299 25.6785 44.0277 25.8379 44.6387 25.8658C44.9433 25.8456 45.2448 25.7914 45.5374 25.704L45.9868 25.5962C46.4662 25.473 46.9659 25.45 47.4546 25.5289C47.9433 25.6078 48.4105 25.7867 48.8268 26.0546C48.8874 26.0964 48.9291 26.1605 48.9425 26.2329C48.956 26.3054 48.9402 26.3802 48.8987 26.441C48.8743 26.478 48.8408 26.5081 48.8015 26.5286C48.7622 26.549 48.7183 26.5591 48.674 26.5579C48.6194 26.5612 48.5653 26.5453 48.5212 26.5129C48.1644 26.2866 47.7644 26.1369 47.3467 26.0735C46.9289 26.0101 46.5026 26.0342 46.0946 26.1444L45.6902 26.2433ZM48.9436 51.7495C48.4825 50.4817 48.2423 49.1442 48.2336 47.7951C48.2324 47.7589 48.2385 47.7229 48.2515 47.6892C48.2645 47.6554 48.2842 47.6246 48.3093 47.5986C48.3345 47.5726 48.3647 47.5519 48.398 47.5378C48.4313 47.5237 48.4671 47.5165 48.5033 47.5165C48.5394 47.5153 48.5754 47.5214 48.6092 47.5344C48.6429 47.5474 48.6738 47.567 48.6997 47.5922C48.7257 47.6174 48.7464 47.6475 48.7605 47.6808C48.7746 47.7141 48.7819 47.7499 48.7819 47.7861C48.7939 49.071 49.0249 50.3445 49.4649 51.5518C49.4779 51.5861 49.484 51.6225 49.4829 51.6591C49.4818 51.6957 49.4735 51.7317 49.4585 51.7651C49.4435 51.7985 49.4221 51.8286 49.3954 51.8537C49.3687 51.8788 49.3374 51.8984 49.3031 51.9113H49.2043C49.1455 51.9171 49.0864 51.9047 49.035 51.8758C48.9835 51.8468 48.9422 51.8028 48.9167 51.7495H48.9436ZM47.9191 53.9065C47.3798 53.1336 46.7956 52.3697 45.9868 52.2888C45.7984 52.2713 45.6089 52.2713 45.4206 52.2888C45.123 52.3374 44.8195 52.3374 44.5218 52.2888C44.2381 52.2114 43.9682 52.0901 43.722 51.9293C43.5311 51.8082 43.3258 51.7116 43.1108 51.6417C42.739 51.5893 42.36 51.6263 42.0054 51.7495L41.4391 51.9113C40.188 52.3873 38.8345 52.5298 37.5117 52.3247C37.4492 52.3082 37.3944 52.2705 37.3567 52.218C37.319 52.1656 37.3007 52.1016 37.305 52.0372C37.3219 51.9738 37.3613 51.9187 37.4159 51.8823C37.4705 51.8459 37.5365 51.8307 37.6015 51.8394C38.4552 51.721 39.2719 51.414 39.9922 50.9407L40.6033 50.5183C40.8889 50.2946 41.1891 50.0905 41.5021 49.9071C42.0272 49.5866 42.6421 49.4447 43.2546 49.5027C43.6658 48.8581 43.9694 48.1508 44.1534 47.4086C44.1705 47.3374 44.2149 47.2757 44.2772 47.237C44.3394 47.1983 44.4144 47.1857 44.4859 47.2019C44.5208 47.2094 44.5539 47.2237 44.5833 47.244C44.6126 47.2644 44.6377 47.2904 44.6569 47.3205C44.6761 47.3506 44.6892 47.3842 44.6953 47.4194C44.7014 47.4546 44.7005 47.4906 44.6926 47.5255C44.5242 48.2697 44.2455 48.9846 43.8658 49.6465L44.2522 49.8262C44.4717 49.9494 44.7078 50.0402 44.9532 50.0959C45.1831 50.123 45.4154 50.123 45.6453 50.0959C45.8129 50.0868 45.9809 50.0868 46.1486 50.0959C46.0316 49.7883 45.9678 49.4632 45.9598 49.1342C45.9687 48.6722 46.0198 48.2119 46.1126 47.7592C46.1257 47.6865 46.1672 47.622 46.2279 47.5798C46.2885 47.5377 46.3634 47.5214 46.4361 47.5345C46.5088 47.5476 46.5734 47.589 46.6155 47.6497C46.6576 47.7104 46.6739 47.7853 46.6608 47.858C46.5726 48.2749 46.5244 48.6992 46.517 49.1252C46.5062 49.5176 46.6092 49.9046 46.8136 50.2397C46.8633 50.26 46.9114 50.284 46.9574 50.3116C47.1777 50.4655 47.3593 50.6686 47.4877 50.9047C48.0221 51.7624 48.354 52.7306 48.4583 53.7358C48.4627 53.7966 48.4477 53.8572 48.4154 53.9089C48.383 53.9606 48.3351 54.0007 48.2786 54.0234H48.1797C48.1256 54.0359 48.0689 54.0314 48.0174 54.0105C47.9659 53.9896 47.9222 53.9533 47.8921 53.9065H47.9191ZM47.6225 55.1019C47.2949 55.3238 46.9175 55.4612 46.5239 55.502C46.1303 55.5428 45.7328 55.4856 45.3667 55.3355C45.2408 55.2816 45.115 55.2097 44.9982 55.1468C44.8727 55.0713 44.7403 55.0081 44.6027 54.9581C44.0045 54.8195 43.3784 54.8633 42.8052 55.0839L42.1581 55.2367C41.3895 55.3858 40.5979 55.3683 39.8366 55.1854C39.0754 55.0024 38.3622 54.6583 37.7453 54.1762C37.7161 54.1534 37.6917 54.125 37.6736 54.0926C37.6555 54.0603 37.644 54.0247 37.6398 53.9879C37.6356 53.951 37.6388 53.9138 37.6492 53.8782C37.6596 53.8426 37.677 53.8095 37.7004 53.7807C37.7523 53.7307 37.8216 53.7028 37.8936 53.7028C37.9657 53.7028 38.0349 53.7307 38.0869 53.7807C38.6396 54.2163 39.2798 54.5277 39.9637 54.6937C40.6477 54.8596 41.3594 54.8762 42.0503 54.7424L42.6704 54.5896C43.3607 54.3299 44.1147 54.2922 44.8274 54.4817C44.9853 54.5457 45.1385 54.6208 45.2858 54.7064C45.3936 54.7603 45.5015 54.8232 45.6093 54.8682C45.8887 54.9863 46.1935 55.0317 46.4952 55.0003C46.7969 54.9689 47.0858 54.8616 47.3349 54.6884C47.3957 54.6469 47.4705 54.6311 47.543 54.6446C47.6154 54.6581 47.6795 54.6997 47.7214 54.7603C47.743 54.823 47.7423 54.8913 47.7193 54.9535C47.6964 55.0158 47.6527 55.0682 47.5955 55.1019H47.6225ZM35.3816 60.1348C35.3413 60.1309 35.3023 60.1182 35.2674 60.0976C35.2325 60.0771 35.2024 60.0492 35.1794 60.0158C35.1564 59.9825 35.1409 59.9445 35.1341 59.9046C35.1272 59.8647 35.1292 59.8237 35.1398 59.7846C35.1504 59.7455 35.1694 59.7092 35.1955 59.6782C35.2216 59.6471 35.2541 59.6222 35.2908 59.6051C35.3275 59.5879 35.3676 59.579 35.4081 59.5789C35.4486 59.5788 35.4886 59.5876 35.5254 59.6045C37.3041 60.0787 39.1849 60.0003 40.9179 59.3799L41.4212 59.1821C41.7178 59.0653 42.0143 58.9485 42.3199 58.8586C43.1063 58.6247 43.9332 58.5598 44.7464 58.6682C45.5597 58.7766 46.3407 59.0559 47.0383 59.4877C47.0914 59.5307 47.1268 59.5918 47.1379 59.6592C47.1489 59.7266 47.1348 59.7958 47.0982 59.8535C47.0615 59.9112 47.005 59.9534 46.9393 59.9721C46.8736 59.9909 46.8033 59.9848 46.7417 59.9551C46.1114 59.5666 45.4065 59.3147 44.6727 59.2156C43.9389 59.1165 43.1925 59.1725 42.4817 59.3799C42.1941 59.4697 41.9065 59.5866 41.6279 59.6944L41.1066 59.9011C40.06 60.2769 38.9562 60.4685 37.8442 60.4673C37.0031 60.4698 36.1656 60.3579 35.3547 60.1348H35.3816ZM31.4631 86.5128C31.4632 86.549 31.4559 86.5848 31.4418 86.6181C31.4277 86.6515 31.407 86.6816 31.381 86.7067C31.355 86.7319 31.3242 86.7516 31.2905 86.7646C31.2567 86.7776 31.2207 86.7837 31.1845 86.7825C31.1479 86.7813 31.1119 86.7729 31.0786 86.7579C31.0452 86.7428 31.0151 86.7213 30.9901 86.6946C30.9651 86.6678 30.9455 86.6365 30.9326 86.6022C30.9197 86.5679 30.9137 86.5315 30.9149 86.4949C31.0407 81.5069 33.9616 75.9437 35.2109 73.7867C35.2498 73.7288 35.3091 73.6876 35.377 73.6714C35.4448 73.6551 35.5163 73.6648 35.5773 73.6987C35.6383 73.7326 35.6844 73.7882 35.7064 73.8544C35.7284 73.9206 35.7248 73.9926 35.6962 74.0563C34.438 76.1863 31.571 81.6507 31.4362 86.5128H31.4631ZM24.6776 106.779C24.6908 106.707 24.7322 106.642 24.7929 106.6C24.8536 106.558 24.9285 106.542 25.0012 106.555C25.0551 106.555 30.3307 107.525 33.674 105.782C37.0174 104.038 44.8993 100.111 48.7998 99.6614C48.8384 99.6514 48.8787 99.6498 48.9179 99.6567C48.9572 99.6636 48.9945 99.6789 49.0274 99.7014C49.0602 99.724 49.0879 99.7533 49.1084 99.7875C49.129 99.8216 49.1419 99.8598 49.1465 99.8994C49.151 99.939 49.147 99.9791 49.1347 100.017C49.1225 100.055 49.1022 100.09 49.0753 100.119C49.0484 100.149 49.0155 100.172 48.9788 100.187C48.9422 100.203 48.9026 100.211 48.8627 100.21C44.9442 100.668 36.4422 104.973 33.9347 106.276C32.1941 107.071 30.2931 107.453 28.3804 107.391C27.2116 107.395 26.0447 107.295 24.8933 107.094C24.8561 107.091 24.82 107.08 24.7872 107.062C24.7544 107.044 24.7257 107.02 24.7029 106.99C24.6801 106.96 24.6636 106.926 24.6546 106.89C24.6457 106.854 24.6443 106.816 24.6507 106.779H24.6776ZM22.7543 84.967C21.8556 78.3073 20.8041 70.7489 18.9616 64.5207C18.9507 64.4859 18.947 64.4492 18.9506 64.4129C18.9543 64.3766 18.9653 64.3414 18.9829 64.3095C19.0006 64.2776 19.0245 64.2496 19.0533 64.2271C19.0821 64.2047 19.1151 64.1884 19.1504 64.1791C19.1846 64.1681 19.2207 64.1639 19.2565 64.167C19.2923 64.1701 19.3272 64.1803 19.359 64.1971C19.3908 64.2138 19.419 64.2368 19.4418 64.2645C19.4646 64.2923 19.4817 64.3244 19.4919 64.3589C21.3433 70.6501 22.3858 78.2085 23.3026 84.8951C23.4643 86.0455 23.6171 87.1779 23.7789 88.2744C23.7892 88.347 23.7704 88.4208 23.7267 88.4797C23.683 88.5386 23.6177 88.5778 23.5452 88.5889H23.5003C23.4346 88.5895 23.3709 88.5661 23.3213 88.5231C23.2716 88.48 23.2394 88.4204 23.2307 88.3553C23.0419 87.2498 22.8892 86.1174 22.7274 84.967H22.7543Z" fill="white"/>
</svg>
