<svg width="77" height="91" viewBox="0 0 77 91" fill="none" xmlns="http://www.w3.org/2000/svg">
<path d="M60.3109 43.1145C60.5202 43.4751 60.7296 43.8357 60.9273 44.1962C59.4502 44.3241 57.9033 44.5684 56.3914 44.8359C56.624 44.3241 56.8798 43.7891 57.159 43.2309C57.6126 42.2772 58.0894 41.3002 58.4848 40.3348C59.1129 41.1955 59.6479 42.0911 60.2527 43.0099C60.2621 43.0495 60.2822 43.0857 60.3109 43.1145Z" fill="#990000"/>
<path d="M61.2299 43.4287C66.8887 44.9133 72.1817 47.546 76.78 51.163C76.78 52.2563 76.6869 53.3729 76.5939 54.501C72.8023 49.6395 65.1494 45.4641 61.6951 44.2661L61.2299 43.4287Z" fill="white"/>
<path d="M55.4843 40.4977C54.7749 40.7885 54.0537 41.0909 53.3094 41.3816C53.8095 39.4277 54.2166 37.5203 54.5888 35.7408C54.9609 36.113 55.3215 36.4851 55.6704 36.9038C56.1124 37.3691 56.5311 37.8576 56.9382 38.346C56.9332 38.3651 56.9332 38.3851 56.9382 38.4042L57.8105 39.5091C57.0661 39.8231 56.2636 40.1604 55.4843 40.4977Z" fill="#990000"/>
<path d="M59.7062 49.4998C60.7297 49.4998 61.7183 49.43 62.6953 49.3718C61.7067 50.3953 60.8344 51.3607 59.997 52.3144C59.6593 51.3677 59.271 50.4398 58.8339 49.5347L59.7062 49.4998Z" fill="#990000"/>
<path d="M22.1276 33.4378C23.2093 34.9614 24.3258 36.5432 25.4075 37.997C24.2444 38.5785 23.0814 39.1601 22.1858 39.7532C20.9618 40.5336 19.6599 41.1845 18.3012 41.6955C18.243 40.5325 18.5222 33.7867 18.9176 28.9717C20.0341 30.4022 21.0692 31.9375 22.1276 33.4378Z" fill="#990000"/>
<path d="M18.2198 27.9135C17.6848 28.1229 17.1614 28.3438 16.6381 28.5764L5.30988 4.95471C5.97282 4.61742 6.65901 4.29177 7.33359 3.97774L7.65924 3.82654C9.15959 7.15289 10.66 10.677 12.1138 14.108C14.091 18.7253 16.1031 23.4939 18.2198 27.9135Z" fill="white"/>
<path d="M62.1487 45.0918C66.0915 46.6503 73.3257 50.9071 76.5009 55.4314C76.4078 56.4316 76.2916 57.4435 76.152 58.4554C72.5719 53.54 68.0142 49.4179 62.7652 46.3479C62.5674 45.9292 62.3581 45.5105 62.1487 45.0918Z" fill="white"/>
<path d="M20.3716 27.1457L18.8363 27.6807C16.7196 23.2495 14.6958 18.4809 12.7419 13.8519C11.2881 10.4209 9.78773 6.87358 8.27576 3.55886C9.22947 3.15179 10.125 2.80288 10.8926 2.52374C12.6721 6.71076 14.3818 11.3746 16.0682 15.8757C17.4523 19.6207 18.8712 23.4821 20.3716 27.1457Z" fill="white"/>
<path d="M32.0137 35.6827C30.7541 35.9131 29.5167 36.2517 28.3152 36.6946C27.6871 36.9272 26.9777 37.2412 26.2566 37.5785C26.3962 34.2056 26.6171 30.3908 27.0824 26.7969C29.0247 29.9721 30.6762 32.9611 32.0137 35.6827Z" fill="#990000"/>
<path d="M25.6168 37.1712C24.6398 35.857 23.6396 34.4381 22.6626 33.054C21.4996 31.4374 20.3365 29.7742 19.1735 28.2506C21.5324 27.3817 23.971 26.7468 26.4542 26.3548C25.989 29.937 25.768 33.7751 25.6168 37.1712Z" fill="#990000"/>
<path d="M59.6828 48.8485H58.9617C59.8107 47.6855 60.6016 46.4177 61.4273 45.1151C61.6987 45.6191 61.9546 46.1309 62.195 46.6504C62.1884 46.681 62.1884 46.7127 62.195 46.7434C62.4896 47.3715 62.7688 48.0111 63.0324 48.6624C61.9042 48.7671 60.8458 48.802 59.6828 48.8485Z" fill="#990000"/>
<path d="M49.6459 39.1021C50.3786 38.5555 51.0881 38.067 51.8324 37.5436C52.5768 37.0203 53.1351 36.6364 53.8329 36.1247C53.4956 37.7879 53.1118 39.5325 52.6698 41.3236C51.8256 40.5784 50.9233 39.9017 49.9715 39.2998L49.6459 39.1021Z" fill="#990000"/>
<path d="M56.403 45.4989C57.8685 45.2431 59.3921 44.9988 60.8227 44.8593C59.9969 46.1851 59.1944 47.4413 58.3453 48.6159C57.7666 47.5357 57.1178 46.4945 56.403 45.4989Z" fill="#990000"/>
<path d="M55.74 41.1026C56.4146 40.8118 57.1124 40.5211 57.8219 40.2419C57.438 41.1375 56.9961 42.0563 56.5658 42.9402C56.275 43.5334 56.0075 44.1033 55.7633 44.6267C55.0495 43.7124 54.2722 42.8496 53.4371 42.0447L55.74 41.1026Z" fill="#990000"/>
<path d="M44.9354 28.3087C44.4469 28.0994 43.9468 27.89 43.4467 27.7039C44.8191 23.2727 46.7265 18.7135 48.5874 14.3171C49.7504 11.5723 50.9135 8.74607 51.9603 5.98962C53.2017 6.70188 54.4051 7.4783 55.5657 8.31574C51.6628 14.7826 48.1141 21.4568 44.9354 28.3087Z" fill="white"/>
<path d="M53.5303 33.8453L52.5649 33.0196C54.5726 31.122 56.7059 29.3618 58.9501 27.7509C62.194 25.6798 65.6198 23.9085 69.1851 22.459C69.8945 23.5174 70.5691 24.599 71.2088 25.7272C64.8184 27.183 58.7991 29.9472 53.5303 33.8453Z" fill="white"/>
<path d="M54.6005 34.8335L54.0306 34.2985C59.2514 30.4509 65.2168 27.7336 71.5462 26.3199L71.7905 26.7735C72.341 27.7737 72.8411 28.8088 73.2908 29.8789C65.8356 29.4718 58.0664 32.961 54.6005 34.8335Z" fill="white"/>
<path d="M48.9129 30.4024C48.5058 30.1581 48.0988 29.9139 47.6801 29.6929C50.1457 24.4592 54.1932 18.6439 60.055 11.9679C61.0785 12.8867 62.0671 13.852 63.0092 14.8174C57.4556 19.17 52.6879 24.4411 48.9129 30.4024Z" fill="white"/>
<path d="M24.3492 26.0758L23.0001 26.3898C20.81 17.9156 18.1344 9.57431 14.9866 1.40728C15.8473 1.20956 16.6963 1.03511 17.5453 0.883911C18.7084 4.93136 19.8133 9.22305 20.9182 13.3752C22.0231 17.5273 23.2094 21.9702 24.3492 26.0758Z" fill="white"/>
<path d="M73.4303 70.7838C72.9185 72.4005 72.337 73.9357 71.7089 75.4361C70.5459 68.4577 68.9525 60.7582 65.7773 55.3616C65.7773 55.1174 65.6843 54.8732 65.6262 54.6406C65.5099 54.1637 65.3936 53.6868 65.2656 53.2216C69.441 58.0832 72.6976 66.434 73.4303 70.7838Z" fill="white"/>
<path d="M56.0193 36.2757C55.7169 35.9501 55.4029 35.6244 55.0889 35.322C58.6362 33.4727 66.3124 30.0301 73.5699 30.5535C74.0351 31.7165 74.4538 32.8796 74.8259 34.1706C68.4786 33.4012 62.0394 34.122 56.0193 36.2757Z" fill="white"/>
<path d="M64.87 51.8142C64.6723 51.1745 64.463 50.5464 64.2303 49.9184C69.7549 54.245 73.1045 60.4906 74.9886 65.1312C74.6514 66.6548 74.2675 68.1203 73.8256 69.5276C72.709 64.5613 69.1966 56.2222 64.87 51.8142Z" fill="white"/>
<path d="M54.0071 35.1825C53.1115 35.857 52.2741 36.4386 51.46 37.0084C50.6458 37.5783 50.0876 37.9622 49.4014 38.4623C49.4014 37.811 49.4014 37.1248 49.4014 36.4153C49.4014 34.8335 49.4828 33.2052 49.4828 31.577C50.0062 31.9259 50.5179 32.2864 51.0064 32.6586C52.057 33.4382 53.059 34.281 54.0071 35.1825Z" fill="#990000"/>
<path d="M27.2104 25.5873C26.2799 21.4468 25.3378 17.0621 24.419 12.7937C23.5002 8.52522 22.6047 4.32658 21.6859 0.255874C22.8489 0.127938 24.012 0.0465224 25.175 0L29.1876 25.3779C28.5595 25.4361 27.885 25.5059 27.2104 25.5873Z" fill="white"/>
<path d="M26.559 25.6804C26.0473 25.7502 25.5239 25.8432 25.0005 25.9479C23.8375 21.8307 22.6744 17.446 21.5114 13.2124C20.3483 8.97889 19.2667 4.80352 18.1385 0.767701C19.0922 0.593242 20.0459 0.465305 20.9764 0.348999C21.9068 4.44297 22.8372 8.76954 23.7328 12.9566C24.6284 17.1436 25.6286 21.5516 26.559 25.6804Z" fill="white"/>
<path d="M30.7343 25.3547H29.8736L25.8494 0C27.2102 0 28.5942 3.54851e-06 29.9899 0.0581565C30.0481 8.01348 30.8738 17.2598 31.6531 25.3663L30.7343 25.3547Z" fill="white"/>
<path d="M33.991 25.506C33.4444 25.506 32.9094 25.4129 32.3627 25.3897C31.5835 17.2483 30.7577 8.04846 30.6879 0.0931396C31.851 0.162923 33.0954 0.267597 34.3399 0.418795C33.9561 7.10638 33.9677 14.2127 33.9794 21.098C33.991 22.5867 33.991 24.0521 33.991 25.506Z" fill="white"/>
<path d="M47.9477 14.0846C46.0868 18.4926 44.1794 23.0401 42.7954 27.4947L41.1671 26.948C42.1092 23.1564 43.3769 19.1788 44.5981 15.3174C45.8193 11.4561 47.0289 7.73427 47.9594 4.02411C49.1224 4.53585 50.2855 5.0825 51.3439 5.68729C50.3437 8.45537 49.1108 11.3165 47.9477 14.0846Z" fill="white"/>
<path d="M32.3627 34.9035C31.0252 32.2168 29.3969 29.3092 27.4895 26.2154C28.5658 26.0792 29.6495 26.0093 30.7344 26.0061C32.0991 26.0099 33.4623 26.0953 34.8168 26.262C33.7506 29.0662 32.9295 31.9575 32.3627 34.9035Z" fill="#990000"/>
<path d="M7.32187 68.1554C7.84525 66.783 8.25231 65.8293 8.40351 65.4687C8.60471 64.8713 8.96399 64.3396 9.44319 63.93C9.92239 63.5204 10.5036 63.2483 11.1251 63.1426C11.0088 63.5031 10.8576 63.8521 10.7064 64.201L10.5435 64.5964C10.1597 65.492 9.74102 66.3875 9.38048 67.2598C8.77568 68.5624 8.21741 69.7836 7.81034 70.9002C7.81034 71.2956 7.75219 71.6678 7.74056 72.0632C7.72893 72.4587 7.74057 72.7727 7.68242 73.0751C7.67782 73.1374 7.69062 73.1997 7.71937 73.2552C7.74812 73.3106 7.79168 73.357 7.84523 73.3891C7.89917 73.4232 7.96168 73.4414 8.0255 73.4414C8.08932 73.4414 8.15183 73.4232 8.20577 73.3891L8.40351 73.2496C8.91575 72.8928 9.4052 72.5044 9.86898 72.0865L9.95036 71.9818C10.5319 70.6908 11.6368 68.3066 13.1023 65.271C14.4747 62.4331 15.4284 60.9793 16.6845 60.8979C17.2874 60.9128 17.8793 61.0626 18.4167 61.3363C18.9541 61.61 19.4233 62.0007 19.7899 62.4796C20.4504 63.2699 21.0492 64.1098 21.581 64.9918C21.9066 65.492 22.2323 65.9921 22.5812 66.4806C23.44 67.6758 24.532 68.6847 25.7913 69.4464C22.8874 70.4791 19.7163 70.4791 16.8124 69.4464C15.7019 68.9832 14.814 68.1078 14.3351 67.0039C14.3101 66.946 14.2699 66.896 14.2187 66.8591C14.1675 66.8222 14.1072 66.7999 14.0444 66.7946C13.9833 66.7957 13.9235 66.8123 13.8706 66.8428C13.8177 66.8733 13.7735 66.9168 13.7419 66.9691C10.471 73.3129 7.52466 79.8189 4.91433 86.4619C3.53076 86.8182 2.11762 87.0479 0.692423 87.1481C0.635947 87.1355 0.586193 87.1024 0.552861 87.0551C0.535555 87.0229 0.526489 86.9869 0.526489 86.9504C0.526489 86.9139 0.535555 86.8779 0.552861 86.8457C2.09973 82.6471 5.48424 72.9239 7.32187 68.1554Z" fill="white"/>
<path d="M64.2306 54.8616L64.8122 54.1754C64.8703 54.3848 64.9169 54.5941 64.9634 54.8035C65.1607 55.6851 65.3006 56.5787 65.3821 57.4785C64.9052 57.4785 64.3004 57.6064 63.6026 57.6995L61.5905 57.967C62.3581 57.0598 63.3235 55.9433 64.2306 54.8616Z" fill="#990000"/>
<path d="M58.5895 27.2041C56.2839 28.8437 54.0995 30.6472 52.0531 32.6007L51.4483 32.1354L51.111 31.8796C55.6558 26.8749 60.8874 22.5401 66.6495 19.0045C67.4248 19.9582 68.146 20.9352 68.8128 21.9354C65.2541 23.3819 61.8325 25.1452 58.5895 27.2041Z" fill="white"/>
<path d="M66.2192 63.6309C66.2192 62.8749 66.2192 62.0957 66.2192 61.3048C67.7338 68.1516 68.3825 75.1616 68.1499 82.1701C68.0452 82.3329 67.9521 82.4958 67.8475 82.647C67.3473 83.4029 66.7891 83.81 66.2657 83.6704H66.1029C65.8218 83.5262 65.5911 83.2999 65.4416 83.0215C65.292 82.7432 65.2306 82.426 65.2655 82.1119C65.2655 78.6809 65.5214 75.5639 65.7656 72.5516C65.9284 70.3999 66.1029 68.1785 66.1843 65.9105C66.2308 65.1313 66.2308 64.3637 66.2192 63.6309Z" fill="white"/>
<path d="M50.5761 31.4956C50.2156 31.2397 49.8434 30.9954 49.4712 30.7512C53.201 24.8354 57.9223 19.6065 63.4279 15.2941C64.0443 15.9454 64.5909 16.5968 65.1957 17.2597C65.533 17.6551 65.8703 18.0506 66.196 18.4228C60.397 22.0194 55.138 26.4209 50.5761 31.4956Z" fill="white"/>
<path d="M47.0987 29.3788C46.5869 29.1113 46.0636 28.8438 45.5286 28.5996C48.6882 21.7811 52.2135 15.1381 56.0891 8.69965C56.5195 9.0253 56.9498 9.35097 57.3685 9.68825C58.1129 10.2814 58.834 10.8513 59.5551 11.5375C53.67 18.2484 49.5876 24.0869 47.0987 29.3788Z" fill="white"/>
<path d="M22.3604 26.5527L20.988 26.9482C19.4993 23.2845 18.0571 19.3999 16.673 15.6432C14.9982 11.1538 13.2769 6.50159 11.4974 2.31458L12.2651 2.08197L14.3237 1.55859C17.4817 9.72825 20.1651 18.0735 22.3604 26.5527Z" fill="white"/>
<path d="M4.72841 5.25708L16.045 28.8439L15.3123 29.1928L14.5214 29.6115L2.71631 6.42014C3.33273 6.0247 4.01895 5.62926 4.72841 5.25708Z" fill="white"/>
<path d="M38.0267 4.57077C37.2707 11.5491 36.4798 18.8764 35.9565 25.7501C35.5029 25.6803 35.0609 25.6221 34.6073 25.5756V21.0978C34.6073 14.2358 34.6073 7.14113 34.9562 0.500061C36.1193 0.647382 37.2823 0.833484 38.4454 1.05834L38.0267 4.57077Z" fill="white"/>
<path d="M71.2669 76.4712C70.554 78.0462 69.7462 79.5765 68.8478 81.0536C69.0289 73.4622 68.1242 65.8839 66.1611 58.5484C66.1611 58.1297 66.1611 57.711 66.0565 57.304C68.7548 62.7005 70.1737 69.9232 71.2088 76.4014C71.2252 76.427 71.2447 76.4505 71.2669 76.4712Z" fill="white"/>
<path d="M4.08862 90.1835C12.3696 90.9046 27.8732 88.1365 32.2579 85.6592C33.6803 84.9966 34.889 83.9491 35.7471 82.6353C36.3437 81.3769 36.6875 80.0136 36.7589 78.6227C36.8375 77.8407 36.9618 77.064 37.1311 76.2966C37.334 75.3592 37.7883 74.4947 38.4454 73.796C38.7621 73.4642 39.1523 73.2113 39.5846 73.0578C40.0169 72.9043 40.4792 72.8544 40.9343 72.9121C42.2602 73.1564 43.2604 74.4706 43.8303 76.8083C44.0048 77.5294 44.1793 78.2622 44.3421 78.9833C44.6956 80.898 45.2411 82.7722 45.9704 84.5776C46.4555 85.8699 47.2329 87.0325 48.2416 87.9747C49.2504 88.9169 50.4633 89.6131 51.7857 90.0091C51.928 90.0338 52.0736 90.0338 52.216 90.0091C52.4747 89.9531 52.7035 89.8033 52.8582 89.5885C53.0128 89.3736 53.0824 89.1091 53.0534 88.846C53.0078 88.4721 52.885 88.1117 52.6928 87.7876L52.5998 87.6248C51.9275 86.0635 51.7608 84.331 52.123 82.6702C52.4071 81.3312 52.8401 80.0282 53.414 78.7855L53.4953 78.5878C51.1692 78.1808 45.2725 73.0982 44.3188 72.2026C38.3577 66.6837 32.7338 60.8113 27.4777 54.6172L27.1754 54.2683C24.832 51.5765 22.734 48.6806 20.9064 45.6151C20.4258 45.8035 19.9015 45.8519 19.3945 45.7547H19.1967C18.6837 45.6355 18.2131 45.378 17.836 45.0103C17.3116 46.1696 16.8648 47.3624 16.4984 48.5809C16.0376 50.2086 15.3733 51.7717 14.5213 53.2331C14.3352 53.5006 14.1491 53.7682 13.9397 54.0473C14.3471 54.5426 14.6234 55.1324 14.7433 55.7624C14.8632 56.3924 14.8229 57.0424 14.6259 57.6528C16.0535 56.6724 17.7946 56.2578 19.5108 56.4897C21.6521 56.8641 23.5878 57.995 24.9655 59.6765C25.5445 60.4276 26.073 61.2163 26.5473 62.0375C27.943 64.3636 29.5131 66.9107 32.3626 68.004C32.4393 68.0313 32.503 68.0863 32.5412 68.1582C32.5794 68.2301 32.5892 68.3138 32.5688 68.3926C32.5484 68.4714 32.4992 68.5397 32.4308 68.5841C32.3625 68.6284 32.2801 68.6455 32.1997 68.632H32.13C29.0246 67.469 27.3847 64.7591 25.9425 62.3864C25.479 61.5828 24.9703 60.8062 24.4189 60.0603C23.1641 58.4936 21.3748 57.4457 19.3945 57.1178C18.4719 56.974 17.5284 57.0462 16.6384 57.3287C15.7484 57.6112 14.9361 58.0964 14.2654 58.746C14.2143 58.7966 14.1483 58.8295 14.0772 58.84C14.0061 58.8505 13.9335 58.8379 13.87 58.8042C13.8051 58.7663 13.7542 58.7084 13.7249 58.6393C13.6956 58.5701 13.6893 58.4934 13.7071 58.4204C14.1258 56.9666 14.3701 55.4778 13.4629 54.4776V54.5358C12.7968 55.3258 12.234 56.1973 11.7881 57.1294C11.5359 58.2582 11.5598 59.4312 11.8578 60.5488C11.9337 60.87 11.9843 61.1966 12.0091 61.5258C12.0198 62.5539 11.7761 63.5688 11.2996 64.4799L11.1368 64.8637C10.7529 65.7709 10.3226 66.6781 9.91552 67.5504C9.31073 68.8298 8.75247 70.0394 8.39192 71.0396C8.39192 71.3536 8.39193 71.7142 8.33378 72.0863C8.33378 72.2026 8.33378 72.3189 8.33378 72.4353C8.64781 72.2026 8.99671 71.9468 9.334 71.6444C9.92716 70.3417 11.0204 67.9807 12.4626 64.98C13.9048 61.9793 14.9981 60.3278 16.6031 60.2464C17.3048 60.2538 17.9956 60.4198 18.6241 60.732C19.2525 61.0441 19.8021 61.4944 20.2319 62.0491C20.9139 62.8636 21.5358 63.7266 22.0928 64.6311C22.4107 65.1351 22.7363 65.6236 23.0697 66.0966C24.0259 67.4063 25.2615 68.4869 26.6869 69.2601C26.7383 69.2964 26.7793 69.3456 26.8059 69.4028C26.8324 69.4599 26.8435 69.523 26.8381 69.5858C26.8316 69.6471 26.8072 69.7052 26.7678 69.7528C26.7285 69.8004 26.6761 69.8353 26.6171 69.8533C23.3934 71.1618 19.8022 71.2445 16.5217 70.0859C15.4593 69.6388 14.5671 68.8648 13.9746 67.8761C10.3015 75.1387 7.00189 82.5842 4.08862 90.1835ZM8.99673 87.5434C8.99353 87.5002 8.99925 87.4569 9.01359 87.4161C9.02793 87.3752 9.05055 87.3378 9.08004 87.3061C9.10952 87.2745 9.14526 87.2492 9.18496 87.232C9.22466 87.2148 9.26748 87.206 9.31075 87.2061C15.3478 86.9507 21.3368 86.0144 27.1637 84.4148C27.247 84.3885 27.3373 84.3965 27.4147 84.4368C27.4922 84.4772 27.5504 84.5466 27.5766 84.6299C27.6028 84.7132 27.5949 84.8035 27.5545 84.8809C27.5142 84.9584 27.4447 85.0166 27.3614 85.0428C21.4774 86.6567 15.4299 87.6009 9.334 87.8574H9.26421C9.18923 87.8462 9.12087 87.8082 9.0717 87.7505C9.02253 87.6928 8.9959 87.6192 8.99673 87.5434Z" fill="white"/>
<path d="M0.0296186 8.68812C0.624528 7.93074 1.34913 7.28492 2.16968 6.7807L13.9514 29.9139L12.2185 30.9025L10.0552 27.1459C6.62419 21.2491 3.07686 15.1431 0.0180121 8.88583C0.0044349 8.85425 -0.00157637 8.81992 0.000442709 8.7856C0.00246179 8.75128 0.0124314 8.7179 0.0296186 8.68812Z" fill="white"/>
<path d="M22.5115 40.3116C24.4455 39.1614 26.4633 38.1583 28.5478 37.3109C32.0261 36.1392 35.722 35.7588 39.366 36.1975C43.0099 36.6361 46.51 37.8827 49.6108 39.8464C54.9495 43.4982 58.742 49.0025 60.2528 55.2918C60.4156 55.9315 60.6482 57.0829 60.8343 58.0715C60.2063 58.1646 59.2177 58.2692 58.5082 58.3158C58.4152 57.711 58.2989 57.1527 58.1825 56.6758C57.5859 54.2018 56.6587 51.8194 55.4261 49.5928C54.6245 48.0899 53.657 46.6816 52.5417 45.3942C50.5383 43.2026 48.0866 41.4679 45.3533 40.308C42.62 39.148 39.669 38.59 36.7008 38.6717C30.9858 38.878 25.4971 40.9582 21.081 44.5917C20.8388 44.7655 20.5627 44.8863 20.2707 44.946C19.9786 45.0058 19.6773 45.0032 19.3863 44.9384C19.0954 44.8736 18.8214 44.7481 18.5823 44.5701C18.3432 44.3921 18.1444 44.1656 17.9989 43.9055C17.8348 43.3906 17.7562 42.8523 17.7662 42.3121C18.6269 42.4633 20.1505 41.7073 22.5115 40.3116Z" fill="#990000"/>
<path d="M15.6029 29.786C16.4791 29.3518 17.3746 28.9641 18.2896 28.623C17.8941 33.345 17.6034 40.1256 17.6383 41.6376C16.6846 39.8698 15.8588 38.1484 15.0679 36.5318C14.277 34.9151 13.4745 33.2403 12.5441 31.4957C13.5327 30.891 14.8586 30.1582 15.6029 29.786Z" fill="#990000"/>
<path d="M53.7629 77.9481C56.5426 71.6675 57.9964 66.4454 58.1825 61.7699C58.15 60.1046 57.9395 58.4475 57.5545 56.8269C56.9782 54.3884 56.0703 52.0404 54.8562 49.8486C54.0857 48.385 53.1491 47.0152 52.0648 45.7662C50.1219 43.648 47.7469 41.9714 45.1004 40.8498C42.4539 39.7282 39.5974 39.1877 36.7241 39.2647C31.1613 39.4902 25.8257 41.5329 21.5345 45.08C21.523 45.0972 21.5169 45.1175 21.5169 45.1382C21.5169 45.1589 21.523 45.1791 21.5345 45.1963C23.3395 48.22 25.4102 51.0769 27.722 53.7332L28.0244 54.0821C33.2629 60.2588 38.8714 66.112 44.819 71.6094C47.9476 74.738 52.9255 78.1691 53.7629 77.9481ZM50.6343 71.621C50.603 71.6808 50.5533 71.7289 50.4925 71.7582C50.4318 71.7876 50.3632 71.7966 50.297 71.7839H50.1923C50.1543 71.7623 50.1211 71.7332 50.0946 71.6985C50.0681 71.6638 50.0488 71.6241 50.038 71.5817C50.0271 71.5394 50.0249 71.4953 50.0314 71.4521C50.0379 71.4089 50.0531 71.3675 50.076 71.3303C51.2968 69.169 52.0125 66.7594 52.1695 64.2821C52.1664 64.2393 52.1717 64.1964 52.1852 64.1556C52.1987 64.1149 52.2201 64.0772 52.2482 64.0448C52.2763 64.0124 52.3105 63.9858 52.3489 63.9667C52.3873 63.9475 52.4291 63.9362 52.4719 63.9332C52.515 63.9284 52.5587 63.9325 52.6001 63.9454C52.6415 63.9582 52.6798 63.9796 52.7126 64.008C52.7454 64.0364 52.7719 64.0713 52.7906 64.1105C52.8092 64.1496 52.8195 64.1922 52.8208 64.2356C52.6664 66.8354 51.9099 69.3637 50.611 71.621H50.6343ZM52.03 74.645C51.9957 74.7014 51.9451 74.7461 51.8848 74.7731C51.8246 74.8001 51.7576 74.8081 51.6927 74.7962C51.6382 74.7914 51.586 74.7724 51.5411 74.7413C51.4963 74.7101 51.4603 74.6677 51.4368 74.6184C51.4133 74.5691 51.4031 74.5144 51.4072 74.46C51.4113 74.4055 51.4295 74.353 51.46 74.3077C53.5398 70.6412 54.7532 66.5474 55.0074 62.3398C55.0042 62.2961 55.0099 62.2522 55.0241 62.2107C55.0384 62.1693 55.0608 62.1311 55.0901 62.0985C55.1194 62.066 55.1551 62.0396 55.1948 62.0211C55.2345 62.0026 55.2776 61.9924 55.3214 61.9909C55.3645 61.9861 55.4082 61.9902 55.4496 62.0031C55.491 62.0159 55.5293 62.0373 55.5621 62.0657C55.5949 62.0941 55.6214 62.129 55.6401 62.1682C55.6587 62.2073 55.669 62.2499 55.6703 62.2933C55.3992 66.6347 54.1465 70.8579 52.0067 74.645H52.03Z" fill="white"/>
<path d="M38.0151 35.3686C36.3117 35.2459 34.6002 35.3044 32.9092 35.543C33.4386 32.6284 34.2168 29.7646 35.2354 26.9829C35.9216 28.681 36.4682 30.4721 37.0032 32.1934C37.3289 33.2402 37.6661 34.3102 38.0151 35.3686Z" fill="#990000"/>
<path d="M44.0166 15.1313C42.7838 18.9811 41.516 22.9471 40.5274 26.7619L39.1667 26.4014C39.8878 19.7603 41.1904 11.8515 43.1211 2.25629C44.5633 2.69825 45.9706 3.20999 47.3313 3.77989C46.4474 7.50168 45.2146 11.3747 44.0166 15.1313Z" fill="white"/>
<path d="M46.5055 33.8101L44.5749 36.2176C44.4004 35.1243 44.2725 34.0194 44.1445 32.9494C43.9584 31.4607 43.7724 29.9254 43.4932 28.4484C45.3082 29.1591 47.0559 30.0311 48.7153 31.0536L46.5055 33.8101Z" fill="#990000"/>
<path d="M48.8782 31.9026C48.8782 33.4146 48.8782 34.9266 48.7968 36.3921C48.7968 37.148 48.7968 37.8808 48.7968 38.567C47.572 37.8834 46.292 37.3037 44.9703 36.834L47.0522 34.2288L48.8782 31.9026Z" fill="#990000"/>
<path d="M39.0618 1.18634C40.2248 1.44221 41.3879 1.73299 42.551 2.07028C40.6086 11.6771 39.3177 19.5976 38.585 26.2503C37.9336 26.0991 37.2707 25.9711 36.6194 25.8548C37.1428 18.9695 37.9336 11.6888 38.6896 4.65227L39.0618 1.18634Z" fill="white"/>
<path d="M42.5744 28.0995C41.9464 29.2625 41.2137 30.4256 40.4926 31.67C39.7715 32.9145 39.1667 33.8915 38.5735 34.9499C38.2479 33.9729 37.9338 32.9727 37.6314 32.0073C37.0615 30.1348 36.4684 28.2157 35.7124 26.3781C38.0508 26.7247 40.3493 27.3013 42.5744 28.0995Z" fill="#990000"/>
<path d="M42.9 28.8672C43.1559 30.228 43.3187 31.6469 43.4932 33.0193C43.6211 34.1824 43.7607 35.3454 43.9584 36.5085C42.3562 36.0011 40.7086 35.6505 39.0386 35.4617C39.6551 34.2987 40.3645 33.1356 41.0623 31.9726C41.7602 30.8095 42.3301 29.8907 42.9 28.8672Z" fill="#990000"/>
<path d="M59.7061 40.9396C59.4851 40.6139 59.2758 40.2999 59.0432 39.9858C63.2651 39.9858 70.4644 40.4394 76.489 42.9168V43.0098C76.5034 43.0387 76.5108 43.0706 76.5108 43.1028C76.5108 43.1351 76.5034 43.167 76.489 43.1959C76.5937 44.2659 76.6635 45.3476 76.71 46.4641C71.1041 42.5795 62.509 41.2768 59.7061 40.9396Z" fill="white"/>
<path d="M63.8002 48.767C63.6257 48.3018 63.428 47.8366 63.2303 47.383C68.2694 50.4931 72.6224 54.5968 76.0239 59.4439C75.803 61.0141 75.5354 62.526 75.233 64.0031C73.1628 59.1648 69.5806 52.9308 63.8002 48.767Z" fill="white"/>
<path d="M60.5319 52.733C61.4158 51.7211 62.3463 50.7093 63.4047 49.6044C63.7187 50.4185 63.9978 51.2559 64.2653 52.105C64.3584 52.4306 64.4631 52.7563 64.5561 53.0935C63.7768 53.0005 62.9976 52.9307 62.23 52.8493C61.6601 52.8144 61.1018 52.733 60.5319 52.733Z" fill="#990000"/>
<path d="M57.38 37.8227C57.0893 37.4738 56.7869 37.1249 56.4845 36.7876C62.4302 34.7119 68.7788 34.0547 75.0237 34.8685C75.3261 35.9618 75.5936 37.0784 75.8145 38.2182C69.7899 36.4503 63.4163 37.0551 57.38 37.8227Z" fill="white"/>
<path d="M60.1829 41.6609C63.4744 42.0912 71.5925 43.4985 76.7914 47.2785C76.7914 48.2787 76.7914 49.2789 76.7914 50.3024C72.04 46.6421 66.5714 44.0227 60.7412 42.6146L60.1829 41.6609Z" fill="white"/>
<path d="M58.5663 39.3348C58.3337 39.0246 58.1011 38.7223 57.8685 38.4276C63.8233 37.6716 70.0922 37.1599 75.9657 38.951C75.9713 38.9778 75.9713 39.0056 75.9657 39.0324C76.1518 40.0675 76.3029 41.1143 76.4309 42.1727C70.1155 39.6721 62.6719 39.3115 58.5663 39.3348Z" fill="white"/>
<path d="M61.3462 57.2689C61.2066 56.5361 61.0322 55.6755 60.881 55.1172C60.7298 54.559 60.5553 53.9542 60.3576 53.3494L62.1487 53.5122L64.3585 53.7332L63.7654 54.431C62.9163 55.408 62.0556 56.4082 61.3462 57.2689Z" fill="#990000"/>
</svg>
