<svg width="52" height="51" viewBox="0 0 52 51" fill="none" xmlns="http://www.w3.org/2000/svg">
<g clip-path="url(#clip0_35_838)">
<path d="M15.783 32.8003H0V34.2019H15.783V32.8003Z" fill="white"/>
<path d="M3.93469 34.2021L11.3514 0.103516H18.1797L10.5822 34.2021H3.93469Z" fill="white"/>
<path d="M22.1598 0.103516H6.82886V1.46019H22.1598V0.103516Z" fill="white"/>
<path d="M34.2794 32.8003H18.4963V34.2019H34.2794V32.8003Z" fill="white"/>
<path d="M22.431 34.2021L29.8478 0.103516H36.6766L29.079 34.2021H22.431Z" fill="white"/>
<path d="M40.6562 0.103516H25.3252V1.46019H40.6562V0.103516Z" fill="white"/>
<path d="M14.0112 15.3516H51.9999L51.911 17.8671C51.911 17.8671 35.652 30.7575 32.562 50.9077H24.9395C24.9395 50.9077 26.1208 37.6412 48.5323 17.6213L13.719 17.6448L14.0112 15.3516Z" fill="white"/>
<path d="M44.0702 37.6165L48.0353 41.5815L52.0003 37.6165L48.0353 33.6514L44.0702 37.6165Z" fill="#990000"/>
</g>
<defs>
<clipPath id="clip0_35_838">
<rect width="52" height="51" fill="white"/>
</clipPath>
</defs>
</svg>
