<svg xmlns="http://www.w3.org/2000/svg" width="720" height="48" viewBox="0 0 720 48" fill="none"><g clip-path="url(#clip0_57_295)"><path d="M30.8355 22.038H1.29533V40.7446H34.8392V36.724H5.31589V26.0418H34.8392V7.35205H0V11.3558H30.8355V22.038Z" fill="#990000"></path><path d="M28.2785 14.7031H0V18.7069H28.2785V14.7031Z" fill="#990000"></path><path d="M8.29346 29.3721V33.3926H33.9981H38.0019H64.2449V29.3721H38.0019H33.9981H8.29346Z" fill="#990000"></path><path d="M69.9981 7.35205H37.1775V26.0418H66.7009V36.724H37.1775V40.7446H70.7046V22.038H41.1812V11.3558H69.9981H74.0018H102.835V22.038H73.2952V40.7446H106.839V36.724H77.3158V26.0418H106.839V7.35205H74.0018H69.9981Z" fill="#990000"></path><path d="M100.279 18.7069V14.7031H74.0021H69.9983H43.7217V18.7069H69.9983H74.0021H100.279Z" fill="#990000"></path><path d="M80.2935 29.3721V33.3926H105.998H110.002H136.245V29.3721H110.002H105.998H80.2935Z" fill="#990000"></path><path d="M141.998 7.35205H109.177V26.0418H138.701V36.724H109.177V40.7446H142.705V22.038H113.181V11.3558H141.998H146.019H174.835V22.038H145.295V40.7446H178.839V36.724H149.316V26.0418H178.839V7.35205H146.019H141.998Z" fill="#990000"></path><path d="M172.279 18.7069V14.7031H146.019H141.998H115.722V18.7069H141.998H146.019H172.279Z" fill="#990000"></path><path d="M152.293 29.3721V33.3926H177.998H182.002H208.245V29.3721H182.002H177.998H152.293Z" fill="#990000"></path><path d="M213.998 7.35205H181.177V26.0418H210.701V36.724H181.177V40.7446H214.704V22.038H185.181V11.3558H213.998H218.002H246.835V22.038H217.295V40.7446H250.839V36.724H221.316V26.0418H250.839V7.35205H218.002H213.998Z" fill="#990000"></path><path d="M244.278 18.7069V14.7031H218.002H213.998H187.721V18.7069H213.998H218.002H244.278Z" fill="#990000"></path><path d="M224.293 29.3721V33.3926H249.998H254.002H280.245V29.3721H254.002H249.998H224.293Z" fill="#990000"></path><path d="M285.998 7.35205H253.178V26.0418H282.701V36.724H253.178V40.7446H286.705V22.038H257.181V11.3558H285.998H290.019H318.836V22.038H289.295V40.7446H322.839V36.724H293.316V26.0418H322.839V7.35205H290.019H285.998Z" fill="#990000"></path><path d="M316.278 18.7069V14.7031H290.019H285.998H259.721V18.7069H285.998H290.019H316.278Z" fill="#990000"></path><path d="M296.293 29.3721V33.3926H321.998H326.002H352.245V29.3721H326.002H321.998H296.293Z" fill="#990000"></path><path d="M357.998 7.35205H325.178V26.0418H354.701V36.724H325.178V40.7446H358.705V22.038H329.181V11.3558H357.998H362.002H390.836V22.038H361.295V40.7446H394.839V36.724H365.316V26.0418H394.839V7.35205H362.002H357.998Z" fill="#990000"></path><path d="M388.278 18.7069V14.7031H362.002H357.998H331.721V18.7069H357.998H362.002H388.278Z" fill="#990000"></path><path d="M368.293 29.3721V33.3926H393.998H398.002H424.245V29.3721H398.002H393.998H368.293Z" fill="#990000"></path><path d="M429.998 7.35205H397.177V26.0418H426.701V36.724H397.177V40.7446H430.705V22.038H401.181V11.3558H429.998H434.002H462.835V22.038H433.295V40.7446H466.839V36.724H437.316V26.0418H466.839V7.35205H434.002H429.998Z" fill="#990000"></path><path d="M460.279 18.7069V14.7031H434.002H429.998H403.722V18.7069H429.998H434.002H460.279Z" fill="#990000"></path><path d="M440.293 29.3721V33.3926H465.998H470.002H496.245V29.3721H470.002H465.998H440.293Z" fill="#990000"></path><path d="M501.998 7.35205H469.177V26.0418H498.701V36.724H469.177V40.7446H502.705V22.038H473.181V11.3558H501.998H506.019H534.835V22.038H505.295V40.7446H538.839V36.724H509.316V26.0418H538.839V7.35205H506.019H501.998Z" fill="#990000"></path><path d="M532.279 18.7069V14.7031H506.019H501.998H475.722V18.7069H501.998H506.019H532.279Z" fill="#990000"></path><path d="M512.293 29.3721V33.3926H537.998H542.002H568.245V29.3721H542.002H537.998H512.293Z" fill="#990000"></path><path d="M573.998 7.35205H541.177V26.0418H570.701V36.724H541.177V40.7446H574.704V22.038H545.181V11.3558H573.998H578.002H606.835V22.038H577.295V40.7446H610.839V36.724H581.316V26.0418H610.839V7.35205H578.002H573.998Z" fill="#990000"></path><path d="M604.278 18.7069V14.7031H578.002H573.998H547.721V18.7069H573.998H578.002H604.278Z" fill="#990000"></path><path d="M584.293 29.3721V33.3926H609.998H614.019H640.245V29.3721H614.019H609.998H584.293Z" fill="#990000"></path><path d="M645.998 7.35205H613.178V26.0418H642.701V36.724H613.178V40.7446H646.705V22.038H617.181V11.3558H645.998H650.002H678.836V22.038H649.295V40.7446H682.839V36.724H653.316V26.0418H682.839V7.35205H650.002H645.998Z" fill="#990000"></path><path d="M676.278 18.7069V14.7031H650.002H645.998H619.721V18.7069H645.998H650.002H676.278Z" fill="#990000"></path><path d="M656.293 29.3721V33.3926H681.998H686.019H712.245V29.3721H686.019H681.998H656.293Z" fill="#990000"></path><path d="M685.178 26.0418H714.701V36.724H685.178V40.7446H718.705V22.038H689.181V11.3558H720V7.35205H685.178V26.0418Z" fill="#990000"></path><path d="M720 14.7031H691.721V18.7069H720V14.7031Z" fill="#990000"></path><path d="M650.002 0H645.998H578.002H573.998H506.019H501.998H434.002H429.998H362.002H357.998H290.019H285.998H218.002H213.998H146.019H141.998H74.0019H69.9981H0V4.00374H69.9981H74.0019H141.998H146.019H213.998H218.002H285.998H290.019H357.998H362.002H429.998H434.002H501.998H506.019H573.998H578.002H645.998H650.002H720V0H650.002Z" fill="#990000"></path><path d="M645.998 44.0747H578.002H573.998H506.019H501.998H434.002H429.998H362.002H357.998H290.019H285.998H218.002H213.998H146.019H141.998H74.0019H69.9981H0V48.0784H69.9981H74.0019H141.998H146.019H213.998H218.002H285.998H290.019H357.998H362.002H429.998H434.002H501.998H506.019H573.998H578.002H645.998H650.002H720V44.0747H650.002H645.998Z" fill="#990000"></path></g><defs><clipPath id="clip0_57_295"><rect width="720" height="48" fill="white"></rect></clipPath></defs></svg>